<svg xmlns="http://www.w3.org/2000/svg" width="85" height="80" viewBox="0 0 85 80">
  <g id="Grupo_1100578" data-name="Grupo 1100578" transform="translate(-1325 -444)">
    <g id="Grupo_1098839" data-name="Grupo 1098839" transform="translate(1325 444)">
      <rect id="Rectángulo_400904" data-name="Rectángulo 400904" width="85" height="80" rx="12" fill="#3a1d71"/>
    </g>
    <g id="Page-1" transform="translate(1338 454.004)">
      <g id="_015---Email" data-name="015---Email" transform="translate(0 -1)">
        <g id="Icons" transform="translate(1 1)">
          <path id="Shape" d="M58,20,34.53,39.5l-1.07.89a7,7,0,0,1-8.92,0l-1.07-.89L0,20l9-6.38L19.76,6l3.32-2.36c.01,0,.02-.01.03-.01l1.43-1.02a6.974,6.974,0,0,1,8.92,0L38.24,6,49,13.62Z" fill="#fec108"/>
          <path id="Shape-2" data-name="Shape" d="M56,22,32.53,41.5l-.05.04a6.95,6.95,0,0,1-6.94-1.15l-1.07-.89L1,20l9-6.38L20.76,6l3.32-2.36c.01,0,.02-.01.03-.01a6.96,6.96,0,0,1,7.35.98L36.24,8,47,15.62Z" fill="#ffdc00"/>
          <path id="Shape-3" data-name="Shape" d="M49,7V48H9V7a1.063,1.063,0,0,1,1.11-1H47.89A1.063,1.063,0,0,1,49,7Z" fill="#cfd8dc"/>
          <path id="Shape-4" data-name="Shape" d="M46,7V48H9V7a1.063,1.063,0,0,1,1.11-1H44.89A1.063,1.063,0,0,1,46,7Z" fill="#f5f5f5"/>
          <path id="Shape-5" data-name="Shape" d="M58,20V57a1.956,1.956,0,0,1-.65,1.46A1.931,1.931,0,0,1,56,59H2a1.931,1.931,0,0,1-1.35-.54A1.956,1.956,0,0,1,0,57V20L23.47,39.5l1.07.89a7.008,7.008,0,0,0,8.92,0l1.07-.89L55,22.49Z" fill="#f57c00"/>
          <path id="Shape-6" data-name="Shape" d="M55,22.49V57a1.956,1.956,0,0,1-.65,1.46A1.931,1.931,0,0,1,53,59H2a1.931,1.931,0,0,1-1.35-.54A1.956,1.956,0,0,1,0,57V19L20.47,37.11l1.07.89c1.71,1.42,3.92,3.291,5.96,2.831,2.04.46,4.25.979,5.96-.441l1.07-.89Z" fill="#ff9801"/>
          <path id="Shape-7" data-name="Shape" d="M57.35,58.46A1.931,1.931,0,0,1,56,59H2a1.931,1.931,0,0,1-1.35-.54L21.99,40.73l1.48-1.23,1.07.89a7.005,7.005,0,0,0,8.47.34c.15-.11.3-.22.45-.34l1.07-.89Z" fill="#d84315"/>
          <path id="Shape-8" data-name="Shape" d="M54.35,58.46A1.931,1.931,0,0,1,53,59H2a1.931,1.931,0,0,1-1.35-.54L21.99,40.73a6.93,6.93,0,0,0,5.51,1.1,6.93,6.93,0,0,0,5.51-1.1Z" fill="#ff5722"/>
        </g>
        <g id="Layer_10">
          <path id="Shape-9" data-name="Shape" d="M31.238,34.99a22.112,22.112,0,0,1-6.6-1.042A9.989,9.989,0,0,1,18,26.385c-.753-3.626.619-7.461,3.764-10.52q.506-.493,1.052-.944a12.746,12.746,0,0,1,11.605-2.5,9.717,9.717,0,0,1,6.757,8.937,9.206,9.206,0,0,1-2.152,6.506,5.058,5.058,0,0,1-4.946,1.816A2.857,2.857,0,0,1,32.24,28.4a2.715,2.715,0,0,1-.264-2.11c.875-3.306,1.764-8.329,1.772-8.38a1,1,0,0,1,1.97.348c-.037.209-.913,5.157-1.809,8.544a.722.722,0,0,0,.044.569.89.89,0,0,0,.58.357,3.106,3.106,0,0,0,2.985-1.185,7.2,7.2,0,0,0,1.66-5.087,7.735,7.735,0,0,0-5.355-7.13A10.7,10.7,0,0,0,24.09,16.46c-.321.267-.634.546-.934.838-1.555,1.512-4.037,4.65-3.2,8.68a8.1,8.1,0,0,0,5.285,6.064c4.69,1.5,11.429,1.676,14.98-2.739a1,1,0,0,1,1.559,1.253c-2.626,3.265-6.621,4.434-10.541,4.434Z"/>
          <path id="Shape-10" data-name="Shape" d="M27.815,29.805a4.6,4.6,0,0,1-2.919-.982c-1.919-1.536-1.972-4.2-1.434-6.022a9.162,9.162,0,0,1,.726-1.745,8.2,8.2,0,0,1,3.435-3.565,4.729,4.729,0,0,1,5.563.9,7.484,7.484,0,0,1,1.594,2.746A1,1,0,0,1,32.9,21.8a5.579,5.579,0,0,0-1.156-2.036,2.707,2.707,0,0,0-3.234-.483,6.269,6.269,0,0,0-2.565,2.733,7.16,7.16,0,0,0-.563,1.355c-.389,1.315-.3,3.03.769,3.889,1.172.941,3.15.543,4.263-.417a11.152,11.152,0,0,0,2.114-2.571,1,1,0,1,1,1.7,1.055,13.128,13.128,0,0,1-2.5,3.027,6.144,6.144,0,0,1-3.905,1.448Z"/>
          <path id="Shape-11" data-name="Shape" d="M57,61H3a3,3,0,0,1-3-3V21a1,1,0,0,1,1.639-.769L26.176,40.624a6,6,0,0,0,7.649,0L58.36,20.231A1,1,0,0,1,60,21V58A3,3,0,0,1,57,61ZM2,23.131V58a1,1,0,0,0,1,1H57a1,1,0,0,0,1-1V23.131L35.1,42.161a8.009,8.009,0,0,1-10.2,0Z"/>
          <path id="Shape-12" data-name="Shape" d="M1,22a1,1,0,0,1-.579-1.816l9-6.38a1,1,0,0,1,1.156,1.632l-9,6.38A.994.994,0,0,1,1,22Z"/>
          <path id="Shape-13" data-name="Shape" d="M59,22a.994.994,0,0,1-.577-.184l-9-6.38A1,1,0,0,1,50.578,13.8l9,6.38A1,1,0,0,1,59,22Z"/>
          <path id="Shape-14" data-name="Shape" d="M39.239,8a1,1,0,0,1-.578-.184l-4.78-3.39a6.01,6.01,0,0,0-7.7-.046l-4.84,3.437a1,1,0,0,1-1.157-1.632l4.78-3.39A7.963,7.963,0,0,1,35.1,2.84l4.72,3.344A1,1,0,0,1,39.239,8Z"/>
          <path id="Shape-15" data-name="Shape" d="M1.65,60.46a1,1,0,0,1-.64-1.769l22.82-18.96a1,1,0,1,1,1.278,1.538L2.288,60.229a1,1,0,0,1-.638.231Z"/>
          <path id="Shape-16" data-name="Shape" d="M58.349,60.46a.994.994,0,0,1-.638-.231l-22.82-18.96a1,1,0,1,1,1.278-1.538l22.819,18.96a1,1,0,0,1-.64,1.769Z"/>
          <path id="Shape-17" data-name="Shape" d="M50,29.48a1,1,0,0,1-1-1V8.008C49,8.029,48.957,8,48.89,8H11.11a.162.162,0,0,0-.12.043L11,28.48a1,1,0,1,1-2,0V8a2.059,2.059,0,0,1,2.11-2H48.89A2.059,2.059,0,0,1,51,8V28.48A1,1,0,0,1,50,29.48Z"/>
        </g>
      </g>
    </g>
  </g>
</svg>
