<svg xmlns="http://www.w3.org/2000/svg" xmlns:xlink="http://www.w3.org/1999/xlink" width="395.445" height="167.628" viewBox="0 0 395.445 167.628">
  <defs>
    <clipPath id="clip-path">
      <rect id="it-developer-using-computer" width="395.445" height="167.628" rx="15" transform="translate(905 3736)" fill="#3a1d71" opacity="0.73"/>
    </clipPath>
    <filter id="Trazado_876633" x="258.523" y="-1.659" width="63.803" height="63.803" filterUnits="userSpaceOnUse">
      <feOffset dy="1" input="SourceAlpha"/>
      <feGaussianBlur stdDeviation="5.5" result="blur"/>
      <feFlood flood-color="#fff" flood-opacity="0.902"/>
      <feComposite operator="in" in2="blur"/>
      <feComposite in="SourceGraphic"/>
    </filter>
    <filter id="Trazado_876634" x="-55.164" y="71.533" width="101.404" height="101.404" filterUnits="userSpaceOnUse">
      <feOffset dy="1" input="SourceAlpha"/>
      <feGaussianBlur stdDeviation="5.5" result="blur-2"/>
      <feFlood flood-color="#fff" flood-opacity="0.902"/>
      <feComposite operator="in" in2="blur-2"/>
      <feComposite in="SourceGraphic"/>
    </filter>
    <clipPath id="clip-path-2">
      <rect id="Rectángulo_384029" data-name="Rectángulo 384029" width="322.32" height="405.251" fill="none"/>
    </clipPath>
    <clipPath id="clip-path-4">
      <rect id="Rectángulo_384026" data-name="Rectángulo 384026" width="4.466" height="3.383" fill="none"/>
    </clipPath>
    <clipPath id="clip-path-5">
      <rect id="Rectángulo_384027" data-name="Rectángulo 384027" width="10.9" height="3.601" fill="none"/>
    </clipPath>
  </defs>
  <g id="Enmascarar_grupo_1098688" data-name="Enmascarar grupo 1098688" transform="translate(-905 -3736)" clip-path="url(#clip-path)">
    <g id="Grupo_1100407" data-name="Grupo 1100407" transform="translate(979.336 3736)">
      <g id="Grupo_1100406" data-name="Grupo 1100406" transform="translate(-74.336)">
        <g id="Grupo_1100405" data-name="Grupo 1100405">
          <rect id="it-developer-using-computer-2" data-name="it-developer-using-computer" width="398.932" height="193.625" rx="15" fill="#f0c518"/>
        </g>
      </g>
      <g transform="matrix(1, 0, 0, 1, -74.34, 0)" filter="url(#Trazado_876633)">
        <g id="Trazado_876633-2" data-name="Trazado 876633" transform="translate(275.02 13.84)" fill="none">
          <path d="M15.4,0A15.4,15.4,0,1,1,0,15.4,15.4,15.4,0,0,1,15.4,0Z" stroke="none"/>
          <path d="M 15.40176010131836 6 C 10.21760940551758 6 6 10.21760940551758 6 15.40176010131836 C 6 20.58591079711914 10.21760940551758 24.80352020263672 15.40176010131836 24.80352020263672 C 20.58591079711914 24.80352020263672 24.80352020263672 20.58591079711914 24.80352020263672 15.40176010131836 C 24.80352020263672 10.21760940551758 20.58591079711914 6 15.40176010131836 6 M 15.40176010131836 0 C 23.90792083740234 0 30.80352020263672 6.895599365234375 30.80352020263672 15.40176010131836 C 30.80352020263672 23.90792083740234 23.90792083740234 30.80352020263672 15.40176010131836 30.80352020263672 C 6.895599365234375 30.80352020263672 0 23.90792083740234 0 15.40176010131836 C 0 6.895599365234375 6.895599365234375 0 15.40176010131836 0 Z" stroke="none" fill="#fff"/>
        </g>
      </g>
      <g transform="matrix(1, 0, 0, 1, -74.34, 0)" filter="url(#Trazado_876634)">
        <g id="Trazado_876634-2" data-name="Trazado 876634" transform="translate(-38.66 87.03)" fill="none">
          <path d="M34.2,0A34.2,34.2,0,1,1,0,34.2,34.2,34.2,0,0,1,34.2,0Z" stroke="none"/>
          <path d="M 34.20203399658203 16.00000762939453 C 24.16540908813477 16.00000762939453 16.00000762939453 24.16540908813477 16.00000762939453 34.20203399658203 C 16.00000762939453 44.2386589050293 24.16540908813477 52.40406036376953 34.20203399658203 52.40406036376953 C 44.2386589050293 52.40406036376953 52.40406036376953 44.2386589050293 52.40406036376953 34.20203399658203 C 52.40406036376953 24.16540908813477 44.2386589050293 16.00000762939453 34.20203399658203 16.00000762939453 M 34.20203399658203 7.62939453125e-06 C 53.09128570556641 7.62939453125e-06 68.40406036376953 15.31278228759766 68.40406036376953 34.20203399658203 C 68.40406036376953 53.09128570556641 53.09128570556641 68.40406036376953 34.20203399658203 68.40406036376953 C 15.31278228759766 68.40406036376953 7.62939453125e-06 53.09128570556641 7.62939453125e-06 34.20203399658203 C 7.62939453125e-06 15.31278228759766 15.31278228759766 7.62939453125e-06 34.20203399658203 7.62939453125e-06 Z" stroke="none" fill="#a854f3"/>
        </g>
      </g>
      <circle id="Elipse_11566" data-name="Elipse 11566" cx="11.462" cy="11.462" r="11.462" transform="translate(216.089 6.319)" fill="#3a1d71"/>
    </g>
    <g id="Grupo_1100441" data-name="Grupo 1100441" transform="translate(922.589 3736)">
      <g id="Grupo_1074891" data-name="Grupo 1074891" transform="translate(0 0)">
        <g id="Grupo_1074890" data-name="Grupo 1074890" clip-path="url(#clip-path-2)">
          <g id="Grupo_1074889" data-name="Grupo 1074889">
            <g id="Grupo_1074888" data-name="Grupo 1074888" clip-path="url(#clip-path-2)">
              <path id="Trazado_828706" data-name="Trazado 828706" d="M112.3,351.044c64.455-2.263,131.121-11.055,165.627-129.825,10.258-35.306,3.585-62.044-7.673-82.19a122.566,122.566,0,0,0-9-13.753l0,0q-1.783-2.374-3.6-4.593C232.471,89.8,190.233,78.721,152.8,92.37c-21,7.652-47.93,18.969-71.946,33.687C32.6,155.625,21.281,189.339,5.516,247.173c-1.356,4.966-2.706,10.535-3.734,16.448-.55,3.163-1.007,6.421-1.318,9.74C-3.03,310.34,11.234,354.6,112.3,351.044" transform="translate(39.313 54.006)" fill="#171612"/>
              <path id="Trazado_828707" data-name="Trazado 828707" d="M5.651,258.51A75.987,75.987,0,0,0,14.9,276.462c12.19,17.463,37.569,38.564,89.262,39.926q3.412.09,6.736.088c19.75,0,37.169-2.382,53.085-7.244a129.788,129.788,0,0,0,44.436-23.45c22.145-17.867,40.4-44.006,59.167-84.749,7.415-16.092,11.258-32.4,11.425-48.476a105.623,105.623,0,0,0-3.57-28.376,122.421,122.421,0,0,0-9-13.753q1.2,2.771,2.312,5.793c6.752,18.518,11.4,47.976-4.8,83.137C231.01,270.867,192.8,314.709,104.269,312.391c-50.023-1.315-74.425-21.509-86.083-38.221a70.172,70.172,0,0,1-11.214-25.4c-.552,3.163-1.008,6.421-1.32,9.74" transform="translate(34.125 68.856)" fill="#5a554d"/>
              <path id="Trazado_828708" data-name="Trazado 828708" d="M164.621,200.947c-2.7,1.935-6.96,3.948-13.341,5.978-36.244,11.532-69.476-7.083-69.476-7.083-2.008-9.925-.766-21.205,2.578-25.334a3.642,3.642,0,0,1-.356-3.219L50.671,136.661c18.968,15.721,42.431,20.864,60.7,31.9h.008c5.262,3.181,9.995,5.983,13.462,7.929,5.291,2.971,12.047,3.262,18.664,2.351,12.9-1.783,25.275-8.139,25.275-8.139s41.538-18.828,49.328-18.2c6.056.485-26.53,34.51-53.486,48.442" transform="translate(21.211 85.214)" fill="#c04d3a"/>
              <path id="Trazado_828709" data-name="Trazado 828709" d="M114.322,196.644s10.693-3.072,13.975-6.543l7.429,17.492-25.291,7.894s-.352-15.367,3.887-18.843" transform="translate(7.309 118.536)" fill="#eaad8f"/>
              <path id="Trazado_828710" data-name="Trazado 828710" d="M120.9,253.144,153.6,180.573a11.135,11.135,0,0,1,4.461.86c6.343,2.312,15.258,8.683,21,12.425.669.442,1.3.844,1.874,1.2a23.251,23.251,0,0,0,2.424,1.352c5.043,2.271,2.167,6.345,2.167,6.345-10.509,4.1-3.457,17.279-9.186,20.539,0,0-2.442,1.416-10.22,4.843s-15.615,11.683-22.864,18.452c-9.353,8.741-15.226,9.769-18.591,8.97a6.217,6.217,0,0,1-3.762-2.413" transform="translate(-60.309 112.585)" fill="#fff"/>
              <path id="Trazado_828711" data-name="Trazado 828711" d="M138.322,253.144l32.695-72.571a11.135,11.135,0,0,1,4.462.86l-33.395,74.123a6.217,6.217,0,0,1-3.762-2.413" transform="translate(-77.73 112.585)" fill="#f0e8e0"/>
              <path id="Trazado_828712" data-name="Trazado 828712" d="M124.232,185.956l.971-2.156a17.464,17.464,0,0,0,9.863,9.136c7.329,2.882,14.1.757,17.966-1.1.669.442,1.3.844,1.872,1.2-3.914,2.112-11.751,5.114-20.53,1.669a19.322,19.322,0,0,1-10.142-8.748" transform="translate(-34.28 114.607)" fill="#f0e8e0"/>
              <path id="Trazado_828713" data-name="Trazado 828713" d="M135.142,208.212a1.312,1.312,0,0,1,2.486.774l-.916,5.041a1.312,1.312,0,0,1-2.581-.469l.917-5.041a1.336,1.336,0,0,1,.094-.305" transform="translate(-33.06 129.348)" fill="#171612"/>
              <path id="Trazado_828714" data-name="Trazado 828714" d="M131.567,206.485a1.312,1.312,0,0,1,2.486.774l-.917,5.039a1.311,1.311,0,1,1-2.58-.469l.917-5.039a1.361,1.361,0,0,1,.094-.305" transform="translate(-23.681 128.271)" fill="#171612"/>
              <path id="Trazado_828715" data-name="Trazado 828715" d="M138.023,210.273a1.312,1.312,0,0,1,2.486.774l-.916,5.041a1.312,1.312,0,0,1-2.581-.471l.917-5.039a1.281,1.281,0,0,1,.094-.305" transform="translate(-40.618 130.633)" fill="#171612"/>
              <path id="Trazado_828716" data-name="Trazado 828716" d="M140.841,212.362a1.312,1.312,0,0,1,2.486.774l-.916,5.041a1.312,1.312,0,0,1-2.581-.469l.917-5.041a1.362,1.362,0,0,1,.094-.305" transform="translate(-48.011 131.936)" fill="#171612"/>
              <path id="Trazado_828717" data-name="Trazado 828717" d="M143.653,214.757a1.312,1.312,0,0,1,2.487.774l-.919,5.041a1.31,1.31,0,1,1-2.578-.471l.916-5.039a1.451,1.451,0,0,1,.094-.305" transform="translate(-55.394 133.429)" fill="#171612"/>
              <path id="Trazado_828718" data-name="Trazado 828718" d="M146.374,217.5a1.312,1.312,0,0,1,2.486.774l-.917,5.041a1.311,1.311,0,1,1-2.58-.469l.917-5.041a1.285,1.285,0,0,1,.094-.305" transform="translate(-62.528 135.142)" fill="#171612"/>
              <path id="Trazado_828719" data-name="Trazado 828719" d="M132.482,149.255s26.292-14.188,41.519-3.221c27.845,20.054-19.4,58.634-73.454,77.474s-71.6,16.27-71.6,16.27-11.746-3.231-7.577-22.264c0,0,31.156-11.845,47.368-24.254s27.263-27.613,63.745-44" transform="translate(106.835 88.464)" fill="#c04d3a"/>
              <path id="Trazado_828720" data-name="Trazado 828720" d="M50.17,218.052c11.336-2.724,34.437-13.321,61.8-28.344,20.46-11.237,44.058-25.6,47.521-30.576,1.87-2.69,2.341-4.892,1.4-6.541-1.408-2.468-5.462-2.723-7.309-2.7a.822.822,0,0,0,.006,1.645c1.817-.013,4.978.3,5.876,1.875.745,1.31-.308,3.327-1.323,4.788-2.792,4.017-22.545,16.664-46.964,30.074-21.026,11.547-48.2,25.016-61.388,28.186Z" transform="translate(80.134 93.46)" fill="#7e231a"/>
              <path id="Trazado_828721" data-name="Trazado 828721" d="M118.784,187.074c1.276,10,3.869,19.1,9.52,26.071,0,0-4.838,3.486-9.257.985-3.377-1.909-9.886-17.534-7.4-25.878,2.823-1.542,5.26-2.08,7.142-1.179" transform="translate(13.655 116.376)" fill="#7e231a"/>
              <path id="Trazado_828722" data-name="Trazado 828722" d="M95.213,196.828s-10.464-3.78-13.508-7.462l-8.58,16.956,24.707,9.566s1.378-15.308-2.619-19.06" transform="translate(105.538 118.078)" fill="#eaad8f"/>
              <path id="Trazado_828723" data-name="Trazado 828723" d="M101.21,256.212,73.436,181.618a11.132,11.132,0,0,0-4.509.562c-6.483,1.883-15.8,7.644-21.786,10.993-.7.4-1.351.757-1.948,1.07a23.312,23.312,0,0,1-2.51,1.187c-5.181,1.929-2.585,6.186-2.585,6.186,10.212,4.793,2.294,17.473,7.793,21.108,0,0,2.341,1.575,9.874,5.515s14.8,12.7,21.58,19.937c8.748,9.347,14.539,10.764,17.95,10.193a6.223,6.223,0,0,0,3.914-2.156" transform="translate(157.065 113.209)" fill="#fff"/>
              <path id="Trazado_828724" data-name="Trazado 828724" d="M71.731,256.212,43.957,181.618a11.132,11.132,0,0,0-4.509.562l28.368,76.188a6.223,6.223,0,0,0,3.914-2.156" transform="translate(186.544 113.209)" fill="#f0e8e0"/>
              <path id="Trazado_828725" data-name="Trazado 828725" d="M85.885,187.134l-.825-2.216a17.465,17.465,0,0,1-10.452,8.457c-7.5,2.385-14.118-.187-17.851-2.3-.7.4-1.352.755-1.948,1.068,3.765,2.37,11.384,5.889,20.372,3.036a19.314,19.314,0,0,0,10.7-8.049" transform="translate(147.45 115.304)" fill="#f0e8e0"/>
              <path id="Trazado_828726" data-name="Trazado 828726" d="M65.921,208.849a1.312,1.312,0,0,0-2.533.607l.578,5.09a1.311,1.311,0,1,0,2.606-.3l-.578-5.091a1.291,1.291,0,0,0-.073-.31" transform="translate(152.84 129.694)" fill="#171612"/>
              <path id="Trazado_828727" data-name="Trazado 828727" d="M69.372,206.887a1.312,1.312,0,0,0-2.533.607l.578,5.09a1.312,1.312,0,1,0,2.607-.3l-.578-5.091a1.374,1.374,0,0,0-.075-.31" transform="translate(143.785 128.471)" fill="#171612"/>
              <path id="Trazado_828728" data-name="Trazado 828728" d="M63.184,211.1a1.312,1.312,0,0,0-2.533.607l.578,5.09a1.312,1.312,0,0,0,2.607-.3l-.58-5.091a1.309,1.309,0,0,0-.073-.31" transform="translate(160.019 131.096)" fill="#171612"/>
              <path id="Trazado_828729" data-name="Trazado 828729" d="M60.511,213.371a1.312,1.312,0,0,0-2.533.607l.578,5.09a1.312,1.312,0,1,0,2.607-.3l-.578-5.091a1.294,1.294,0,0,0-.075-.31" transform="translate(167.032 132.514)" fill="#171612"/>
              <path id="Trazado_828730" data-name="Trazado 828730" d="M57.864,215.948a1.312,1.312,0,0,0-2.533.607l.578,5.09a1.311,1.311,0,1,0,2.606-.3l-.578-5.091a1.291,1.291,0,0,0-.073-.31" transform="translate(173.978 134.12)" fill="#171612"/>
              <path id="Trazado_828731" data-name="Trazado 828731" d="M55.334,218.871a1.312,1.312,0,0,0-2.533.607l.578,5.09a1.312,1.312,0,1,0,2.607-.3l-.58-5.091a1.291,1.291,0,0,0-.073-.31" transform="translate(180.614 135.943)" fill="#171612"/>
              <path id="Trazado_828732" data-name="Trazado 828732" d="M133.814,143.151s-24.878-16.539-41.048-7.017C63.2,153.55,106.711,196.3,158.805,220.019s69.807,22.77,69.807,22.77,11.99-2.14,9.587-21.475c0,0-29.938-14.654-44.945-28.5s-24.613-30-59.441-49.666" transform="translate(-51.231 83.043)" fill="#c04d3a"/>
              <path id="Trazado_828733" data-name="Trazado 828733" d="M91.4,192.163c2.867.943,5.785,1.891,8.795,2.84,11.655,3.668,24.962,7.509,37.014,10.469l.044,1.723c-10.883-2.653-23.655-6.251-37.551-10.624-2.713-.854-5.481-1.752-8.257-2.666Z" transform="translate(36.687 119.822)" fill="#7e231a"/>
              <path id="Trazado_828734" data-name="Trazado 828734" d="M189.545,220.489c-11.038-3.754-33.07-16.424-58.935-33.893-19.343-13.065-41.525-29.531-44.516-34.805-1.615-2.851-1.883-5.087-.8-6.642,1.628-2.33,5.689-2.211,7.527-2.025a.823.823,0,0,1-.158,1.638c-1.807-.18-4.984-.161-6.023,1.33-.862,1.236,0,3.34.88,4.887,2.411,4.255,20.919,18.663,44.006,34.255,19.88,13.428,45.7,29.333,58.543,33.7Z" transform="translate(-5.177 89.187)" fill="#7e231a"/>
              <path id="Trazado_828735" data-name="Trazado 828735" d="M93.237,185.78c-2.189,9.845-5.6,18.663-11.873,25.089,0,0,4.5,3.913,9.129,1.83,3.538-1.591,11.452-16.554,9.748-25.089-2.671-1.8-5.048-2.554-7-1.83" transform="translate(89.745 115.672)" fill="#7e231a"/>
              <path id="Trazado_828736" data-name="Trazado 828736" d="M104.24,61.393A13.068,13.068,0,0,1,122.43,64.7l.174.245,1.356,1.96,1.419,2.016,2.888,4.038c1.932,2.666,3.9,5.314,5.889,7.924a.443.443,0,0,0,.034.049c.4.524.8,1.046,1.211,1.572v0c3.614,4.716,7.316,9.329,11.108,13.755,2.283,2.666,4.6,5.273,6.95,7.757.3.312.594.627.895.942,1.674,1.745,3.364,3.421,5.054,5a64.289,64.289,0,0,0,6.366,5.291c.492.347.971.666,1.419.945.831-.494,1.771-1.109,2.745-1.778,1.1-.763,2.253-1.606,3.414-2.5q.782-.594,1.563-1.219c.322-.252.645-.507.966-.77,3.885-3.127,7.832-6.627,11.722-10.227q5.044-4.683,10.009-9.634c.4-.388.8-.783,1.19-1.182q1.444-1.434,2.872-2.893,3.478-3.526,6.9-7.121l3.393-3.6,1.674-1.8,1.593-1.745.135-.151c.292-.312.594-.622.908-.919a19.2,19.2,0,0,1,26.462,27.834l-2,1.9-1.94,1.823-3.888,3.586q-3.9,3.563-7.863,7.061c-5.291,4.664-10.68,9.256-16.271,13.764-3.453,2.765-6.952,5.5-10.637,8.184q-.526.385-1.059.766c-1.979,1.427-4.017,2.841-6.134,4.241-1.627,1.068-3.309,2.132-5.1,3.181q-1.22.718-2.521,1.427c-.364.2-.735.4-1.114.6q-1.047.55-2.182,1.094c-1.072.5-2.159,1-3.413,1.5-.026.013-.055.021-.081.034-.326.123-.627.247-.974.369l-1.042.37c-.334.117-.75.242-1.127.357l-.581.172-.4.109-.545.14a22.087,22.087,0,0,1-4.241.64c-.695.049-1.326.049-1.982.039-.615-.021-1.263-.05-1.835-.115a27.027,27.027,0,0,1-6.066-1.33,31.671,31.671,0,0,1-4.317-1.83l-.179-.089c-1.313-.674-2.482-1.367-3.567-2.067a56.686,56.686,0,0,1-5.655-4.231c-1.114-.945-2.169-1.885-3.172-2.835-.56-.524-1.1-1.046-1.627-1.57-1.382-1.367-2.677-2.729-3.935-4.1a200.687,200.687,0,0,1-13.878-17.245c-4.223-5.809-8.179-11.677-11.988-17.6q-1.011-1.576-2.008-3.156c-.208-.321-.411-.648-.614-.969q-1.507-2.4-2.982-4.819c-.916-1.5-1.822-3-2.724-4.52l-1.351-2.283-1.374-2.369a13.119,13.119,0,0,1,3.864-17.312m65.148,55.916c.221.071.339.071.245,0a.36.36,0,0,0-.042-.024.269.269,0,0,0-.071-.036,1.714,1.714,0,0,0-.2-.07,3.375,3.375,0,0,0-.571-.133,4.909,4.909,0,0,0,.64.258" transform="translate(-86.509 36.829)" fill="#314fa5"/>
              <path id="Trazado_828737" data-name="Trazado 828737" d="M129.267,99.244a20.636,20.636,0,0,0,5.062,4.679c4.515,2.809,10.027,2.817,13.475-1.611,3.583-4.611,4.833-11.388,5.328-17.05a46.363,46.363,0,0,0,.021-7.83c-.393.4-.792.794-1.19,1.184a43.769,43.769,0,0,1,.042,4.429c-.224,5.627-1.326,11.959-4.164,16.911-1.567,2.739-4.028,4.822-7.319,4.737a12.629,12.629,0,0,1-7.744-3.523,24.027,24.027,0,0,1-2.546-2.7c-.323.263-.645.518-.966.77" transform="translate(-40.861 48.282)" fill="#5880eb"/>
              <path id="Trazado_828738" data-name="Trazado 828738" d="M129.747,117.809c.377-.195.75-.395,1.114-.593-1.033-3.556-1.812-7.795-.029-10.827,3.127-5.322,10.3-.792,13.781,1.977.356-.253.706-.508,1.059-.766q-.9-.738-1.851-1.4c-3.622-2.533-9.735-5.647-13.383-1.448-2.969,3.419-1.846,8.951-.69,13.06" transform="translate(-32.042 64.031)" fill="#5880eb"/>
              <path id="Trazado_828739" data-name="Trazado 828739" d="M156.769,85.237c.179,5.578,1.245,12.37,5.9,16.084,4.41,3.517,9.908,1.361,13.139-2.648a16.422,16.422,0,0,0,1.445-2.1q-.451-.47-.893-.94a15.006,15.006,0,0,1-2.318,3.13c-2.1,2.172-5.147,3.8-8.218,2.846-2.52-.779-4.3-3-5.439-5.273-2.609-5.225-2.5-11.388-2.275-17.072.068-1.716.144-3.432.192-5.143v0c-.416-.524-.81-1.046-1.213-1.572a.419.419,0,0,1-.034-.045c-.05,4.241-.419,8.49-.287,12.733" transform="translate(-109.41 45.209)" fill="#5880eb"/>
              <path id="Trazado_828740" data-name="Trazado 828740" d="M163.822,80.062c.2.321.408.648.614.969,4.372-2.257,10.361,2.369,13.475,5.309a52.842,52.842,0,0,1,9.845,12.894c4.138,7.46,6.663,15.6,8.489,23.9.529.524,1.067,1.046,1.627,1.572-2.216-10.637-5.462-21.109-11.519-30.221-3.278-4.94-7.4-9.727-12.407-12.98-3.012-1.961-7-2.961-10.124-1.44" transform="translate(-141.524 49.461)" fill="#5880eb"/>
              <path id="Trazado_828741" data-name="Trazado 828741" d="M141.795,113.928a31.874,31.874,0,0,0,4.317,1.831,27.115,27.115,0,0,0,6.066,1.33c.571.065,1.219.094,1.835.115.656.008,1.287.008,1.982-.039a22.345,22.345,0,0,0,4.241-.64l.546-.141.4-.109.58-.172c.377-.115.792-.24,1.127-.357l1.042-.369c.347-.123.648-.245.974-.369.026-.013.055-.021.081-.034a24.484,24.484,0,0,0-12.607-3.577,19.092,19.092,0,0,0-10.582,2.529" transform="translate(-72.874 69.458)" fill="#1c2b74"/>
              <path id="Trazado_828742" data-name="Trazado 828742" d="M146.009,94.367a15.43,15.43,0,0,1,5.341,7.312c.325.929-1.148,1.328-1.469.406a13.643,13.643,0,0,0-4.642-6.4c-.773-.584-.013-1.911.77-1.317" transform="translate(-64.354 58.748)" fill="#1c2b74"/>
              <path id="Trazado_828743" data-name="Trazado 828743" d="M149.189,96.989a5.381,5.381,0,0,0-4.666-.231c-.893.38-1.671-.934-.77-1.317a7.031,7.031,0,0,1,6.205.231c.867.459.1,1.776-.77,1.317" transform="translate(-60.758 59.131)" fill="#1c2b74"/>
              <path id="Trazado_828744" data-name="Trazado 828744" d="M51.81,208.049a61.8,61.8,0,0,0,17.538,12.712c.4.2.8.395,1.2.578a73.61,73.61,0,0,0,12.131,4.419,94.3,94.3,0,0,0,43.3,1.036c.533-.109,1.067-.222,1.6-.341a95.525,95.525,0,0,0,11.651-3.408,82.294,82.294,0,0,0,13.833-6.506q.911-.531,1.8-1.1a69.267,69.267,0,0,0,6.3-4.461c-3.989-17.8-6.278-26.694-7.27-33.153-.084-.546-.162-1.072-.224-1.583-.809-6.273-.289-10.561,1.112-19.935,1.242-8.313,4.356-20.312,8.564-32.692.149-.443.3-.885.456-1.326.385-1.12.778-2.249,1.185-3.369.2-.555.4-1.106.609-1.662,1.505-4.108,3.124-8.2,4.82-12.144,7.384-17.214,8.574-36.611-9.191-42.54-11.612-3.871-21.7-6.233-21.7-6.233L98.676,59.721a100.771,100.771,0,0,0-16.638,2.922c-.455.135-.9.274-1.325.419C69.125,66.929,69.457,73.527,66.845,87.337c-3.557,18.8-13.85,36.158-11.308,45.31.1.333.192.664.3.992.127.4.266.792.411,1.182,2.471,6.549,7.389,12.209,9.279,14.235.482.516.766.8.766.8l-.015.123c-.029.307-.065.63-.109.966-.161,1.3-.385,2.835-.674,4.582-.419,2.549-.891,5.122-1.408,7.678-.11.52-.214,1.041-.33,1.56-3.937,18.82-9.938,36.468-10.836,38.468q-.565,2.421-1.115,4.82" transform="translate(62.712 35.13)" fill="#314fa5"/>
              <path id="Trazado_828745" data-name="Trazado 828745" d="M132.807,72.95c-1.188,8.342-4.052,16.209-7.347,23.925-3.6,8.429-7.348,17.374-5.794,26.735.2,1.2-1.638,1.716-1.838.507-1.464-8.824,1.359-17.326,4.77-25.368,3.622-8.54,7.054-17.06,8.371-26.3.172-1.21,2.008-.695,1.838.507" transform="translate(-1.154 44.741)" fill="#1c2b74"/>
              <path id="Trazado_828746" data-name="Trazado 828746" d="M112,127.437c.127.4.266.792.411,1.182,7.778-2.456,14.347-8.832,17.745-16.424,6.476-14.479,3.325-30.581.14-45.458-.169-.8-1.4-.458-1.224.339,2.987,13.953,6.01,28.915.711,42.717-3.088,8.048-9.722,15.105-17.783,17.643" transform="translate(6.551 41.33)" fill="#5880eb"/>
              <path id="Trazado_828747" data-name="Trazado 828747" d="M59.322,118.021c2.465,15.17,14.039,28.742,27.183,36.028-.084-.545-.161-1.072-.224-1.585a55.031,55.031,0,0,1-16.869-15.088c-7.929-10.819-15.105-29.259-.809-38.139,8.912-5.541,18.672-3.8,27.357.6.148-.442.3-.882.453-1.322a36.674,36.674,0,0,0-12-3.843,24.968,24.968,0,0,0-18.44,4.867c-5.744,4.525-7.8,11.37-6.65,18.482" transform="translate(130.095 58.904)" fill="#5880eb"/>
              <path id="Trazado_828748" data-name="Trazado 828748" d="M114.453,125.917a50.533,50.533,0,0,1,7.858,43.777,51.888,51.888,0,0,1-3.984,10.027c.4.2.794.395,1.2.578a53.408,53.408,0,0,0,4.918-35.4,51.746,51.746,0,0,0-11.373-22.741c-.109.521-.214,1.042-.33,1.562.6.718,1.166,1.443,1.714,2.2" transform="translate(13.734 76.171)" fill="#5880eb"/>
              <path id="Trazado_828749" data-name="Trazado 828749" d="M66.372,170.132q.8-.163,1.6-.341a45.581,45.581,0,0,1,23.855-21.309c.75-.294.424-1.518-.341-1.226a46.924,46.924,0,0,0-24.827,22.307c-.1.188-.188.375-.286.568" transform="translate(122.313 91.792)" fill="#5880eb"/>
              <path id="Trazado_828750" data-name="Trazado 828750" d="M98.543,122.754c7.181,4.447,13.441,10.23,17.421,17.76,3.151,5.963,6.96,15.792.987,21.286-6.78,6.238-16.357.908-21.906-4.2-6.311-5.809-12.073-14.67-11.935-23.545.063-4.06,1.739-8.449,5.07-10.949,3.174-2.38,6.941-1.93,10.363-.351.742.343.1,1.438-.641,1.1-3.432-1.585-7.144-1.71-9.944,1.13A13.564,13.564,0,0,0,84.4,135.147c.365,7.731,5.171,15.326,10.56,20.621,5.143,5.056,14.714,11.288,21.311,4.916,5.34-5.156,1.26-14.656-1.675-20.028-3.887-7.118-9.857-12.569-16.7-16.8-.695-.43-.057-1.529.641-1.1" transform="translate(67.297 75.726)" fill="#5880eb"/>
              <path id="Trazado_828751" data-name="Trazado 828751" d="M69.588,88.869c7.9,14.373,25.611,11.5,37.778,4.83a74.124,74.124,0,0,0,31.216-33.343c.347-.734-.75-1.382-1.1-.64a73.062,73.062,0,0,1-13.8,19.965c-9.456,9.7-23.6,19.465-37.812,18.346-7.819-.614-13.86-5.621-16.606-12.873-2.956-7.816-1.956-16.326-.927-24.413-.458.135-.9.276-1.326.419-1.169,9.277-2.1,19.2,2.572,27.709" transform="translate(76.409 37.031)" fill="#5880eb"/>
              <path id="Trazado_828752" data-name="Trazado 828752" d="M98.536,92.055c5.52,1.05,13.139,4.8,14.406,10.93,1.192,5.768-5.281,8.183-9.915,7.9-5.483-.328-12.055-3.773-13.678-9.413C87.77,96,93.333,91.8,98.367,92.032c.813.037.818,1.309,0,1.271-5.1-.234-9.928,4.369-7.079,9.483,2.382,4.273,7.629,6.773,12.391,6.856,4.986.088,10.5-3.419,6.944-8.866-2.7-4.137-7.7-6.6-12.425-7.5-.8-.153-.463-1.378.338-1.226" transform="translate(64.617 57.38)" fill="#5880eb"/>
              <path id="Trazado_828753" data-name="Trazado 828753" d="M59.805,164.518c3.575,13.3,6.525,26.646,8.876,40.238q.913-.531,1.8-1.1c-2.336-13.386-5.254-26.545-8.78-39.647C56.712,145.452,79.133,77.22,79.361,76.528a.984.984,0,0,0-1.869-.617C76.56,78.743,54.66,145.4,59.805,164.518" transform="translate(147.083 46.913)" fill="#1c2b74"/>
              <path id="Trazado_828754" data-name="Trazado 828754" d="M94.508,156.383A84.113,84.113,0,0,0,122.258,160a128.2,128.2,0,0,0,28.237-3.84,1.005,1.005,0,1,0-.541-1.937,126.151,126.151,0,0,1-27.784,3.767c-13.984.3-33.312-2.015-45.979-14.7a1.006,1.006,0,0,0-1.424,1.421,48.8,48.8,0,0,0,19.741,11.67" transform="translate(50.18 89.165)" fill="#1c2b74"/>
              <path id="Trazado_828755" data-name="Trazado 828755" d="M86.431,114.716c-.029.307-.068.63-.112.969,5.736,1.281,13.118,1.45,21.8-.245a49.593,49.593,0,0,1,31.243,4.634.855.855,0,0,0,.425.115.868.868,0,0,0,.75-.43.86.86,0,0,0-.32-1.174,50.5,50.5,0,0,0-32.43-4.832c-9,1.755-16.508,1.481-22.114.047.482.516.766.8.766.8,0,.037-.008.076-.013.119" transform="translate(42.562 70.387)" fill="#1c2b74"/>
              <path id="Trazado_828756" data-name="Trazado 828756" d="M92.685,81.967c10.478,0,31.859-15.006,32.763-15.646a.86.86,0,0,0-.992-1.406c-.218.154-21.837,15.331-31.771,15.331-9.5,0-11.612-10.383-11.633-10.488a.86.86,0,0,0-1.689.325c.023.119,2.411,11.884,13.321,11.884" transform="translate(67.684 40.379)" fill="#1c2b74"/>
              <path id="Trazado_828757" data-name="Trazado 828757" d="M179.642,77.087s5.715,13.941,13.5,15.416c6.553,1.242,15.388-10.422,15.388-10.422,3.314-5.608,3.476-8.616,3.69-14.454S202.675,57.5,202.675,57.5,191.628,36.958,187.823,35.94s4.346,19.383,4.346,19.383a3.741,3.741,0,0,0-3.583-.119c-2.867,1.273-9.111,6.814-11.465,10.907-2.106,3.663,2.521,10.975,2.521,10.975" transform="translate(-176.571 22.387)" fill="#eaad8f"/>
              <path id="Trazado_828758" data-name="Trazado 828758" d="M193.433,62.029c-4.473-.951-10.155-1.732-13.7-4.888-1.312-1.167-2.6-3.208-1.68-4.976.891-1.714,3.31-1.94,4.965-2.3.8-.174,1.135,1.049.336,1.223-1.7.372-4.4.5-4.15,2.77.234,2.09,2.507,3.284,4.244,4.056a51.712,51.712,0,0,0,10.326,2.895c.8.17.459,1.391-.338,1.223" transform="translate(-160.472 31.081)" fill="#b4665e"/>
              <path id="Trazado_828759" data-name="Trazado 828759" d="M202.435,53.8a36.273,36.273,0,0,1-14.813,11.435c-.75.317-1.078-.909-.338-1.221A34.673,34.673,0,0,0,201.341,53.16c.49-.638,1.591-.006,1.094.64" transform="translate(-183.628 32.982)" fill="#b4665e"/>
              <path id="Trazado_828760" data-name="Trazado 828760" d="M186.308,58.035a15.344,15.344,0,0,1,5.78,13.839c-.08.8-1.348.812-1.268,0a14.207,14.207,0,0,0-5.408-12.943c-.633-.513.268-1.406.9-.9" transform="translate(-170.525 36.093)" fill="#b4665e"/>
              <path id="Trazado_828761" data-name="Trazado 828761" d="M194.606,58.411c-1.648-3.1-3.411-6.309-6.137-8.6-.625-.526.276-1.419.9-.9,2.8,2.359,4.64,5.668,6.335,8.86.381.719-.711,1.361-1.094.64" transform="translate(-179.105 30.4)" fill="#b4665e"/>
              <path id="Trazado_828762" data-name="Trazado 828762" d="M197.152,61.22a34.583,34.583,0,0,0-6.205-8.887c-.562-.593.333-1.489.9-.9a35.73,35.73,0,0,1,6.4,9.144c.349.732-.744,1.377-1.094.64" transform="translate(-185.714 31.952)" fill="#b4665e"/>
              <path id="Trazado_828763" data-name="Trazado 828763" d="M200.292,61.406l.177.274-1.093.64a18.373,18.373,0,0,0-4.978-6.989c-.617-.536.282-1.429.9-.9a19.069,19.069,0,0,1,5.174,7.246.633.633,0,0,1-1.093.64c-.06-.091-.118-.183-.179-.274-.445-.687.651-1.322,1.094-.64" transform="translate(-193.489 33.84)" fill="#b4665e"/>
              <path id="Trazado_828764" data-name="Trazado 828764" d="M187.966,48.142a15.942,15.942,0,0,1,2.4,4.932.634.634,0,0,1-1.221.336,14.929,14.929,0,0,0-2.275-4.629c-.468-.671.63-1.305,1.094-.64" transform="translate(-171.283 29.843)" fill="#b4665e"/>
              <path id="Trazado_828765" data-name="Trazado 828765" d="M30.4,64.636a17.4,17.4,0,0,1,23.679,3.82c.554.735,1.059,1.4,1.568,2.1l1.528,2.065c1.015,1.38,2.007,2.768,3.007,4.155a.17.17,0,0,0,.028.034c.276.386.557.776.83,1.166.045.062.086.122.128.182,1.658,2.318,3.27,4.66,4.9,7,1.953,2.8,3.843,5.645,5.749,8.491l2.836,4.286,2.8,4.325.057.089q.416.648.825,1.294,3.151,4.949,6.208,10.025c.211.344.42.692.627,1.039q1.578,2.635,3.125,5.311c1.749,3.049,3.484,6.139,5.171,9.355.839,1.612,1.679,3.25,2.5,4.942.234.477.463.958.7,1.443.161.338.318.677.479,1.021.429.924.854,1.875,1.274,2.864.4.942.8,1.916,1.2,2.961s.8,2.146,1.187,3.413c.161.529.326,1.08.482,1.684.232.843.45,1.788.653,2.926a25.9,25.9,0,0,1,.378,3.684l0,.286,0,.328-.013.654c-.006.258-.016.341-.021.487l-.034.4-.068.807-.045.4-.049.359c-.067.468-.141.94-.227,1.411-.084.43-.175.844-.266,1.266s-.2.791-.3,1.171l-.154.565-.083.283-.08.258-.336,1.029c-.11.351-.231.638-.347.96-.231.649-.469,1.226-.711,1.805a54.257,54.257,0,0,1-3.034,6.067c-.187.325-.373.649-.562.969-1.5,2.547-3.043,4.863-4.609,7.069-.224.312-.448.627-.671.935-.2.274-.4.549-.6.818-2.072,2.823-4.2,5.5-6.351,8.089-.131.164-.266.323-.4.485-.166.2-.333.393-.5.591-4.436,5.254-9.019,10.184-13.725,14.966-.834.851-1.675,1.688-2.528,2.525q-.507.507-1.031,1.013C64.3,211.565,63,212.81,61.7,214.047q-1.9,1.78-3.812,3.541c-.643.584-1.292,1.161-1.942,1.739l-.987.877-1.026.895a11.6,11.6,0,0,1-16.95-15.64l.162-.214,5.814-7.863q.784-1.05,1.555-2.1c.242-.328.482-.656.724-.981q1.775-2.423,3.526-4.85c3.379-4.669,6.692-9.352,9.813-14.024.244-.365.487-.736.732-1.1l.5-.755c.779-1.167,1.531-2.336,2.268-3.5.237-.373.469-.748.7-1.123.672-1.083,1.33-2.164,1.968-3.234.766-1.292,1.487-2.581,2.161-3.835s1.289-2.476,1.815-3.632c.377-.846.718-1.666.974-2.372-.11-.245-.239-.526-.378-.825-.244-.51-.521-1.073-.822-1.654-.6-1.171-1.279-2.44-2.008-3.721s-1.5-2.6-2.3-3.927c-.74-1.234-1.5-2.481-2.279-3.728-.234-.375-.469-.753-.706-1.128q-1-1.6-2.029-3.192c-1.731-2.706-3.513-5.421-5.317-8.132s-3.642-5.429-5.478-8.15l-3.616-5.3-.7-1.037-1.245-1.823-5.629-8.163-5.643-8.166L25.959,88.8l-.015-.021A17.354,17.354,0,0,1,30.4,64.636m39.634,89.887-.007.086-.008.177-.007.1a23.335,23.335,0,0,0,.13-.513c0-.057.018-.119.029-.179l.008-.045,0-.024v-.045c-.006-.029,0-.073-.013-.05-.013.007-.016.007-.023.023a.635.635,0,0,0-.052.169l-.008.046-.018.084c-.013.057-.021.118-.029.175" transform="translate(182.853 38.402)" fill="#314fa5"/>
              <path id="Trazado_828766" data-name="Trazado 828766" d="M38.985,83.593c2.581,6.971,9.621,13.961,17.4,14.2q-.409-.648-.826-1.294c-6.981-.7-13.156-7.137-15.466-13.456a20.411,20.411,0,0,1-.87-10.735c-.042-.06-.083-.12-.128-.182-.273-.39-.554-.779-.831-1.166a21.848,21.848,0,0,0,.726,12.63" transform="translate(204.804 44.248)" fill="#5880eb"/>
              <path id="Trazado_828767" data-name="Trazado 828767" d="M45.31,95.648l.7,1.037a10.741,10.741,0,0,1,10.011-2.346c4.642,1.274,7.973,5.551,9.2,10.059,1.64,6.025.057,11.776-2.773,17.065.237.375.474.753.706,1.128,3.69-6.7,5.658-14.1,2.171-21.424-2.013-4.231-5.872-7.738-10.642-8.339a11.975,11.975,0,0,0-9.379,2.818" transform="translate(181.606 57.824)" fill="#5880eb"/>
              <path id="Trazado_828768" data-name="Trazado 828768" d="M29.621,128.833c1.031.325,2.059.62,3.068.89,8.452,2.25,19.155,4.4,25.558,10.865.222-.31.446-.625.671-.937-5.216-5.132-12.966-7.79-19.986-9.6-2.706-.7-5.658-1.435-8.61-2.339-.232.373-.464.75-.7,1.122" transform="translate(215.311 79.633)" fill="#5880eb"/>
              <path id="Trazado_828769" data-name="Trazado 828769" d="M47.648,151.984a15.648,15.648,0,0,0,3.054,1.68c3.952,1.609,8.222,1.037,10.878-2.5,3.861-5.132,5.434-15.123.864-20.137-.245.37-.489.74-.732,1.106,4.124,4.874,2.375,14.547-1.7,18.987-3.218,3.509-8.147,2.271-11.639-.115-.242.325-.482.654-.724.982" transform="translate(179.724 81.699)" fill="#5880eb"/>
              <path id="Trazado_828770" data-name="Trazado 828770" d="M34.788,160.839q.524-.507,1.031-1.013a14.867,14.867,0,0,1,6.429-15.482,13.985,13.985,0,0,1,9.824-2.008c.166-.2.331-.393.5-.591.135-.162.27-.323.4-.485a15.166,15.166,0,0,0-11.407,2.057,16.17,16.17,0,0,0-6.775,17.523" transform="translate(213.639 87.868)" fill="#5880eb"/>
              <path id="Trazado_828771" data-name="Trazado 828771" d="M27.442,109.646a13.1,13.1,0,0,0,15.024,7.131c-.161-.346-.318-.685-.479-1.021a11.458,11.458,0,0,1-4.924.1,12.207,12.207,0,0,1-9.243-8.816c-1.185-4.655.157-8.757,2.672-12.332-.2-.347-.416-.695-.625-1.039-3.465,4.651-5.192,10.071-2.426,15.982" transform="translate(237.528 58.403)" fill="#5880eb"/>
              <path id="Trazado_828772" data-name="Trazado 828772" d="M81.644,101.9a.79.79,0,0,1-.6-.343c-5.213-7.592-19.625-26.866-19.77-27.06a.795.795,0,0,1,1.273-.951c.144.193,14.575,19.494,19.806,27.112a.794.794,0,0,1-.709,1.242" transform="translate(140.601 45.658)" fill="#1c2b74"/>
              <path id="Trazado_828773" data-name="Trazado 828773" d="M29.336,122.5c-.006.257-.018.341-.026.485l-.029.4-.071.805-.042.4-.052.357c-.067.472-.143.943-.226,1.412-.084.429-.175.844-.27,1.265s-.2.794-.3,1.175l-.156.565-.081.281-.08.258-.336,1.026c-.11.351-.227.641-.346.963-.232.646-.471,1.223-.711,1.805a55.4,55.4,0,0,1-3.033,6.067q-.283.489-.565.969c-.791-12.717,2.137-20.994,5.3-26.115.229.841.45,1.789.653,2.922a25.782,25.782,0,0,1,.375,3.685l.006.286v.328Z" transform="translate(255.824 71.475)" fill="#1c2b74"/>
              <path id="Trazado_828774" data-name="Trazado 828774" d="M36.44,121.737a.68.68,0,0,1-.37-1.234c.211-.149,5.241-3.679,10.819-4.179a.68.68,0,0,1,.122,1.354c-5.205.468-10.107,3.9-10.155,3.934a.673.673,0,0,1-.416.125" transform="translate(216.596 72.531)" fill="#1c2b74"/>
              <path id="Trazado_828775" data-name="Trazado 828775" d="M40.176,121.748a.713.713,0,0,1-.221-.045.679.679,0,0,1-.39-.878,16.529,16.529,0,0,1,3.854-5.3.68.68,0,1,1,.912,1.008,15.429,15.429,0,0,0-3.5,4.776.68.68,0,0,1-.658.435" transform="translate(213.601 71.928)" fill="#1c2b74"/>
              <path id="Trazado_828776" data-name="Trazado 828776" d="M84.111,148.109a59.009,59.009,0,0,0-8.985.586c-3.606.654-4.664,1.966-4.664,1.966l-.388,6.658a26.691,26.691,0,0,0-8.439,1.042c-4.283,1.307-7.337,4.859-9.28,6.264s1.474,3.437,5.017,2.09a28.662,28.662,0,0,1,8.024-1.9,26.693,26.693,0,0,0-6.861,3.2c-2.461,1.87-7.889,5.116-7.364,7.273s5.647-.445,9.288-1.606,5.168-2.226,8.339-2.512a20.619,20.619,0,0,0-5.069,3.273c-1.593,1.677-4.757,4.619-5.509,6.243s3.463,2.052,6.8-.052,4.712-4.736,7.163-4.565a47.72,47.72,0,0,0-3.426,4c-1.263,1.744-2.625,7-.757,7.558s6.244-5.669,9.332-6.686a157.351,157.351,0,0,0,16.094-6.525,17.878,17.878,0,0,0,8.77-9.046,4.025,4.025,0,0,0-.067-3.385,25.941,25.941,0,0,0-18.02-13.868" transform="translate(136.764 92.351)" fill="#eaad8f"/>
              <path id="Trazado_828777" data-name="Trazado 828777" d="M103.813,8.541s23.038-5.194,31.992,9.507-1.474,37.7-1.474,37.7.831,5.981,12.855,10.844,6.432,24.134-5.971,21.427c0,0-4.413,17.693-17.716,7.715S90.07,88.574,90.07,88.574s-7.506,6.4-16.2,2.046-2.559-11-2.559-11-9.017,4.057-14.336-4.595c-5.645-9.183,9.443-16.045,10.754-20.733,4.76-17.015-1.9-13.4-8.477-22.8-8.033-11.475,7.241-20.983,13.935-12.459,0,0-10.03-10.037,1.5-17.213,10.537-6.557,29.126,6.721,29.126,6.721" transform="translate(78.011 0)" fill="#171612"/>
              <path id="Trazado_828778" data-name="Trazado 828778" d="M106.323,27.181s-3.255-.05-4.3,4,.318,11.139,4.572,10.727-.271-14.73-.271-14.73" transform="translate(48.812 16.948)" fill="#c6695d"/>
              <path id="Trazado_828779" data-name="Trazado 828779" d="M115.585,43.281a9.054,9.054,0,1,0-9.055,9.053,9.064,9.064,0,0,0,9.055-9.053m-1.64,0a7.415,7.415,0,1,1-7.415-7.415,7.424,7.424,0,0,1,7.415,7.415" transform="translate(48.475 21.343)" fill="#fff"/>
              <line id="Línea_380" data-name="Línea 380" y2="0.003" transform="translate(163.241 77.285)" fill="#eaad8f"/>
              <path id="Trazado_828780" data-name="Trazado 828780" d="M113.254,67.823S106.539,77.855,94.3,78.366c-15.544.649-16.62-6.13-16.62-6.13a29.115,29.115,0,0,0,1.865-6.223c.154-.83.282-1.685.385-2.573a70.817,70.817,0,0,0,.383-8.186q0-1.089-.019-2.257v-.091c10.865-1.434,20.025-5.257,26.762-12.479l1.688-.787,1.138-.534.135.64-.4,1.95c-1.924,9.171-.615,17.062,3.637,26.128" transform="translate(82.943 24.384)" fill="#eaad8f"/>
              <path id="Trazado_828781" data-name="Trazado 828781" d="M105.484,44.482c-2.757,4.837-8.869,13.261-18.947,15.605A70.813,70.813,0,0,0,86.92,51.9c0-.724-.007-1.479-.019-2.255.206.045.419.084.633.12,5.741.971,12.324-1.37,17.95-5.285" transform="translate(76.34 27.736)" fill="#171612"/>
              <path id="Trazado_828782" data-name="Trazado 828782" d="M116.68,62.679S115.261,49.534,113.1,49.29s-9.767,8.364-19.6,7.8-11.954-7.536-14.084-4.681-2.776,12.6-2.776,12.6,1.348,8.712,12.412,9.391,25.671-7.973,27.629-11.725" transform="translate(81.213 30.731)" fill="#314fa5"/>
              <path id="Trazado_828783" data-name="Trazado 828783" d="M79.589,50.737c2.585,4.362,3.263,9.52,3.281,14.514a.841.841,0,0,1-1.68,0c-.016-4.7-.615-9.555-3.052-13.667a.841.841,0,0,1,1.451-.847" transform="translate(112.789 31.385)" fill="#5880eb"/>
              <path id="Trazado_828784" data-name="Trazado 828784" d="M83.128,52.678a38.257,38.257,0,0,1,2.619,15.2.841.841,0,0,1-1.68,0,37.068,37.068,0,0,0-2.559-14.756c-.414-1,1.211-1.432,1.62-.446" transform="translate(104.351 32.501)" fill="#5880eb"/>
              <path id="Trazado_828785" data-name="Trazado 828785" d="M87.464,54.18a94.416,94.416,0,0,1,1.447,15.386.841.841,0,0,1-1.68,0,91.64,91.64,0,0,0-1.387-14.94c-.187-1.057,1.432-1.512,1.62-.446" transform="translate(94.062 33.405)" fill="#5880eb"/>
              <path id="Trazado_828786" data-name="Trazado 828786" d="M92.017,55.034q-.029,8.166-.057,16.331a.841.841,0,0,1-1.68,0q.029-8.166.057-16.331a.841.841,0,0,1,1.68,0" transform="translate(83.73 33.81)" fill="#5880eb"/>
              <path id="Trazado_828787" data-name="Trazado 828787" d="M93.055,70.71q.516,0,1.054-.021c12.092-.484,22.793-11,23.243-11.443a.845.845,0,0,0-1.192-1.2c-.106.1-10.693,10.495-22.119,10.952-12.558.494-16.029-8.491-16.171-8.874a.845.845,0,0,0-1.588.58c.037.1,3.8,10,16.773,10" transform="translate(80.957 36.043)" fill="#5880eb"/>
              <path id="Trazado_828788" data-name="Trazado 828788" d="M98.123,54.4a55.545,55.545,0,0,0-2.279,15.765.84.84,0,0,1-1.679,0A57.134,57.134,0,0,1,96.5,53.953a.841.841,0,0,1,1.62.446" transform="translate(71.28 33.274)" fill="#5880eb"/>
              <path id="Trazado_828789" data-name="Trazado 828789" d="M101.983,52.544a39.979,39.979,0,0,0-2.909,14.808.841.841,0,0,1-1.68,0A41.276,41.276,0,0,1,100.362,52.1c.4-.992,2.023-.558,1.62.446" transform="translate(62.153 32.135)" fill="#5880eb"/>
              <path id="Trazado_828790" data-name="Trazado 828790" d="M126.008,43.715c-.222,5.786-5.393,12.685-12.97,12.6h-.2c-.135.328-.289.648-.45.976-.068.141-.141.286-.213.427a.242.242,0,0,1-.023.039c-5.091,9.649-19.322,14.894-26.9,14.81a17.281,17.281,0,0,1-5.083-.859C72.2,69.659,71.115,58.751,72.691,50.5a31.874,31.874,0,0,1,.846-3.383c.023-.071.047-.144.07-.216,0,0-2.247-11.7-2.682-16.789-.839-9.857,5.169-19.608,26.756-20.741s26.233,12.415,27.472,19.557c.209,1.19-.3,8.212-1.518,9.3,2,1.117,2.448,3.536,2.374,5.481" transform="translate(81.278 5.804)" fill="#eaad8f"/>
              <path id="Trazado_828791" data-name="Trazado 828791" d="M94.387,30.637c.045,1.489-.546,2.716-1.32,2.739s-1.437-1.166-1.481-2.654.546-2.715,1.318-2.739,1.438,1.166,1.482,2.654" transform="translate(79.242 17.448)" fill="#171612"/>
              <path id="Trazado_828792" data-name="Trazado 828792" d="M90.033,28.916a.394.394,0,0,1-.023-.7c.159-.088,3.94-2.125,6.851.395a.394.394,0,1,1-.516.6c-2.5-2.164-5.921-.318-5.955-.3a.391.391,0,0,1-.357.011" transform="translate(79.519 17.055)" fill="#171612"/>
              <path id="Trazado_828793" data-name="Trazado 828793" d="M102.378,31.013c.044,1.489-.546,2.716-1.32,2.739s-1.437-1.166-1.482-2.654.547-2.716,1.32-2.739,1.437,1.166,1.482,2.654" transform="translate(58.278 17.682)" fill="#171612"/>
              <path id="Trazado_828794" data-name="Trazado 828794" d="M98.534,29.869a.406.406,0,0,1-.2-.141.4.4,0,0,1,.081-.552c.148-.109,3.616-2.641,6.843-.537a.395.395,0,1,1-.432.661c-2.771-1.807-5.908.487-5.939.51a.4.4,0,0,1-.354.06" transform="translate(57.358 17.338)" fill="#171612"/>
              <path id="Trazado_828795" data-name="Trazado 828795" d="M84.187,39.307h-.2c-.135.328-.289.649-.45.977-.068.141-.141.284-.213.425a.35.35,0,0,1-.023.041,6.983,6.983,0,0,1-2.879-1.27,5.521,5.521,0,0,1-1.479-1.731A.782.782,0,0,1,80.311,37a4.21,4.21,0,0,0,1.8,1.7,5.554,5.554,0,0,0,1.348.479,6.384,6.384,0,0,0,.727.132" transform="translate(110.128 22.816)" fill="#c6695d"/>
              <g id="Grupo_1074884" data-name="Grupo 1074884" transform="translate(153.97 52.926)" opacity="0.5">
                <g id="Grupo_1074883" data-name="Grupo 1074883">
                  <g id="Grupo_1074882" data-name="Grupo 1074882" clip-path="url(#clip-path-4)">
                    <path id="Trazado_828796" data-name="Trazado 828796" d="M105.407,34.49c-.049.859-1.965,1.469-4.465,1.492a31.486,31.486,0,0,1,.846-3.383c2.143.357,3.664,1.107,3.619,1.891" transform="translate(-100.942 -32.599)" fill="#c6695d"/>
                  </g>
                </g>
              </g>
              <path id="Trazado_828797" data-name="Trazado 828797" d="M85.328,36.953c-.49.343-.977.688-1.477,1.016a7.411,7.411,0,1,1-4.168-.857,1.788,1.788,0,0,0,1.081-1.661q-.209-.01-.424-.01a9.083,9.083,0,1,0,4.987,1.512" transform="translate(117.191 22.099)" fill="#fff"/>
              <path id="Trazado_828798" data-name="Trazado 828798" d="M97.238,41.925a2.7,2.7,0,0,0,1.643-.726.454.454,0,0,0-.649-.635,1.845,1.845,0,0,1-2.042.268.455.455,0,0,0-.362.834,2.971,2.971,0,0,0,1.411.258" transform="translate(68.175 25.209)" fill="#c6695d"/>
              <path id="Trazado_828799" data-name="Trazado 828799" d="M99.028,40.939l.078-.006a5.745,5.745,0,0,0,4.629-2.887.7.7,0,0,0-1.257-.63,4.346,4.346,0,0,1-3.491,2.115l-.063,0a4.26,4.26,0,0,1-3.611-1.162.7.7,0,1,0-1.1.882,5.641,5.641,0,0,0,4.811,1.684" transform="translate(65.797 23.089)" fill="#c6695d"/>
              <path id="Trazado_828800" data-name="Trazado 828800" d="M99.723,39.413a.656.656,0,0,1-.352-.1l-2.882-1.838a.655.655,0,0,1,.041-1.13c2.375-1.283,3.859-3.34,4.669-6.475a.656.656,0,0,1,1.271.328,10.92,10.92,0,0,1-4.387,6.738l1.994,1.271a.656.656,0,0,1-.354,1.208" transform="translate(63.668 18.317)" fill="#b4665e"/>
              <path id="Trazado_828801" data-name="Trazado 828801" d="M89.014,25.482a1.594,1.594,0,0,1-.976-2.973,4.628,4.628,0,0,1,3.221-.378,11.558,11.558,0,0,1,7.985,6.478s-5.382-2.948-8.444-3.171a8.893,8.893,0,0,0-1.786.044" transform="translate(81.484 13.722)" fill="#171612"/>
              <path id="Trazado_828802" data-name="Trazado 828802" d="M106.635,25.657a1.593,1.593,0,0,0,.976-2.971,4.618,4.618,0,0,0-3.221-.38c-5.88,1.229-6.262,5.429-6.262,5.429a21.139,21.139,0,0,1,6.721-2.122,8.9,8.9,0,0,1,1.786.044" transform="translate(54.57 13.831)" fill="#171612"/>
              <g id="Grupo_1074887" data-name="Grupo 1074887" transform="translate(171.797 53.949)" opacity="0.5">
                <g id="Grupo_1074886" data-name="Grupo 1074886">
                  <g id="Grupo_1074885" data-name="Grupo 1074885" clip-path="url(#clip-path-5)">
                    <path id="Trazado_828803" data-name="Trazado 828803" d="M86,34.723c-.055.981,2.34,1.911,5.35,2.081s5.494-.489,5.549-1.468-2.341-1.911-5.35-2.081-5.494.487-5.549,1.468" transform="translate(-85.998 -33.229)" fill="#c6695d"/>
                  </g>
                </g>
              </g>
              <path id="Trazado_828804" data-name="Trazado 828804" d="M74.44,39.176a.778.778,0,0,0,.664-.6c1.252-5.4,7.837-7.512,7.9-7.533a.781.781,0,0,0-.461-1.492c-.307.094-7.509,2.385-8.965,8.673a.783.783,0,0,0,.859.951" transform="translate(119.333 18.405)" fill="#c6695d"/>
              <path id="Trazado_828805" data-name="Trazado 828805" d="M79.321,35.164a.781.781,0,0,0,.584-1.158,5.36,5.36,0,0,0-4.625-2.513.782.782,0,0,0,0,1.563,3.8,3.8,0,0,1,3.258,1.713.782.782,0,0,0,.779.395" transform="translate(121.361 19.637)" fill="#c6695d"/>
              <path id="Trazado_828806" data-name="Trazado 828806" d="M99.8,21.712s-1.419,6.066,3.606,9.782a29.636,29.636,0,0,0,6.705,3.984s-7.725,16.5-1.46,19.184,6.23-15.721,16.013-15.813c0,0,3.551-.594,3.44-6.762S118.219,8,102.125,8.325s-30.669,7.65-31.687,18.906,1.5,9.147,1.5,9.147-.873-6.613,7.08-11.224c6.6-3.825,20.788-3.442,20.788-3.442" transform="translate(80.246 5.188)" fill="#171612"/>
              <path id="Trazado_828807" data-name="Trazado 828807" d="M178.7,184.906l7.556-14.372a5.347,5.347,0,0,0-4.791-7.837L62.689,163.978l3.5,18.4Z" transform="translate(33.662 93.426)" fill="#171612"/>
              <path id="Trazado_828808" data-name="Trazado 828808" d="M80.158,202.674h106.3a4.081,4.081,0,0,0,4.134-4.645l-7.247-65.674a5.322,5.322,0,0,0-5.158-4.645H71.886a4.079,4.079,0,0,0-4.132,4.645L75,198.029a5.319,5.319,0,0,0,5.156,4.645" transform="translate(21.747 71.61)" fill="#fff"/>
              <path id="Trazado_828809" data-name="Trazado 828809" d="M78.479,203.333a.867.867,0,0,0,.112-.006.9.9,0,0,0,.779-1L70.546,131.98a.9.9,0,0,0-1.779.222l8.824,70.345a.9.9,0,0,0,.888.786" transform="translate(131.309 73.783)" fill="#171612"/>
              <path id="Trazado_828810" data-name="Trazado 828810" d="M120,154.962a9.358,9.358,0,0,1-8.678,10.152,9.658,9.658,0,0,1-10.15-8.951,9.358,9.358,0,0,1,8.678-10.152A9.658,9.658,0,0,1,120,154.962" transform="translate(38.07 83.01)" fill="#171612"/>
              <path id="Trazado_828811" data-name="Trazado 828811" d="M72.335,182H180.1a3.911,3.911,0,0,0,3.874-4.439l-1.026-7.509H67.293l1.169,8.567A3.909,3.909,0,0,0,72.335,182" transform="translate(29.058 98.009)" fill="#171612"/>
              <path id="Trazado_828812" data-name="Trazado 828812" d="M134.953,47.91a27.87,27.87,0,1,0,21.885-32.781A27.871,27.871,0,0,0,134.953,47.91" transform="translate(-86.062 9.095)" fill="#539380"/>
              <path id="Trazado_828813" data-name="Trazado 828813" d="M148.607,48.26a2.657,2.657,0,0,1-.541-.055,2.7,2.7,0,0,1-1.859-1.412l-3.1-6.066a2.7,2.7,0,0,1,4.8-2.455l1.568,3.065L167.9,26a2.7,2.7,0,1,1,3.448,4.143L150.331,47.637a2.7,2.7,0,0,1-1.724.623" transform="translate(-81.854 15.825)" fill="#fff"/>
              <path id="Trazado_828814" data-name="Trazado 828814" d="M151.113,36.865a.7.7,0,0,0-.671.872A30.86,30.86,0,0,0,183.1,60.647a.714.714,0,0,0,.653-.606.69.69,0,0,0-.745-.774,29.473,29.473,0,0,1-31.229-21.879.692.692,0,0,0-.669-.523" transform="translate(-105.654 22.987)" fill="#539380"/>
              <path id="Trazado_828815" data-name="Trazado 828815" d="M146.192,37.735l6.947,17.322a1.66,1.66,0,0,1-2.1,2.18L132.62,50.668Z" transform="translate(-46.256 23.529)" fill="#539380"/>
            </g>
          </g>
        </g>
      </g>
    </g>
    <path id="Trazado_876636" data-name="Trazado 876636" d="M65.4,26.6m2.809-10.7a5.4,5.4,0,1,1-1.582,3.823A5.393,5.393,0,0,1,68.213,15.9m1.168-5.355a9.448,9.448,0,0,0-2.117.9,9.555,9.555,0,0,0-1.859,1.4.329.329,0,0,1-.394.049L62.5,11.449l-.013-.009a.625.625,0,0,0-.835.236l-.012.017-1.766,3.06a.625.625,0,0,0,.23.852l.016.011,2.49,1.437a.332.332,0,0,1,.157.365,9.34,9.34,0,0,0-.21,1.143,9.719,9.719,0,0,0,0,2.328,9.31,9.31,0,0,0,.211,1.142.335.335,0,0,1-.177.377L60.1,23.844h0a.623.623,0,0,0-.23.85l1.776,3.078h0a.612.612,0,0,0,.376.289A.626.626,0,0,0,62.5,28l.019-.011,2.494-1.439a.331.331,0,0,1,.393.048A9.561,9.561,0,0,0,69.4,28.906a.333.333,0,0,1,.242.318v2.9a.621.621,0,0,0,.62.622h3.555a.626.626,0,0,0,.622-.622v-2.9a.333.333,0,0,1,.255-.323,9.5,9.5,0,0,0,2.118-.9,9.642,9.642,0,0,0,1.857-1.4.331.331,0,0,1,.412-.038L81.57,28a.627.627,0,0,0,.851-.229l.011-.017L84.2,24.695h0a.62.62,0,0,0,.06-.471.608.608,0,0,0-.288-.378L81.462,22.4c-.13-.073-.156-.365-.156-.365s.16-.753.209-1.142a9.861,9.861,0,0,0,0-2.328,10.171,10.171,0,0,0-.209-1.143.329.329,0,0,1,.174-.376L83.97,15.6a.61.61,0,0,0,.288-.379.626.626,0,0,0-.06-.473l-.01-.017-1.766-3.06h0a.629.629,0,0,0-.851-.229v0L79.06,12.9a.329.329,0,0,1-.4-.056,9.64,9.64,0,0,0-1.851-1.394,9.48,9.48,0,0,0-2.132-.9.333.333,0,0,1-.241-.32v-2.9a.626.626,0,0,0-.622-.621H70.257a.621.621,0,0,0-.62.621v2.9a.333.333,0,0,1-.257.323" transform="translate(1206.794 3784.313)" fill="#fff" fill-rule="evenodd" opacity="0.84"/>
    <g id="Grupo_1100432" data-name="Grupo 1100432" transform="translate(1198.927 3835.645)">
      <path id="Trazado_876686" data-name="Trazado 876686" d="M78.068,259.131H62.911a3.563,3.563,0,0,0-3.563,3.563v7.374a3.563,3.563,0,0,0,3.563,3.563h3.962l3,6.8,4.232-6.8h3.962a3.563,3.563,0,0,0,3.563-3.563v-7.374a3.563,3.563,0,0,0-3.563-3.563" transform="translate(-59.348 -259.131)" fill="#fee9b5"/>
      <path id="Trazado_876687" data-name="Trazado 876687" d="M78.068,259.131H62.911a3.563,3.563,0,0,0-3.563,3.563v7.374a3.563,3.563,0,0,0,3.563,3.563h3.962l3,6.8,4.232-6.8h3.962a3.563,3.563,0,0,0,3.563-3.563v-7.374A3.563,3.563,0,0,0,78.068,259.131Z" transform="translate(-59.348 -259.131)" fill="none" stroke="#263238" stroke-linecap="round" stroke-linejoin="round" stroke-width="1"/>
      <path id="Trazado_876688" data-name="Trazado 876688" d="M71.922,264.731a.7.7,0,0,1,.739-.693.687.687,0,0,1,.739.665.739.739,0,0,1-1.477.028m.157,1.5h1.154v4.929H72.079Z" transform="translate(-62.888 -260.513)" fill="#263238"/>
      <path id="Trazado_876689" data-name="Trazado 876689" d="M76.869,266.06v.3h1.357v.923H76.906v3.969H75.752v-3.969H74.94v-.923h.812v-.313a1.593,1.593,0,0,1,1.763-1.708,1.846,1.846,0,0,1,1.043.267l-.323.868a1.136,1.136,0,0,0-.637-.2c-.48,0-.729.268-.729.794" transform="translate(-63.738 -260.597)" fill="#263238"/>
    </g>
    <g id="Grupo_1100433" data-name="Grupo 1100433" transform="translate(1160.523 3826.75)">
      <path id="Trazado_876690" data-name="Trazado 876690" d="M172.685,246.2H157.738a3.513,3.513,0,0,0-3.513,3.513v7.272a3.514,3.514,0,0,0,3.513,3.513h3.907l2.96,6.71,4.173-6.71h3.907a3.514,3.514,0,0,0,3.513-3.513v-7.272a3.513,3.513,0,0,0-3.513-3.513" transform="translate(-154.225 -246.203)" fill="#fff"/>
      <path id="Trazado_876691" data-name="Trazado 876691" d="M172.685,246.2H157.738a3.513,3.513,0,0,0-3.513,3.513v7.272a3.514,3.514,0,0,0,3.513,3.513h3.907l2.96,6.71,4.173-6.71h3.907a3.514,3.514,0,0,0,3.513-3.513v-7.272A3.513,3.513,0,0,0,172.685,246.2Z" transform="translate(-154.225 -246.203)" fill="none" stroke="#263238" stroke-linecap="round" stroke-linejoin="round" stroke-width="1"/>
      <path id="Trazado_876692" data-name="Trazado 876692" d="M164.9,254.686c.364.118.537.364.537.929v1.73a.611.611,0,0,0,.674.692h.191v.91h-.456a1.351,1.351,0,0,1-1.547-1.484v-1.875c0-.3-.154-.437-.41-.437h-.3v-.928h.3c.255,0,.41-.137.41-.437V251.91a1.352,1.352,0,0,1,1.547-1.484h.456v.91h-.191a.611.611,0,0,0-.674.692v1.729c0,.565-.173.81-.537.929" transform="translate(-156.954 -247.434)" fill="#263238"/>
      <path id="Trazado_876693" data-name="Trazado 876693" d="M174.116,254.223v.929h-.31c-.245,0-.4.136-.4.436v1.875a1.359,1.359,0,0,1-1.557,1.484H171.4v-.911h.191a.613.613,0,0,0,.683-.691v-1.729c0-.564.163-.81.528-.929-.365-.118-.528-.363-.528-.928v-1.729a.614.614,0,0,0-.683-.692H171.4v-.91h.455a1.358,1.358,0,0,1,1.557,1.484v1.875c0,.3.155.437.4.437Z" transform="translate(-159.23 -247.435)" fill="#263238"/>
    </g>
    <g id="Grupo_1100434" data-name="Grupo 1100434" transform="translate(1224.435 3885.64) rotate(-90)">
      <path id="Trazado_876694" data-name="Trazado 876694" d="M17.991,20.475H3.424A3.424,3.424,0,0,1,0,17.05V9.963A3.424,3.424,0,0,1,3.424,6.539H7.232L10.117,0l4.067,6.539h3.807a3.424,3.424,0,0,1,3.424,3.424V17.05a3.424,3.424,0,0,1-3.424,3.424" transform="translate(0 0)" fill="#fff"/>
      <path id="Trazado_876695" data-name="Trazado 876695" d="M17.991,20.475H3.424A3.424,3.424,0,0,1,0,17.05V9.963A3.424,3.424,0,0,1,3.424,6.539H7.232L10.117,0l4.067,6.539h3.807a3.424,3.424,0,0,1,3.424,3.424V17.05A3.424,3.424,0,0,1,17.991,20.475Z" transform="translate(0 0)" fill="none" stroke="#263238" stroke-linecap="round" stroke-linejoin="round" stroke-width="1"/>
      <path id="Trazado_876696" data-name="Trazado 876696" d="M1.655,1.481v.253H2.82v.792H1.687V5.932H.7V2.526H0V1.734H.7V1.465A1.367,1.367,0,0,1,2.209,0a1.586,1.586,0,0,1,.9.229L2.827.974A.971.971,0,0,0,2.281.8c-.412,0-.626.23-.626.681" transform="translate(13.702 8.363) rotate(90)" fill="#263238"/>
      <path id="Trazado_876697" data-name="Trazado 876697" d="M0,2.162A2.129,2.129,0,0,1,2.249,0,2.127,2.127,0,0,1,4.506,2.162a2.133,2.133,0,0,1-2.257,2.17A2.135,2.135,0,0,1,0,2.162m3.508,0A1.232,1.232,0,0,0,2.249.839,1.23,1.23,0,0,0,1,2.162,1.229,1.229,0,0,0,2.249,3.484,1.231,1.231,0,0,0,3.508,2.162" transform="translate(12.046 11.435) rotate(90)" fill="#263238"/>
      <path id="Trazado_876698" data-name="Trazado 876698" d="M2.447,0V.943A1.243,1.243,0,0,0,2.218.919,1.153,1.153,0,0,0,.99,2.226V4.277H0V.048H.943V.666A1.663,1.663,0,0,1,2.447,0" transform="translate(12.046 16.889) rotate(90)" fill="#263238"/>
    </g>
    <g id="Grupo_1100436" data-name="Grupo 1100436" transform="translate(1145.535 3870.602)">
      <path id="Trazado_876699" data-name="Trazado 876699" d="M24.1,339.047H38.247a3.325,3.325,0,0,0,3.325-3.325V328.84a3.325,3.325,0,0,0-3.325-3.325h-3.7l.806-6.349L27.8,325.515H24.1a3.325,3.325,0,0,0-3.325,3.325v6.882a3.325,3.325,0,0,0,3.325,3.325" transform="translate(-20.778 -319.166)" fill="#fff"/>
      <path id="Trazado_876700" data-name="Trazado 876700" d="M24.1,339.047H38.247a3.325,3.325,0,0,0,3.325-3.325V328.84a3.325,3.325,0,0,0-3.325-3.325h-3.7l.806-6.349L27.8,325.515H24.1a3.325,3.325,0,0,0-3.325,3.325v6.882A3.325,3.325,0,0,0,24.1,339.047Z" transform="translate(-20.778 -319.166)" fill="none" stroke="#263238" stroke-linecap="round" stroke-linejoin="round" stroke-width="1"/>
      <g id="Grupo_1100435" data-name="Grupo 1100435" transform="translate(4.654 16.634) rotate(-90)">
        <path id="Trazado_876701" data-name="Trazado 876701" d="M3.647,2.864.918,1.844,3.647.823V0L0,1.416V2.27L3.647,3.687Z" transform="translate(5.737) rotate(90)" fill="#263238"/>
        <path id="Trazado_876702" data-name="Trazado 876702" d="M2.611,7.454H3.5L.886,0H0Z" transform="translate(7.454 3.913) rotate(90)" fill="#263238"/>
        <path id="Trazado_876703" data-name="Trazado 876703" d="M3.647,2.271V1.416L0,0V.823L2.73,1.844,0,2.865v.823Z" transform="translate(5.738 7.598) rotate(90)" fill="#263238"/>
      </g>
    </g>
    <g id="Grupo_1100437" data-name="Grupo 1100437" transform="translate(1261.818 3852.745)">
      <path id="Trazado_876704" data-name="Trazado 876704" d="M307.11,419.886l21.657-37.356a21.585,21.585,0,0,1-21.657,37.346Z" transform="translate(-307.11 -372.692)" fill="#fff"/>
      <path id="Trazado_876705" data-name="Trazado 876705" d="M339.692,376.21l-21.657,37.356a21.585,21.585,0,1,1,21.657-37.346Z" transform="translate(-307.1 -373.299)" fill="#3a1d71"/>
    </g>
  </g>
</svg>
