<svg xmlns="http://www.w3.org/2000/svg" width="60" height="60" viewBox="0 0 60 60">
  <g id="Grupo_1100586" data-name="Grupo 1100586" transform="translate(-401 -723)">
    <rect id="Rectángulo_401224" data-name="Rectángulo 401224" width="60" height="60" rx="8" transform="translate(401 723)" fill="#d6e1fd"/>
    <g id="activo" transform="translate(412 734)">
      <path id="Trazado_876736" data-name="Trazado 876736" d="M146.922,361.643a5.291,5.291,0,1,1-5.291-5.291A5.291,5.291,0,0,1,146.922,361.643Zm0,0" transform="translate(-126.08 -329.537)" fill="#99edf2"/>
      <path id="Trazado_876737" data-name="Trazado 876737" d="M43.8,101.983a10,10,0,0,1-3.413-7.561V90.309A10.2,10.2,0,0,0,30.347,79.98,10.2,10.2,0,0,0,20.3,90.309v4.113a10.006,10.006,0,0,1-3.426,7.572A2.61,2.61,0,0,0,16,103.956a2.55,2.55,0,0,0,2.511,2.581H42.184a2.551,2.551,0,0,0,2.511-2.581A2.624,2.624,0,0,0,43.8,101.983Zm0,0" transform="translate(-14.796 -73.962)" fill="#f5f5f5"/>
      <path id="Trazado_876738" data-name="Trazado 876738" d="M255.537,10.435A10.434,10.434,0,1,1,245.1,0,10.434,10.434,0,0,1,255.537,10.435Zm0,0" transform="translate(-217.01)" fill="#99edf2"/>
      <path id="Trazado_876739" data-name="Trazado 876739" d="M139.352,423.224a6.027,6.027,0,0,1-6.02-6.02,1.2,1.2,0,0,1,2.408,0,3.612,3.612,0,0,0,7.224,0,1.2,1.2,0,0,1,2.408,0A6.027,6.027,0,0,1,139.352,423.224Zm0,0" transform="translate(-123.299 -384.697)" fill="#4529c7"/>
      <path id="Trazado_876740" data-name="Trazado 876740" d="M29.3,96.436H2.809A2.81,2.81,0,0,1,.982,91.491a1.11,1.11,0,0,1,.128-.1,10.789,10.789,0,0,0,3.705-8.139V78.777a11.166,11.166,0,0,1,8.616-10.916,1.2,1.2,0,0,1,.556,2.344,8.765,8.765,0,0,0-6.763,8.572v4.479a13.2,13.2,0,0,1-4.66,10.067c-.024.019-.045.037-.071.055a.4.4,0,0,0-.085.249.406.406,0,0,0,.4.4H29.3a.406.406,0,0,0,.4-.4.384.384,0,0,0-.087-.249c-.024-.018-.047-.035-.069-.055a13.092,13.092,0,0,1-3.373-4.4,1.2,1.2,0,1,1,2.175-1.029A10.73,10.73,0,0,0,31,91.4a1.389,1.389,0,0,1,.122.091A2.808,2.808,0,0,1,29.3,96.436Zm0,0" transform="translate(0 -62.724)" fill="#4529c7"/>
      <path id="Trazado_876741" data-name="Trazado 876741" d="M245.1,20.869a10.434,10.434,0,1,1,10.435-10.434A10.446,10.446,0,0,1,245.1,20.869Zm0-18.461a8.026,8.026,0,1,0,8.027,8.027A8.036,8.036,0,0,0,245.1,2.408Zm0,0" transform="translate(-217.01)" fill="#4529c7"/>
      <path id="Trazado_876742" data-name="Trazado 876742" d="M339.211,94.161a1.2,1.2,0,0,1-1.2-1.2V87.74h-.8a1.2,1.2,0,0,1,0-2.408h2.007a1.2,1.2,0,0,1,1.2,1.2v6.421A1.2,1.2,0,0,1,339.211,94.161Zm0,0" transform="translate(-310.716 -78.911)" fill="#4529c7"/>
    </g>
  </g>
</svg>
