<svg xmlns="http://www.w3.org/2000/svg" width="60" height="60" viewBox="0 0 60 60">
  <g id="Grupo_1100591" data-name="Grupo 1100591" transform="translate(-824 -722)">
    <rect id="Rectángulo_401228" data-name="Rectángulo 401228" width="60" height="60" rx="8" transform="translate(824 722)" fill="#d6e1fd"/>
    <g id="presupuesto" transform="translate(837.451 736)">
      <path id="Trazado_876751" data-name="Trazado 876751" d="M125.145,13.473V32.4c0,.038,0,.076,0,.113A2.443,2.443,0,0,1,122.7,34.84H108.966a2.443,2.443,0,0,1-2.443-2.443V10.487a2.44,2.44,0,0,1,2.443-2.443h10.91a2.435,2.435,0,0,1,1.061.243c.66.318.846.719,2.032,1.932,1.365,1.482,1.69,1.634,1.968,2.275A2.416,2.416,0,0,1,125.145,13.473Z" transform="translate(-99.336 -7.54)" fill="#2cfedf"/>
      <path id="Trazado_876752" data-name="Trazado 876752" d="M153.418,13.472V32.4c0,.038,0,.076,0,.113a2.451,2.451,0,0,1-.552.062H139.128a2.443,2.443,0,0,1-2.443-2.443V8.219c0-.038,0-.076,0-.114a2.454,2.454,0,0,1,.552-.062H148.15a2.447,2.447,0,0,1,1.785.776l1.308,1.4,1.5,1.567a2.459,2.459,0,0,1,.678,1.688Z" transform="translate(-127.609 -7.539)" fill="#fff"/>
      <path id="Trazado_876754" data-name="Trazado 876754" d="M287.656,178.349v13.737a1.772,1.772,0,0,1-2.025,2.319h-8.972a3.453,3.453,0,0,1-3.453-3.453V177.215a1.772,1.772,0,0,1,2.025-2.319H284.2A3.452,3.452,0,0,1,287.656,178.349Z" transform="translate(-255.579 -163.941)" fill="#fff"/>
      <path id="Trazado_876756" data-name="Trazado 876756" d="M299.429,208.191v1.729a1.113,1.113,0,0,1-1.113,1.113H289.41a1.114,1.114,0,0,1-1.113-1.113v-1.729a1.114,1.114,0,0,1,1.113-1.113h8.905A1.113,1.113,0,0,1,299.429,208.191Z" transform="translate(-269.725 -194.108)" fill="#2cfedf"/>
      <path id="Trazado_876757" data-name="Trazado 876757" d="M327.7,208.191v1.729a1.113,1.113,0,0,1-1.113,1.113h-7.016a1.114,1.114,0,0,1-1.113-1.113v-1.729a1.114,1.114,0,0,1,1.113-1.113h7.016A1.113,1.113,0,0,1,327.7,208.191Z" transform="translate(-297.997 -194.108)" fill="#00ffdf"/>
      <path id="Trazado_876774" data-name="Trazado 876774" d="M79.179,462.847a1.2,1.2,0,0,1-1.2,1.2h-7.33a1.2,1.2,0,0,1,0-2.393h7.33A1.2,1.2,0,0,1,79.179,462.847Z" transform="translate(-64.591 -432.736)" fill="#fff"/>
      <path id="Trazado_876775" data-name="Trazado 876775" d="M79.179,424.642a1.2,1.2,0,0,1-1.2,1.2h-7.33a1.2,1.2,0,0,1,0-2.393h7.33A1.2,1.2,0,0,1,79.179,424.642Z" transform="translate(-64.591 -396.924)" fill="#fff"/>
      <path id="Trazado_876776" data-name="Trazado 876776" d="M79.179,386.438a1.2,1.2,0,0,1-1.2,1.2h-7.33a1.2,1.2,0,0,1,0-2.393h7.33A1.2,1.2,0,0,1,79.179,386.438Z" transform="translate(-64.591 -361.112)" fill="#fff"/>
      <path id="Trazado_876777" data-name="Trazado 876777" d="M79.179,348.233a1.2,1.2,0,0,1-1.2,1.2h-7.33a1.2,1.2,0,0,1-1.2-1.2,1.2,1.2,0,0,1,1.2-1.2h7.33A1.2,1.2,0,0,1,79.179,348.233Z" transform="translate(-64.591 -325.299)" fill="#2cfedf"/>
      <path id="Trazado_876778" data-name="Trazado 876778" d="M77.982,311.227h-7.33a1.2,1.2,0,0,1-1.2-1.2h0a1.2,1.2,0,0,1,1.2-1.2h7.33a1.2,1.2,0,0,1,1.2,1.2h0A1.2,1.2,0,0,1,77.982,311.227Z" transform="translate(-64.591 -289.49)" fill="#fff"/>
      <path id="Trazado_876779" data-name="Trazado 876779" d="M17.946,381.35a3.893,3.893,0,0,0-4.057-3.728H12.364a3.9,3.9,0,0,0,.333,7.789h1.192c.109,0,.218.005.329,0a3.962,3.962,0,0,0,.724-.1,3.9,3.9,0,0,0,3-3.654v0C17.951,381.553,17.951,381.452,17.946,381.35Z" transform="translate(-7.568 -353.967)" fill="#fff"/>
      <path id="Trazado_876780" data-name="Trazado 876780" d="M67.569,383.187v0a3.9,3.9,0,0,1-3,3.654,3.9,3.9,0,0,1-3-3.628c0-.009,0-.017,0-.026v0a3.9,3.9,0,0,1,3-3.932,3.9,3.9,0,0,1,3,3.629C67.573,382.986,67.573,383.087,67.569,383.187Z" transform="translate(-57.19 -355.5)" fill="#fff"/>
      <path id="Trazado_876781" data-name="Trazado 876781" d="M28.624,10.482H26.313V5.933A2.954,2.954,0,0,0,25.5,3.9L24,2.334C22.735,1.028,22.575.659,21.82.293A2.954,2.954,0,0,0,20.541,0H9.63A2.95,2.95,0,0,0,6.683,2.947V18.84H6.062a1.7,1.7,0,0,0-1.207,2.9,1.694,1.694,0,0,0-.494,1.2,1.744,1.744,0,0,0,.033.336,4.286,4.286,0,0,0,.613,8.546l8.384,0a1.7,1.7,0,0,0,1.207-2.9,1.691,1.691,0,0,0,.491-1.112h.638v.341a3.929,3.929,0,0,0,3.925,3.925h8.972a3.929,3.929,0,0,0,3.925-3.925V14.407A3.929,3.929,0,0,0,28.624,10.482Zm-6.519-8.7,2.508,2.652h0l0,0h0l0,0,0,0h0l0,0,0,0H22.105V1.781ZM6.062,19.847h7.33a.693.693,0,1,1,0,1.385H6.062a.693.693,0,1,1,0-1.385Zm0,2.393h7.33a.693.693,0,1,1,0,1.385H8.328a4.1,4.1,0,0,0-.638-.23,4.247,4.247,0,0,0-1.008-.148c-.1,0-.2,0-.3,0h-.94a.681.681,0,0,1-.077-.317A.694.694,0,0,1,6.062,22.24Zm8.023,3.086a.693.693,0,0,1-.693.693H10.572a4.238,4.238,0,0,0-.855-1.385h3.674A.694.694,0,0,1,14.084,25.326Zm-10.473-.9a4.347,4.347,0,0,0-.793,1.018H2.23A3.327,3.327,0,0,1,3.611,24.422ZM1.694,26.384h.734a4.349,4.349,0,0,0-.137.755H1.516A3.31,3.31,0,0,1,1.694,26.384Zm.081,2.5a3.3,3.3,0,0,1-.237-.8h.77a3.8,3.8,0,0,0,.18.8Zm.628.945c.309,0,.489,0,.531,0a4.254,4.254,0,0,0,.678.82A3.328,3.328,0,0,1,2.4,29.825Zm4.3,1.046a3.342,3.342,0,1,1,2.117-5.8A3.339,3.339,0,0,1,6.7,30.871Zm6.689-.067H9.325a4.316,4.316,0,0,0,1.082-1.385h2.984a.693.693,0,0,1,0,1.385Zm.687-3a.693.693,0,0,1-.687.608H10.755a4.328,4.328,0,0,0,.061-1.385h2.575A.693.693,0,0,1,14.078,27.8ZM15.727,26.8h-.909a1.672,1.672,0,0,0-.22-.273,1.7,1.7,0,0,0,0-2.393,1.7,1.7,0,0,0,0-2.393,1.7,1.7,0,0,0-1.207-2.9h-5.7V2.947a1.942,1.942,0,0,1,1.94-1.94H21.1V4.954a.5.5,0,0,0,.5.5h3.644c.105.408.04.273.06,5.025H19.652a3.929,3.929,0,0,0-3.925,3.925V26.8ZM31.6,28.144a2.984,2.984,0,0,1-2.98,2.98H19.652a2.984,2.984,0,0,1-2.98-2.98V14.407a2.984,2.984,0,0,1,2.98-2.98h8.972a2.984,2.984,0,0,1,2.98,2.98V28.144Z" transform="translate(0)" fill="#4529c7"/>
      <path id="Trazado_876782" data-name="Trazado 876782" d="M284.056,203.493h-1.713a.643.643,0,0,1-.641-.641v-1.729a.643.643,0,0,1,.641-.641h8.905a.642.642,0,0,1,.641.641v1.729a.642.642,0,0,1-.641.641h-5.155a.472.472,0,0,0,0,.945h5.155a1.587,1.587,0,0,0,1.586-1.586v-1.729a1.587,1.587,0,0,0-1.586-1.586h-8.905a1.586,1.586,0,0,0-1.586,1.586v1.729a1.586,1.586,0,0,0,1.586,1.586h1.713a.472.472,0,0,0,0-.945Z" transform="translate(-262.657 -187.04)" fill="#4529c7"/>
      <path id="Trazado_876783" data-name="Trazado 876783" d="M281.746,362.02h1.614a.989.989,0,0,0,.989-.989v-1.613a.989.989,0,0,0-.989-.989h-1.614a.99.99,0,0,0-.989.989v1.613A.99.99,0,0,0,281.746,362.02Zm-.044-2.6a.044.044,0,0,1,.044-.044h1.614a.044.044,0,0,1,.044.044v1.613a.044.044,0,0,1-.044.044h-1.614a.044.044,0,0,1-.044-.044Z" transform="translate(-262.657 -335.979)" fill="#4529c7"/>
      <path id="Trazado_876784" data-name="Trazado 876784" d="M419.658,291.068h-1.613a.99.99,0,0,0-.989.989v1.613a.99.99,0,0,0,.989.989h1.613a.99.99,0,0,0,.989-.989v-1.613A.99.99,0,0,0,419.658,291.068Zm.044,2.6a.044.044,0,0,1-.044.044h-1.613a.044.044,0,0,1-.044-.044c.02-1.6-.041-1.657.044-1.657h1.613a.044.044,0,0,1,.044.044Z" transform="translate(-390.419 -272.837)" fill="#4529c7"/>
      <path id="Trazado_876785" data-name="Trazado 876785" d="M281.746,294.659h1.614a.99.99,0,0,0,.989-.989v-1.613a.989.989,0,0,0-.989-.989h-1.614a.99.99,0,0,0-.989.989v1.613A.99.99,0,0,0,281.746,294.659Zm-.044-2.6a.044.044,0,0,1,.044-.044h1.614a.044.044,0,0,1,.044.044v1.613a.044.044,0,0,1-.044.044h-1.614a.044.044,0,0,1-.044-.044Z" transform="translate(-262.657 -272.837)" fill="#4529c7"/>
      <path id="Trazado_876786" data-name="Trazado 876786" d="M284.074,422.824a.988.988,0,0,0-.74-.333H281.72a.986.986,0,0,0-.739.333,1.351,1.351,0,0,0-.249,1.008v1.261a.99.99,0,0,0,.989.989h1.614a.99.99,0,0,0,.989-.989v-1.261A1.362,1.362,0,0,0,284.074,422.824Zm-.74,2.313c-1.594-.02-1.658.041-1.658-.044,0-1.708-.019-1.657.044-1.657h1.614c.077,0,.03.108.044.4A6.716,6.716,0,0,1,283.334,425.137Z" transform="translate(-262.632 -396.028)" fill="#4529c7"/>
      <path id="Trazado_876787" data-name="Trazado 876787" d="M419.406,358.428h-1.112a1.241,1.241,0,0,0-1.239,1.239v5.011a1.355,1.355,0,0,0,1.353,1.353h.885a1.354,1.354,0,0,0,1.353-1.353v-5.011A1.241,1.241,0,0,0,419.406,358.428Zm.295,6.25a.409.409,0,0,1-.408.409h-.885a.409.409,0,0,1-.408-.409v-5.011a.3.3,0,0,1,.295-.295h1.112a.3.3,0,0,1,.295.295v5.011Z" transform="translate(-390.418 -335.978)" fill="#4529c7"/>
      <path id="Trazado_876788" data-name="Trazado 876788" d="M164.708,170.529h0c-.576-.212-.992-.364-.992-.9,0-.486.323-.733.96-.733.676,0,.858.3,1.1.3a.454.454,0,0,0,.4-.465c0-.393-.642-.589-1.216-.64v-.355a.448.448,0,1,0-.9,0v.411a1.464,1.464,0,0,0-1.216,1.531c0,1.1.809,1.4,1.46,1.648s1.14.428,1.14,1.155c0,.6-.333.9-.991.9-.963,0-.972-.65-1.339-.65a.472.472,0,0,0-.411.465c0,.372.554.861,1.357.988v.343a.448.448,0,1,0,.9,0v-.352a1.617,1.617,0,0,0,1.357-1.746C166.315,171.119,165.424,170.792,164.708,170.529Z" transform="translate(-152.001 -156.81)" fill="#4529c7"/>
      <path id="Trazado_876789" data-name="Trazado 876789" d="M351.078,422.491h-1.614a.988.988,0,0,0-.74.333,1.356,1.356,0,0,0-.249,1.008v1.261a.99.99,0,0,0,.989.989h1.614a.989.989,0,0,0,.988-.989v-1.614a.99.99,0,0,0-.988-.988Zm0,2.646c-1.594-.02-1.658.041-1.658-.044v-1.614a.044.044,0,0,1,.044-.043h1.614a.044.044,0,0,1,.043.043C351.1,425.077,351.162,425.137,351.078,425.137Z" transform="translate(-326.133 -396.028)" fill="#4529c7"/>
      <path id="Trazado_876790" data-name="Trazado 876790" d="M351.1,291.068h-1.614a.989.989,0,0,0-.989.989v1.613a.989.989,0,0,0,.989.989H351.1a.974.974,0,0,0,.36-.068.99.99,0,0,0,.628-.921v-1.613A.99.99,0,0,0,351.1,291.068Zm.043,2.6a.044.044,0,0,1-.043.044h-1.614a.044.044,0,0,1-.044-.044v-1.613c0-.085.059-.025,1.658-.044a.044.044,0,0,1,.043.044v1.613Z" transform="translate(-326.156 -272.837)" fill="#4529c7"/>
      <path id="Trazado_876791" data-name="Trazado 876791" d="M351.461,358.5a.974.974,0,0,0-.36-.068h-1.614a.989.989,0,0,0-.989.989v1.613a.989.989,0,0,0,.989.989H351.1a.989.989,0,0,0,.988-.989v-1.613A.99.99,0,0,0,351.461,358.5Zm-.316,2.534a.044.044,0,0,1-.043.044h-1.614a.044.044,0,0,1-.044-.044v-1.613a.044.044,0,0,1,.044-.044H351.1a.044.044,0,0,1,.043.044Z" transform="translate(-326.156 -335.978)" fill="#4529c7"/>
      <path id="Trazado_876792" data-name="Trazado 876792" d="M320.519,103.987h1.186a.472.472,0,1,0,0-.945h-1.186a.472.472,0,0,0,0,.945Z" transform="translate(-299.486 -96.588)" fill="#4529c7"/>
      <path id="Trazado_876793" data-name="Trazado 876793" d="M156.642,103.987h8.375a.472.472,0,1,0,0-.945h-8.375a.472.472,0,0,0,0,.945Z" transform="translate(-145.874 -96.588)" fill="#4529c7"/>
      <path id="Trazado_876794" data-name="Trazado 876794" d="M158.144,141.417a.472.472,0,0,0,0-.945h-1.5a.472.472,0,0,0,0,.945Z" transform="translate(-145.874 -131.674)" fill="#4529c7"/>
      <path id="Trazado_876795" data-name="Trazado 876795" d="M219.3,140.944a.472.472,0,0,0-.472-.472h-8.06a.472.472,0,0,0,0,.945h8.06A.472.472,0,0,0,219.3,140.944Z" transform="translate(-196.612 -131.674)" fill="#4529c7"/>
      <path id="Trazado_876796" data-name="Trazado 876796" d="M78.395,399.959c0-.119.044-.153.085-.175a.811.811,0,0,1,.685.046.54.54,0,0,0,.256.078c.466,0,.834-.866-.278-1.057v-.03a.479.479,0,1,0-.957,0v.091a1.074,1.074,0,0,0-.73,1.076c0,.805.585,1.025,1.013,1.186.408.153.548.22.548.5,0,.173-.047.334-.385.334-.494,0-.435-.39-.8-.39a.493.493,0,0,0-.456.489c0,.327.34.638.815.764v.036a.479.479,0,0,0,.957,0v-.048a1.183,1.183,0,0,0,.815-1.212C79.956,400.207,78.395,400.422,78.395,399.959Z" transform="translate(-72.008 -373.392)" fill="#4529c7"/>
    </g>
  </g>
</svg>
