<svg xmlns="http://www.w3.org/2000/svg" xmlns:xlink="http://www.w3.org/1999/xlink" width="192" height="82.137" viewBox="0 0 192 82.137">
  <defs>
    <clipPath id="clip-path">
      <rect id="Rectángulo_401364" data-name="Rectángulo 401364" width="55" height="21" transform="translate(312 1640)" fill="none" stroke="#707070" stroke-width="1"/>
    </clipPath>
    <clipPath id="clip-path-2">
      <rect id="Rectángulo_401395" data-name="Rectángulo 401395" width="52" height="21" transform="translate(3)" fill="none" stroke="#707070" stroke-width="1"/>
    </clipPath>
    <linearGradient id="linear-gradient" x2="0.5" y2="1" gradientUnits="objectBoundingBox">
      <stop offset="0" stop-color="#f354ee"/>
      <stop offset="1" stop-color="#5c1d94"/>
    </linearGradient>
  </defs>
  <g id="Grupo_1099579" data-name="Grupo 1099579" transform="translate(-180 -1639)">
    <g id="Grupo_1099568" data-name="Grupo 1099568">
      <g id="Grupo_1074076" data-name="Grupo 1074076" transform="translate(-945 -5488)">
        <rect id="Rectángulo_401407" data-name="Rectángulo 401407" width="192" height="41" rx="3" transform="translate(1125 7149)" fill="#f0c518"/>
        <g id="redes-sociales" transform="translate(1179.499 7124.302)">
          <g id="Grupo_1100703" data-name="Grupo 1100703" transform="translate(1.203 3.901)">
            <g id="Grupo_1100691" data-name="Grupo 1100691" transform="translate(16.026)">
              <g id="Grupo_1100690" data-name="Grupo 1100690">
                <g id="Grupo_1100689" data-name="Grupo 1100689">
                  <g id="Grupo_1100688" data-name="Grupo 1100688">
                    <g id="Grupo_1100687" data-name="Grupo 1100687">
                      <path id="Trazado_877038" data-name="Trazado 877038" d="M150.389,89.928H113.812a6.417,6.417,0,0,1-6.417-6.417v-66.9a6.417,6.417,0,0,1,6.417-6.417h36.577a6.417,6.417,0,0,1,6.417,6.417v66.9A6.417,6.417,0,0,1,150.389,89.928Z" transform="translate(-107.395 -10.197)" fill="#3d6d93"/>
                      <path id="Trazado_877039" data-name="Trazado 877039" d="M350.208,10.2h-4.813a6.417,6.417,0,0,1,6.417,6.417v66.9a6.417,6.417,0,0,1-6.417,6.417h4.813a6.417,6.417,0,0,0,6.417-6.417v-66.9a6.417,6.417,0,0,0-6.417-6.417Z" transform="translate(-307.214 -10.197)" fill="#335e80"/>
                      <path id="Trazado_877040" data-name="Trazado 877040" d="M169.071,41.48a2.169,2.169,0,0,1-2.169,2.169h-19.23A2.169,2.169,0,0,1,145.5,41.48a1.283,1.283,0,0,0-1.283-1.283H139.8a2.406,2.406,0,0,0-2.406,2.406V107.9A2.406,2.406,0,0,0,139.8,110.3h34.972a2.406,2.406,0,0,0,2.406-2.406V42.6a2.406,2.406,0,0,0-2.406-2.406h-4.419A1.283,1.283,0,0,0,169.071,41.48Z" transform="translate(-132.582 -35.384)" fill="#f9f7f8"/>
                    </g>
                  </g>
                </g>
              </g>
            </g>
            <g id="Grupo_1100694" data-name="Grupo 1100694" transform="translate(0.865 8.76)">
              <g id="Grupo_1100692" data-name="Grupo 1100692">
                <circle id="Elipse_11571" data-name="Elipse 11571" cx="13.872" cy="13.872" r="13.872" transform="translate(0 0)" fill="#ffe179"/>
                <path id="Trazado_877041" data-name="Trazado 877041" d="M86.769,64.8a13.943,13.943,0,0,0-2.406.212,13.869,13.869,0,0,1,0,27.319A13.871,13.871,0,1,0,86.769,64.8Z" transform="translate(-72.898 -64.802)" fill="#fbd268"/>
              </g>
              <g id="Grupo_1100693" data-name="Grupo 1100693" transform="translate(6.652 6.652)">
                <path id="Trazado_877042" data-name="Trazado 877042" d="M66.394,120.708H56.768a2.406,2.406,0,0,1-2.406-2.406v-9.625a2.406,2.406,0,0,1,2.406-2.406h9.625a2.406,2.406,0,0,1,2.406,2.406V118.3A2.406,2.406,0,0,1,66.394,120.708Z" transform="translate(-54.362 -106.27)" fill="#f58a97"/>
                <path id="Trazado_877043" data-name="Trazado 877043" d="M104.176,106.27H99.363a2.406,2.406,0,0,1,2.406,2.406V118.3a2.406,2.406,0,0,1-2.406,2.406h4.813a2.406,2.406,0,0,0,2.406-2.406v-9.625A2.406,2.406,0,0,0,104.176,106.27Z" transform="translate(-92.144 -106.27)" fill="#f07281"/>
                <circle id="Elipse_11572" data-name="Elipse 11572" cx="2.406" cy="2.406" r="2.406" transform="translate(4.813 4.813)" fill="#fff"/>
              </g>
            </g>
            <g id="Grupo_1100696" data-name="Grupo 1100696" transform="translate(0 41.497)">
              <g id="Grupo_1100695" data-name="Grupo 1100695">
                <circle id="Elipse_11573" data-name="Elipse 11573" cx="13.872" cy="13.872" r="13.872" fill="#8fd8fa"/>
                <path id="Trazado_877044" data-name="Trazado 877044" d="M80.536,268.866a13.932,13.932,0,0,0-2.566.241,13.87,13.87,0,0,1,0,27.261,13.871,13.871,0,1,0,2.566-27.5Z" transform="translate(-66.665 -268.866)" fill="#6bcdfe"/>
              </g>
              <g id="Shape_2_" transform="translate(6.147 7.498)">
                <path id="Trazado_877045" data-name="Trazado 877045" d="M57.961,316.661a3.065,3.065,0,0,0-5.378,2.052v.684a7.294,7.294,0,0,1-5.706-2.521.41.41,0,0,0-.705.146c-.5,1.709-1.191,6.007,3.675,8.17a7.965,7.965,0,0,1-3.2,1.273c-.3.048-.15.6-.075.791.516,1.348,6.341,1.906,9.908-1.027a9.355,9.355,0,0,0,3.084-5.739,6.309,6.309,0,0,0,1.7-3.335.732.732,0,0,0-1.049-.777,3.512,3.512,0,0,1-.769.268A3.584,3.584,0,0,1,57.961,316.661Z" transform="translate(-45.819 -315.608)" fill="#fff"/>
              </g>
            </g>
            <g id="Grupo_1100699" data-name="Grupo 1100699" transform="translate(52.853 41.497)">
              <g id="Grupo_1100697" data-name="Grupo 1100697">
                <circle id="Elipse_11574" data-name="Elipse 11574" cx="13.872" cy="13.872" r="13.872" transform="translate(0 0)" fill="#f58a97"/>
                <path id="Trazado_877046" data-name="Trazado 877046" d="M410.833,268.866a13.944,13.944,0,0,0-2.406.212,13.869,13.869,0,0,1,0,27.319,13.871,13.871,0,1,0,2.406-27.531Z" transform="translate(-396.962 -268.866)" fill="#f07281"/>
              </g>
              <g id="Grupo_1100698" data-name="Grupo 1100698" transform="translate(10.466 8.687)">
                <path id="Trazado_877047" data-name="Trazado 877047" d="M402.2,323.482a.466.466,0,0,1,.7-.4l8.437,4.873a.466.466,0,0,1,0,.807l-8.437,4.873a.466.466,0,0,1-.7-.4Z" transform="translate(-402.196 -323.015)" fill="#fff"/>
              </g>
            </g>
            <g id="Grupo_1100701" data-name="Grupo 1100701" transform="translate(52.853 8.76)">
              <g id="Grupo_1100700" data-name="Grupo 1100700">
                <circle id="Elipse_11575" data-name="Elipse 11575" cx="13.872" cy="13.872" r="13.872" fill="#8fd8fa"/>
                <path id="Trazado_877048" data-name="Trazado 877048" d="M410.833,64.8a13.943,13.943,0,0,0-2.406.212,13.869,13.869,0,0,1,0,27.318A13.871,13.871,0,1,0,410.833,64.8Z" transform="translate(-396.962 -64.802)" fill="#6bcdfe"/>
              </g>
            </g>
            <path id="Trazado_877049" data-name="Trazado 877049" d="M206.114,198.262A9.7,9.7,0,0,0,197.2,211.08a1.108,1.108,0,0,1-.006.724l-1.291,3.672a.642.642,0,0,0,.818.818l2.583-.908a1.133,1.133,0,0,1,1.078.187,9.7,9.7,0,1,0,5.735-17.311Z" transform="translate(-165.643 -168.089)" fill="#aee69c"/>
            <g id="Grupo_1100702" data-name="Grupo 1100702" transform="translate(38.317 30.17)">
              <path id="Trazado_877050" data-name="Trazado 877050" d="M248.5,198.262a9.579,9.579,0,0,0-2.141.3,9.693,9.693,0,0,1-.012,18.781,9.7,9.7,0,1,0,2.153-19.083Z" transform="translate(-246.35 -198.259)" fill="#89daa4"/>
            </g>
          </g>
          <g id="Grupo_1100704" data-name="Grupo 1100704" transform="translate(0 2.698)">
            <path id="Trazado_877051" data-name="Trazado 877051" d="M63.721,27.357h1.938V35a1.2,1.2,0,1,0,2.406,0V27.357H70a1.2,1.2,0,0,0,0-2.406H68.065v-3.5a1.22,1.22,0,0,1,1.218-1.218h2.851a1.2,1.2,0,0,0,0-2.406H69.283a3.629,3.629,0,0,0-3.625,3.625v3.5H63.721a1.2,1.2,0,0,0,0,2.406ZM41.934,9.237a1.2,1.2,0,1,0-1.2-1.2A1.2,1.2,0,0,0,41.934,9.237ZM15.94,30.142a3.61,3.61,0,1,0-3.61-3.61A3.614,3.614,0,0,0,15.94,30.142Zm0-4.813a1.2,1.2,0,1,1-1.2,1.2A1.2,1.2,0,0,1,15.94,25.329Zm4.813,9.625a3.614,3.614,0,0,0,3.61-3.61V21.72a3.614,3.614,0,0,0-3.61-3.61H11.127a3.614,3.614,0,0,0-3.61,3.61v9.625a3.614,3.614,0,0,0,3.61,3.61ZM9.924,31.345V21.72a1.2,1.2,0,0,1,1.2-1.2h9.625a1.2,1.2,0,0,1,1.2,1.2v9.625a1.2,1.2,0,0,1-1.2,1.2H11.127A1.2,1.2,0,0,1,9.924,31.345ZM23.232,52.778a1.938,1.938,0,0,0-2.018-.193,2.336,2.336,0,0,1-.506.177,2.308,2.308,0,0,1-.646.052,4.269,4.269,0,0,0-7.116,2.6,6.062,6.062,0,0,1-3.628-2.029,1.612,1.612,0,0,0-2.77.593c-.4,1.375-1.259,5.587,2.3,8.4-.679.207-1.452.191-1.848.879a2.07,2.07,0,0,0-.021,1.729,2.942,2.942,0,0,0,2.2,1.588,9.764,9.764,0,0,0,2.431.28,11.387,11.387,0,0,0,7.16-2.4,10.338,10.338,0,0,0,3.442-6.111,7.51,7.51,0,0,0,1.76-3.689,1.924,1.924,0,0,0-.741-1.87Zm-3,4.164a1.2,1.2,0,0,0-.323.641,8.113,8.113,0,0,1-2.661,5.006,9.457,9.457,0,0,1-6.823,1.768,9.166,9.166,0,0,0,1.633-.88,1.2,1.2,0,0,0-.187-2.095,4.958,4.958,0,0,1-3.282-5.376,8.441,8.441,0,0,0,5.561,1.883,1.2,1.2,0,0,0,1.172-1.2V56c0-.005,0-.011,0-.016a1.862,1.862,0,0,1,3.267-1.247,1.2,1.2,0,0,0,.673.39,4.749,4.749,0,0,0,2.129-.057,5.12,5.12,0,0,1-1.159,1.87Zm47.7-12.748h-.085v-2.59h.085a15.074,15.074,0,1,0-.085-30.148V10.318a7.629,7.629,0,0,0-7.62-7.62H23.646a7.629,7.629,0,0,0-7.62,7.62v1.141a15.01,15.01,0,0,0-8.271,2.413,1.2,1.2,0,1,0,1.308,2.02,12.665,12.665,0,1,1-3.638,3.574,1.2,1.2,0,0,0-2-1.344A15.077,15.077,0,0,0,15.94,41.607h.085v2.619c-.315-.02-.631-.031-.951-.031a15.075,15.075,0,0,0,0,30.149c.319,0,.636-.011.951-.031v2.9a7.629,7.629,0,0,0,7.62,7.62H60.222a7.629,7.629,0,0,0,7.62-7.62V74.343h.085a15.075,15.075,0,0,0,0-30.15Zm0-30.33A12.668,12.668,0,1,1,55.259,26.533,12.683,12.683,0,0,1,67.928,13.864ZM65.436,41.4v3a15,15,0,0,0-2.406.6V40.79a14.921,14.921,0,0,0,2.406.61Zm-44.6-30.28v1.155a14.942,14.942,0,0,0-2.406-.61V10.318A5.22,5.22,0,0,1,23.646,5.1H60.222a5.22,5.22,0,0,1,5.214,5.214v1.347a14.943,14.943,0,0,0-2.406.61V11.12a3.614,3.614,0,0,0-3.61-3.61H55A2.489,2.489,0,0,0,52.514,10a.967.967,0,0,1-.966.966H32.32A.967.967,0,0,1,31.354,10a2.485,2.485,0,0,0-2.487-2.487h-4.42A3.614,3.614,0,0,0,20.838,11.12ZM18.432,41.4a14.943,14.943,0,0,0,2.406-.61v4.551a14.935,14.935,0,0,0-2.406-.769ZM15.075,71.938A12.668,12.668,0,1,1,27.743,59.269,12.522,12.522,0,0,1,15.075,71.938Zm50.361,5.277a5.22,5.22,0,0,1-5.214,5.214H23.646a5.22,5.22,0,0,1-5.214-5.214V73.967a14.937,14.937,0,0,0,2.406-.769v3.215a3.614,3.614,0,0,0,3.61,3.61H59.42a3.614,3.614,0,0,0,3.61-3.61V73.527a14.943,14.943,0,0,0,2.406.61Zm2.492-5.277a12.68,12.68,0,0,1-12.26-15.871,1.2,1.2,0,1,0-2.329-.607,15.088,15.088,0,0,0,7.285,16.992v3.961a1.2,1.2,0,0,1-1.2,1.2H24.448a1.2,1.2,0,0,1-1.2-1.2v-4.48a15.064,15.064,0,0,0,0-25.326V39.715a15.068,15.068,0,0,0,0-26.365V11.12a1.2,1.2,0,0,1,1.2-1.2h4.42a.08.08,0,0,1,.057.023.076.076,0,0,1,.023.057,3.376,3.376,0,0,0,3.372,3.372H51.548A3.376,3.376,0,0,0,54.921,10a.08.08,0,0,1,.08-.08h4.42a1.2,1.2,0,0,1,1.2,1.2v2.23a15.068,15.068,0,0,0,.009,26.37,1.227,1.227,0,0,0-.009.138v6.213a15.105,15.105,0,0,0-4.641,4,1.2,1.2,0,1,0,1.906,1.469A12.513,12.513,0,0,1,67.928,46.6a12.668,12.668,0,1,1,0,25.337ZM46.343,43.368a1.2,1.2,0,0,0-1.653.4,2.889,2.889,0,0,1-.9.915,1.092,1.092,0,0,1-1.154.017l-1.8-1.093a1.115,1.115,0,0,1-.515-1.061,2.824,2.824,0,0,1,.4-1.19,1.2,1.2,0,1,0-2.057-1.249,5.251,5.251,0,0,0-.734,2.214l0,.024a3.512,3.512,0,0,0,1.664,3.318l1.8,1.093a3.511,3.511,0,0,0,3.711-.054,5.308,5.308,0,0,0,1.647-1.686A1.2,1.2,0,0,0,46.343,43.368ZM74.259,57.979l-8.436-4.873a1.682,1.682,0,0,0-2.5,1.445V64.3a1.686,1.686,0,0,0,2.5,1.445l8.436-4.873A1.688,1.688,0,0,0,74.259,57.979Zm-8.534,5.041V55.829l6.225,3.6ZM41.642,32.871A10.9,10.9,0,0,0,31.6,47.244l-1.281,3.645a1.845,1.845,0,0,0,2.352,2.352l2.541-.893a10.9,10.9,0,1,0,6.425-19.477Zm.529,19.385a8.522,8.522,0,0,1-5.487-1.816,2.344,2.344,0,0,0-1.453-.509,2.316,2.316,0,0,0-.769.132l-1.479.52.9-2.568a2.318,2.318,0,0,0,.01-1.511,8.493,8.493,0,1,1,8.276,5.752Z" transform="translate(0 -2.698)"/>
          </g>
        </g>
      </g>
      <g id="Grupo_1099569" data-name="Grupo 1099569" transform="translate(3 7)" clip-path="url(#clip-path)">
        <g id="Trazado_875277" data-name="Trazado 875277" transform="translate(318.307 1640.896)" fill="none">
          <path d="M22.6,0A22.6,22.6,0,1,1,0,22.6,22.6,22.6,0,0,1,22.6,0Z" stroke="none"/>
          <path d="M 22.60302925109863 7.000003814697266 C 13.99949645996094 7.000003814697266 7.000003814697266 13.99949645996094 7.000003814697266 22.60302925109863 C 7.000003814697266 31.20656204223633 13.99949645996094 38.2060546875 22.60302925109863 38.2060546875 C 31.20656204223633 38.2060546875 38.2060546875 31.20656204223633 38.2060546875 22.60302925109863 C 38.2060546875 13.99949645996094 31.20656204223633 7.000003814697266 22.60302925109863 7.000003814697266 M 22.60302925109863 3.814697265625e-06 C 35.08633422851562 3.814697265625e-06 45.2060546875 10.11972427368164 45.2060546875 22.60302925109863 C 45.2060546875 35.08633422851562 35.08633422851562 45.2060546875 22.60302925109863 45.2060546875 C 10.11972427368164 45.2060546875 3.814697265625e-06 35.08633422851562 3.814697265625e-06 22.60302925109863 C 3.814697265625e-06 10.11972427368164 10.11972427368164 3.814697265625e-06 22.60302925109863 3.814697265625e-06 Z" stroke="none" fill="#3a1d71"/>
        </g>
      </g>
      <g id="Grupo_1099592" data-name="Grupo 1099592" transform="translate(178 1694)" clip-path="url(#clip-path-2)">
        <g id="Trazado_875278" data-name="Trazado 875278" transform="translate(6.307 -25.103)" fill="none">
          <path d="M22.6,45.206A22.6,22.6,0,1,0,0,22.6,22.6,22.6,0,0,0,22.6,45.206Z" stroke="none"/>
          <path d="M 22.60302925109863 38.20605850219727 C 31.20656204223633 38.20605850219727 38.2060546875 31.20656585693359 38.2060546875 22.6030330657959 C 38.2060546875 13.99949932098389 31.20656204223633 7.000006198883057 22.60302925109863 7.000006198883057 C 13.99949550628662 7.000006198883057 7.000002384185791 13.99949932098389 7.000002384185791 22.6030330657959 C 7.000002384185791 31.20656585693359 13.99949550628662 38.20605850219727 22.60302925109863 38.20605850219727 M 22.60302925109863 45.20605850219727 C 10.11972236633301 45.20605850219727 2.584431967989076e-06 35.08633804321289 2.584431967989076e-06 22.6030330657959 C 2.584431967989076e-06 10.11972618103027 10.11972236633301 6.399129233614076e-06 22.60302925109863 6.399129233614076e-06 C 35.08633422851562 6.399129233614076e-06 45.2060546875 10.11972618103027 45.2060546875 22.6030330657959 C 45.2060546875 35.08633804321289 35.08633422851562 45.20605850219727 22.60302925109863 45.20605850219727 Z" stroke="none" fill="#3a1d71"/>
        </g>
      </g>
    </g>
    <path id="Trazado_875213" data-name="Trazado 875213" d="M7.822,0A7.822,7.822,0,1,1,0,7.822,7.822,7.822,0,0,1,7.822,0Z" transform="translate(194.189 1651.178)" fill="url(#linear-gradient)"/>
    <path id="Trazado_875214" data-name="Trazado 875214" d="M7.822,0A7.822,7.822,0,1,1,0,7.822,7.822,7.822,0,0,1,7.822,0Z" transform="translate(343.189 1696.178)" fill="url(#linear-gradient)"/>
    <g id="Grupo_1099577" data-name="Grupo 1099577" transform="translate(185.976 1647.068)">
      <path id="Trazado_875209" data-name="Trazado 875209" d="M146.155,139.539a1.18,1.18,0,0,0,1.668,0l4.442-4.442a1.18,1.18,0,0,0-1.668-1.668l-3.607,3.608-1.473-1.473a1.18,1.18,0,0,0-1.668,1.668Z" transform="translate(-89.464 -115.152)"/>
    </g>
    <g id="Grupo_1099578" data-name="Grupo 1099578" transform="translate(265.976 1646.068)">
      <path id="Trazado_875209-2" data-name="Trazado 875209" d="M146.155,139.539a1.18,1.18,0,0,0,1.668,0l4.442-4.442a1.18,1.18,0,0,0-1.668-1.668l-3.607,3.608-1.473-1.473a1.18,1.18,0,0,0-1.668,1.668Z" transform="translate(-105.464 -114.152)"/>
    </g>
  </g>
</svg>
