<svg xmlns="http://www.w3.org/2000/svg" width="78" height="78" viewBox="0 0 78 78">
  <g id="Grupo_1100895" data-name="Grupo 1100895" transform="translate(-610 -3459)">
    <g id="Grupo_1100708" data-name="Grupo 1100708" transform="translate(-712 1194)">
      <ellipse id="Elipse_9665" data-name="Elipse 9665" cx="39" cy="39" rx="39" ry="39" transform="translate(1322 2265)" fill="#a854f3"/>
    </g>
    <g id="hombre-de-influencia" transform="translate(601.703 3471)">
      <g id="Grupo_1100905" data-name="Grupo 1100905" transform="translate(24.078 0.781)">
        <path id="Trazado_877603" data-name="Trazado 877603" d="M57.949,58.416c2.014,0,4.4-1.9,4.4-3.913L62.5,11.617c0-.894-1.158-2.721-1.592-3.432A4.665,4.665,0,0,0,58.469,7.5H35.485A4.688,4.688,0,0,0,30.8,12.188v42.4a4.667,4.667,0,0,0,.685,2.441,5.733,5.733,0,0,0,2.551,1.21Z" transform="translate(-30.797 -7.5)" fill="#918291"/>
        <path id="Trazado_877604" data-name="Trazado 877604" d="M66.8,14.072a4.666,4.666,0,0,1,.685,2.441V59.955A3.646,3.646,0,0,1,63.836,63.6H39.81a4.667,4.667,0,0,1-2.441-.685,4.685,4.685,0,0,0,4,2.247H64.357a4.688,4.688,0,0,0,4.688-4.688v-42.4A4.685,4.685,0,0,0,66.8,14.072Z" transform="translate(-36.684 -13.387)" fill="#7a6d79"/>
        <path id="Trazado_877605" data-name="Trazado 877605" d="M86.185,38.562H81.6a.521.521,0,0,0-.466.288l-1.042,2.084a1.563,1.563,0,0,1-1.4.864H70.915a1.562,1.562,0,0,1-1.4-.864L68.475,38.85a.521.521,0,0,0-.466-.288H63.422a1.563,1.563,0,0,0-1.563,1.563V82.3a1.563,1.563,0,0,0,1.563,1.563H86.185A1.563,1.563,0,0,0,87.747,82.3V40.125A1.563,1.563,0,0,0,86.185,38.562Z" transform="translate(-58.623 -35.326)" fill="#eaf6ff"/>
        <path id="Trazado_877606" data-name="Trazado 877606" d="M114.461,305.7l-.973-6.953a4.718,4.718,0,0,0-2.657-.814H97.659a4.74,4.74,0,0,0-4.74,4.74v5.453l4.854,4.854v1.153l11.128.863C109.941,307.883,108.306,308.331,114.461,305.7Z" transform="translate(-86.447 -267.673)" fill="#60b7ff"/>
        <path id="Trazado_877607" data-name="Trazado 877607" d="M157.313,309.668a4.735,4.735,0,0,0-2.084-3.926v6.781a.521.521,0,0,1-.521.521H152.5a2.15,2.15,0,0,0-1.039.255,2.086,2.086,0,0,0-1.084,1.829v5.48a.521.521,0,0,1-.521.521h-10.34v2.084H152.46v-8.085h4.854Z" transform="translate(-128.189 -274.672)" fill="#26a6fe"/>
        <path id="Trazado_877608" data-name="Trazado 877608" d="M107.485,396.3v1.729a2.6,2.6,0,0,1-2.6,2.6H95.526a2.6,2.6,0,0,1-2.6-2.6v-2.25h14.042A.521.521,0,0,1,107.485,396.3Z" transform="translate(-86.45 -355.325)" fill="#ffdfcf"/>
        <path id="Trazado_877609" data-name="Trazado 877609" d="M310.359,113.167l16.553,1.138-.838-13.617H310.359Z" transform="translate(-281.235 -90.98)" fill="#5de1c4"/>
        <path id="Trazado_877610" data-name="Trazado 877610" d="M327.636,100.688h-1.563v11.958a.521.521,0,0,1-.521.521H310.359v2.084h3.236v3.236l3.083-3.083a.521.521,0,0,1,.368-.153h10.59a.521.521,0,0,0,.521-.521v-13.52A.521.521,0,0,0,327.636,100.688Z" transform="translate(-281.235 -90.98)" fill="#0ed2b3"/>
        <path id="Trazado_877611" data-name="Trazado 877611" d="M360.19,150.518h-2.715a.521.521,0,0,1-.521-.521V147.8a.521.521,0,0,1,.521-.521h2.715Z" transform="translate(-322.975 -132.72)" fill="#fd8087"/>
        <path id="Trazado_877612" data-name="Trazado 877612" d="M388.016,137.47l4.511,1.5a.26.26,0,0,0,.343-.247v-5.749a.261.261,0,0,0-.343-.247l-4.511,1.5Z" transform="translate(-350.801 -119.671)" fill="#fff"/>
        <path id="Trazado_877613" data-name="Trazado 877613" d="M158.409,122.842c0-2.74-3.409-5.207-6.007-5.7a5.607,5.607,0,0,0-4.563,5.508v2.8h9.126Z" transform="translate(-135.646 -105.724)" fill="#ffe177"/>
        <path id="Trazado_877614" data-name="Trazado 877614" d="M153.444,116.219a5.636,5.636,0,0,0-1.042.1,5.607,5.607,0,0,1,4.563,5.508v2.8h2.084v-2.8A5.605,5.605,0,0,0,153.444,116.219Z" transform="translate(-135.646 -104.893)" fill="#ffc344"/>
        <path id="Trazado_877615" data-name="Trazado 877615" d="M157.748,163.143l-.116-4.612c0-.3-.689-.976-.734-1.262a5.656,5.656,0,0,0-.58-.392.808.808,0,0,0-1.094.272l-.045.072a1.621,1.621,0,0,1-1.374.762h-.72a1.621,1.621,0,0,1-1.374-.762l-.045-.072a.807.807,0,0,0-1.092-.273,5.666,5.666,0,0,0-2.734,4.068v1.687a5.607,5.607,0,0,0,4.563,5.508C155,167.65,157.748,165.882,157.748,163.143Z" transform="translate(-135.647 -141.215)" fill="#ffdfcf"/>
        <path id="Trazado_877616" data-name="Trazado 877616" d="M196.136,161.6a5.641,5.641,0,0,1,.068.878v4.484a5.607,5.607,0,0,1-4.563,5.508,5.61,5.61,0,0,0,6.647-5.508v-1.687A5.659,5.659,0,0,0,196.136,161.6Z" transform="translate(-174.884 -145.542)" fill="#ffcebf"/>
        <path id="Trazado_877617" data-name="Trazado 877617" d="M277.807,395.771H263.765v4.855h11.958a2.6,2.6,0,0,0,2.6-2.6v-1.729A.521.521,0,0,0,277.807,395.771Z" transform="translate(-239.495 -355.321)" fill="#ffdfcf"/>
      </g>
      <g id="Grupo_1100906" data-name="Grupo 1100906" transform="translate(23.297 0)">
        <path id="Línea_661" data-name="Línea 661" d="M-6.719,6.9A.781.781,0,0,1-7.5,6.121V-6.719A.781.781,0,0,1-6.719-7.5a.781.781,0,0,1,.781.781V6.121A.781.781,0,0,1-6.719,6.9Z" transform="translate(39.861 35.006)"/>
        <path id="Trazado_877618" data-name="Trazado 877618" d="M24.078,35.463a.781.781,0,0,1-.781-.781V5.469A5.476,5.476,0,0,1,28.766,0H51.751A5.476,5.476,0,0,1,57.22,5.469v4.916a.781.781,0,1,1-1.563,0V5.469a3.911,3.911,0,0,0-3.907-3.907H28.766A3.911,3.911,0,0,0,24.86,5.469V34.682A.781.781,0,0,1,24.078,35.463Z" transform="translate(-23.297 0)"/>
        <path id="Trazado_877619" data-name="Trazado 877619" d="M51.751,376.2H28.766a5.476,5.476,0,0,1-5.469-5.469V361.19a.781.781,0,1,1,1.563,0v9.542a3.911,3.911,0,0,0,3.907,3.907H51.751a3.911,3.911,0,0,0,3.907-3.907v-1.68a.781.781,0,1,1,1.563,0v1.68A5.476,5.476,0,0,1,51.751,376.2Z" transform="translate(-23.297 -322.862)"/>
        <path id="Trazado_877620" data-name="Trazado 877620" d="M79.466,153.152H56.7a2.347,2.347,0,0,1-2.344-2.344V115.814a.781.781,0,0,1,1.563,0v34.994a.782.782,0,0,0,.781.781H79.466a.782.782,0,0,0,.781-.781v-1.57a.781.781,0,1,1,1.563,0v1.57A2.347,2.347,0,0,1,79.466,153.152Z" transform="translate(-51.123 -103.049)"/>
        <path id="Trazado_877621" data-name="Trazado 877621" d="M81.029,64.385a.781.781,0,0,1-.781-.781v-30.2a.782.782,0,0,0-.781-.781H75.04l-.97,1.94a2.331,2.331,0,0,1-2.1,1.3H64.2a2.331,2.331,0,0,1-2.1-1.3l-.97-1.94H56.7a.782.782,0,0,0-.781.781v3.539a.781.781,0,1,1-1.563,0V33.406A2.347,2.347,0,0,1,56.7,31.062h4.588a1.3,1.3,0,0,1,1.165.72L63.5,33.866a.777.777,0,0,0,.7.432h7.777a.777.777,0,0,0,.7-.432l1.042-2.084a1.3,1.3,0,0,1,1.165-.72h4.588a2.347,2.347,0,0,1,2.344,2.344V63.6A.781.781,0,0,1,81.029,64.385Z" transform="translate(-51.123 -27.826)"/>
        <path id="Línea_662" data-name="Línea 662" d="M-3.483-5.937H-6.719A.781.781,0,0,1-7.5-6.719.781.781,0,0,1-6.719-7.5h3.236a.781.781,0,0,1,.781.781A.781.781,0,0,1-3.483-5.937Z" transform="translate(22.062 10.736)"/>
        <path id="Línea_663" data-name="Línea 663" d="M-6.719-1.084A.781.781,0,0,1-7.5-1.865V-6.719A.781.781,0,0,1-6.719-7.5a.781.781,0,0,1,.781.781v4.853A.781.781,0,0,1-6.719-1.084Z" transform="translate(18.826 43.097)"/>
        <path id="Línea_664" data-name="Línea 664" d="M-6.719,2.153A.781.781,0,0,1-7.5,1.371v-8.09A.781.781,0,0,1-6.719-7.5a.781.781,0,0,1,.781.781v8.09A.781.781,0,0,1-6.719,2.153Z" transform="translate(31.77 43.097)"/>
        <path id="Trazado_877622" data-name="Trazado 877622" d="M189.2,195.644h-.418a.781.781,0,0,1,0-1.563h.418a.08.08,0,0,0,.08-.08v-.541a.781.781,0,1,1,1.563,0V194A1.644,1.644,0,0,1,189.2,195.644Z" transform="translate(-170.845 -172.606)"/>
        <path id="Trazado_877623" data-name="Trazado 877623" d="M86.2,388.275h14.042a1.3,1.3,0,0,1,1.3,1.3v1.729a3.39,3.39,0,0,1-3.386,3.386H88.808a3.39,3.39,0,0,1-3.386-3.386v-2.25A.781.781,0,0,1,86.2,388.275Zm13.781,1.563h-13v1.469a1.825,1.825,0,0,0,1.823,1.823h9.354a1.825,1.825,0,0,0,1.823-1.823Z" transform="translate(-78.95 -347.825)"/>
        <path id="Línea_665" data-name="Línea 665" d="M-1.865-5.937H-6.719A.781.781,0,0,1-7.5-6.719.781.781,0,0,1-6.719-7.5h4.854a.781.781,0,0,1,.781.781A.781.781,0,0,1-1.865-5.937Z" transform="translate(18.827 52.805)"/>
        <path id="Línea_666" data-name="Línea 666" d="M-1.865-5.937H-6.719A.781.781,0,0,1-7.5-6.719.781.781,0,0,1-6.719-7.5h4.854a.781.781,0,0,1,.781.781A.781.781,0,0,1-1.865-5.937Z" transform="translate(18.827 47.95)"/>
        <path id="Línea_667" data-name="Línea 667" d="M-6.718,2.049A.781.781,0,0,1-7.5,1.268V-6.719A.781.781,0,0,1-6.719-7.5a.781.781,0,0,1,.781.781V1.268A.781.781,0,0,1-6.718,2.049Z" transform="translate(31.77 47.95)"/>
        <path id="Trazado_877624" data-name="Trazado 877624" d="M91.055,310.173a.781.781,0,0,1-.781-.781V307.04H88.805a3.386,3.386,0,0,1-3.386-3.386v-7.7a5.528,5.528,0,0,1,5.521-5.521h13.172a5.528,5.528,0,0,1,5.521,5.521V301.3a.781.781,0,1,1-1.563,0v-5.349a3.963,3.963,0,0,0-3.959-3.959H90.94a3.963,3.963,0,0,0-3.959,3.959v7.7a1.823,1.823,0,0,0,1.823,1.823h2.25a.781.781,0,0,1,.781.781v3.132A.781.781,0,0,1,91.055,310.173Z" transform="translate(-78.947 -260.173)"/>
        <path id="Trazado_877625" data-name="Trazado 877625" d="M257.054,394.689h0a.781.781,0,1,1,.026-1.562h11.932a1.825,1.825,0,0,0,1.823-1.823v-1.469H257.155a.781.781,0,1,1,0-1.563h13.938a1.3,1.3,0,0,1,1.3,1.3V391.3a3.39,3.39,0,0,1-3.386,3.386Z" transform="translate(-231.999 -347.821)"/>
        <path id="Trazado_877626" data-name="Trazado 877626" d="M321.814,109.313h-3.156a.781.781,0,0,1,0-1.563h2.9v-13H304.64a.781.781,0,1,1,0-1.563h17.173a1.3,1.3,0,0,1,1.3,1.3v13.52A1.3,1.3,0,0,1,321.814,109.313Z" transform="translate(-274.63 -83.48)"/>
        <path id="Trazado_877627" data-name="Trazado 877627" d="M307.772,237.768a.781.781,0,0,1-.781-.781v-2.455h-2.35a.781.781,0,0,1,0-1.563h3.132a.781.781,0,0,1,.781.781v1.35l1.75-1.75a1.294,1.294,0,0,1,.921-.381h3.787a.781.781,0,0,1,0,1.563h-3.679l-3.007,3.007A.781.781,0,0,1,307.772,237.768Z" transform="translate(-274.63 -208.699)"/>
        <path id="Trazado_877628" data-name="Trazado 877628" d="M353.471,144.581h-2.715a1.3,1.3,0,0,1-1.3-1.3v-2.194a1.3,1.3,0,0,1,1.3-1.3h2.715a.781.781,0,0,1,.781.781V143.8A.781.781,0,0,1,353.471,144.581Zm-2.455-1.563h1.673v-1.673h-1.673Z" transform="translate(-315.475 -125.22)"/>
        <path id="Trazado_877629" data-name="Trazado 877629" d="M385.891,133.049a1.273,1.273,0,0,1-.33-.054l-4.511-1.5a.781.781,0,0,1-.534-.741v-3.236a.781.781,0,0,1,.534-.741l4.511-1.5a1.388,1.388,0,0,1,.33-.054,1.043,1.043,0,0,1,1.042,1.042v5.749a1.042,1.042,0,0,1-1.041,1.042Zm-3.813-2.862,3.291,1.1v-4.3l-3.291,1.1Z" transform="translate(-343.301 -112.171)"/>
        <path id="Línea_668" data-name="Línea 668" d="M-5.1-2.7a.781.781,0,0,1-.7-.432L-7.419-6.371A.781.781,0,0,1-7.07-7.419a.781.781,0,0,1,1.048.349L-4.4-3.834a.781.781,0,0,1-.349,1.048A.778.778,0,0,1-5.1-2.7Z" transform="translate(43.098 25.3)"/>
        <path id="Trazado_877630" data-name="Trazado 877630" d="M146.725,108.719a6.394,6.394,0,0,1,6.386,6.386v4.484a6.386,6.386,0,1,1-12.773,0v-4.484A6.394,6.394,0,0,1,146.725,108.719Zm0,15.694a4.829,4.829,0,0,0,4.824-4.824v-4.484a4.824,4.824,0,1,0-9.647,0v4.484A4.829,4.829,0,0,0,146.725,124.413Z" transform="translate(-128.146 -97.393)"/>
        <path id="Trazado_877631" data-name="Trazado 877631" d="M141.12,155.03a.782.782,0,0,1-.774-.893,6.412,6.412,0,0,1,3.11-4.63,1.6,1.6,0,0,1,2.151.532.88.88,0,0,0,.757.467h.721a.834.834,0,0,0,.712-.394,1.62,1.62,0,0,1,2.2-.6,6.413,6.413,0,0,1,3.108,4.628.781.781,0,0,1-1.547.223,4.858,4.858,0,0,0-2.355-3.505l-.7-.4.618.486a2.388,2.388,0,0,1-2.037,1.129h-.721a2.388,2.388,0,0,1-2.037-1.129l-.077-.086a4.857,4.857,0,0,0-2.357,3.506A.781.781,0,0,1,141.12,155.03Z" transform="translate(-128.145 -133.739)"/>
      </g>
    </g>
  </g>
</svg>
