<svg xmlns="http://www.w3.org/2000/svg" xmlns:xlink="http://www.w3.org/1999/xlink" width="295.551" height="227.398" viewBox="0 0 295.551 227.398">
  <defs>
    <clipPath id="clip-path">
      <rect id="Rectángulo_382963" data-name="Rectángulo 382963" width="237.544" height="188.196" rx="12" fill="#a854f3"/>
    </clipPath>
    <clipPath id="clip-path-2">
      <rect id="Rectángulo_400951" data-name="Rectángulo 400951" width="294.544" height="227.196" rx="12" transform="translate(-40 -39)" fill="#aec4fa"/>
    </clipPath>
    <clipPath id="clip-path-3">
      <rect id="Rectángulo_382951" data-name="Rectángulo 382951" width="176.216" height="142.672" fill="none"/>
    </clipPath>
    <clipPath id="clip-path-4">
      <rect id="Rectángulo_382952" data-name="Rectángulo 382952" width="67.204" height="74.57" fill="none"/>
    </clipPath>
    <clipPath id="clip-path-5">
      <rect id="Rectángulo_382949" data-name="Rectángulo 382949" width="163.391" height="222.705" fill="none"/>
    </clipPath>
  </defs>
  <g id="Grupo_1100901" data-name="Grupo 1100901" transform="translate(-705 -5806)">
    <rect id="Rectángulo_401856" data-name="Rectángulo 401856" width="295" height="227" rx="15" transform="translate(705 5806)" fill="#aec4fa"/>
    <g id="Grupo_1100900" data-name="Grupo 1100900" transform="translate(705 5845)">
      <g id="Enmascarar_grupo_1098653" data-name="Enmascarar grupo 1098653" transform="translate(41.007)" clip-path="url(#clip-path-2)">
        <g id="Grupo_1099146" data-name="Grupo 1099146" transform="translate(24.419 -63.936)">
          <path id="Elipse_11443" data-name="Elipse 11443" d="M107.187,23.176a84.011,84.011,0,1,1-84.011,84.011,84.106,84.106,0,0,1,84.011-84.011m0-23.176A107.187,107.187,0,1,0,214.374,107.187,107.187,107.187,0,0,0,107.187,0Z" transform="translate(69.03 -36)" fill="#ecf2ff"/>
          <path id="Elipse_11443-2" data-name="Elipse 11443" d="M50.976,11.022A39.954,39.954,0,1,1,11.022,50.976,40,40,0,0,1,50.976,11.022M50.976,0a50.976,50.976,0,1,0,50.976,50.976A50.976,50.976,0,0,0,50.976,0Z" transform="translate(125.241 26.421)" fill="#ecf2ff"/>
          <path id="Elipse_11443-3" data-name="Elipse 11443" d="M37.659,8.142A29.516,29.516,0,1,1,8.142,37.659,29.55,29.55,0,0,1,37.659,8.142m0-8.142A37.659,37.659,0,1,0,75.318,37.659,37.659,37.659,0,0,0,37.659,0Z" transform="translate(0 209.311)" fill="#ecf2ff"/>
        </g>
      </g>
      <g id="Grupo_1073731" data-name="Grupo 1073731" transform="translate(118.784 45.539)">
        <g id="Grupo_1073730" data-name="Grupo 1073730" transform="translate(0)" clip-path="url(#clip-path-3)">
          <path id="Trazado_824461" data-name="Trazado 824461" d="M138.518,58.04s-15.612,3.184-25.638-7.7,5.3-26.766,5.3-26.766-8.164-7.609-4.3-14.913c0,0,3.82-5.3,10.861-1.862,0,0,8.232-11.172,21.96-4.87s13.581,24.064,13.155,27.31c0,0,16.944,26.072-21.341,28.8" transform="translate(-46.757 0)" fill="#00184c"/>
          <path id="Trazado_824462" data-name="Trazado 824462" d="M89.672,113.792l-2.578,7.591L65.61,99.183a12.489,12.489,0,0,0-.907-7.83,13.907,13.907,0,0,1-.669-8.594,2.732,2.732,0,0,0-3.342.859l-2.036,6.418L40.964,85.373a3.926,3.926,0,0,0-1-.179c-1.175-.054-3.751.052-4.19,1.957a4.5,4.5,0,0,0-5.081,1.754l1.834.824s-2.877.274-3.545,2.184l2.22,1.715s1.54,2.8,2.948,3.74c4.545,3.043,19.575,6.111,21.723,8.546l19.486,33.1c2.792,4.744,6.531,9.019,11.977,9.82,3.651.536,9.191-.484,11.935-4.249a117.946,117.946,0,0,0,11.6-19.479Z" transform="translate(-12.377 -35.238)" fill="#ffa189"/>
          <line id="Línea_236" data-name="Línea 236" x2="6.541" y2="6.922" transform="translate(74.717 86.145)" fill="none" stroke="#f8756a" stroke-linecap="round" stroke-linejoin="round" stroke-width="1.5"/>
          <path id="Trazado_824463" data-name="Trazado 824463" d="M159.755,151.6l-3.088,18.388s6.684-11.159,8.737-15.373Z" transform="translate(-66.911 -64.747)" fill="#f8756a"/>
          <line id="Línea_237" data-name="Línea 237" x2="11.84" y2="3.82" transform="translate(23.394 51.913)" fill="none" stroke="#f8756a" stroke-linecap="round" stroke-linejoin="round" stroke-width="1.5"/>
          <line id="Línea_238" data-name="Línea 238" x2="13.177" y2="4.01" transform="translate(20.147 54.491)" fill="none" stroke="#f8756a" stroke-linecap="round" stroke-linejoin="round" stroke-width="1.5"/>
          <line id="Línea_239" data-name="Línea 239" x2="13.196" y2="3.613" transform="translate(18.314 58.04)" fill="none" stroke="#f8756a" stroke-linecap="round" stroke-linejoin="round" stroke-width="1.5"/>
          <path id="Trazado_824464" data-name="Trazado 824464" d="M67.042,106.874s6.588-3.581,9.238,2.865" transform="translate(-28.633 -45.221)" fill="none" stroke="#f8756a" stroke-linecap="round" stroke-linejoin="round" stroke-width="1.5"/>
          <path id="Trazado_824465" data-name="Trazado 824465" d="M233.192,128.113s13.081,1.528,17.856,16.471-10.885,52.374-10.885,52.374H177.333l23.3-42.109Z" transform="translate(-75.737 -54.716)" fill="#00184c"/>
          <path id="Trazado_824466" data-name="Trazado 824466" d="M233.433,183.7l3.509,2.578-7.4,34.422" transform="translate(-98.035 -78.455)" fill="none" stroke="#013f81" stroke-linecap="round" stroke-linejoin="round" stroke-width="1.5"/>
          <path id="Trazado_824467" data-name="Trazado 824467" d="M263.142,137.713l3.928,3.878a19.408,19.408,0,0,0,16.1,5.439l.133-.017" transform="translate(-112.385 -58.816)" fill="none" stroke="#013f81" stroke-linecap="round" stroke-linejoin="round" stroke-width="1.5"/>
          <path id="Trazado_824468" data-name="Trazado 824468" d="M277,208.121s14.132-43.574,8.976-53.87" transform="translate(-118.304 -65.879)" fill="none" stroke="#013f81" stroke-linecap="round" stroke-linejoin="round" stroke-width="1.5"/>
          <path id="Trazado_824469" data-name="Trazado 824469" d="M196.552,62.769a19.522,19.522,0,0,0-9.76-6.214,25.4,25.4,0,0,0-9.49-.949l-9.873.823-13.062,7.95-4.82,2.576a16.378,16.378,0,0,0-7.837,9.164,34.715,34.715,0,0,0-1.064,3.943c-1.719,8.164-5.729,22.2-5.729,22.2l21.2,11.315,4.977-10.217a13.687,13.687,0,0,0,3.759.239c5.347,3.151,17.665,20.243,17.665,20.243l32.56-26.736s-12.795-27.118-18.524-34.336" transform="translate(-57.622 -23.708)" fill="#1574dd"/>
          <path id="Trazado_824470" data-name="Trazado 824470" d="M172.683,128.032s-5.644-.068-6.649-4.917a55.442,55.442,0,0,0-3.055-9.835s1.361,17.808-.922,21.954l5.649,3.015Z" transform="translate(-69.213 -48.381)" fill="#013f81"/>
          <path id="Trazado_824471" data-name="Trazado 824471" d="M164.974,41.145l-10.476-5.2A4.393,4.393,0,0,0,157.24,31.8a4.127,4.127,0,1,0-8.236,0c0,.113.008.223.016.335l-.175-.149c-4.854-.651-14.369-12.257-14.371-12.26a8.284,8.284,0,0,0-1.87,4.328l.191,4.87-3.628,6.3h3.294s-.048,9.548,4.536,11.84a9.668,9.668,0,0,0,10.281-1.172l4.634,3.2s1.413,11.625,8.861,10.67c9.152-1.173,4.2-18.62,4.2-18.62" transform="translate(-55.166 -8.425)" fill="#ffa189"/>
          <path id="Trazado_824472" data-name="Trazado 824472" d="M150.041,31.55c-5.077-2.238-12.933-11.82-12.935-11.823a8.23,8.23,0,0,0-1.778,3.774c3.861,2.574,9.886,6.31,14.713,8.049Z" transform="translate(-57.797 -8.425)" fill="#f8756a"/>
          <path id="Trazado_824473" data-name="Trazado 824473" d="M160.78,61.176a27.435,27.435,0,0,0,4.089-5.666s.831,5.479-.3,8.283Z" transform="translate(-68.667 -23.708)" fill="#f8756a"/>
          <line id="Línea_240" data-name="Línea 240" y1="4.154" x2="2.714" transform="translate(96.495 21.048)" fill="none" stroke="#f8756a" stroke-linecap="round" stroke-linejoin="round" stroke-width="1.5"/>
          <path id="Trazado_824474" data-name="Trazado 824474" d="M141.667,50.357l4.679-1.91a2.653,2.653,0,0,1-1.743,3.318,2.481,2.481,0,0,1-2.936-1.408" transform="translate(-60.504 -20.691)" fill="#fcfbff"/>
          <path id="Trazado_824475" data-name="Trazado 824475" d="M140.929,35.786c0,.613-.353,1.11-.788,1.11s-.788-.5-.788-1.11.353-1.11.788-1.11.788.5.788,1.11" transform="translate(-59.517 -14.81)" fill="#00184c"/>
          <path id="Trazado_824476" data-name="Trazado 824476" d="M138.417,29.377a3.589,3.589,0,0,1,3.9,1.5" transform="translate(-59.116 -12.5)" fill="none" stroke="#00184c" stroke-linecap="round" stroke-linejoin="round" stroke-width="3"/>
          <path id="Trazado_824477" data-name="Trazado 824477" d="M171.3,132.113l.286,8.021L147.1,170.928l-16.806,6.735a6.228,6.228,0,0,0-3.035,2.6l-8.088,13.585a4.705,4.705,0,0,0,5.156-.716l-1,2.077s3.8.931,5.657-1.074l-.859,1.647a7.924,7.924,0,0,0,4.734.213s3.5,0,4.862-1.358a66.3,66.3,0,0,0,5.586-7.161s5.514.5,7.877-2.936l2.363-3.437,30.883-20.282a18.035,18.035,0,0,0,8.1-13.882l.982-14.821Z" transform="translate(-50.895 -56.424)" fill="#ffa189"/>
          <line id="Línea_241" data-name="Línea 241" y1="10.384" x2="6.016" transform="translate(73.428 126.32)" fill="none" stroke="#f8756a" stroke-linecap="round" stroke-linejoin="round" stroke-width="1.5"/>
          <line id="Línea_242" data-name="Línea 242" y1="10.098" x2="5.371" transform="translate(78.083 127.609)" fill="none" stroke="#f8756a" stroke-linecap="round" stroke-linejoin="round" stroke-width="1.5"/>
          <line id="Línea_243" data-name="Línea 243" y1="10.024" x2="5.22" transform="translate(81.958 129.543)" fill="none" stroke="#f8756a" stroke-linecap="round" stroke-linejoin="round" stroke-width="1.5"/>
          <path id="Trazado_824478" data-name="Trazado 824478" d="M210.167,132.113h22.2l-.272,4.1Z" transform="translate(-89.76 -56.424)" fill="#f8756a"/>
          <rect id="Rectángulo_382950" data-name="Rectángulo 382950" width="53.424" height="4.536" transform="translate(42.778 137.707)" fill="#1574dd"/>
          <path id="Trazado_824479" data-name="Trazado 824479" d="M68.45,214.825H11.458L0,169.947H56.992Z" transform="translate(0 -72.583)" fill="#b5e1ff"/>
          <path id="Trazado_824480" data-name="Trazado 824480" d="M96.489,169.947h-4.01l11.458,44.878h4.01Z" transform="translate(-39.496 -72.582)" fill="#1574dd"/>
          <path id="Trazado_824481" data-name="Trazado 824481" d="M52.139,203.759c.594,2.379-.418,4.681-2.26,5.141s-3.817-1.1-4.411-3.475.418-4.681,2.26-5.141,3.817,1.1,4.411,3.475" transform="translate(-19.346 -85.505)" fill="#fcfbff"/>
          <line id="Línea_244" data-name="Línea 244" x1="1.289" y1="26.64" transform="translate(119.118 49.049)" fill="none" stroke="#013f81" stroke-linecap="round" stroke-linejoin="round" stroke-width="1.5"/>
          <line id="Línea_245" data-name="Línea 245" y1="15.843" transform="translate(142.607 59.846)" fill="none" stroke="#013f81" stroke-linecap="round" stroke-linejoin="round" stroke-width="1.5"/>
        </g>
      </g>
      <g id="Grupo_1073733" data-name="Grupo 1073733" transform="translate(163.391 -37.285)">
        <g id="Grupo_1073732" data-name="Grupo 1073732" clip-path="url(#clip-path-4)">
          <path id="Trazado_824482" data-name="Trazado 824482" d="M4.467,15.305,29.134,1.064a9.911,9.911,0,0,1,8.935,0L62.736,15.305A9.911,9.911,0,0,1,67.2,23.043V51.527a9.912,9.912,0,0,1-4.468,7.739L38.069,73.506a9.909,9.909,0,0,1-8.935,0L4.467,59.265A9.913,9.913,0,0,1,0,51.527V23.043a9.912,9.912,0,0,1,4.467-7.738" transform="translate(0)" fill="#def2ff"/>
          <path id="Trazado_824483" data-name="Trazado 824483" d="M51.829,61.873A16.828,16.828,0,1,1,75.867,77.081c-1.839,1.117-1.844,2.568-1.764,5.158.067,2.18.215,3.937-.79,4.86a6.608,6.608,0,0,1-4.655,1.491A6.611,6.611,0,0,1,64,87.1c-1-.923-.857-2.679-.79-4.86.08-2.59.075-4.041-1.763-5.158a16.83,16.83,0,0,1-9.619-15.208" transform="translate(-35.477 -30.1)" fill="#f2ac30"/>
          <path id="Trazado_824484" data-name="Trazado 824484" d="M51.443,61.536A16.991,16.991,0,1,1,77.58,75.862,22.6,22.6,0,0,0,75.1,77.345,3.434,3.434,0,0,0,74.051,79.8c-.165,1.95.333,3.97-.15,5.89-.389,1.549-2.068,2.226-3.47,2.536-2.368.524-6.58.273-7.459-2.536-.87-2.781,1.323-7.274-2.04-8.9a17.142,17.142,0,0,1-9.489-15.249.166.166,0,0,1,.332,0A16.683,16.683,0,0,0,61.1,76.5a3.747,3.747,0,0,1,2.055,3.3c.17,2.006-.555,4.416.328,6.3.941,2,4.271,2.11,6.1,1.928a6.068,6.068,0,0,0,3.135-1.134,3.412,3.412,0,0,0,1.043-2.8c.057-1.841-.372-3.825.2-5.617.506-1.59,2.171-2.094,3.451-2.9A16.662,16.662,0,1,0,51.775,61.536a.166.166,0,0,1-.332,0" transform="translate(-35.257 -29.763)" fill="#f2ac30"/>
          <path id="Trazado_824485" data-name="Trazado 824485" d="M86.013,150.063a25.435,25.435,0,0,0,10.943,0,18.125,18.125,0,0,0-.026,2.352c.067,2.18.214,3.937-.791,4.86a8.015,8.015,0,0,1-9.311,0c-1.005-.923-.858-2.679-.79-4.86a18.232,18.232,0,0,0-.026-2.352" transform="translate(-58.304 -100.277)" fill="#32015c"/>
          <path id="Trazado_824486" data-name="Trazado 824486" d="M85.5,149.571a25.658,25.658,0,0,0,10.855,0,.168.168,0,0,1,.21.16c-.192,2.146.549,4.7-.4,6.712-.837,1.784-3.541,2.133-5.24,2.157-1.813.026-4.26-.433-5.241-2.157a5.479,5.479,0,0,1-.419-2.679c0-1.345.142-2.691.022-4.034-.019-.213.313-.211.332,0,.178,1.992-.33,4.091.161,6.047.519,2.066,3.4,2.465,5.145,2.49,1.837.026,4.512-.47,5.144-2.49a8.784,8.784,0,0,0,.164-2.827,26.943,26.943,0,0,1,0-3.22l.21.16a26.085,26.085,0,0,1-11.032,0c-.209-.045-.12-.365.088-.32" transform="translate(-57.75 -99.945)" fill="#32015c"/>
          <path id="Trazado_824487" data-name="Trazado 824487" d="M82.733,105.355h.012a.331.331,0,0,0,.32-.343,29.921,29.921,0,0,1,1.5-10.276,7.191,7.191,0,0,0,1.072.048c3.234-.095,5.085-1.8,5.688-3.224a2.121,2.121,0,0,0-.187-2.3c-.318-.346-1.093-.847-2.716-.319-1.968.641-3.351,2.617-4.291,5.049a6.156,6.156,0,0,1-3.007-1.628A10.274,10.274,0,0,0,84.109,85.7c.1-2.758-1.4-3.974-2.846-4.193a3.147,3.147,0,0,0-3.557,2.214c-.535,1.975.218,5.77,2.192,8.273q.137.174.28.337a6.758,6.758,0,0,1-1.045.72,5.755,5.755,0,0,1-1.212.5c-1.21-3.642-2.971-5.22-3.966-5.852a2.741,2.741,0,0,0-2.8-.2,2.207,2.207,0,0,0-1.171,1.935c-.012.811.388,2.411,3.184,4.023a6.313,6.313,0,0,0,4.281.878,32.346,32.346,0,0,1,1.085,10.126.332.332,0,0,0,.323.341.339.339,0,0,0,.341-.323,33.388,33.388,0,0,0-1.082-10.3,6.444,6.444,0,0,0,1.335-.558,7.342,7.342,0,0,0,1.179-.818A6.787,6.787,0,0,0,83.9,94.622a31.743,31.743,0,0,0-1.5,10.413.332.332,0,0,0,.331.32m6.985-15.98a1.218,1.218,0,0,1,.933.336,1.5,1.5,0,0,1,.065,1.592c-.526,1.247-2.176,2.733-5.1,2.818a6.472,6.472,0,0,1-.81-.026c.9-2.239,2.156-3.98,3.82-4.521a3.577,3.577,0,0,1,1.089-.2M77.247,93.7a5.752,5.752,0,0,1-3.744-.81c-1.828-1.055-2.868-2.308-2.852-3.439a1.531,1.531,0,0,1,.823-1.361,2.089,2.089,0,0,1,2.124.173c.735.467,2.444,1.883,3.649,5.437m3.531-11.566a2.546,2.546,0,0,1,.386.029c1.159.176,2.366,1.191,2.282,3.513a9.563,9.563,0,0,1-2.775,6.21c-.089-.1-.173-.2-.251-.3a10.224,10.224,0,0,1-2.073-7.688,2.452,2.452,0,0,1,2.432-1.761" transform="translate(-47.585 -54.439)" fill="#32015c"/>
          <path id="Trazado_824488" data-name="Trazado 824488" d="M92.821,156.59a15.558,15.558,0,0,0,4.407-.577.166.166,0,1,0-.094-.318,21.089,21.089,0,0,1-8.559.243.168.168,0,0,0-.185.144.165.165,0,0,0,.144.185,34.486,34.486,0,0,0,4.286.323" transform="translate(-59.469 -104.035)"/>
          <path id="Trazado_824489" data-name="Trazado 824489" d="M22.277,124.673a1.221,1.221,0,0,0,2.144-.863l.962-6.8c.178-1.259-.64-1.9-1.819-1.425L17.2,118.153a1.221,1.221,0,0,0-.324,2.288Z" transform="translate(36.419 -77.135)" fill="#d4336e"/>
          <path id="Trazado_824490" data-name="Trazado 824490" d="M85.573,195.279a1.333,1.333,0,0,0,.567-.119,1.39,1.39,0,0,0,.719-1.439,2.533,2.533,0,0,0-1.519-2.164,4.631,4.631,0,0,0-.5-.227,4.186,4.186,0,0,1,2.386-1.011,2.624,2.624,0,0,1,2.693,1.458.166.166,0,0,0,.3-.148,2.947,2.947,0,0,0-3.015-1.641,4.516,4.516,0,0,0-2.713,1.22,6.576,6.576,0,0,0-5.184.636.166.166,0,1,0,.181.278,6.209,6.209,0,0,1,4.747-.643,3.1,3.1,0,0,0-.615,1.072,2.023,2.023,0,0,0,.618,2.182,2.084,2.084,0,0,0,1.341.546m-1-3.694a4.513,4.513,0,0,1,.611.265,2.228,2.228,0,0,1,1.342,1.878A1.105,1.105,0,0,1,86,194.86a1.524,1.524,0,0,1-1.549-.376,1.69,1.69,0,0,1-.521-1.832,2.853,2.853,0,0,1,.643-1.066" transform="translate(-49.311 -126.947)" fill="#495edb"/>
          <path id="Trazado_824491" data-name="Trazado 824491" d="M149.154,145.936a3.992,3.992,0,1,0,3.992-3.992,3.992,3.992,0,0,0-3.992,3.992" transform="translate(-139.419 -94.851)" fill="#7db3db"/>
          <path id="Trazado_824492" data-name="Trazado 824492" d="M155.037,54.318a1.934,1.934,0,0,0,2.711.369l3.007-2.286a1.935,1.935,0,0,0-2.342-3.08l-3.007,2.286a1.935,1.935,0,0,0-.369,2.711" transform="translate(-145.62 -32.694)" fill="#ffc4c4"/>
          <path id="Trazado_824493" data-name="Trazado 824493" d="M48.215,160.081a1.934,1.934,0,0,0-2.435,1.248l-1.159,3.6a1.935,1.935,0,0,0,3.683,1.187l1.159-3.6a1.935,1.935,0,0,0-1.248-2.435" transform="translate(2.874 -106.908)" fill="#ffc4c4"/>
          <path id="Trazado_824494" data-name="Trazado 824494" d="M27,65.53a2.792,2.792,0,1,0-2.792-2.792A2.794,2.794,0,0,0,27,65.53m0-5.251a2.46,2.46,0,1,1-2.46,2.46A2.463,2.463,0,0,1,27,60.279" transform="translate(29.381 -40.058)" fill="#495edb"/>
          <path id="Trazado_824495" data-name="Trazado 824495" d="M79.787,24.227a6.681,6.681,0,0,0,1.824-.288.166.166,0,1,0-.091-.319,4.2,4.2,0,0,1-4.112-.555,9.344,9.344,0,0,1-1.027-.912,3.361,3.361,0,0,0,1.418-1.3,2.994,2.994,0,0,0,.241-2.5,1.613,1.613,0,0,0-1.133-1,2.018,2.018,0,0,0-2.13,1.116c-.617,1.231.18,2.579,1.028,3.546a2.949,2.949,0,0,1-1.239.077,3.4,3.4,0,0,1-2.791-2.5.166.166,0,0,0-.32.086,3.732,3.732,0,0,0,3.063,2.744,3.277,3.277,0,0,0,1.534-.134,10.239,10.239,0,0,0,1.154,1.042,4.09,4.09,0,0,0,2.58.9m-3.145-6.56a1.64,1.64,0,0,1,.2.013,1.271,1.271,0,0,1,.887.8,2.636,2.636,0,0,1-.217,2.2A3.01,3.01,0,0,1,76.141,21.9c-.887-.989-1.585-2.245-1.06-3.294a1.662,1.662,0,0,1,1.561-.935" transform="translate(-38.233 -11.586)" fill="#f2ac30"/>
        </g>
      </g>
      <g id="Grupo_1073729" data-name="Grupo 1073729" transform="translate(0 -34.307)">
        <g id="Grupo_1073728" data-name="Grupo 1073728" clip-path="url(#clip-path-5)">
          <path id="Trazado_824419" data-name="Trazado 824419" d="M105.158,299.576s-31.163,30.262-78.009,5.261l1.25-7.566,75.814-4.617Z" transform="translate(-10.826 -116.702)" fill="#832ad3"/>
          <path id="Trazado_824420" data-name="Trazado 824420" d="M33.532,265.417,17.4,328.095h75s6.937-40.884,3.243-62.678Z" transform="translate(-6.938 -105.841)" fill="#7040bf"/>
          <path id="Trazado_824421" data-name="Trazado 824421" d="M104.821,268.391c-.123-1.024-.263-2.018-.425-2.974H42.282l-2.94,11.423Z" transform="translate(-15.688 -105.841)" fill="#492994"/>
          <path id="Trazado_824422" data-name="Trazado 824422" d="M88.774,340.941l9.094-41.485,5.779-1.825" transform="translate(-35.401 -118.687)" fill="none" stroke="#492994" stroke-linecap="round" stroke-linejoin="round" stroke-width="1.5"/>
          <path id="Trazado_824423" data-name="Trazado 824423" d="M49.894,106.621a17.865,17.865,0,0,1-5.411-16.083c1.653-10.221,9.469-11.874,9.469-11.874s-9.169-9.469,1.5-21.795a14.568,14.568,0,0,1,7.365-3.607s3.307-15.331,20.742-13.678,12.1,18.638,7.177,20.893c0,0,2.954,7.966-1.51,11.874v5.261s11.919,3.006,13.422,15.632-11.912,17.135-11.912,17.135-34.384,2.808-40.846-3.758" transform="translate(-17.638 -15.735)" fill="#00184c"/>
          <path id="Trazado_824424" data-name="Trazado 824424" d="M46.522,130.948,21.154,137.79a5.4,5.4,0,0,0-3.5,2.947C14.149,148.3,3.134,172.715.991,185.19c0,0-4.417,15.239,5.4,20.919a13.56,13.56,0,0,0,8.743,1.555l6.754-.98-5.561,33.669s24.2,3.156,29.009-13.828l3.006-14.73H78.4s-2.1,16.985,15.933,23.3l-5.11-37.426L91.863,183.2l9.629,8.391a24.747,24.747,0,0,0,10.007,5.38c5.97,1.543,14,1.1,18.756-9.529,8.267-18.488,12.926-42.838,12.926-42.838l-10.972-11.273-21.494,31.414L92.045,139.005a5.415,5.415,0,0,0-3.107-2.082l-24.668-5.975Z" transform="translate(0 -52.218)" fill="#a854f3"/>
          <path id="Trazado_824425" data-name="Trazado 824425" d="M112.162,167.654c-.943-10.805-12.225-29.861-17.035-36.706H77.379s9.13,50.234,1.816,80.847h30.061s3.588-36.32,2.906-44.14" transform="translate(-30.857 -52.218)" fill="#fcfbff"/>
          <path id="Trazado_824426" data-name="Trazado 824426" d="M113,214.644c-9.431,3.034-21.05,4.548-29.806,5.3a122.212,122.212,0,0,1-2.8,25.228H110.46s1.7-17.244,2.54-30.526" transform="translate(-32.061 -85.594)" fill="#b5e1ff"/>
          <path id="Trazado_824427" data-name="Trazado 824427" d="M95.127,108.4l-.473-6.721a10.222,10.222,0,0,0,3.328-.512c8.117-2.706,6-12.6,4.81-18.037a38.539,38.539,0,0,0-2.42-7.712c-6.385,2.413-12.911-1.006-12.911-1.006a10.2,10.2,0,0,1-6.914,5.862A10.973,10.973,0,0,1,78.6,87.623c.328,1.043-1.223,20.782-1.223,20.782s1.862,11.7,2.725,19.461c2.472.206,5.012.319,7.609.319a86.36,86.36,0,0,0,17.926-1.824A152.433,152.433,0,0,0,95.127,108.4" transform="translate(-30.857 -29.675)" fill="#ffa189"/>
          <path id="Trazado_824428" data-name="Trazado 824428" d="M91.687,77.874s7.41,2.338,11.165-1.557c-.124-.3-.253-.6-.388-.893-6.385,2.413-12.911-1.006-12.911-1.006a10.2,10.2,0,0,1-6.914,5.862,14.509,14.509,0,0,1-.015,1.758c2.583.081,7.061-.377,9.063-4.163" transform="translate(-32.948 -29.675)" fill="#f8756a"/>
          <path id="Trazado_824429" data-name="Trazado 824429" d="M76.364,91.756a4.387,4.387,0,1,1-6.515-.645,4.644,4.644,0,0,1,6.515.645" transform="translate(-27.335 -35.912)" fill="#ffa189"/>
          <path id="Trazado_824430" data-name="Trazado 824430" d="M15.4,219.443s2.1-9.169,14.429-10.672,25.853-.451,31.114-2.1L62,222s-22.193,13.979-33.978,14.88Z" transform="translate(-6.141 -82.413)" fill="#a854f3"/>
          <path id="Trazado_824431" data-name="Trazado 824431" d="M40,199.827s1.439-3.6,4.186-15.31L43.7,199.581Z" transform="translate(-15.95 -73.58)" fill="#832ad3"/>
          <path id="Trazado_824432" data-name="Trazado 824432" d="M99.2,115.292a13.6,13.6,0,0,1-10.425-6.75s.572,8.325,10.731,11.105Z" transform="translate(-35.401 -43.284)" fill="#f8756a"/>
          <line id="Línea_232" data-name="Línea 232" x2="4.359" y2="3.006" transform="translate(43.979 56.841)" fill="none" stroke="#f8756a" stroke-linecap="round" stroke-linejoin="round" stroke-width="1.5"/>
          <path id="Trazado_824433" data-name="Trazado 824433" d="M150.4,197.6a.451.451,0,0,1-.435-.571c.024-.088,2.419-8.851,2.453-15.482.012-2.405-1.34-5.166-2.773-8.088a35.432,35.432,0,0,1-2.84-6.985.451.451,0,1,1,.877-.211,34.793,34.793,0,0,0,2.773,6.8c1.48,3.02,2.878,5.873,2.865,8.49a55.526,55.526,0,0,1-1.257,10.425c-.609,3.034-1.223,5.27-1.229,5.292A.451.451,0,0,1,150.4,197.6Z" transform="translate(-58.537 -66.163)" fill="#832ad3"/>
          <path id="Trazado_824434" data-name="Trazado 824434" d="M138.813,211.951H107.4l5.712-41.034h31.414Z" transform="translate(-42.828 -68.157)" fill="#1574dd"/>
          <path id="Trazado_824435" data-name="Trazado 824435" d="M91.295,202.7s4.948-2.249,6.526-4.278,6.977-4.9,6.977-4.9l-.513,4.445s16.609-5.183,18.713-4.356-1.954,3.307-1.954,3.307,3.908-1.409,4.058-.592-1.2,3-2.029,3.6c0,0,1.052-.3,1.127.752s-5.411,5.486-9.92,7.215c0,0,5.035-1.052,6.463,0,0,0-7.365,3.683-10.071,4.509s-18.524,2.628-18.524,2.628Z" transform="translate(-36.406 -77.17)" fill="#ffa189"/>
          <line id="Línea_233" data-name="Línea 233" x1="13.603" y2="4.509" transform="translate(71.035 119.745)" fill="none" stroke="#f8756a" stroke-linecap="round" stroke-linejoin="round" stroke-width="1.5"/>
          <path id="Trazado_824436" data-name="Trazado 824436" d="M134.728,204.167s-9.169,3.607-14.2,4.96" transform="translate(-48.062 -81.416)" fill="none" stroke="#f8756a" stroke-linecap="round" stroke-linejoin="round" stroke-width="1.5"/>
          <line id="Línea_234" data-name="Línea 234" x1="4.509" y2="1.278" transform="translate(73.364 130.717)" fill="none" stroke="#f8756a" stroke-linecap="round" stroke-linejoin="round" stroke-width="1.5"/>
          <path id="Trazado_824437" data-name="Trazado 824437" d="M59.731,243.387a.451.451,0,0,1-.182-.864,159.4,159.4,0,0,0,18.442-9.739.451.451,0,1,1,.482.762,160.359,160.359,0,0,1-18.56,9.8A.45.45,0,0,1,59.731,243.387Z" transform="translate(-23.639 -92.8)" fill="#832ad3"/>
          <path id="Trazado_824438" data-name="Trazado 824438" d="M15.1,219.595a.451.451,0,0,1-.44-.552,13.119,13.119,0,0,1,2.686-4.96,15.825,15.825,0,0,1,4.51-3.7,20.822,20.822,0,0,1,7.618-2.355c5.832-.711,11.915-.852,17.283-.976,5.919-.137,11.03-.256,13.75-1.11a.451.451,0,0,1,.27.86c-2.842.893-8.013,1.013-14,1.152-5.347.124-11.407.264-17.194.97a19.927,19.927,0,0,0-7.29,2.248,14.927,14.927,0,0,0-4.255,3.492,12.381,12.381,0,0,0-2.5,4.584A.451.451,0,0,1,15.1,219.595Z" transform="translate(-5.842 -82.114)" fill="#832ad3"/>
          <path id="Trazado_824439" data-name="Trazado 824439" d="M174.35,197.54a.451.451,0,0,1-.437-.563,23.953,23.953,0,0,1,3.543-7.681,18.391,18.391,0,0,1,2.3-2.759.451.451,0,0,1,.613.662h0a17.936,17.936,0,0,0-2.189,2.637,23.043,23.043,0,0,0-3.393,7.365A.451.451,0,0,1,174.35,197.54Z" transform="translate(-69.346 -74.338)" fill="#832ad3"/>
          <path id="Trazado_824440" data-name="Trazado 824440" d="M91.3,208.782l.853,12.329,2.839-.334Z" transform="translate(-36.406 -83.256)" fill="#f8756a"/>
          <path id="Trazado_824441" data-name="Trazado 824441" d="M221.132,119.765l8.445-11.227a27.653,27.653,0,0,1,7.891-5.862,119.517,119.517,0,0,0,13-7.666s2.48,1.578,0,3.908l-6.689,6.463,4.16,3.088a2.859,2.859,0,0,1,.1,4.712c-.087.058-.178.114-.275.167a3.263,3.263,0,0,1-1.8,3.983,3.025,3.025,0,0,1-1.879,2.781c-1.954.827-5.293-.451-5.293-.451s-.721,4.022-6.583,5.15l-2.585,3.675Z" transform="translate(-88.181 -37.887)" fill="#ffa189"/>
          <path id="Trazado_824442" data-name="Trazado 824442" d="M245.045,114.637l12.025-1.127s1.127,3.307-1.954,4.058a60.683,60.683,0,0,0-6.238,1.954,5.667,5.667,0,0,1-4.222,6.012Z" transform="translate(-97.562 -45.265)" fill="#ffa189"/>
          <path id="Trazado_824443" data-name="Trazado 824443" d="M247.173,114.438l9.9-.928s1.127,3.307-1.954,4.058a60.676,60.676,0,0,0-6.238,1.954,5.667,5.667,0,0,1-4.222,6.012" transform="translate(-97.562 -45.265)" fill="none" stroke="#f8756a" stroke-linecap="round" stroke-linejoin="round" stroke-width="1.5"/>
          <path id="Trazado_824444" data-name="Trazado 824444" d="M251.678,123.51s6.087,1.954,8.267,1.2" transform="translate(-100.362 -49.252)" fill="none" stroke="#f8756a" stroke-linecap="round" stroke-linejoin="round" stroke-width="1.5"/>
          <path id="Trazado_824445" data-name="Trazado 824445" d="M250.5,129.1a13.138,13.138,0,0,0,7.172,1.822" transform="translate(-99.892 -51.483)" fill="none" stroke="#f8756a" stroke-linecap="round" stroke-linejoin="round" stroke-width="1.5"/>
          <path id="Trazado_824446" data-name="Trazado 824446" d="M249.35,134.493s-1.9-1.417-1.721-2.286" transform="translate(-98.743 -52.72)" fill="none" stroke="#f8756a" stroke-linecap="round" stroke-linejoin="round" stroke-width="1.5"/>
          <path id="Trazado_824447" data-name="Trazado 824447" d="M221.132,136.184l10.483,6.022-2,2.7Z" transform="translate(-88.181 -54.306)" fill="#f8756a"/>
          <path id="Trazado_824448" data-name="Trazado 824448" d="M103.236,90.834c.048.642-.283,1.189-.738,1.223s-.863-.458-.911-1.1.282-1.189.738-1.224.863.459.911,1.1" transform="translate(-40.509 -35.783)" fill="#00184c"/>
          <path id="Trazado_824449" data-name="Trazado 824449" d="M117.174,89.459c.048.642-.283,1.189-.738,1.223s-.863-.458-.911-1.1.282-1.189.738-1.224.863.459.911,1.1" transform="translate(-46.066 -35.234)" fill="#00184c"/>
          <path id="Trazado_824450" data-name="Trazado 824450" d="M97.034,85.189a3.767,3.767,0,0,1,4.255-1.078" transform="translate(-38.694 -33.431)" fill="none" stroke="#00184c" stroke-linecap="round" stroke-linejoin="round" stroke-width="3"/>
          <path id="Trazado_824451" data-name="Trazado 824451" d="M112.759,82.456a3.891,3.891,0,0,1,2.89-1.354" transform="translate(-44.965 -32.341)" fill="none" stroke="#00184c" stroke-linecap="round" stroke-linejoin="round" stroke-width="3"/>
          <path id="Trazado_824452" data-name="Trazado 824452" d="M103.75,88.8a3.9,3.9,0,1,1-3.868-4.4A4.159,4.159,0,0,1,103.75,88.8Z" transform="translate(-38.288 -33.655)" fill="none" stroke="#fcfbff" stroke-linecap="round" stroke-linejoin="round" stroke-width="1.5"/>
          <path id="Trazado_824453" data-name="Trazado 824453" d="M120.152,86.952c0,2.43-1.429,4.4-3.191,4.4s-3.19-1.97-3.19-4.4,1.429-4.4,3.19-4.4S120.152,84.523,120.152,86.952Z" transform="translate(-45.369 -32.92)" fill="none" stroke="#fcfbff" stroke-linecap="round" stroke-linejoin="round" stroke-width="1.5"/>
          <line id="Línea_235" data-name="Línea 235" y1="0.509" x2="2.978" transform="translate(65.425 54.033)" fill="none" stroke="#fcfbff" stroke-linecap="round" stroke-linejoin="round" stroke-width="1.5"/>
          <path id="Trazado_824454" data-name="Trazado 824454" d="M111.842,91.6s3.085,3.5,3.416,5.15-2.781,1.428-2.781,1.428" transform="translate(-44.599 -36.528)" fill="none" stroke="#f8756a" stroke-linecap="round" stroke-linejoin="round" stroke-width="1.5"/>
          <path id="Trazado_824455" data-name="Trazado 824455" d="M106.048,105.042l4.445.6s-.147,2-2.579,1.7-1.867-2.3-1.867-2.3" transform="translate(-42.266 -41.888)" fill="#fcfbff"/>
          <ellipse id="Elipse_9782" data-name="Elipse 9782" cx="6.463" cy="6.463" rx="6.463" ry="6.463" transform="translate(38.117 62.578)" fill="none" stroke="#fcfbff" stroke-linecap="round" stroke-linejoin="round" stroke-width="1.5"/>
          <path id="Trazado_824456" data-name="Trazado 824456" d="M136.5,170.917l-.488,3.257h11.11l.445-3.257" transform="translate(-54.238 -68.157)" fill="none" stroke="#00184c" stroke-linecap="round" stroke-linejoin="round" stroke-width="1.5"/>
          <path id="Trazado_824457" data-name="Trazado 824457" d="M60.154,0H29.472a3.384,3.384,0,0,0-3.384,3.384v11.28a3.384,3.384,0,0,0,3.384,3.384H49.295l6.291,7.078V18.048h4.568a3.384,3.384,0,0,0,3.384-3.384V3.384A3.384,3.384,0,0,0,60.154,0" transform="translate(-10.403 0)" fill="#f0c52c"/>
          <path id="Trazado_824458" data-name="Trazado 824458" d="M44.576,13.123a1.789,1.789,0,1,1-1.789-1.789,1.789,1.789,0,0,1,1.789,1.789" transform="translate(-16.349 -4.52)" fill="#b5e1ff"/>
          <path id="Trazado_824459" data-name="Trazado 824459" d="M58.835,13.123a1.789,1.789,0,1,1-1.789-1.789,1.789,1.789,0,0,1,1.789,1.789" transform="translate(-22.035 -4.52)" fill="#b5e1ff"/>
          <path id="Trazado_824460" data-name="Trazado 824460" d="M71.776,13.123a1.789,1.789,0,1,1-1.789-1.789,1.789,1.789,0,0,1,1.789,1.789" transform="translate(-27.196 -4.52)" fill="#b5e1ff"/>
        </g>
      </g>
    </g>
  </g>
</svg>
