<svg xmlns="http://www.w3.org/2000/svg" xmlns:xlink="http://www.w3.org/1999/xlink" width="295" height="240" viewBox="0 0 295 240">
  <defs>
    <clipPath id="clip-path">
      <rect id="Rectángulo_401891" data-name="Rectángulo 401891" width="295" height="240" transform="translate(180 2773)" fill="#fff" stroke="#707070" stroke-width="1"/>
    </clipPath>
    <clipPath id="clip-path-2">
      <rect id="Rectángulo_401878" data-name="Rectángulo 401878" width="45" height="91" fill="#fff" stroke="#fff" stroke-width="1"/>
    </clipPath>
    <clipPath id="clip-path-3">
      <rect id="Rectángulo_401890" data-name="Rectángulo 401890" width="203.843" height="240" fill="none"/>
    </clipPath>
    <clipPath id="clip-path-5">
      <path id="Trazado_877390" data-name="Trazado 877390" d="M87.788,143.131c-1.972,3.156-4.734,6.312-16.57,6.312s-21.7,2.367-27.222,7.89-28.405,27.617-34.324,36.3-2.762,18.148,4.34,21.7,14.2.4,19.332-4.339,21.3-19.726,21.3-19.726,0,9.074,4.34,22.093,7.89,11.441,4.734,20.909S54.254,246.5,52.281,258.727a116.487,116.487,0,0,0-1.578,21.3H161.169a75.909,75.909,0,0,0-5.917-32.351c-7.1-16.175-8.707-17.351-8.707-22.085s4.762-10.266,5.551-20.918a118.3,118.3,0,0,0,.394-15.781s16.965,26.828,28.8,28.405,18.937-9.468,14.6-24.461-23.277-27.222-30.773-37.085-24.461-9.862-33.14-9.862-13.02-3.157-14.6-9.075-1.578-17.753-1.578-17.753-10.258,6.312-27.617-.789c0,0,1.578,21.7-.395,24.855" transform="translate(-6.57 -118.276)" fill="none"/>
    </clipPath>
    <clipPath id="clip-path-6">
      <rect id="Rectángulo_401880" data-name="Rectángulo 401880" width="189.171" height="160.868" fill="none"/>
    </clipPath>
    <clipPath id="clip-path-8">
      <path id="Trazado_877398" data-name="Trazado 877398" d="M125.666,143.131c-1.374,2.2-3.136,4.4-8.08,5.528-.18,6.741,1.184,23.754,19.127,27.217,19.681,3.8,27.275-15.07,29.921-30.153-6.557-.719-10.009-3.771-11.379-8.905-1.578-5.917-1.578-17.753-1.578-17.753s-10.258,6.312-27.617-.789c0,0,1.578,21.7-.395,24.855" transform="translate(-117.572 -118.276)" fill="none"/>
    </clipPath>
    <clipPath id="clip-path-9">
      <rect id="Rectángulo_401882" data-name="Rectángulo 401882" width="28.765" height="19.475" fill="none"/>
    </clipPath>
    <clipPath id="clip-path-11">
      <path id="Trazado_877406" data-name="Trazado 877406" d="M129.071,52.891A144.044,144.044,0,0,0,114.42,68.876s.665,17.648,13.652,26.307,22.644,3.663,27.973-3.664S164.7,76.867,164.7,66.211s1.331-15.318-2.331-21.978-16.317-9.99-16.317-9.99a199.379,199.379,0,0,1-16.984,18.648" transform="translate(-114.42 -34.243)" fill="none"/>
    </clipPath>
    <clipPath id="clip-path-12">
      <rect id="Rectángulo_401884" data-name="Rectángulo 401884" width="31.712" height="44.734" fill="none"/>
    </clipPath>
    <clipPath id="clip-path-14">
      <path id="Trazado_877444" data-name="Trazado 877444" d="M.5,248.837c0,8.285,4.735,15.781,17.754,27.617S43.5,296.97,48.632,299.731s10.258-.789,10.258-.789,8.482,8.482,9.468,6.509-2.959-4.931-3.748-6.115a16.6,16.6,0,0,0-2.367-2.565s4.142.592,5.721,1.973,4.142,3.748,5.325,3.551,1.184-1.184-.592-3.551a21,21,0,0,0-5.129-4.735c-1.183-.789-5.129-2.959-5.129-2.959s5.721-.394,7.694.789,7.3,4.734,7.692,3.157.4-2.565-1.578-4.34a20.992,20.992,0,0,0-8.285-4.34,24.861,24.861,0,0,1-4.735-1.381s4.537-1.578,6.115-1.578,7.89,3.155,9.666,2.762.788-1.973-.593-2.959a33.4,33.4,0,0,0-10.06-3.551c-2.564-.2-16.964,4.734-18.739,4.734s-6.312-6.312-11.047-14.794-6.51-21.7-16.57-26.236L7.6,232.662S.5,240.552.5,248.837" transform="translate(-0.5 -232.662)" fill="none"/>
    </clipPath>
    <clipPath id="clip-path-15">
      <rect id="Rectángulo_401886" data-name="Rectángulo 401886" width="65.278" height="56.068" fill="none"/>
    </clipPath>
    <clipPath id="clip-path-17">
      <path id="Trazado_877496" data-name="Trazado 877496" d="M263.422,75.021c-1.717,5.273-3.6,14.236-3.6,14.236s-1.882-5.457-4.516-8.279-5.252.333-8.074,3.908,2,4.406,2.822,3.011c1.707-2.914,4.173-5.539,4.414.613.123,3.152.273,9.592-1.42,10.721s-8.279-.941-8.279-.941.752-2.07,1.505-4.7,1.317-4.516,0-6.021-2.823,1.317-2.823,1.317-5.08,5.457-4.516,9.032,8.091,11.29,10.161,14.113,1.018,11.642,1.018,17.992-1.646,18.346-3.293,30.107-3.058,19.992-1.412,23.756l12.09,12.783a11.263,11.263,0,0,0,9.962,1.839c5.825-1.686,9.963-7.2,12.109-17.932s-4.9-25.75-8.89-36.019-6.281-28.942-6.281-28.942a38.47,38.47,0,0,0,3.556-7.48,44.671,44.671,0,0,1,5.273-11.281c2.942-4.782,6.621-7.111,9.073-9.073s3.311-2.085,2.329-2.943-4.169-.368-7.111,2.084a86.11,86.11,0,0,0-6.376,6.131,50.345,50.345,0,0,1,3.434-7.6,112.407,112.407,0,0,0,5.763-11.649c.858-2.207-.858-3.924-2.943-2.574s-3.924,4.292-5.15,7.48-5.517,10.668-6.743,10.912-1.1-2.452-.491-4.782,3.066-9.441,4.169-12.016,1.226-4.415.123-4.783a.877.877,0,0,0-.276-.041c-1.275,0-4.02,2.148-5.609,7.03" transform="translate(-238.895 -67.991)" fill="none"/>
    </clipPath>
    <clipPath id="clip-path-18">
      <rect id="Rectángulo_401888" data-name="Rectángulo 401888" width="36.726" height="127.316" fill="none"/>
    </clipPath>
  </defs>
  <g id="Enmascarar_grupo_1098707" data-name="Enmascarar grupo 1098707" transform="translate(-180 -2773)" clip-path="url(#clip-path)">
    <path id="Rectángulo_401877" data-name="Rectángulo 401877" d="M0,0H214a21,21,0,0,1,21,21V86a0,0,0,0,1,0,0H8a8,8,0,0,1-8-8V0A0,0,0,0,1,0,0Z" transform="translate(180 2927)" fill="#fff" opacity="0.29"/>
    <g id="Grupo_1100790" data-name="Grupo 1100790" transform="translate(-7)">
      <g id="Trazado_877153" data-name="Trazado 877153" transform="translate(223.797 2824.694)" fill="none" opacity="0.84">
        <path d="M62.113,0A62.113,62.113,0,1,1,0,62.113,62.113,62.113,0,0,1,62.113,0Z" stroke="none"/>
        <path d="M 62.11279296875 20.00000762939453 C 38.8917236328125 20.00000762939453 20.00000762939453 38.8917236328125 20.00000762939453 62.11279296875 C 20.00000762939453 85.3338623046875 38.8917236328125 104.2255783081055 62.11279296875 104.2255783081055 C 85.3338623046875 104.2255783081055 104.2255783081055 85.3338623046875 104.2255783081055 62.11279296875 C 104.2255783081055 38.8917236328125 85.3338623046875 20.00000762939453 62.11279296875 20.00000762939453 M 62.11279296875 7.62939453125e-06 C 96.41671752929688 7.62939453125e-06 124.2255783081055 27.80886077880859 124.2255783081055 62.11279296875 C 124.2255783081055 96.41671752929688 96.41671752929688 124.2255783081055 62.11279296875 124.2255783081055 C 27.80886077880859 124.2255783081055 7.62939453125e-06 96.41671752929688 7.62939453125e-06 62.11279296875 C 7.62939453125e-06 27.80886077880859 27.80886077880859 7.62939453125e-06 62.11279296875 7.62939453125e-06 Z" stroke="none" fill="#fff"/>
      </g>
      <g id="Enmascarar_grupo_1098706" data-name="Enmascarar grupo 1098706" transform="translate(390 2903)" clip-path="url(#clip-path-2)">
        <g id="Trazado_877154" data-name="Trazado 877154" transform="translate(2.704 13.511)" fill="none">
          <path d="M36.3,0a36.3,36.3,0,1,0,36.3,36.3A36.3,36.3,0,0,0,36.3,0Z" stroke="none"/>
          <path d="M 36.29638671875 10.00000762939453 C 21.79650497436523 10.00000762939453 10.00000762939453 21.79650497436523 10.00000762939453 36.29638671875 C 10.00000762939453 50.7962646484375 21.79650497436523 62.59276580810547 36.29638671875 62.59276580810547 C 50.7962646484375 62.59276580810547 62.59276580810547 50.7962646484375 62.59276580810547 36.29638671875 C 62.59276580810547 21.79650497436523 50.7962646484375 10.00000762939453 36.29638671875 10.00000762939453 M 36.29638671875 7.62939453125e-06 C 56.34232711791992 7.62939453125e-06 72.59276580810547 16.25044631958008 72.59276580810547 36.29638671875 C 72.59276580810547 56.34232711791992 56.34232711791992 72.59276580810547 36.29638671875 72.59276580810547 C 16.25044631958008 72.59276580810547 7.62939453125e-06 56.34232711791992 7.62939453125e-06 36.29638671875 C 7.62939453125e-06 16.25044631958008 16.25044631958008 7.62939453125e-06 36.29638671875 7.62939453125e-06 Z" stroke="none" fill="#fff"/>
        </g>
      </g>
      <g id="Grupo_1100789" data-name="Grupo 1100789" transform="translate(235.281 2772.827)">
        <path id="Trazado_877155" data-name="Trazado 877155" d="M101.183,322.836,91.656,358.2l94.952.277-8.288-35.644Z" transform="translate(-33.733 -118.817)" fill="#162229"/>
        <g id="Grupo_1100749" data-name="Grupo 1100749" transform="translate(0)">
          <g id="Grupo_1100748" data-name="Grupo 1100748">
            <g id="Grupo_1100747" data-name="Grupo 1100747" transform="translate(53 2)">
              <path id="Trazado_877156" data-name="Trazado 877156" d="M263.884,28.555,257.4,63.638a3.724,3.724,0,0,0,7.1,2.12L278.5,32.445a3.724,3.724,0,0,0-2.58-5.068L268.4,25.606a3.725,3.725,0,0,0-4.515,2.949" transform="translate(-94.711 -9.387)" fill="#fff"/>
              <path id="Trazado_877157" data-name="Trazado 877157" d="M263.884,28.555,257.4,63.638a3.724,3.724,0,0,0,7.1,2.12L278.5,32.445a3.724,3.724,0,0,0-2.58-5.068L268.4,25.606A3.725,3.725,0,0,0,263.884,28.555Z" transform="translate(-94.711 -9.387)" fill="none" stroke="#263238" stroke-miterlimit="10" stroke-width="1"/>
              <path id="Trazado_877158" data-name="Trazado 877158" d="M257.889,106.721a6.889,6.889,0,1,0-6.89,6.89,6.89,6.89,0,0,0,6.89-6.89" transform="translate(-89.843 -36.742)" fill="#fff"/>
              <path id="Trazado_877159" data-name="Trazado 877159" d="M257.889,106.721a6.889,6.889,0,1,0-6.89,6.89A6.89,6.89,0,0,0,257.889,106.721Z" transform="translate(-89.843 -36.742)" fill="none" stroke="#263238" stroke-miterlimit="10" stroke-width="1"/>
            </g>
          </g>
        </g>
        <g id="Grupo_1100788" data-name="Grupo 1100788" transform="translate(-6.095 0.173)">
          <g id="Grupo_1100787" data-name="Grupo 1100787" clip-path="url(#clip-path-3)">
            <g id="Grupo_1100751" data-name="Grupo 1100751">
              <g id="Grupo_1100750" data-name="Grupo 1100750" clip-path="url(#clip-path-3)">
                <path id="Trazado_877160" data-name="Trazado 877160" d="M134.114,8.651s0-9.863-16.965-7.891S93.084,17.724,87.955,20.881,73.357,26.8,72.964,31.533s3.945,6.707-.395,10.258S61.522,48.5,63.1,53.231s5.918,9.469,3.945,12.625-7.5,6.312-2.367,9.863,7.5,4.339,7.5,9.074-1.972,7.89,2.762,9.468,7.5-1.578,10.258,4.34,5.523,7.5,10.258,6.312,11.441-3.156,13.808-1.578,9.863,5.918,13.019,3.551,5.918-5.918,10.652-3.945,8.68,4.735,10.652,1.184,0-4.34,7.5-5.918,10.258-1.184,10.258-7.5-.395-7.891,3.156-10.652,6.707-1.578,5.523-8.285-3.551-8.285-2.367-14.992-1.973-9.074-4.34-11.046-5.129-5.524-4.34-9.074,6.707-3.945.789-10.258-8.679-4.34-9.863-9.075-5.129-14.992-15.781-8.679" transform="translate(-21.346 -0.17)" fill="#263238"/>
                <path id="Trazado_877161" data-name="Trazado 877161" d="M134.114,8.651s0-9.863-16.965-7.891S93.084,17.724,87.955,20.881,73.357,26.8,72.964,31.533s3.945,6.707-.395,10.258S61.522,48.5,63.1,53.231s5.918,9.469,3.945,12.625-7.5,6.312-2.367,9.863,7.5,4.339,7.5,9.074-1.972,7.89,2.762,9.468,7.5-1.578,10.258,4.34,5.523,7.5,10.258,6.312,11.441-3.156,13.808-1.578,9.863,5.918,13.019,3.551,5.918-5.918,10.652-3.945,8.68,4.735,10.652,1.184,0-4.34,7.5-5.918,10.258-1.184,10.258-7.5-.395-7.891,3.156-10.652,6.707-1.578,5.523-8.285-3.551-8.285-2.367-14.992-1.973-9.074-4.34-11.046-5.129-5.524-4.34-9.074,6.707-3.945.789-10.258-8.679-4.34-9.863-9.075S144.767,2.338,134.114,8.651Z" transform="translate(-21.346 -0.17)" fill="none" stroke="#263238" stroke-linecap="round" stroke-linejoin="round" stroke-width="1"/>
                <path id="Trazado_877162" data-name="Trazado 877162" d="M124.908,30.905c-2.426,3.849-4.307,8.192-8.218,11.858-5.65,5.3-20.131,9.889-20.837,14.833s1.766,7.77-3.179,12.008S79.96,74.9,79.96,79.139s2.119,5.651,1.06,8.829" transform="translate(-27.285 -10.546)" fill="none" stroke="#616161" stroke-miterlimit="10" stroke-width="1"/>
                <path id="Trazado_877163" data-name="Trazado 877163" d="M160.091,22.651s-1.765-4.591-6.71,0q-.573.533-1.086,1.1" transform="translate(-51.968 -7.033)" fill="none" stroke="#616161" stroke-miterlimit="10" stroke-width="1"/>
                <path id="Trazado_877164" data-name="Trazado 877164" d="M92.963,54.348c-4.348,1.054-7.774,1.812-8.136,4.89-.707,6,.353,9.889-3.885,11.654s-9.889,4.592-8.123,8.123,2.119,4.591,1.765,6" transform="translate(-24.735 -18.545)" fill="none" stroke="#616161" stroke-miterlimit="10" stroke-width="1"/>
                <path id="Trazado_877165" data-name="Trazado 877165" d="M145.813,13.552s-9.889-6.357-15.187-.706S127.8,25.56,119.678,33.329a20.628,20.628,0,0,1-7.156,4.345" transform="translate(-38.396 -3.585)" fill="none" stroke="#616161" stroke-miterlimit="10" stroke-width="1"/>
                <path id="Trazado_877166" data-name="Trazado 877166" d="M215.2,91.152a6.413,6.413,0,0,0,2.377,2.188" transform="translate(-73.435 -31.104)" fill="none" stroke="#616161" stroke-miterlimit="10" stroke-width="1"/>
                <path id="Trazado_877167" data-name="Trazado 877167" d="M173.779,28.117s8.829-2.825,10.948,2.119,3.179,13.774,7.064,15.186,5.65,3.532,5.65,11.3a24.941,24.941,0,0,0,1.1,7.385" transform="translate(-59.299 -9.32)" fill="none" stroke="#616161" stroke-miterlimit="10" stroke-width="1"/>
                <path id="Trazado_877168" data-name="Trazado 877168" d="M86.93,112.618c2.825-4.591,6.71-2.825,7.063-7.77s-2.472-6.357.353-9.536a18.6,18.6,0,0,1,7.416-4.592" transform="translate(-29.663 -30.957)" fill="none" stroke="#616161" stroke-miterlimit="10" stroke-width="1"/>
                <path id="Trazado_877169" data-name="Trazado 877169" d="M91.085,137.018a16.588,16.588,0,0,1-3.363-3.77" transform="translate(-29.934 -45.469)" fill="none" stroke="#616161" stroke-miterlimit="10" stroke-width="1"/>
                <path id="Trazado_877170" data-name="Trazado 877170" d="M161.17,280.03a75.916,75.916,0,0,0-5.918-32.351c-7.1-16.175-8.707-17.351-8.707-22.085s4.762-10.266,5.551-20.918a118.255,118.255,0,0,0,.395-15.781s16.965,26.827,28.8,28.405,18.937-9.468,14.6-24.46-23.278-27.222-30.773-37.085-24.461-9.863-33.14-9.863-13.019-3.156-14.6-9.074-1.578-17.754-1.578-17.754-10.258,6.312-27.617-.789c0,0,1.578,21.7-.395,24.855s-4.734,6.312-16.57,6.312-21.7,2.367-27.222,7.89-28.406,27.617-34.324,36.3-2.762,18.148,4.34,21.7,14.2.394,19.332-4.34,21.3-19.726,21.3-19.726,0,9.074,4.34,22.093,7.891,11.441,4.735,20.91-9.468,12.23-11.441,24.46a116.454,116.454,0,0,0-1.578,21.3" transform="translate(-2.242 -40.36)" fill="#f0c518"/>
              </g>
            </g>
            <g id="Grupo_1100756" data-name="Grupo 1100756" transform="translate(4.328 77.916)">
              <g id="Grupo_1100755" data-name="Grupo 1100755" clip-path="url(#clip-path-5)">
                <g id="Grupo_1100754" data-name="Grupo 1100754" transform="translate(0.683 0.629)" opacity="0.2">
                  <g id="Grupo_1100753" data-name="Grupo 1100753">
                    <g id="Grupo_1100752" data-name="Grupo 1100752" clip-path="url(#clip-path-6)">
                      <path id="Trazado_877171" data-name="Trazado 877171" d="M201.629,178.9c-.271,0-1.26.675,0,2.578,1.26-1.9.272-2.578,0-2.578" transform="translate(-73.6 -139.593)"/>
                      <path id="Trazado_877172" data-name="Trazado 877172" d="M249.629,178.9c-.271,0-1.26.675,0,2.578,1.26-1.9.272-2.578,0-2.578" transform="translate(-89.979 -139.593)"/>
                      <path id="Trazado_877173" data-name="Trazado 877173" d="M249.629,202.9c-.271,0-1.26.675,0,2.578,1.26-1.9.272-2.578,0-2.578" transform="translate(-89.979 -147.783)"/>
                      <path id="Trazado_877174" data-name="Trazado 877174" d="M201.629,202.9c-.271,0-1.26.675,0,2.578,1.26-1.9.272-2.578,0-2.578" transform="translate(-73.6 -147.783)"/>
                      <path id="Trazado_877175" data-name="Trazado 877175" d="M225.629,190.9c-.271,0-1.26.675,0,2.578,1.26-1.9.272-2.578,0-2.578" transform="translate(-81.79 -143.688)"/>
                      <path id="Trazado_877176" data-name="Trazado 877176" d="M225.629,166.9c-.271,0-1.26.675,0,2.578,1.26-1.9.272-2.578,0-2.578" transform="translate(-81.79 -135.499)"/>
                      <path id="Trazado_877177" data-name="Trazado 877177" d="M202.99,182.618c2.278.13,2.364-1.063,2.227-1.3s-1.219-.748-2.227,1.3" transform="translate(-74.278 -140.338)"/>
                      <path id="Trazado_877178" data-name="Trazado 877178" d="M252.948,182.256q-.447-.453-.874-.9a3.111,3.111,0,0,0-1.082,1.353,2.589,2.589,0,0,0,1.957-.455" transform="translate(-90.657 -140.431)"/>
                      <path id="Trazado_877179" data-name="Trazado 877179" d="M226.99,194.618c2.278.13,2.364-1.063,2.227-1.3s-1.219-.748-2.227,1.3" transform="translate(-82.467 -144.433)"/>
                      <path id="Trazado_877180" data-name="Trazado 877180" d="M226.99,170.618c2.278.13,2.364-1.063,2.227-1.3s-1.219-.748-2.227,1.3" transform="translate(-82.467 -136.243)"/>
                      <path id="Trazado_877181" data-name="Trazado 877181" d="M245.516,181.319c-.137.235-.051,1.429,2.227,1.3-1.009-2.047-2.09-1.534-2.227-1.3" transform="translate(-88.775 -140.338)"/>
                      <path id="Trazado_877182" data-name="Trazado 877182" d="M245.516,205.32a.809.809,0,0,0,.341.907,2.757,2.757,0,0,0,1.887.392c-.071-.144-.142-.272-.213-.392-.943-1.581-1.887-1.125-2.014-.907" transform="translate(-88.775 -148.528)"/>
                      <path id="Trazado_877183" data-name="Trazado 877183" d="M221.516,193.319c-.137.235-.051,1.429,2.227,1.3-1.009-2.047-2.09-1.534-2.227-1.3" transform="translate(-80.585 -144.432)"/>
                      <path id="Trazado_877184" data-name="Trazado 877184" d="M221.516,169.319c-.137.235-.051,1.429,2.227,1.3-1.009-2.047-2.09-1.534-2.227-1.3" transform="translate(-80.585 -136.243)"/>
                      <path id="Trazado_877185" data-name="Trazado 877185" d="M201.629,250.9c-.271,0-1.26.675,0,2.578,1.26-1.9.272-2.578,0-2.578" transform="translate(-73.6 -164.162)"/>
                      <path id="Trazado_877186" data-name="Trazado 877186" d="M249.631,250.9c-.2,0-.763.356-.588,1.27q.417.448.839.887c.855-1.58,0-2.157-.251-2.157" transform="translate(-89.981 -164.162)"/>
                      <path id="Trazado_877187" data-name="Trazado 877187" d="M201.629,274.9c-.271,0-1.26.675,0,2.578,1.26-1.9.272-2.578,0-2.578" transform="translate(-73.6 -172.352)"/>
                      <path id="Trazado_877188" data-name="Trazado 877188" d="M273.629,262.9c-.271,0-1.26.675,0,2.578,1.26-1.9.271-2.578,0-2.578" transform="translate(-98.169 -168.257)"/>
                      <path id="Trazado_877189" data-name="Trazado 877189" d="M201.629,226.9c-.271,0-1.26.675,0,2.578,1.26-1.9.272-2.578,0-2.578" transform="translate(-73.6 -155.973)"/>
                      <path id="Trazado_877190" data-name="Trazado 877190" d="M249.629,226.9c-.271,0-1.26.675,0,2.578,1.26-1.9.272-2.578,0-2.578" transform="translate(-89.979 -155.973)"/>
                      <path id="Trazado_877191" data-name="Trazado 877191" d="M225.629,238.9c-.271,0-1.26.675,0,2.578,1.26-1.9.272-2.578,0-2.578" transform="translate(-81.79 -160.067)"/>
                      <path id="Trazado_877192" data-name="Trazado 877192" d="M273.629,238.9c-.271,0-1.26.675,0,2.578,1.26-1.9.271-2.578,0-2.578" transform="translate(-98.169 -160.067)"/>
                      <path id="Trazado_877193" data-name="Trazado 877193" d="M225.629,214.9c-.271,0-1.26.675,0,2.578,1.26-1.9.272-2.578,0-2.578" transform="translate(-81.79 -151.878)"/>
                      <path id="Trazado_877194" data-name="Trazado 877194" d="M273.629,214.9c-.271,0-1.26.675,0,2.578,1.26-1.9.271-2.578,0-2.578" transform="translate(-98.169 -151.878)"/>
                      <path id="Trazado_877195" data-name="Trazado 877195" d="M202.99,254.618c2.278.13,2.364-1.063,2.227-1.3s-1.219-.747-2.227,1.3" transform="translate(-74.278 -164.907)"/>
                      <path id="Trazado_877196" data-name="Trazado 877196" d="M251.182,254.384l.241.244c1.917-.013,1.988-1.086,1.858-1.307s-1.129-.7-2.1,1.063" transform="translate(-90.722 -164.908)"/>
                      <path id="Trazado_877197" data-name="Trazado 877197" d="M204.718,277.087a1.181,1.181,0,0,0-.792.275,2.286,2.286,0,0,0-.368.355,3.913,3.913,0,0,0-.355.509c-.008.013-.016.024-.024.038-.063.108-.126.227-.189.354a2.756,2.756,0,0,0,1.886-.392,1.192,1.192,0,0,0,.132-.121.976.976,0,0,0,.164-.238.482.482,0,0,0-.455-.781" transform="translate(-74.278 -173.096)"/>
                      <path id="Trazado_877198" data-name="Trazado 877198" d="M274.991,266.618c2.277.13,2.362-1.063,2.226-1.3s-1.219-.747-2.226,1.3" transform="translate(-98.847 -169.001)"/>
                      <path id="Trazado_877199" data-name="Trazado 877199" d="M202.99,230.618c2.278.13,2.364-1.063,2.227-1.3s-1.219-.747-2.227,1.3" transform="translate(-74.278 -156.717)"/>
                      <path id="Trazado_877200" data-name="Trazado 877200" d="M253.216,229.319c-.136-.235-1.218-.748-2.226,1.3,2.277.13,2.364-1.064,2.226-1.3" transform="translate(-90.657 -156.717)"/>
                      <path id="Trazado_877201" data-name="Trazado 877201" d="M226.99,242.915a5.39,5.39,0,0,0,.574,0c.018-.329.034-.646.049-.96a4.235,4.235,0,0,0-.624.96" transform="translate(-82.467 -161.108)"/>
                      <path id="Trazado_877202" data-name="Trazado 877202" d="M274.991,242.618c2.277.13,2.362-1.063,2.226-1.3s-1.219-.747-2.226,1.3" transform="translate(-98.847 -160.812)"/>
                      <path id="Trazado_877203" data-name="Trazado 877203" d="M226.99,218.618c2.278.13,2.364-1.063,2.227-1.3s-1.219-.747-2.227,1.3" transform="translate(-82.467 -152.622)"/>
                      <path id="Trazado_877204" data-name="Trazado 877204" d="M274.991,218.618c2.277.13,2.362-1.063,2.226-1.3s-1.219-.747-2.226,1.3" transform="translate(-98.847 -152.622)"/>
                      <path id="Trazado_877205" data-name="Trazado 877205" d="M222.693,266.569c.121-.319.24-.648.36-.982-.763-.79-1.431-.449-1.537-.267s-.074,1.02,1.177,1.249" transform="translate(-80.586 -169.003)"/>
                      <path id="Trazado_877206" data-name="Trazado 877206" d="M293.516,253.32a.843.843,0,0,0,.442.978q.2-.573.367-1.177a.765.765,0,0,0-.809.2" transform="translate(-105.154 -164.907)"/>
                      <path id="Trazado_877207" data-name="Trazado 877207" d="M269.516,265.319c-.138.235-.051,1.429,2.227,1.3-1.009-2.047-2.091-1.534-2.227-1.3" transform="translate(-96.964 -169.001)"/>
                      <path id="Trazado_877208" data-name="Trazado 877208" d="M245.516,229.319c-.137.235-.051,1.429,2.227,1.3-1.009-2.047-2.09-1.534-2.227-1.3" transform="translate(-88.775 -156.717)"/>
                      <path id="Trazado_877209" data-name="Trazado 877209" d="M221.516,241.319c-.137.235-.051,1.429,2.227,1.3-1.009-2.047-2.09-1.534-2.227-1.3" transform="translate(-80.585 -160.812)"/>
                      <path id="Trazado_877210" data-name="Trazado 877210" d="M269.516,241.319c-.138.235-.051,1.429,2.227,1.3-1.009-2.047-2.091-1.534-2.227-1.3" transform="translate(-96.964 -160.812)"/>
                      <path id="Trazado_877211" data-name="Trazado 877211" d="M221.516,217.319c-.137.235-.051,1.429,2.227,1.3-1.009-2.047-2.09-1.534-2.227-1.3" transform="translate(-80.585 -152.622)"/>
                      <path id="Trazado_877212" data-name="Trazado 877212" d="M269.516,217.319c-.138.235-.051,1.429,2.227,1.3-1.009-2.047-2.091-1.534-2.227-1.3" transform="translate(-96.964 -152.622)"/>
                      <path id="Trazado_877213" data-name="Trazado 877213" d="M252.877,206.227h0a.809.809,0,0,0,.34-.907c-.127-.218-1.07-.674-2.013.907-.072.119-.143.248-.213.392a2.756,2.756,0,0,0,1.886-.392" transform="translate(-90.657 -148.528)"/>
                      <path id="Trazado_877214" data-name="Trazado 877214" d="M204.877,206.227h0a.809.809,0,0,0,.34-.907c-.127-.218-1.071-.674-2.013.907-.071.119-.142.248-.213.392a2.757,2.757,0,0,0,1.887-.392" transform="translate(-74.278 -148.528)"/>
                      <path id="Trazado_877215" data-name="Trazado 877215" d="M201.629,322.9c-.271,0-1.26.675,0,2.578,1.26-1.9.272-2.578,0-2.578" transform="translate(-73.6 -188.731)"/>
                      <path id="Trazado_877216" data-name="Trazado 877216" d="M201.629,346.9c-.271,0-1.26.675,0,2.578,1.26-1.9.272-2.578,0-2.578" transform="translate(-73.6 -196.92)"/>
                      <path id="Trazado_877217" data-name="Trazado 877217" d="M225.629,334.9c-.271,0-1.26.675,0,2.578,1.26-1.9.272-2.578,0-2.578" transform="translate(-81.79 -192.826)"/>
                      <path id="Trazado_877218" data-name="Trazado 877218" d="M201.629,298.9c-.271,0-1.26.675,0,2.578,1.26-1.9.272-2.578,0-2.578" transform="translate(-73.6 -180.541)"/>
                      <path id="Trazado_877219" data-name="Trazado 877219" d="M225.629,310.9c-.271,0-1.26.675,0,2.578,1.26-1.9.272-2.578,0-2.578" transform="translate(-81.79 -184.636)"/>
                      <path id="Trazado_877220" data-name="Trazado 877220" d="M202.99,326.618c2.278.13,2.364-1.063,2.227-1.3s-1.219-.747-2.227,1.3" transform="translate(-74.278 -189.475)"/>
                      <path id="Trazado_877221" data-name="Trazado 877221" d="M204.718,349.087a.979.979,0,0,0-.138,0,1.166,1.166,0,0,0-.478.157,1.5,1.5,0,0,0-.175.117,2.985,2.985,0,0,0-.723.864c-.071.119-.142.248-.213.392a2.756,2.756,0,0,0,1.886-.392.809.809,0,0,0,.34-.907.652.652,0,0,0-.5-.232" transform="translate(-74.278 -197.665)"/>
                      <path id="Trazado_877222" data-name="Trazado 877222" d="M226.99,338.618c2.278.13,2.364-1.063,2.227-1.3s-1.219-.747-2.227,1.3" transform="translate(-82.467 -193.57)"/>
                      <path id="Trazado_877223" data-name="Trazado 877223" d="M202.99,302.618c2.278.13,2.364-1.063,2.227-1.3s-1.219-.747-2.227,1.3" transform="translate(-74.278 -181.286)"/>
                      <path id="Trazado_877224" data-name="Trazado 877224" d="M226.99,314.618c2.278.13,2.364-1.063,2.227-1.3s-1.219-.747-2.227,1.3" transform="translate(-82.467 -185.381)"/>
                      <path id="Trazado_877225" data-name="Trazado 877225" d="M221.516,337.319c-.137.235-.051,1.429,2.227,1.3-1.009-2.047-2.09-1.534-2.227-1.3" transform="translate(-80.585 -193.57)"/>
                      <path id="Trazado_877226" data-name="Trazado 877226" d="M221.516,313.319c-.137.235-.051,1.429,2.227,1.3-1.009-2.047-2.09-1.534-2.227-1.3" transform="translate(-80.585 -185.38)"/>
                      <path id="Trazado_877227" data-name="Trazado 877227" d="M225.629,358.9c-.271,0-1.26.675,0,2.578,1.26-1.9.272-2.578,0-2.578" transform="translate(-81.79 -201.015)"/>
                      <path id="Trazado_877228" data-name="Trazado 877228" d="M226.99,362.618c2.278.13,2.364-1.063,2.227-1.3s-1.219-.747-2.227,1.3" transform="translate(-82.467 -201.76)"/>
                      <path id="Trazado_877229" data-name="Trazado 877229" d="M221.516,361.319c-.137.235-.051,1.429,2.227,1.3-1.009-2.047-2.09-1.534-2.227-1.3" transform="translate(-80.585 -201.76)"/>
                      <path id="Trazado_877230" data-name="Trazado 877230" d="M153.629,130.9c-.271,0-1.26.675,0,2.578,1.26-1.9.272-2.578,0-2.578" transform="translate(-57.221 -123.214)"/>
                      <path id="Trazado_877231" data-name="Trazado 877231" d="M130.523,119.231c.024.358.057.856.094,1.472a1.377,1.377,0,0,0-.094-1.472" transform="translate(-49.55 -119.231)"/>
                      <path id="Trazado_877232" data-name="Trazado 877232" d="M156.718,133.087a1.185,1.185,0,0,0-.792.275,2.293,2.293,0,0,0-.368.356,3.8,3.8,0,0,0-.354.508l-.024.038q-.095.163-.189.354a2.756,2.756,0,0,0,1.886-.392,1.128,1.128,0,0,0,.132-.121.982.982,0,0,0,.164-.238.482.482,0,0,0-.455-.781" transform="translate(-57.899 -123.959)"/>
                      <path id="Trazado_877233" data-name="Trazado 877233" d="M130.99,122.618c2.278.13,2.364-1.063,2.227-1.3s-1.219-.748-2.227,1.3" transform="translate(-49.709 -119.864)"/>
                      <path id="Trazado_877234" data-name="Trazado 877234" d="M106.238,179.637a1.072,1.072,0,0,0-.088-.293v-.006a1.037,1.037,0,0,0-.069-.12l0,0a.843.843,0,0,0-.154-.172l-.005,0a.687.687,0,0,0-.158-.1h0a.276.276,0,0,0-.259,0c-.3.133-.8.685-.243,1.888a5,5,0,0,0,.373.657,5,5,0,0,0,.373-.657,2.341,2.341,0,0,0,.253-.995,1.37,1.37,0,0,0-.014-.186l0-.007" transform="translate(-40.842 -139.593)"/>
                      <path id="Trazado_877235" data-name="Trazado 877235" d="M153.629,178.9c-.271,0-1.26.675,0,2.578,1.26-1.9.272-2.578,0-2.578" transform="translate(-57.221 -139.593)"/>
                      <path id="Trazado_877236" data-name="Trazado 877236" d="M153.629,202.9c-.271,0-1.26.675,0,2.578,1.26-1.9.272-2.578,0-2.578" transform="translate(-57.221 -147.783)"/>
                      <path id="Trazado_877237" data-name="Trazado 877237" d="M106.238,203.637a1.071,1.071,0,0,0-.088-.293v-.006a1.037,1.037,0,0,0-.069-.12l0,0a.844.844,0,0,0-.154-.172l-.005,0a.686.686,0,0,0-.158-.1h0a.276.276,0,0,0-.259,0c-.3.133-.8.685-.243,1.888a5,5,0,0,0,.373.657,5,5,0,0,0,.373-.657,2.341,2.341,0,0,0,.253-.995,1.37,1.37,0,0,0-.014-.186l0-.007" transform="translate(-40.842 -147.783)"/>
                      <path id="Trazado_877238" data-name="Trazado 877238" d="M129.629,190.9c-.271,0-1.26.675,0,2.578,1.26-1.9.272-2.578,0-2.578" transform="translate(-49.031 -143.688)"/>
                      <path id="Trazado_877239" data-name="Trazado 877239" d="M177.629,190.9c-.271,0-1.26.675,0,2.578,1.26-1.9.271-2.578,0-2.578" transform="translate(-65.41 -143.688)"/>
                      <path id="Trazado_877240" data-name="Trazado 877240" d="M153.629,154.9c-.271,0-1.26.675,0,2.578,1.26-1.9.272-2.578,0-2.578" transform="translate(-57.221 -131.404)"/>
                      <path id="Trazado_877241" data-name="Trazado 877241" d="M129.629,166.9c-.271,0-1.26.675,0,2.578,1.26-1.9.272-2.578,0-2.578" transform="translate(-49.031 -135.499)"/>
                      <path id="Trazado_877242" data-name="Trazado 877242" d="M177.629,166.9c-.271,0-1.26.675,0,2.578,1.26-1.9.271-2.578,0-2.578" transform="translate(-65.41 -135.499)"/>
                      <path id="Trazado_877243" data-name="Trazado 877243" d="M106.991,182.618c2.277.13,2.363-1.063,2.226-1.3s-1.218-.748-2.226,1.3" transform="translate(-41.52 -140.338)"/>
                      <path id="Trazado_877244" data-name="Trazado 877244" d="M154.99,182.618c2.277.13,2.364-1.063,2.226-1.3s-1.218-.748-2.226,1.3" transform="translate(-57.899 -140.338)"/>
                      <path id="Trazado_877245" data-name="Trazado 877245" d="M130.99,194.618c2.278.13,2.364-1.063,2.227-1.3s-1.219-.748-2.227,1.3" transform="translate(-49.709 -144.433)"/>
                      <path id="Trazado_877246" data-name="Trazado 877246" d="M178.99,194.618c2.277.13,2.362-1.063,2.226-1.3s-1.219-.748-2.226,1.3" transform="translate(-66.088 -144.433)"/>
                      <path id="Trazado_877247" data-name="Trazado 877247" d="M154.99,158.618c2.277.13,2.364-1.063,2.226-1.3s-1.218-.748-2.226,1.3" transform="translate(-57.899 -132.148)"/>
                      <path id="Trazado_877248" data-name="Trazado 877248" d="M130.99,170.618c2.278.13,2.364-1.063,2.227-1.3s-1.219-.748-2.227,1.3" transform="translate(-49.709 -136.243)"/>
                      <path id="Trazado_877249" data-name="Trazado 877249" d="M178.99,170.618c2.277.13,2.362-1.063,2.226-1.3s-1.219-.748-2.226,1.3" transform="translate(-66.088 -136.243)"/>
                      <path id="Trazado_877250" data-name="Trazado 877250" d="M133.3,145.319c-.129-.221-1.092-.686-2.044.957,0,.117-.01.231-.015.346,2.109.061,2.193-1.074,2.059-1.3" transform="translate(-49.796 -128.054)"/>
                      <path id="Trazado_877251" data-name="Trazado 877251" d="M149.516,181.319c-.137.235-.051,1.429,2.227,1.3-1.009-2.047-2.09-1.534-2.227-1.3" transform="translate(-56.017 -140.338)"/>
                      <path id="Trazado_877252" data-name="Trazado 877252" d="M149.516,205.32a.809.809,0,0,0,.341.907,2.757,2.757,0,0,0,1.887.392c-.071-.144-.142-.272-.213-.392-.943-1.581-1.887-1.125-2.014-.907" transform="translate(-56.017 -148.528)"/>
                      <path id="Trazado_877253" data-name="Trazado 877253" d="M125.516,193.319c-.137.235-.051,1.429,2.227,1.3-1.009-2.047-2.09-1.534-2.227-1.3" transform="translate(-47.827 -144.432)"/>
                      <path id="Trazado_877254" data-name="Trazado 877254" d="M197.516,181.319c-.138.235-.051,1.429,2.226,1.3-1.007-2.047-2.09-1.534-2.226-1.3" transform="translate(-72.396 -140.338)"/>
                      <path id="Trazado_877255" data-name="Trazado 877255" d="M199.528,206.227c-.941-1.581-1.886-1.125-2.013-.907a.809.809,0,0,0,.34.907,2.753,2.753,0,0,0,1.886.392c-.071-.144-.142-.273-.213-.392" transform="translate(-72.396 -148.528)"/>
                      <path id="Trazado_877256" data-name="Trazado 877256" d="M173.516,193.319c-.138.235-.051,1.429,2.227,1.3-1.009-2.047-2.091-1.534-2.227-1.3" transform="translate(-64.206 -144.432)"/>
                      <path id="Trazado_877257" data-name="Trazado 877257" d="M149.516,157.319c-.137.235-.051,1.429,2.227,1.3-1.009-2.047-2.09-1.534-2.227-1.3" transform="translate(-56.017 -132.148)"/>
                      <path id="Trazado_877258" data-name="Trazado 877258" d="M125.516,169.319c-.137.235-.051,1.429,2.227,1.3-1.009-2.047-2.09-1.534-2.227-1.3" transform="translate(-47.827 -136.243)"/>
                      <path id="Trazado_877259" data-name="Trazado 877259" d="M173.516,169.319c-.138.235-.051,1.429,2.227,1.3-1.009-2.047-2.091-1.534-2.227-1.3" transform="translate(-64.206 -136.243)"/>
                      <path id="Trazado_877260" data-name="Trazado 877260" d="M174.5,146.524c-.057-.184-.119-.365-.17-.556-.074-.28-.144-.575-.211-.879a.7.7,0,0,0-.6.231c-.106.18-.074.928.985,1.2" transform="translate(-64.206 -128.054)"/>
                      <path id="Trazado_877261" data-name="Trazado 877261" d="M151.53,134.226a3.794,3.794,0,0,0-.355-.508,2.293,2.293,0,0,0-.368-.356,1.185,1.185,0,0,0-.792-.275.482.482,0,0,0-.455.781.965.965,0,0,0,.164.238,1.13,1.13,0,0,0,.132.121,2.757,2.757,0,0,0,1.887.392q-.095-.192-.19-.354c-.008-.014-.016-.024-.024-.038" transform="translate(-56.017 -123.959)"/>
                      <path id="Trazado_877262" data-name="Trazado 877262" d="M106.238,251.636a1.072,1.072,0,0,0-.088-.293v-.006a1.038,1.038,0,0,0-.069-.12l0,0a.843.843,0,0,0-.154-.172l-.005,0a.687.687,0,0,0-.158-.1h0a.271.271,0,0,0-.259,0c-.3.133-.8.685-.243,1.888a5,5,0,0,0,.373.657,5,5,0,0,0,.373-.657,2.341,2.341,0,0,0,.253-.995,1.37,1.37,0,0,0-.014-.186l0-.007" transform="translate(-40.842 -164.162)"/>
                      <path id="Trazado_877263" data-name="Trazado 877263" d="M153.629,250.9c-.271,0-1.26.675,0,2.578,1.26-1.9.272-2.578,0-2.578" transform="translate(-57.221 -164.162)"/>
                      <path id="Trazado_877264" data-name="Trazado 877264" d="M153.629,274.9c-.271,0-1.26.675,0,2.578,1.26-1.9.272-2.578,0-2.578" transform="translate(-57.221 -172.352)"/>
                      <path id="Trazado_877265" data-name="Trazado 877265" d="M106.238,275.636a1.072,1.072,0,0,0-.088-.293v-.006a1.037,1.037,0,0,0-.069-.12l0,0a.843.843,0,0,0-.154-.172l-.005,0a.687.687,0,0,0-.158-.1h0a.271.271,0,0,0-.259,0c-.3.133-.8.685-.243,1.888a5,5,0,0,0,.373.657,5,5,0,0,0,.373-.657,2.341,2.341,0,0,0,.253-.994,1.372,1.372,0,0,0-.014-.187l0-.007" transform="translate(-40.842 -172.351)"/>
                      <path id="Trazado_877266" data-name="Trazado 877266" d="M129.629,262.9c-.271,0-1.26.675,0,2.578,1.26-1.9.272-2.578,0-2.578" transform="translate(-49.031 -168.257)"/>
                      <path id="Trazado_877267" data-name="Trazado 877267" d="M177.629,262.9c-.271,0-1.26.675,0,2.578,1.26-1.9.271-2.578,0-2.578" transform="translate(-65.41 -168.257)"/>
                      <path id="Trazado_877268" data-name="Trazado 877268" d="M106.238,227.637a1.072,1.072,0,0,0-.088-.293v-.006a1.037,1.037,0,0,0-.069-.12l0,0a.844.844,0,0,0-.154-.172l-.005,0a.687.687,0,0,0-.158-.1h0a.276.276,0,0,0-.259,0c-.3.133-.8.685-.243,1.888a5.005,5.005,0,0,0,.373.657,5,5,0,0,0,.373-.657,2.341,2.341,0,0,0,.253-.995,1.371,1.371,0,0,0-.014-.186l0-.007" transform="translate(-40.842 -155.973)"/>
                      <path id="Trazado_877269" data-name="Trazado 877269" d="M153.629,226.9c-.271,0-1.26.675,0,2.578,1.26-1.9.272-2.578,0-2.578" transform="translate(-57.221 -155.973)"/>
                      <path id="Trazado_877270" data-name="Trazado 877270" d="M129.629,238.9c-.271,0-1.26.675,0,2.578,1.26-1.9.272-2.578,0-2.578" transform="translate(-49.031 -160.067)"/>
                      <path id="Trazado_877271" data-name="Trazado 877271" d="M177.629,238.9c-.271,0-1.26.675,0,2.578,1.26-1.9.271-2.578,0-2.578" transform="translate(-65.41 -160.067)"/>
                      <path id="Trazado_877272" data-name="Trazado 877272" d="M129.629,214.9c-.271,0-1.26.675,0,2.578,1.26-1.9.272-2.578,0-2.578" transform="translate(-49.031 -151.878)"/>
                      <path id="Trazado_877273" data-name="Trazado 877273" d="M177.629,214.9c-.271,0-1.26.675,0,2.578,1.26-1.9.271-2.578,0-2.578" transform="translate(-65.41 -151.878)"/>
                      <path id="Trazado_877274" data-name="Trazado 877274" d="M106.991,254.618c2.277.13,2.363-1.063,2.226-1.3s-1.218-.747-2.226,1.3" transform="translate(-41.52 -164.907)"/>
                      <path id="Trazado_877275" data-name="Trazado 877275" d="M154.99,254.618c2.277.13,2.364-1.063,2.226-1.3s-1.218-.747-2.226,1.3" transform="translate(-57.899 -164.907)"/>
                      <path id="Trazado_877276" data-name="Trazado 877276" d="M156.718,277.087a1.182,1.182,0,0,0-.792.275,2.312,2.312,0,0,0-.368.355,3.851,3.851,0,0,0-.354.509l-.024.038c-.063.108-.126.227-.189.354a2.756,2.756,0,0,0,1.886-.392,1.189,1.189,0,0,0,.132-.121.994.994,0,0,0,.164-.238.482.482,0,0,0-.455-.781" transform="translate(-57.899 -173.096)"/>
                      <path id="Trazado_877277" data-name="Trazado 877277" d="M108.718,277.087a1.181,1.181,0,0,0-.792.275,2.285,2.285,0,0,0-.368.355,3.912,3.912,0,0,0-.355.509c-.008.013-.016.024-.024.038-.063.108-.126.227-.19.354a2.757,2.757,0,0,0,1.887-.392,1.19,1.19,0,0,0,.132-.121.977.977,0,0,0,.164-.238.482.482,0,0,0-.455-.781" transform="translate(-41.519 -173.096)"/>
                      <path id="Trazado_877278" data-name="Trazado 877278" d="M130.99,266.618c2.278.13,2.364-1.063,2.227-1.3s-1.219-.747-2.227,1.3" transform="translate(-49.709 -169.001)"/>
                      <path id="Trazado_877279" data-name="Trazado 877279" d="M178.99,266.618c2.277.13,2.362-1.063,2.226-1.3s-1.219-.747-2.226,1.3" transform="translate(-66.088 -169.001)"/>
                      <path id="Trazado_877280" data-name="Trazado 877280" d="M106.991,230.618c2.277.13,2.363-1.063,2.226-1.3s-1.218-.747-2.226,1.3" transform="translate(-41.52 -156.717)"/>
                      <path id="Trazado_877281" data-name="Trazado 877281" d="M154.99,230.618c2.277.13,2.364-1.063,2.226-1.3s-1.218-.747-2.226,1.3" transform="translate(-57.899 -156.717)"/>
                      <path id="Trazado_877282" data-name="Trazado 877282" d="M130.99,242.618c2.278.13,2.364-1.063,2.227-1.3s-1.219-.747-2.227,1.3" transform="translate(-49.709 -160.812)"/>
                      <path id="Trazado_877283" data-name="Trazado 877283" d="M178.99,242.618c2.277.13,2.362-1.063,2.226-1.3s-1.219-.747-2.226,1.3" transform="translate(-66.088 -160.812)"/>
                      <path id="Trazado_877284" data-name="Trazado 877284" d="M130.99,218.618c2.278.13,2.364-1.063,2.227-1.3s-1.219-.747-2.227,1.3" transform="translate(-49.709 -152.622)"/>
                      <path id="Trazado_877285" data-name="Trazado 877285" d="M178.99,218.618c2.277.13,2.362-1.063,2.226-1.3s-1.219-.747-2.226,1.3" transform="translate(-66.088 -152.622)"/>
                      <path id="Trazado_877286" data-name="Trazado 877286" d="M149.516,253.319c-.137.235-.051,1.429,2.227,1.3-1.009-2.047-2.09-1.534-2.227-1.3" transform="translate(-56.017 -164.906)"/>
                      <path id="Trazado_877287" data-name="Trazado 877287" d="M125.516,265.319c-.137.235-.051,1.429,2.227,1.3-1.009-2.047-2.09-1.534-2.227-1.3" transform="translate(-47.827 -169.001)"/>
                      <path id="Trazado_877288" data-name="Trazado 877288" d="M197.516,253.319c-.138.235-.051,1.429,2.226,1.3-1.007-2.047-2.09-1.534-2.226-1.3" transform="translate(-72.396 -164.906)"/>
                      <path id="Trazado_877289" data-name="Trazado 877289" d="M173.516,265.319c-.138.235-.051,1.429,2.227,1.3-1.009-2.047-2.091-1.534-2.227-1.3" transform="translate(-64.206 -169.001)"/>
                      <path id="Trazado_877290" data-name="Trazado 877290" d="M111.62,270.242s17.128,4.392,38.648-12.3,29.864-10.1,28.986,1.757-19.324,22.838-27.229,24.155c-13,2.167-24.594,5.709-40.4-13.615" transform="translate(-43.099 -163.136)"/>
                      <path id="Trazado_877291" data-name="Trazado 877291" d="M149.516,229.319c-.137.235-.051,1.429,2.227,1.3-1.009-2.047-2.09-1.534-2.227-1.3" transform="translate(-56.017 -156.717)"/>
                      <path id="Trazado_877292" data-name="Trazado 877292" d="M125.516,241.319c-.137.235-.051,1.429,2.227,1.3-1.009-2.047-2.09-1.534-2.227-1.3" transform="translate(-47.827 -160.812)"/>
                      <path id="Trazado_877293" data-name="Trazado 877293" d="M197.516,229.319c-.138.235-.051,1.429,2.226,1.3-1.007-2.047-2.09-1.534-2.226-1.3" transform="translate(-72.396 -156.717)"/>
                      <path id="Trazado_877294" data-name="Trazado 877294" d="M173.516,241.319c-.138.235-.051,1.429,2.227,1.3-1.009-2.047-2.091-1.534-2.227-1.3" transform="translate(-64.206 -160.812)"/>
                      <path id="Trazado_877295" data-name="Trazado 877295" d="M125.516,217.319c-.137.235-.051,1.429,2.227,1.3-1.009-2.047-2.09-1.534-2.227-1.3" transform="translate(-47.827 -152.622)"/>
                      <path id="Trazado_877296" data-name="Trazado 877296" d="M173.516,217.319c-.138.235-.051,1.429,2.227,1.3-1.009-2.047-2.091-1.534-2.227-1.3" transform="translate(-64.206 -152.622)"/>
                      <path id="Trazado_877297" data-name="Trazado 877297" d="M156.877,206.227h0a.809.809,0,0,0,.34-.907c-.127-.218-1.07-.674-2.013.907-.072.119-.143.248-.213.392a2.756,2.756,0,0,0,1.886-.392" transform="translate(-57.899 -148.528)"/>
                      <path id="Trazado_877298" data-name="Trazado 877298" d="M108.877,206.227h0a.809.809,0,0,0,.34-.907c-.127-.218-1.071-.674-2.013.907-.071.119-.142.248-.213.392a2.757,2.757,0,0,0,1.887-.392" transform="translate(-41.519 -148.528)"/>
                      <path id="Trazado_877299" data-name="Trazado 877299" d="M106.238,323.637a1.072,1.072,0,0,0-.088-.293v-.006a1.039,1.039,0,0,0-.069-.12l0,0a.844.844,0,0,0-.154-.172l-.005,0a.71.71,0,0,0-.158-.1h0a.276.276,0,0,0-.259,0c-.3.133-.8.685-.243,1.888a5,5,0,0,0,.373.657,5,5,0,0,0,.373-.657,2.341,2.341,0,0,0,.253-.994,1.38,1.38,0,0,0-.014-.187l0-.007" transform="translate(-40.842 -188.731)"/>
                      <path id="Trazado_877300" data-name="Trazado 877300" d="M153.629,322.9c-.271,0-1.26.675,0,2.578,1.26-1.9.272-2.578,0-2.578" transform="translate(-57.221 -188.731)"/>
                      <path id="Trazado_877301" data-name="Trazado 877301" d="M153.629,346.9c-.271,0-1.26.675,0,2.578,1.26-1.9.272-2.578,0-2.578" transform="translate(-57.221 -196.92)"/>
                      <path id="Trazado_877302" data-name="Trazado 877302" d="M106.238,347.637a1.072,1.072,0,0,0-.088-.293v-.006a1.035,1.035,0,0,0-.069-.12l0,0a.845.845,0,0,0-.154-.172l-.005,0a.708.708,0,0,0-.158-.1h0a.276.276,0,0,0-.259,0c-.3.133-.8.685-.243,1.888a5,5,0,0,0,.373.657,5,5,0,0,0,.373-.657,2.341,2.341,0,0,0,.253-.994,1.381,1.381,0,0,0-.014-.187l0-.007" transform="translate(-40.842 -196.92)"/>
                      <path id="Trazado_877303" data-name="Trazado 877303" d="M129.629,334.9c-.271,0-1.26.675,0,2.578,1.26-1.9.272-2.578,0-2.578" transform="translate(-49.031 -192.826)"/>
                      <path id="Trazado_877304" data-name="Trazado 877304" d="M177.629,334.9c-.271,0-1.26.675,0,2.578,1.26-1.9.271-2.578,0-2.578" transform="translate(-65.41 -192.826)"/>
                      <path id="Trazado_877305" data-name="Trazado 877305" d="M106.238,299.636a1.072,1.072,0,0,0-.088-.293v-.006a1.037,1.037,0,0,0-.069-.12l0,0a.844.844,0,0,0-.154-.172l-.005,0a.685.685,0,0,0-.158-.1h0a.271.271,0,0,0-.259,0c-.3.133-.8.685-.243,1.888a5,5,0,0,0,.373.657,5,5,0,0,0,.373-.657,2.341,2.341,0,0,0,.253-.994,1.372,1.372,0,0,0-.014-.187l0-.007" transform="translate(-40.842 -180.541)"/>
                      <path id="Trazado_877306" data-name="Trazado 877306" d="M153.629,298.9c-.271,0-1.26.675,0,2.578,1.26-1.9.272-2.578,0-2.578" transform="translate(-57.221 -180.541)"/>
                      <path id="Trazado_877307" data-name="Trazado 877307" d="M129.629,310.9c-.271,0-1.26.675,0,2.578,1.26-1.9.272-2.578,0-2.578" transform="translate(-49.031 -184.636)"/>
                      <path id="Trazado_877308" data-name="Trazado 877308" d="M177.629,310.9c-.271,0-1.26.675,0,2.578,1.26-1.9.271-2.578,0-2.578" transform="translate(-65.41 -184.636)"/>
                      <path id="Trazado_877309" data-name="Trazado 877309" d="M129.629,286.9c-.271,0-1.26.675,0,2.578,1.26-1.9.272-2.578,0-2.578" transform="translate(-49.031 -176.447)"/>
                      <path id="Trazado_877310" data-name="Trazado 877310" d="M177.629,286.9c-.271,0-1.26.675,0,2.578,1.26-1.9.271-2.578,0-2.578" transform="translate(-65.41 -176.447)"/>
                      <path id="Trazado_877311" data-name="Trazado 877311" d="M106.991,326.618c2.277.13,2.363-1.063,2.226-1.3s-1.218-.747-2.226,1.3" transform="translate(-41.52 -189.475)"/>
                      <path id="Trazado_877312" data-name="Trazado 877312" d="M154.99,326.618c2.277.13,2.364-1.063,2.226-1.3s-1.218-.747-2.226,1.3" transform="translate(-57.899 -189.475)"/>
                      <path id="Trazado_877313" data-name="Trazado 877313" d="M156.718,349.087a.968.968,0,0,0-.138,0,1.163,1.163,0,0,0-.478.157,1.455,1.455,0,0,0-.176.117,2.974,2.974,0,0,0-.722.864c-.072.119-.143.248-.213.392a2.756,2.756,0,0,0,1.886-.392.809.809,0,0,0,.34-.907.652.652,0,0,0-.5-.232" transform="translate(-57.899 -197.665)"/>
                      <path id="Trazado_877314" data-name="Trazado 877314" d="M108.718,349.087a.979.979,0,0,0-.138,0,1.166,1.166,0,0,0-.478.157,1.5,1.5,0,0,0-.175.117,2.985,2.985,0,0,0-.723.864c-.071.119-.142.248-.213.392a2.757,2.757,0,0,0,1.887-.392.809.809,0,0,0,.34-.907.652.652,0,0,0-.5-.232" transform="translate(-41.519 -197.665)"/>
                      <path id="Trazado_877315" data-name="Trazado 877315" d="M130.99,338.618c2.278.13,2.364-1.063,2.227-1.3s-1.219-.747-2.227,1.3" transform="translate(-49.709 -193.57)"/>
                      <path id="Trazado_877316" data-name="Trazado 877316" d="M178.99,338.618c2.277.13,2.362-1.063,2.226-1.3s-1.219-.747-2.226,1.3" transform="translate(-66.088 -193.57)"/>
                      <path id="Trazado_877317" data-name="Trazado 877317" d="M106.991,302.618c2.277.13,2.363-1.063,2.226-1.3s-1.218-.747-2.226,1.3" transform="translate(-41.52 -181.286)"/>
                      <path id="Trazado_877318" data-name="Trazado 877318" d="M154.99,302.618c2.277.13,2.364-1.063,2.226-1.3s-1.218-.747-2.226,1.3" transform="translate(-57.899 -181.286)"/>
                      <path id="Trazado_877319" data-name="Trazado 877319" d="M130.99,314.618c2.278.13,2.364-1.063,2.227-1.3s-1.219-.747-2.227,1.3" transform="translate(-49.709 -185.381)"/>
                      <path id="Trazado_877320" data-name="Trazado 877320" d="M178.99,314.618c2.277.13,2.362-1.063,2.226-1.3s-1.219-.747-2.226,1.3" transform="translate(-66.088 -185.381)"/>
                      <path id="Trazado_877321" data-name="Trazado 877321" d="M130.99,290.618c2.278.13,2.364-1.063,2.227-1.3s-1.219-.747-2.227,1.3" transform="translate(-49.709 -177.191)"/>
                      <path id="Trazado_877322" data-name="Trazado 877322" d="M178.99,290.618c2.277.13,2.362-1.063,2.226-1.3s-1.219-.747-2.226,1.3" transform="translate(-66.088 -177.191)"/>
                      <path id="Trazado_877323" data-name="Trazado 877323" d="M149.516,325.319c-.137.235-.051,1.429,2.227,1.3-1.009-2.047-2.09-1.534-2.227-1.3" transform="translate(-56.017 -189.475)"/>
                      <path id="Trazado_877324" data-name="Trazado 877324" d="M150.807,349.362a1.563,1.563,0,0,0-.176-.117,1.162,1.162,0,0,0-.478-.157.979.979,0,0,0-.138,0,.652.652,0,0,0-.5.232.809.809,0,0,0,.341.907,2.756,2.756,0,0,0,1.887.392c-.071-.144-.142-.273-.213-.392a2.984,2.984,0,0,0-.723-.864" transform="translate(-56.017 -197.665)"/>
                      <path id="Trazado_877325" data-name="Trazado 877325" d="M125.516,337.319c-.137.235-.051,1.429,2.227,1.3-1.009-2.047-2.09-1.534-2.227-1.3" transform="translate(-47.827 -193.57)"/>
                      <path id="Trazado_877326" data-name="Trazado 877326" d="M197.516,325.319c-.138.235-.051,1.429,2.226,1.3-1.007-2.047-2.09-1.534-2.226-1.3" transform="translate(-72.396 -189.475)"/>
                      <path id="Trazado_877327" data-name="Trazado 877327" d="M199.528,350.226a2.973,2.973,0,0,0-.722-.864,1.6,1.6,0,0,0-.176-.117,1.151,1.151,0,0,0-.478-.157.886.886,0,0,0-.138,0,.652.652,0,0,0-.5.232.809.809,0,0,0,.34.907,2.755,2.755,0,0,0,1.886.392c-.071-.144-.142-.272-.213-.392" transform="translate(-72.396 -197.665)"/>
                      <path id="Trazado_877328" data-name="Trazado 877328" d="M173.516,337.319c-.138.235-.051,1.429,2.227,1.3-1.009-2.047-2.091-1.534-2.227-1.3" transform="translate(-64.206 -193.57)"/>
                      <path id="Trazado_877329" data-name="Trazado 877329" d="M149.516,301.319c-.137.235-.051,1.429,2.227,1.3-1.009-2.047-2.09-1.534-2.227-1.3" transform="translate(-56.017 -181.286)"/>
                      <path id="Trazado_877330" data-name="Trazado 877330" d="M125.516,313.319c-.137.235-.051,1.429,2.227,1.3-1.009-2.047-2.09-1.534-2.227-1.3" transform="translate(-47.827 -185.38)"/>
                      <path id="Trazado_877331" data-name="Trazado 877331" d="M197.516,301.319c-.138.235-.051,1.429,2.226,1.3-1.007-2.047-2.09-1.534-2.226-1.3" transform="translate(-72.396 -181.286)"/>
                      <path id="Trazado_877332" data-name="Trazado 877332" d="M173.516,313.319c-.138.235-.051,1.429,2.227,1.3-1.009-2.047-2.091-1.534-2.227-1.3" transform="translate(-64.206 -185.38)"/>
                      <path id="Trazado_877333" data-name="Trazado 877333" d="M125.516,289.319c-.137.235-.051,1.429,2.227,1.3-1.009-2.047-2.09-1.534-2.227-1.3" transform="translate(-47.827 -177.191)"/>
                      <path id="Trazado_877334" data-name="Trazado 877334" d="M173.516,289.319c-.138.235-.051,1.429,2.227,1.3-1.009-2.047-2.091-1.534-2.227-1.3" transform="translate(-64.206 -177.191)"/>
                      <path id="Trazado_877335" data-name="Trazado 877335" d="M151.53,278.226a3.839,3.839,0,0,0-.355-.508,2.348,2.348,0,0,0-.368-.356,1.185,1.185,0,0,0-.792-.275.482.482,0,0,0-.455.781.965.965,0,0,0,.164.238,1.128,1.128,0,0,0,.132.121,2.757,2.757,0,0,0,1.887.392q-.095-.192-.19-.354c-.008-.014-.016-.024-.024-.038" transform="translate(-56.017 -173.096)"/>
                      <path id="Trazado_877336" data-name="Trazado 877336" d="M199.528,278.226a3.84,3.84,0,0,0-.354-.508,2.348,2.348,0,0,0-.368-.356,1.185,1.185,0,0,0-.792-.275.482.482,0,0,0-.455.781.965.965,0,0,0,.164.238,1.127,1.127,0,0,0,.132.121,2.755,2.755,0,0,0,1.886.392q-.095-.192-.19-.354c-.008-.014-.016-.024-.024-.038" transform="translate(-72.396 -173.096)"/>
                      <path id="Trazado_877337" data-name="Trazado 877337" d="M129.629,358.9c-.271,0-1.26.675,0,2.578,1.26-1.9.272-2.578,0-2.578" transform="translate(-49.031 -201.015)"/>
                      <path id="Trazado_877338" data-name="Trazado 877338" d="M177.629,358.9c-.271,0-1.26.675,0,2.578,1.26-1.9.271-2.578,0-2.578" transform="translate(-65.41 -201.015)"/>
                      <path id="Trazado_877339" data-name="Trazado 877339" d="M130.99,362.618c2.278.13,2.364-1.063,2.227-1.3s-1.219-.747-2.227,1.3" transform="translate(-49.709 -201.76)"/>
                      <path id="Trazado_877340" data-name="Trazado 877340" d="M178.99,362.618c2.277.13,2.362-1.063,2.226-1.3s-1.219-.747-2.226,1.3" transform="translate(-66.088 -201.76)"/>
                      <path id="Trazado_877341" data-name="Trazado 877341" d="M125.516,361.319c-.137.235-.051,1.429,2.227,1.3-1.009-2.047-2.09-1.534-2.227-1.3" transform="translate(-47.827 -201.76)"/>
                      <path id="Trazado_877342" data-name="Trazado 877342" d="M173.516,361.319c-.138.235-.051,1.429,2.227,1.3-1.009-2.047-2.091-1.534-2.227-1.3" transform="translate(-64.206 -201.76)"/>
                      <path id="Trazado_877343" data-name="Trazado 877343" d="M57.629,202.9c-.271,0-1.26.675,0,2.578,1.26-1.9.272-2.578,0-2.578" transform="translate(-24.462 -147.783)"/>
                      <path id="Trazado_877344" data-name="Trazado 877344" d="M81.629,190.9c-.271,0-1.26.675,0,2.578,1.26-1.9.271-2.578,0-2.578" transform="translate(-32.652 -143.688)"/>
                      <path id="Trazado_877345" data-name="Trazado 877345" d="M82.212,167.829c-.409.1-.81.2-1.206.305a3.038,3.038,0,0,0,.624,1.663,2.517,2.517,0,0,0,.582-1.968" transform="translate(-32.653 -135.814)"/>
                      <path id="Trazado_877346" data-name="Trazado 877346" d="M58.991,182.618c2.277.13,2.363-1.063,2.225-1.3s-1.217-.748-2.225,1.3" transform="translate(-25.141 -140.338)"/>
                      <path id="Trazado_877347" data-name="Trazado 877347" d="M82.991,194.618c2.277.13,2.362-1.063,2.225-1.3s-1.218-.748-2.225,1.3" transform="translate(-33.33 -144.433)"/>
                      <path id="Trazado_877348" data-name="Trazado 877348" d="M82.991,170.618c2.277.13,2.362-1.063,2.225-1.3s-1.218-.748-2.225,1.3" transform="translate(-33.33 -136.243)"/>
                      <path id="Trazado_877349" data-name="Trazado 877349" d="M53.516,205.32a.809.809,0,0,0,.341.907,2.756,2.756,0,0,0,1.887.392c-.071-.144-.142-.272-.213-.392-.943-1.581-1.887-1.125-2.014-.907" transform="translate(-23.258 -148.528)"/>
                      <path id="Trazado_877350" data-name="Trazado 877350" d="M101.516,181.319c-.138.235-.051,1.429,2.226,1.3-1.007-2.047-2.09-1.534-2.226-1.3" transform="translate(-39.637 -140.338)"/>
                      <path id="Trazado_877351" data-name="Trazado 877351" d="M103.528,206.227c-.942-1.581-1.886-1.125-2.013-.907a.809.809,0,0,0,.34.907h0a2.757,2.757,0,0,0,1.887.392C103.671,206.474,103.6,206.346,103.528,206.227Z" transform="translate(-39.637 -148.528)"/>
                      <path id="Trazado_877352" data-name="Trazado 877352" d="M77.516,193.319c-.138.235-.051,1.429,2.227,1.3-1.009-2.047-2.091-1.534-2.227-1.3" transform="translate(-31.448 -144.432)"/>
                      <path id="Trazado_877353" data-name="Trazado 877353" d="M77.995,169.09c-.115.037-.232.071-.345.109a.409.409,0,0,0-.134.121c-.138.235-.051,1.429,2.227,1.3-.64-1.3-1.31-1.566-1.748-1.528" transform="translate(-31.448 -136.243)"/>
                      <path id="Trazado_877354" data-name="Trazado 877354" d="M9.629,250.9c-.271,0-1.26.675,0,2.578,1.26-1.9.272-2.578,0-2.578" transform="translate(-8.083 -164.162)"/>
                      <path id="Trazado_877355" data-name="Trazado 877355" d="M33.629,262.9c-.271,0-1.26.675,0,2.578,1.26-1.9.272-2.578,0-2.578" transform="translate(-16.273 -168.257)"/>
                      <path id="Trazado_877356" data-name="Trazado 877356" d="M57.629,226.9c-.271,0-1.26.675,0,2.578,1.26-1.9.272-2.578,0-2.578" transform="translate(-24.462 -155.973)"/>
                      <path id="Trazado_877357" data-name="Trazado 877357" d="M33.629,238.9c-.271,0-1.26.675,0,2.578,1.26-1.9.272-2.578,0-2.578" transform="translate(-16.273 -160.067)"/>
                      <path id="Trazado_877358" data-name="Trazado 877358" d="M81.629,238.9c-.271,0-1.26.675,0,2.578,1.26-1.9.271-2.578,0-2.578" transform="translate(-32.652 -160.067)"/>
                      <path id="Trazado_877359" data-name="Trazado 877359" d="M33.629,214.9c-.271,0-1.26.675,0,2.578,1.26-1.9.272-2.578,0-2.578" transform="translate(-16.273 -151.878)"/>
                      <path id="Trazado_877360" data-name="Trazado 877360" d="M81.629,214.9c-.271,0-1.26.675,0,2.578,1.26-1.9.271-2.578,0-2.578" transform="translate(-32.652 -151.878)"/>
                      <path id="Trazado_877361" data-name="Trazado 877361" d="M10.991,254.618c2.277.13,2.363-1.063,2.227-1.3s-1.219-.747-2.227,1.3" transform="translate(-8.761 -164.907)"/>
                      <path id="Trazado_877362" data-name="Trazado 877362" d="M35.587,265.948q.876-.323,1.723-.735c-.279-.188-.984-.312-1.723.735" transform="translate(-17.154 -169.002)"/>
                      <path id="Trazado_877363" data-name="Trazado 877363" d="M13.622,229.338a.553.553,0,0,0-.308-.2c-.41.519-.8,1.019-1.135,1.482,1.512-.153,1.563-1.081,1.443-1.286" transform="translate(-9.167 -156.736)"/>
                      <path id="Trazado_877364" data-name="Trazado 877364" d="M58.991,230.618c2.277.13,2.363-1.063,2.225-1.3s-1.217-.747-2.225,1.3" transform="translate(-25.141 -156.717)"/>
                      <path id="Trazado_877365" data-name="Trazado 877365" d="M34.991,242.618c2.277.13,2.363-1.063,2.226-1.3s-1.218-.747-2.226,1.3" transform="translate(-16.951 -160.812)"/>
                      <path id="Trazado_877366" data-name="Trazado 877366" d="M82.991,242.618c2.277.13,2.362-1.063,2.225-1.3s-1.218-.747-2.225,1.3" transform="translate(-33.33 -160.812)"/>
                      <path id="Trazado_877367" data-name="Trazado 877367" d="M34.991,218.618c2.277.13,2.363-1.063,2.226-1.3s-1.218-.747-2.226,1.3" transform="translate(-16.951 -152.622)"/>
                      <path id="Trazado_877368" data-name="Trazado 877368" d="M82.991,218.618c2.277.13,2.362-1.063,2.225-1.3s-1.218-.747-2.225,1.3" transform="translate(-33.33 -152.622)"/>
                      <path id="Trazado_877369" data-name="Trazado 877369" d="M29.516,265.32c-.125.214-.059,1.218,1.668,1.3.167-.036.333-.072.5-.113-.991-1.908-2.033-1.418-2.167-1.187" transform="translate(-15.069 -169.002)"/>
                      <path id="Trazado_877370" data-name="Trazado 877370" d="M101.516,253.319c-.138.235-.051,1.429,2.226,1.3-1.007-2.047-2.09-1.534-2.226-1.3" transform="translate(-39.637 -164.906)"/>
                      <path id="Trazado_877371" data-name="Trazado 877371" d="M53.516,229.319c-.137.235-.051,1.429,2.227,1.3-1.009-2.047-2.09-1.534-2.227-1.3" transform="translate(-23.258 -156.717)"/>
                      <path id="Trazado_877372" data-name="Trazado 877372" d="M29.516,241.319c-.137.235-.051,1.429,2.227,1.3-1.009-2.047-2.09-1.534-2.227-1.3" transform="translate(-15.069 -160.812)"/>
                      <path id="Trazado_877373" data-name="Trazado 877373" d="M101.516,229.319c-.138.235-.051,1.429,2.226,1.3-1.007-2.047-2.09-1.534-2.226-1.3" transform="translate(-39.637 -156.717)"/>
                      <path id="Trazado_877374" data-name="Trazado 877374" d="M29.516,217.319c-.137.235-.051,1.429,2.227,1.3-1.009-2.047-2.09-1.534-2.227-1.3" transform="translate(-15.069 -152.622)"/>
                      <path id="Trazado_877375" data-name="Trazado 877375" d="M77.516,217.319c-.138.235-.051,1.429,2.227,1.3-1.009-2.047-2.091-1.534-2.227-1.3" transform="translate(-31.448 -152.622)"/>
                      <path id="Trazado_877376" data-name="Trazado 877376" d="M60.877,206.227h0a.809.809,0,0,0,.34-.907c-.127-.218-1.07-.674-2.013.907-.072.119-.143.248-.213.392a2.756,2.756,0,0,0,1.886-.392" transform="translate(-25.141 -148.528)"/>
                      <path id="Trazado_877377" data-name="Trazado 877377" d="M81.629,334.9c-.271,0-1.26.675,0,2.578,1.26-1.9.271-2.578,0-2.578" transform="translate(-32.652 -192.826)"/>
                      <path id="Trazado_877378" data-name="Trazado 877378" d="M82.438,313.3c-.186.3-.37.613-.553.926.016.025.028.048.045.073a4.26,4.26,0,0,0,.508-1" transform="translate(-32.953 -185.454)"/>
                      <path id="Trazado_877379" data-name="Trazado 877379" d="M82.991,338.618c2.277.13,2.362-1.063,2.225-1.3s-1.218-.747-2.225,1.3" transform="translate(-33.33 -193.57)"/>
                      <path id="Trazado_877380" data-name="Trazado 877380" d="M82.991,314.618c2.277.13,2.362-1.063,2.225-1.3s-1.218-.747-2.225,1.3" transform="translate(-33.33 -185.381)"/>
                      <path id="Trazado_877381" data-name="Trazado 877381" d="M101.516,325.319c-.138.235-.051,1.429,2.226,1.3-1.007-2.047-2.09-1.534-2.226-1.3" transform="translate(-39.637 -189.475)"/>
                      <path id="Trazado_877382" data-name="Trazado 877382" d="M103.528,350.226a2.973,2.973,0,0,0-.722-.864,1.6,1.6,0,0,0-.176-.117,1.151,1.151,0,0,0-.478-.157.886.886,0,0,0-.138,0,.652.652,0,0,0-.5.232.809.809,0,0,0,.34.907h0a2.757,2.757,0,0,0,1.887.392C103.671,350.474,103.6,350.346,103.528,350.226Z" transform="translate(-39.637 -197.665)"/>
                      <path id="Trazado_877383" data-name="Trazado 877383" d="M77.516,337.319c-.138.235-.051,1.429,2.227,1.3-1.009-2.047-2.091-1.534-2.227-1.3" transform="translate(-31.448 -193.57)"/>
                      <path id="Trazado_877384" data-name="Trazado 877384" d="M101.516,301.319c-.138.235-.051,1.429,2.226,1.3-1.007-2.047-2.09-1.534-2.226-1.3" transform="translate(-39.637 -181.286)"/>
                      <path id="Trazado_877385" data-name="Trazado 877385" d="M103.528,278.226a3.842,3.842,0,0,0-.354-.508,2.348,2.348,0,0,0-.368-.356,1.185,1.185,0,0,0-.792-.275.482.482,0,0,0-.455.781.964.964,0,0,0,.164.238,1.078,1.078,0,0,0,.132.121h0a2.757,2.757,0,0,0,1.887.392q-.095-.192-.19-.354c-.008-.014-.016-.024-.024-.038" transform="translate(-39.637 -173.096)"/>
                      <path id="Trazado_877386" data-name="Trazado 877386" d="M81.629,358.9c-.271,0-1.26.675,0,2.578,1.26-1.9.271-2.578,0-2.578" transform="translate(-32.652 -201.015)"/>
                      <path id="Trazado_877387" data-name="Trazado 877387" d="M82.991,362.618c2.277.13,2.362-1.063,2.225-1.3s-1.218-.747-2.225,1.3" transform="translate(-33.33 -201.76)"/>
                      <path id="Trazado_877388" data-name="Trazado 877388" d="M77.516,361.319c-.138.235-.051,1.429,2.227,1.3-1.009-2.047-2.091-1.534-2.227-1.3" transform="translate(-31.448 -201.76)"/>
                      <path id="Trazado_877389" data-name="Trazado 877389" d="M7.606,253.6c.132.409.281.811.449,1.2.129,0,.267,0,.414-.009a3.59,3.59,0,0,0-.863-1.193" transform="translate(-7.606 -165.082)"/>
                    </g>
                  </g>
                </g>
              </g>
            </g>
            <g id="Grupo_1100758" data-name="Grupo 1100758">
              <g id="Grupo_1100757" data-name="Grupo 1100757" clip-path="url(#clip-path-3)">
                <path id="Trazado_877391" data-name="Trazado 877391" d="M161.17,280.03a75.916,75.916,0,0,0-5.918-32.351c-7.1-16.175-8.707-17.351-8.707-22.085s4.762-10.266,5.551-20.918a118.255,118.255,0,0,0,.395-15.781s16.965,26.827,28.8,28.405,18.937-9.468,14.6-24.46-23.278-27.222-30.773-37.085-24.461-9.863-33.14-9.863-13.019-3.156-14.6-9.074-1.578-17.754-1.578-17.754-10.258,6.312-27.617-.789c0,0,1.578,21.7-.395,24.855s-4.734,6.312-16.57,6.312-21.7,2.367-27.222,7.89-28.406,27.617-34.324,36.3-2.762,18.148,4.34,21.7,14.2.394,19.332-4.34,21.3-19.726,21.3-19.726,0,9.074,4.34,22.093,7.891,11.441,4.735,20.91-9.468,12.23-11.441,24.46a116.454,116.454,0,0,0-1.578,21.3" transform="translate(-2.242 -40.36)" fill="none" stroke="#263238" stroke-linecap="round" stroke-linejoin="round" stroke-width="1"/>
                <path id="Trazado_877392" data-name="Trazado 877392" d="M79.552,222.572a49.573,49.573,0,0,1,2.6-12.543" transform="translate(-27.146 -71.669)" fill="#fff"/>
                <path id="Trazado_877393" data-name="Trazado 877393" d="M79.552,222.572a49.573,49.573,0,0,1,2.6-12.543" transform="translate(-27.146 -71.669)" fill="none" stroke="#263238" stroke-linecap="round" stroke-linejoin="round" stroke-width="1"/>
                <path id="Trazado_877394" data-name="Trazado 877394" d="M226.208,220.569a48.737,48.737,0,0,0-3.6-9.473" transform="translate(-75.961 -72.033)" fill="none" stroke="#263238" stroke-linecap="round" stroke-linejoin="round" stroke-width="1"/>
                <line id="Línea_659" data-name="Línea 659" y1="7.969" x2="24.843" transform="translate(92.272 184.297)" fill="none" stroke="#263238" stroke-linecap="round" stroke-linejoin="round" stroke-width="1"/>
                <path id="Trazado_877395" data-name="Trazado 877395" d="M157.145,279.347a80.448,80.448,0,0,1,18.047-4.922" transform="translate(-53.623 -93.643)" fill="none" stroke="#263238" stroke-linecap="round" stroke-linejoin="round" stroke-width="1"/>
                <path id="Trazado_877396" data-name="Trazado 877396" d="M136.713,175.877c19.682,3.8,27.275-15.069,29.922-30.152-6.557-.719-10.01-3.771-11.38-8.905-1.578-5.918-1.578-17.754-1.578-17.754s-10.258,6.312-27.617-.789c0,0,1.578,21.7-.395,24.855-1.374,2.2-3.136,4.4-8.079,5.528-.181,6.741,1.183,23.754,19.126,27.217" transform="translate(-40.12 -40.36)" fill="#f0956d"/>
              </g>
            </g>
            <g id="Grupo_1100763" data-name="Grupo 1100763" transform="translate(77.453 77.916)">
              <g id="Grupo_1100762" data-name="Grupo 1100762" clip-path="url(#clip-path-8)">
                <g id="Grupo_1100761" data-name="Grupo 1100761" transform="translate(8.488 0)" opacity="0.2">
                  <g id="Grupo_1100760" data-name="Grupo 1100760">
                    <g id="Grupo_1100759" data-name="Grupo 1100759" clip-path="url(#clip-path-9)">
                      <path id="Trazado_877397" data-name="Trazado 877397" d="M159.222,134.868a110.128,110.128,0,0,1-1.149-15.8s-10.258,6.312-27.616-.789c0,0,.659,9.071.592,16.337,14.952,5.184,23.58,2.984,28.174.255" transform="translate(-130.457 -118.276)"/>
                    </g>
                  </g>
                </g>
              </g>
            </g>
            <g id="Grupo_1100765" data-name="Grupo 1100765">
              <g id="Grupo_1100764" data-name="Grupo 1100764" clip-path="url(#clip-path-3)">
                <path id="Trazado_877399" data-name="Trazado 877399" d="M136.713,175.877c19.682,3.8,27.275-15.069,29.922-30.152-6.557-.719-10.01-3.771-11.38-8.905-1.578-5.918-1.578-17.754-1.578-17.754s-10.258,6.312-27.617-.789c0,0,1.578,21.7-.395,24.855-1.374,2.2-3.136,4.4-8.079,5.528C117.406,155.4,118.77,172.414,136.713,175.877Z" transform="translate(-40.12 -40.36)" fill="none" stroke="#263238" stroke-linecap="round" stroke-linejoin="round" stroke-width="1"/>
                <path id="Trazado_877400" data-name="Trazado 877400" d="M194.157,98.035a4.888,4.888,0,1,1-4.888-4.888,4.888,4.888,0,0,1,4.888,4.888" transform="translate(-62.917 -31.785)" fill="#f0c518"/>
                <circle id="Elipse_11592" data-name="Elipse 11592" cx="4.888" cy="4.888" r="4.888" transform="matrix(0.526, -0.851, 0.851, 0.526, 119.625, 67.839)" fill="none" stroke="#263238" stroke-linecap="round" stroke-linejoin="round" stroke-width="1"/>
                <path id="Trazado_877401" data-name="Trazado 877401" d="M114.9,98.035a4.888,4.888,0,1,1-4.888-4.888,4.888,4.888,0,0,1,4.888,4.888" transform="translate(-35.87 -31.785)" fill="#f0c518"/>
                <circle id="Elipse_11593" data-name="Elipse 11593" cx="4.888" cy="4.888" r="4.888" transform="matrix(0.447, -0.894, 0.894, 0.447, 67.579, 68.436)" fill="none" stroke="#263238" stroke-linecap="round" stroke-linejoin="round" stroke-width="1"/>
                <path id="Trazado_877402" data-name="Trazado 877402" d="M190.427,72.444s2.444-7.555,5.333-4.888-.889,12.887-2.889,15.331-4,2.444-3.777-.889,1.333-9.554,1.333-9.554" transform="translate(-64.519 -22.858)" fill="#f0956d"/>
                <path id="Trazado_877403" data-name="Trazado 877403" d="M190.427,72.444s2.444-7.555,5.333-4.888-.889,12.887-2.889,15.331-4,2.444-3.777-.889S190.427,72.444,190.427,72.444Z" transform="translate(-64.519 -22.858)" fill="none" stroke="#263238" stroke-linecap="round" stroke-linejoin="round" stroke-width="1"/>
                <path id="Trazado_877404" data-name="Trazado 877404" d="M114.419,68.875s.666,17.649,13.653,26.307,22.644,3.663,27.972-3.663S164.7,76.867,164.7,66.211s1.332-15.318-2.331-21.978-16.317-9.99-16.317-9.99a199.486,199.486,0,0,1-16.983,18.648,144.152,144.152,0,0,0-14.652,15.984" transform="translate(-39.044 -11.685)" fill="#f0956d"/>
              </g>
            </g>
            <g id="Grupo_1100770" data-name="Grupo 1100770" transform="translate(75.376 22.558)">
              <g id="Grupo_1100769" data-name="Grupo 1100769" clip-path="url(#clip-path-11)">
                <g id="Grupo_1100768" data-name="Grupo 1100768" transform="translate(-0.001 0)" opacity="0.2">
                  <g id="Grupo_1100767" data-name="Grupo 1100767">
                    <g id="Grupo_1100766" data-name="Grupo 1100766" clip-path="url(#clip-path-12)">
                      <path id="Trazado_877405" data-name="Trazado 877405" d="M146.054,34.243a199.371,199.371,0,0,1-16.983,18.648,144.152,144.152,0,0,0-14.652,15.984,40.641,40.641,0,0,0,2.023,10.1c17.552-13.43,27.139-37.556,29.689-44.713l-.076-.02" transform="translate(-114.419 -34.243)"/>
                    </g>
                  </g>
                </g>
              </g>
            </g>
            <g id="Grupo_1100772" data-name="Grupo 1100772">
              <g id="Grupo_1100771" data-name="Grupo 1100771" clip-path="url(#clip-path-3)">
                <path id="Trazado_877407" data-name="Trazado 877407" d="M114.419,68.875s.666,17.649,13.653,26.307,22.644,3.663,27.972-3.663S164.7,76.867,164.7,66.211s1.332-15.318-2.331-21.978-16.317-9.99-16.317-9.99a199.486,199.486,0,0,1-16.983,18.648A144.152,144.152,0,0,0,114.419,68.875Z" transform="translate(-39.044 -11.685)" fill="none" stroke="#263238" stroke-linecap="round" stroke-linejoin="round" stroke-width="1"/>
                <line id="Línea_660" data-name="Línea 660" x2="7.478" y2="0.701" transform="translate(87.662 55.114)" fill="none" stroke="#263238" stroke-linecap="round" stroke-linejoin="round" stroke-width="1"/>
                <path id="Trazado_877408" data-name="Trazado 877408" d="M167.477,83.093s4.907-.935,7.244,0" transform="translate(-57.149 -28.212)" fill="none" stroke="#263238" stroke-linecap="round" stroke-linejoin="round" stroke-width="1"/>
                <path id="Trazado_877409" data-name="Trazado 877409" d="M141.054,76.806c0,1.779-.8,3.222-1.777,3.222s-1.777-1.443-1.777-3.222.8-3.222,1.777-3.222,1.777,1.443,1.777,3.222" transform="translate(-46.919 -25.109)" fill="#263238"/>
                <path id="Trazado_877410" data-name="Trazado 877410" d="M148.966,95.163a6.491,6.491,0,0,0,7.777-.667" transform="translate(-50.832 -32.245)" fill="none" stroke="#263238" stroke-linecap="round" stroke-linejoin="round" stroke-width="1"/>
                <path id="Trazado_877411" data-name="Trazado 877411" d="M152,103.638s6.888,2.889,10.887-6.443" transform="translate(-51.868 -33.166)" fill="none" stroke="#263238" stroke-linecap="round" stroke-linejoin="round" stroke-width="1"/>
                <path id="Trazado_877412" data-name="Trazado 877412" d="M165.493,77.769s4.221-2.889,8.443-1.111" transform="translate(-56.472 -25.961)" fill="none" stroke="#263238" stroke-linecap="round" stroke-linejoin="round" stroke-width="2"/>
                <path id="Trazado_877413" data-name="Trazado 877413" d="M163.469,66.289a9.129,9.129,0,0,1,11.109-.889" transform="translate(-55.781 -21.813)" fill="none" stroke="#263238" stroke-linecap="round" stroke-linejoin="round" stroke-width="2"/>
                <path id="Trazado_877414" data-name="Trazado 877414" d="M143.343,62.173s-4-4-9.555-.222" transform="translate(-45.653 -20.586)" fill="none" stroke="#263238" stroke-linecap="round" stroke-linejoin="round" stroke-width="2"/>
                <path id="Trazado_877415" data-name="Trazado 877415" d="M7.6,232.662S.5,240.553.5,248.837s4.735,15.781,17.754,27.617S43.5,296.969,48.632,299.731s10.258-.789,10.258-.789,8.482,8.482,9.468,6.509-2.959-4.932-3.748-6.115a16.6,16.6,0,0,0-2.367-2.565s4.142.592,5.721,1.972,4.142,3.748,5.326,3.551,1.183-1.183-.592-3.551a21.02,21.02,0,0,0-5.129-4.734c-1.184-.789-5.129-2.959-5.129-2.959s5.721-.395,7.694.789,7.3,4.734,7.693,3.156.394-2.565-1.578-4.34a20.977,20.977,0,0,0-8.285-4.339,24.861,24.861,0,0,1-4.735-1.381s4.537-1.578,6.115-1.578,7.89,3.156,9.665,2.762.789-1.972-.592-2.959a33.412,33.412,0,0,0-10.061-3.551c-2.564-.2-16.964,4.734-18.739,4.734s-6.312-6.312-11.047-14.795-6.51-21.7-16.57-26.235" transform="translate(-0.171 -79.392)" fill="#f0c518"/>
              </g>
            </g>
            <g id="Grupo_1100777" data-name="Grupo 1100777" transform="translate(0.329 153.27)">
              <g id="Grupo_1100776" data-name="Grupo 1100776" clip-path="url(#clip-path-14)">
                <g id="Grupo_1100775" data-name="Grupo 1100775" transform="translate(3.277 12.017)" opacity="0.2">
                  <g id="Grupo_1100774" data-name="Grupo 1100774">
                    <g id="Grupo_1100773" data-name="Grupo 1100773" clip-path="url(#clip-path-15)">
                      <path id="Trazado_877416" data-name="Trazado 877416" d="M9.953,253.482c1.26-1.9.272-2.578,0-2.578.271,0,1.26.675,0,2.578" transform="translate(-7.003 -250.904)"/>
                      <path id="Trazado_877417" data-name="Trazado 877417" d="M9.953,274.9c.271,0,1.26.675,0,2.578,1.26-1.9.272-2.578,0-2.578" transform="translate(-7.003 -259.094)"/>
                      <path id="Trazado_877418" data-name="Trazado 877418" d="M33.629,262.9c-.271,0-1.26.675,0,2.578,1.26-1.9.272-2.578,0-2.578" transform="translate(-14.869 -254.999)"/>
                      <path id="Trazado_877419" data-name="Trazado 877419" d="M13.217,253.319c-.137-.235-1.219-.748-2.227,1.3,2.278.13,2.364-1.064,2.227-1.3" transform="translate(-7.357 -251.648)"/>
                      <path id="Trazado_877420" data-name="Trazado 877420" d="M13.12,278.106a.965.965,0,0,0,.164-.238.482.482,0,0,0-.455-.781,1.186,1.186,0,0,0-.792.275,2.318,2.318,0,0,0-.367.356,3.84,3.84,0,0,0-.355.508h1.673a1.128,1.128,0,0,0,.132-.121" transform="translate(-7.467 -259.838)"/>
                      <path id="Trazado_877421" data-name="Trazado 877421" d="M37.217,265.319c-.137-.235-1.219-.748-2.227,1.3,2.278.13,2.364-1.064,2.227-1.3" transform="translate(-15.546 -255.743)"/>
                      <path id="Trazado_877422" data-name="Trazado 877422" d="M31.743,266.618c-1.009-2.046-2.09-1.534-2.227-1.3s-.051,1.429,2.227,1.3" transform="translate(-13.665 -255.743)"/>
                      <path id="Trazado_877423" data-name="Trazado 877423" d="M9.953,250.9v2.578c1.26-1.9.271-2.578,0-2.578" transform="translate(-7.003 -250.904)"/>
                      <path id="Trazado_877424" data-name="Trazado 877424" d="M9.953,274.9v2.578c1.26-1.9.271-2.578,0-2.578" transform="translate(-7.003 -259.094)"/>
                      <path id="Trazado_877425" data-name="Trazado 877425" d="M57.682,322.9a.711.711,0,0,0-.522.442q.565.417,1.114.815c.166-.9-.4-1.257-.592-1.257" transform="translate(-23.112 -275.473)"/>
                      <path id="Trazado_877426" data-name="Trazado 877426" d="M81.637,334.9a.805.805,0,0,0-.609.732,10.535,10.535,0,0,0,1.184-.156.759.759,0,0,0-.574-.576" transform="translate(-31.256 -279.568)"/>
                      <path id="Trazado_877427" data-name="Trazado 877427" d="M57.629,298.9c-.271,0-1.26.675,0,2.578,1.26-1.9.272-2.578,0-2.578" transform="translate(-23.058 -267.283)"/>
                      <path id="Trazado_877428" data-name="Trazado 877428" d="M81.629,313.482c1.26-1.9.271-2.578,0-2.578s-1.26.675,0,2.578" transform="translate(-31.248 -271.378)"/>
                      <path id="Trazado_877429" data-name="Trazado 877429" d="M33.629,289.482c1.26-1.9.272-2.578,0-2.578s-1.26.675,0,2.578" transform="translate(-14.869 -263.188)"/>
                      <path id="Trazado_877430" data-name="Trazado 877430" d="M61.608,325.319c-.1-.176-.735-.507-1.47.2q.542.387,1.063.756a.832.832,0,0,0,.406-.953" transform="translate(-24.128 -276.217)"/>
                      <path id="Trazado_877431" data-name="Trazado 877431" d="M58.991,302.618c2.277.13,2.363-1.063,2.225-1.3s-1.217-.747-2.225,1.3" transform="translate(-23.736 -268.028)"/>
                      <path id="Trazado_877432" data-name="Trazado 877432" d="M82.991,314.618c2.277.13,2.362-1.063,2.225-1.3s-1.218-.747-2.225,1.3" transform="translate(-31.926 -272.122)"/>
                      <path id="Trazado_877433" data-name="Trazado 877433" d="M34.991,290.618c2.277.13,2.363-1.063,2.226-1.3s-1.218-.747-2.226,1.3" transform="translate(-15.547 -263.933)"/>
                      <path id="Trazado_877434" data-name="Trazado 877434" d="M103.512,326.713c-.57-.445-1.087-.809-1.486-1.075-.123-.082-.281-.182-.457-.29a.291.291,0,0,0-.052.061c-.133.227-.051,1.341,1.995,1.3" transform="translate(-38.234 -276.307)"/>
                      <path id="Trazado_877435" data-name="Trazado 877435" d="M55.743,302.618c-1.009-2.046-2.09-1.534-2.227-1.3s-.051,1.429,2.227,1.3" transform="translate(-21.854 -268.028)"/>
                      <path id="Trazado_877436" data-name="Trazado 877436" d="M77.516,313.319c-.138.235-.051,1.429,2.227,1.3-1.009-2.047-2.091-1.534-2.227-1.3" transform="translate(-30.044 -272.122)"/>
                      <path id="Trazado_877437" data-name="Trazado 877437" d="M29.516,289.319c-.137.235-.051,1.429,2.227,1.3-1.009-2.047-2.09-1.534-2.227-1.3" transform="translate(-13.665 -263.933)"/>
                      <path id="Trazado_877438" data-name="Trazado 877438" d="M12.877,278.817H11.2c-.008.013-.016.024-.024.038q-.095.163-.19.354a2.757,2.757,0,0,0,1.887-.392" transform="translate(-7.357 -260.429)"/>
                      <path id="Trazado_877439" data-name="Trazado 877439" d="M9.629,250.9c-.271,0-1.26.675,0,2.578Z" transform="translate(-6.679 -250.904)"/>
                      <path id="Trazado_877440" data-name="Trazado 877440" d="M9.629,277.482V274.9c-.271,0-1.26.675,0,2.578" transform="translate(-6.679 -259.094)"/>
                      <path id="Trazado_877441" data-name="Trazado 877441" d="M7.742,254.618c-1.007-2.046-2.09-1.534-2.226-1.3s-.051,1.429,2.226,1.3" transform="translate(-5.475 -251.648)"/>
                      <path id="Trazado_877442" data-name="Trazado 877442" d="M7.839,277.845a2.317,2.317,0,0,0-.368-.355c-.016-.012-.032-.021-.047-.032q.3.445.626.9h.143a3.841,3.841,0,0,0-.354-.508" transform="translate(-6.14 -259.965)"/>
                      <path id="Trazado_877443" data-name="Trazado 877443" d="M8.543,278.855c-.008-.014-.016-.024-.024-.038H8.376c.094.13.192.262.289.393h.068q-.095-.192-.19-.354" transform="translate(-6.465 -260.429)"/>
                    </g>
                  </g>
                </g>
              </g>
            </g>
            <g id="Grupo_1100779" data-name="Grupo 1100779">
              <g id="Grupo_1100778" data-name="Grupo 1100778" clip-path="url(#clip-path-3)">
                <path id="Trazado_877445" data-name="Trazado 877445" d="M7.6,232.662S.5,240.553.5,248.837s4.735,15.781,17.754,27.617S43.5,296.969,48.632,299.731s10.258-.789,10.258-.789,8.482,8.482,9.468,6.509-2.959-4.932-3.748-6.115a16.6,16.6,0,0,0-2.367-2.565s4.142.592,5.721,1.972,4.142,3.748,5.326,3.551,1.183-1.183-.592-3.551a21.02,21.02,0,0,0-5.129-4.734c-1.184-.789-5.129-2.959-5.129-2.959s5.721-.395,7.694.789,7.3,4.734,7.693,3.156.394-2.565-1.578-4.34a20.977,20.977,0,0,0-8.285-4.339,24.861,24.861,0,0,1-4.735-1.381s4.537-1.578,6.115-1.578,7.89,3.156,9.665,2.762.789-1.972-.592-2.959a33.412,33.412,0,0,0-10.061-3.551c-2.564-.2-16.964,4.734-18.739,4.734s-6.312-6.312-11.047-14.795-6.51-21.7-16.57-26.235" transform="translate(-0.171 -79.392)" fill="none" stroke="#263238" stroke-linecap="round" stroke-linejoin="round" stroke-width="1"/>
                <path id="Trazado_877446" data-name="Trazado 877446" d="M82.257,293.721A33.45,33.45,0,0,0,72.2,290.17c-2.565-.2-16.965,4.735-18.74,4.735s-6.312-6.312-11.047-14.795c-2.63-4.711-4.348-10.883-7.078-16.217-14.5-1.949-20.709,6.5-23.582,12.594a107.667,107.667,0,0,0,10.343,10.527c13.019,11.836,25.249,20.515,30.378,23.277s10.257-.789,10.257-.789,8.482,8.482,9.469,6.51-2.959-4.932-3.748-6.115a16.6,16.6,0,0,0-2.367-2.565s4.142.592,5.721,1.973,4.142,3.748,5.326,3.551,1.183-1.184-.592-3.551a21.012,21.012,0,0,0-5.129-4.735c-1.184-.789-5.129-2.959-5.129-2.959s5.721-.395,7.694.789,7.3,4.735,7.693,3.156.395-2.564-1.578-4.339a20.987,20.987,0,0,0-8.285-4.34,24.864,24.864,0,0,1-4.735-1.381s4.537-1.578,6.115-1.578,7.89,3.156,9.665,2.762.789-1.973-.592-2.959" transform="translate(-4.009 -89.952)" fill="#f0956d"/>
                <path id="Trazado_877447" data-name="Trazado 877447" d="M82.257,293.721A33.45,33.45,0,0,0,72.2,290.17c-2.565-.2-16.965,4.735-18.74,4.735s-6.312-6.312-11.047-14.795c-2.63-4.711-4.348-10.883-7.078-16.217-14.5-1.949-20.709,6.5-23.582,12.594a107.667,107.667,0,0,0,10.343,10.527c13.019,11.836,25.249,20.515,30.378,23.277s10.257-.789,10.257-.789,8.482,8.482,9.469,6.51-2.959-4.932-3.748-6.115a16.6,16.6,0,0,0-2.367-2.565s4.142.592,5.721,1.973,4.142,3.748,5.326,3.551,1.183-1.184-.592-3.551a21.012,21.012,0,0,0-5.129-4.735c-1.184-.789-5.129-2.959-5.129-2.959s5.721-.395,7.694.789,7.3,4.735,7.693,3.156.395-2.564-1.578-4.339a20.987,20.987,0,0,0-8.285-4.34,24.864,24.864,0,0,1-4.735-1.381s4.537-1.578,6.115-1.578,7.89,3.156,9.665,2.762S83.638,294.707,82.257,293.721Z" transform="translate(-4.009 -89.952)" fill="none" stroke="#263238" stroke-linecap="round" stroke-linejoin="round" stroke-width="1"/>
                <path id="Trazado_877448" data-name="Trazado 877448" d="M245.413,183.879c-1.646-3.764-.235-12,1.411-23.756s3.293-23.756,3.293-30.106,1.052-15.17-1.018-17.993-9.6-10.537-10.161-14.112,4.516-9.031,4.516-9.031,1.505-2.823,2.822-1.318.753,3.387,0,6.02-1.505,4.7-1.505,4.7,6.586,2.07,8.279.941,1.544-7.568,1.42-10.719c-.24-6.153-2.706-3.527-4.414-.613-.818,1.4-5.645.565-2.822-3.011s5.44-6.73,8.075-3.908,4.516,8.279,4.516,8.279,1.881-8.963,3.6-14.235,4.782-7.357,5.885-6.99.981,2.208-.123,4.783-3.556,9.687-4.169,12.016-.736,5.028.49,4.783,5.518-7.725,6.744-10.914,3.066-6.13,5.15-7.48,3.8.369,2.943,2.576a112.464,112.464,0,0,1-5.763,11.648,50.4,50.4,0,0,0-3.434,7.6,85.909,85.909,0,0,1,6.376-6.132c2.943-2.452,6.131-2.943,7.112-2.084s.123.982-2.33,2.943-6.13,4.291-9.074,9.073a44.689,44.689,0,0,0-5.272,11.281,38.477,38.477,0,0,1-3.556,7.48s2.3,18.673,6.281,28.943,11.036,25.29,8.89,36.019-6.284,16.247-12.109,17.933a11.265,11.265,0,0,1-9.963-1.839" transform="translate(-81.519 -23.201)" fill="#f0c518"/>
              </g>
            </g>
            <g id="Grupo_1100784" data-name="Grupo 1100784" transform="translate(157.376 44.79)">
              <g id="Grupo_1100783" data-name="Grupo 1100783" clip-path="url(#clip-path-17)">
                <g id="Grupo_1100782" data-name="Grupo 1100782" transform="translate(4.336 3.644)" opacity="0.2">
                  <g id="Grupo_1100781" data-name="Grupo 1100781">
                    <g id="Grupo_1100780" data-name="Grupo 1100780" clip-path="url(#clip-path-18)">
                      <path id="Trazado_877449" data-name="Trazado 877449" d="M297.953,82.9a.718.718,0,0,1,.528.454h0a.718.718,0,0,0-.528-.453" transform="translate(-263.383 -76.724)"/>
                      <path id="Trazado_877450" data-name="Trazado 877450" d="M297.953,82.9v1.541q.27-.55.528-1.087a.718.718,0,0,0-.528-.454" transform="translate(-263.383 -76.724)"/>
                      <path id="Trazado_877451" data-name="Trazado 877451" d="M297.953,229.482c1.26-1.9.272-2.578,0-2.578.271,0,1.26.675,0,2.578" transform="translate(-263.383 -125.862)"/>
                      <path id="Trazado_877452" data-name="Trazado 877452" d="M300.463,230.47c-.013-.439-.032-.881-.065-1.328-.408.11-.916.5-1.408,1.5a3.587,3.587,0,0,0,1.473-.167" transform="translate(-263.737 -126.625)"/>
                      <path id="Trazado_877453" data-name="Trazado 877453" d="M297.953,226.9v2.578c1.26-1.9.271-2.578,0-2.578" transform="translate(-263.383 -125.862)"/>
                      <path id="Trazado_877454" data-name="Trazado 877454" d="M249.631,106.9c-.228,0-.955.479-.441,1.756.167-.536.344-1.122.521-1.74a.292.292,0,0,0-.08-.016" transform="translate(-246.682 -84.914)"/>
                      <path id="Trazado_877455" data-name="Trazado 877455" d="M273.629,121.482c1.26-1.9.271-2.578,0-2.578s-1.26.675,0,2.578" transform="translate(-254.869 -89.008)"/>
                      <path id="Trazado_877456" data-name="Trazado 877456" d="M297.354,85.008c.093-.188.186-.376.278-.563V82.9c-.247,0-1.084.564-.278,2.1" transform="translate(-263.061 -76.724)"/>
                      <path id="Trazado_877457" data-name="Trazado 877457" d="M273.629,94.9c-.271,0-1.26.675,0,2.578,1.26-1.9.271-2.578,0-2.578" transform="translate(-254.869 -80.819)"/>
                      <path id="Trazado_877458" data-name="Trazado 877458" d="M253.882,133.868a.482.482,0,0,0-.455-.781,1.02,1.02,0,0,0-.36.049c.271.329.511.629.712.893a.981.981,0,0,0,.1-.161" transform="translate(-248.066 -93.848)"/>
                      <path id="Trazado_877459" data-name="Trazado 877459" d="M277.216,121.319c-.136-.235-1.219-.748-2.226,1.3,2.277.13,2.362-1.064,2.226-1.3" transform="translate(-255.547 -89.753)"/>
                      <path id="Trazado_877460" data-name="Trazado 877460" d="M276.9,98.21a7.323,7.323,0,0,1,.018-1.085c-.419-.128-1.19,0-1.924,1.493a2.707,2.707,0,0,0,1.906-.408" transform="translate(-255.547 -81.564)"/>
                      <path id="Trazado_877461" data-name="Trazado 877461" d="M278.139,73.523c-.175.3-.345.619-.511.954a.9.9,0,0,0,.511-.954" transform="translate(-256.447 -73.523)"/>
                      <path id="Trazado_877462" data-name="Trazado 877462" d="M245.516,109.32c-.134.23-.049,1.371,2.079,1.3.018-.056.038-.116.057-.174-.982-1.838-2-1.356-2.136-1.128" transform="translate(-245.476 -85.659)"/>
                      <path id="Trazado_877463" data-name="Trazado 877463" d="M269.516,121.319c-.138.235-.051,1.429,2.227,1.3-1.009-2.047-2.091-1.534-2.227-1.3" transform="translate(-253.665 -89.753)"/>
                      <path id="Trazado_877464" data-name="Trazado 877464" d="M293.516,85.319c-.137.235-.051,1.418,2.2,1.3l.014-.027c-1-2.014-2.076-1.507-2.212-1.273" transform="translate(-261.855 -77.469)"/>
                      <path id="Trazado_877465" data-name="Trazado 877465" d="M272.225,98.716a3.141,3.141,0,0,0-1.069-1.343c-.109.494-.2.908-.269,1.225a3.888,3.888,0,0,0,1.337.118" transform="translate(-254.147 -81.661)"/>
                      <path id="Trazado_877466" data-name="Trazado 877466" d="M269.917,98.383c-.107-.274-.238-.6-.391-.96l-.009.011a.83.83,0,0,0,.4.949" transform="translate(-253.666 -81.678)"/>
                      <path id="Trazado_877467" data-name="Trazado 877467" d="M273.629,193.482c1.26-1.9.271-2.578,0-2.578s-1.26.675,0,2.578" transform="translate(-254.869 -113.577)"/>
                      <path id="Trazado_877468" data-name="Trazado 877468" d="M273.629,166.9c-.271,0-1.26.675,0,2.578,1.26-1.9.271-2.578,0-2.578" transform="translate(-254.869 -105.388)"/>
                      <path id="Trazado_877469" data-name="Trazado 877469" d="M273.629,142.9c-.271,0-1.26.675,0,2.578,1.26-1.9.271-2.578,0-2.578" transform="translate(-254.869 -97.198)"/>
                      <path id="Trazado_877470" data-name="Trazado 877470" d="M254.384,181.552c-.017.141-.034.282-.05.424a.725.725,0,0,0,.05-.424" transform="translate(-248.499 -110.386)"/>
                      <path id="Trazado_877471" data-name="Trazado 877471" d="M253.327,205.32c-.126-.218-1.071-.674-2.013.907h1.673a.809.809,0,0,0,.34-.907" transform="translate(-247.468 -118.417)"/>
                      <path id="Trazado_877472" data-name="Trazado 877472" d="M274.991,194.618c2.277.13,2.362-1.063,2.226-1.3s-1.219-.748-2.226,1.3" transform="translate(-255.547 -114.322)"/>
                      <path id="Trazado_877473" data-name="Trazado 877473" d="M277.216,169.319c-.136-.235-1.219-.748-2.226,1.3,2.277.13,2.362-1.064,2.226-1.3" transform="translate(-255.547 -106.132)"/>
                      <path id="Trazado_877474" data-name="Trazado 877474" d="M274.991,146.618c1.675.1,2.161-.524,2.249-.952-.02-.135-.039-.262-.057-.39-.229-.242-1.243-.586-2.192,1.342" transform="translate(-255.547 -97.943)"/>
                      <path id="Trazado_877475" data-name="Trazado 877475" d="M294.77,205.339c-.639-.459-1.161-.177-1.254-.019a.809.809,0,0,0,.34.907h1.224q-.153-.445-.31-.888" transform="translate(-261.855 -118.418)"/>
                      <path id="Trazado_877476" data-name="Trazado 877476" d="M269.516,193.319c-.138.235-.051,1.429,2.227,1.3-1.009-2.047-2.091-1.534-2.227-1.3" transform="translate(-253.665 -114.322)"/>
                      <path id="Trazado_877477" data-name="Trazado 877477" d="M269.516,169.319c-.138.235-.051,1.429,2.227,1.3-1.009-2.047-2.091-1.534-2.227-1.3" transform="translate(-253.665 -106.132)"/>
                      <path id="Trazado_877478" data-name="Trazado 877478" d="M269.516,145.319c-.138.235-.051,1.429,2.227,1.3-1.009-2.047-2.091-1.534-2.227-1.3" transform="translate(-253.665 -97.942)"/>
                      <path id="Trazado_877479" data-name="Trazado 877479" d="M273.63,262.9c-.256,0-1.151.605-.184,2.279.106.024.219.042.328.065,1.026-1.721.116-2.343-.144-2.343" transform="translate(-254.871 -138.146)"/>
                      <path id="Trazado_877480" data-name="Trazado 877480" d="M249.629,229.482c1.26-1.9.272-2.578,0-2.578s-1.26.675,0,2.578" transform="translate(-246.68 -125.862)"/>
                      <path id="Trazado_877481" data-name="Trazado 877481" d="M297.629,226.9c-.271,0-1.26.675,0,2.578Z" transform="translate(-263.059 -125.862)"/>
                      <path id="Trazado_877482" data-name="Trazado 877482" d="M273.629,241.482c1.26-1.9.271-2.578,0-2.578s-1.26.675,0,2.578" transform="translate(-254.869 -129.956)"/>
                      <path id="Trazado_877483" data-name="Trazado 877483" d="M273.629,214.9c-.271,0-1.26.675,0,2.578,1.26-1.9.271-2.578,0-2.578" transform="translate(-254.869 -121.767)"/>
                      <path id="Trazado_877484" data-name="Trazado 877484" d="M277.361,265.32c-.124-.213-1.028-.649-1.947.8a11.016,11.016,0,0,0,1.634.08.8.8,0,0,0,.313-.884" transform="translate(-255.692 -138.892)"/>
                      <path id="Trazado_877485" data-name="Trazado 877485" d="M250.99,230.618c2.277.13,2.364-1.063,2.226-1.3s-1.218-.747-2.226,1.3" transform="translate(-247.358 -126.606)"/>
                      <path id="Trazado_877486" data-name="Trazado 877486" d="M274.991,242.618c2.277.13,2.362-1.063,2.226-1.3s-1.219-.747-2.226,1.3" transform="translate(-255.547 -130.701)"/>
                      <path id="Trazado_877487" data-name="Trazado 877487" d="M277.216,217.319c-.136-.235-1.219-.748-2.226,1.3,2.277.13,2.362-1.064,2.226-1.3" transform="translate(-255.547 -122.511)"/>
                      <path id="Trazado_877488" data-name="Trazado 877488" d="M293.516,253.32c-.106.181-.075.926.976,1.2.179-.315.356-.634.527-.97-.748-.746-1.4-.41-1.5-.232" transform="translate(-261.855 -134.796)"/>
                      <path id="Trazado_877489" data-name="Trazado 877489" d="M270.1,265.105a11.641,11.641,0,0,0,1.155.471,1.262,1.262,0,0,0-1.155-.471" transform="translate(-253.879 -138.891)"/>
                      <path id="Trazado_877490" data-name="Trazado 877490" d="M248.574,230.935a4.347,4.347,0,0,0-.588-.92c-.029.313-.053.615-.076.916a5.247,5.247,0,0,0,.664,0" transform="translate(-246.307 -126.923)"/>
                      <path id="Trazado_877491" data-name="Trazado 877491" d="M295.742,230.618c-1.007-2.046-2.09-1.534-2.226-1.3s-.051,1.429,2.226,1.3" transform="translate(-261.855 -126.606)"/>
                      <path id="Trazado_877492" data-name="Trazado 877492" d="M269.516,241.319c-.138.235-.051,1.429,2.227,1.3-1.009-2.047-2.091-1.534-2.227-1.3" transform="translate(-253.665 -130.701)"/>
                      <path id="Trazado_877493" data-name="Trazado 877493" d="M269.516,217.319c-.138.235-.051,1.429,2.227,1.3-1.009-2.047-2.091-1.534-2.227-1.3" transform="translate(-253.665 -122.511)"/>
                      <path id="Trazado_877494" data-name="Trazado 877494" d="M251.2,206.817c-.07.119-.142.246-.212.389v0a2.755,2.755,0,0,0,1.885-.392Z" transform="translate(-247.358 -119.007)"/>
                      <path id="Trazado_877495" data-name="Trazado 877495" d="M295.278,206.817h-1.225a2.318,2.318,0,0,0,1.362.395l-.137-.395" transform="translate(-262.052 -119.007)"/>
                    </g>
                  </g>
                </g>
              </g>
            </g>
            <g id="Grupo_1100786" data-name="Grupo 1100786">
              <g id="Grupo_1100785" data-name="Grupo 1100785" clip-path="url(#clip-path-3)">
                <path id="Trazado_877497" data-name="Trazado 877497" d="M245.413,183.879c-1.646-3.764-.235-12,1.411-23.756s3.293-23.756,3.293-30.106,1.052-15.17-1.018-17.993-9.6-10.537-10.161-14.112,4.516-9.031,4.516-9.031,1.505-2.823,2.822-1.318.753,3.387,0,6.02-1.505,4.7-1.505,4.7,6.586,2.07,8.279.941,1.544-7.568,1.42-10.719c-.24-6.153-2.706-3.527-4.414-.613-.818,1.4-5.645.565-2.822-3.011s5.44-6.73,8.075-3.908,4.516,8.279,4.516,8.279,1.881-8.963,3.6-14.235,4.782-7.357,5.885-6.99.981,2.208-.123,4.783-3.556,9.687-4.169,12.016-.736,5.028.49,4.783,5.518-7.725,6.744-10.914,3.066-6.13,5.15-7.48,3.8.369,2.943,2.576a112.464,112.464,0,0,1-5.763,11.648,50.4,50.4,0,0,0-3.434,7.6,85.909,85.909,0,0,1,6.376-6.132c2.943-2.452,6.131-2.943,7.112-2.084s.123.982-2.33,2.943-6.13,4.291-9.074,9.073a44.689,44.689,0,0,0-5.272,11.281,38.477,38.477,0,0,1-3.556,7.48s2.3,18.673,6.281,28.943,11.036,25.29,8.89,36.019-6.284,16.247-12.109,17.933a11.265,11.265,0,0,1-9.963-1.839" transform="translate(-81.519 -23.201)" fill="none" stroke="#263238" stroke-linecap="round" stroke-linejoin="round" stroke-width="1"/>
                <path id="Trazado_877498" data-name="Trazado 877498" d="M273.231,96.847c2.943-4.782,6.621-7.112,9.074-9.074s3.31-2.084,2.329-2.943-4.169-.368-7.111,2.084a85.965,85.965,0,0,0-6.376,6.131,50.269,50.269,0,0,1,3.434-7.6,112.615,112.615,0,0,0,5.763-11.649c.858-2.207-.858-3.924-2.943-2.575s-3.924,4.292-5.15,7.48-5.518,10.668-6.744,10.913-1.1-2.452-.491-4.782,3.065-9.441,4.169-12.017,1.226-4.414.123-4.782-4.169,1.717-5.886,6.989-3.6,14.236-3.6,14.236-1.881-5.457-4.516-8.279-5.252.333-8.075,3.908,2,4.407,2.823,3.011c1.708-2.914,4.173-5.539,4.414.613.123,3.152.273,9.592-1.42,10.721s-8.279-.941-8.279-.941.753-2.07,1.505-4.7,1.318-4.516,0-6.022-2.822,1.318-2.822,1.318-5.08,5.457-4.516,9.032,8.092,11.29,10.161,14.112,1.017,11.642,1.017,17.993-1.646,18.346-3.293,30.106c-.022.153-.042.3-.064.452,2.6,2.733,7.922,6.654,16.873,6.352a17.857,17.857,0,0,0,13.14-6.553c-1.912-5.686-4.306-11.231-6.089-15.824-3.985-10.269-6.281-28.943-6.281-28.943a38.449,38.449,0,0,0,3.555-7.48,44.717,44.717,0,0,1,5.273-11.281" transform="translate(-81.518 -23.201)" fill="#f0956d"/>
                <path id="Trazado_877499" data-name="Trazado 877499" d="M273.231,96.847c2.943-4.782,6.621-7.112,9.074-9.074s3.31-2.084,2.329-2.943-4.169-.368-7.111,2.084a85.965,85.965,0,0,0-6.376,6.131,50.269,50.269,0,0,1,3.434-7.6,112.615,112.615,0,0,0,5.763-11.649c.858-2.207-.858-3.924-2.943-2.575s-3.924,4.292-5.15,7.48-5.518,10.668-6.744,10.913-1.1-2.452-.491-4.782,3.065-9.441,4.169-12.017,1.226-4.414.123-4.782-4.169,1.717-5.886,6.989-3.6,14.236-3.6,14.236-1.881-5.457-4.516-8.279-5.252.333-8.075,3.908,2,4.407,2.823,3.011c1.708-2.914,4.173-5.539,4.414.613.123,3.152.273,9.592-1.42,10.721s-8.279-.941-8.279-.941.753-2.07,1.505-4.7,1.318-4.516,0-6.022-2.822,1.318-2.822,1.318-5.08,5.457-4.516,9.032,8.092,11.29,10.161,14.112,1.017,11.642,1.017,17.993-1.646,18.346-3.293,30.106c-.022.153-.042.3-.064.452,2.6,2.733,7.922,6.654,16.873,6.352a17.857,17.857,0,0,0,13.14-6.553c-1.912-5.686-4.306-11.231-6.089-15.824-3.985-10.269-6.281-28.943-6.281-28.943a38.449,38.449,0,0,0,3.555-7.48A44.717,44.717,0,0,1,273.231,96.847Z" transform="translate(-81.518 -23.201)" fill="none" stroke="#263238" stroke-linecap="round" stroke-linejoin="round" stroke-width="1"/>
                <path id="Trazado_877500" data-name="Trazado 877500" d="M263.463,133.249s-1.1-4.659.491-7.6a8.275,8.275,0,0,1,3.924-3.8" transform="translate(-89.775 -41.578)" fill="none" stroke="#263238" stroke-linecap="round" stroke-linejoin="round" stroke-width="1"/>
              </g>
            </g>
          </g>
        </g>
      </g>
    </g>
  </g>
</svg>
