<svg xmlns="http://www.w3.org/2000/svg" width="78" height="78" viewBox="0 0 78 78">
  <g id="Grupo_1100597" data-name="Grupo 1100597" transform="translate(-1322 -2265)">
    <g id="Grupo_1098669" data-name="Grupo 1098669" transform="translate(1322 2265)">
      <g id="Grupo_1095345" data-name="Grupo 1095345" transform="translate(0 0)">
        <ellipse id="Elipse_9665" data-name="Elipse 9665" cx="39" cy="39" rx="39" ry="39" fill="#f0c518"/>
      </g>
    </g>
    <g id="correo-electronico" transform="translate(1336 2259.145)">
      <path id="Trazado_876817" data-name="Trazado 876817" d="M49.253,43.9,41.631,38.36,29.653,29.648a1.592,1.592,0,0,0-1.873,0L8.18,43.9a1.592,1.592,0,0,0-.656,1.288V72.013a1.592,1.592,0,0,0,1.592,1.592h39.2a1.592,1.592,0,0,0,1.592-1.592V45.191A1.592,1.592,0,0,0,49.253,43.9Z" transform="translate(-6.789 -6.757)" fill="#00aaf0"/>
      <path id="Trazado_876818" data-name="Trazado 876818" d="M9.482,72.013V45.779a1.592,1.592,0,0,1,.656-1.287l19.6-14.256a1.588,1.588,0,0,1,.422-.218l-.507-.369a1.592,1.592,0,0,0-1.873,0L8.18,43.9a1.592,1.592,0,0,0-.656,1.288V72.013a1.592,1.592,0,0,0,1.592,1.592h1.958A1.592,1.592,0,0,1,9.482,72.013Z" transform="translate(-6.789 -6.757)" fill="#009aef"/>
      <path id="Trazado_876819" data-name="Trazado 876819" d="M42.63,320.554l-18.8,15.564h39.2l-18.8-15.564A1.251,1.251,0,0,0,42.63,320.554Z" transform="translate(-21.501 -269.269)" fill="#5bddfc"/>
      <g id="Grupo_1100596" data-name="Grupo 1100596" transform="translate(0.735 38.435)">
        <path id="Trazado_876820" data-name="Trazado 876820" d="M24.545,476.5l-.718.594h1.957A1.588,1.588,0,0,1,24.545,476.5Z" transform="translate(-22.235 -448.677)" fill="#00c3ff"/>
        <path id="Trazado_876821" data-name="Trazado 876821" d="M238.916,204.978l18.2,15.061a1.592,1.592,0,0,0,1.592-1.592V191.625Z" transform="translate(-216.319 -191.625)" fill="#00c3ff"/>
        <path id="Trazado_876822" data-name="Trazado 876822" d="M7.524,191.625v26.822a1.592,1.592,0,0,0,1.592,1.592l18.2-15.061Z" transform="translate(-7.524 -191.625)" fill="#00c3ff"/>
      </g>
      <path id="Trazado_876823" data-name="Trazado 876823" d="M9.482,192.946l-1.958-1.321h0v26.822a1.592,1.592,0,0,0,1.592,1.592l.718-.594a1.585,1.585,0,0,1-.352-1S9.482,192.946,9.482,192.946Z" transform="translate(-6.789 -153.19)" fill="#00aaf0"/>
      <path id="Trazado_876824" data-name="Trazado 876824" d="M97.834,84.841A9.953,9.953,0,0,1,101.4,77.2H77.042a1.234,1.234,0,0,0-1.234,1.234v14.44l13.119,8.853.607-.5a1.251,1.251,0,0,1,1.6,0l.607.5,11.722-7.91A9.975,9.975,0,0,1,97.834,84.841Z" transform="translate(-68.405 -49.941)" fill="#e4eaf8"/>
      <path id="Trazado_876825" data-name="Trazado 876825" d="M77.765,77.2h-.724a1.234,1.234,0,0,0-1.234,1.234v14.44L77.765,94.2Z" transform="translate(-68.404 -49.942)" fill="#d8dce5"/>
      <circle id="Elipse_11568" data-name="Elipse 11568" cx="9.995" cy="9.995" r="9.995" transform="translate(29.39 24.904)" fill="#7ce854"/>
      <path id="Trazado_876826" data-name="Trazado 876826" d="M302.88,63.073a10,10,0,0,1,9.035-9.948c-.316-.03-.636-.046-.959-.046a9.994,9.994,0,0,0,0,19.989c.324,0,.644-.016.959-.046A10,10,0,0,1,302.88,63.073Z" transform="translate(-271.57 -28.174)" fill="#5ec62e"/>
      <path id="Trazado_876827" data-name="Trazado 876827" d="M352.157,122.935l-2.889-2.784a1.5,1.5,0,0,1,2.088-2.167l1.745,1.682,3.535-4.089a1.5,1.5,0,0,1,2.277,1.968l-4.574,5.291A1.5,1.5,0,0,1,352.157,122.935Z" transform="translate(-314.744 -84.098)" fill="#e4eaf8"/>
      <path id="Trazado_876828" data-name="Trazado 876828" d="M354.049,145.166l-2.889-2.784a1.5,1.5,0,0,1-.379-1.569,1.5,1.5,0,0,0-1.514,2.511l2.889,2.784a1.5,1.5,0,0,0,2.183-.1l.4-.465A1.5,1.5,0,0,1,354.049,145.166Z" transform="translate(-314.744 -107.272)" fill="#d8dce5"/>
      <path id="Trazado_876829" data-name="Trazado 876829" d="M121.44,232.56h18.809a.734.734,0,1,0,0-1.468H121.44a.734.734,0,1,0,0,1.468Z" transform="translate(-108.918 -188.803)"/>
      <path id="Trazado_876830" data-name="Trazado 876830" d="M355.307,108.117a2.237,2.237,0,0,0-3.158.23l-3.028,3.5-1.187-1.144a2.239,2.239,0,0,0-3.107,3.224l2.889,2.784a2.239,2.239,0,0,0,3.247-.148l4.574-5.291A2.237,2.237,0,0,0,355.307,108.117Zm-.881,2.2-4.574,5.291a.772.772,0,0,1-1.118.051l-2.889-2.784a.77.77,0,1,1,1.069-1.109l1.745,1.682a.734.734,0,0,0,1.065-.049l3.535-4.089a.77.77,0,1,1,1.166,1.007Z" transform="translate(-310.534 -77.345)"/>
      <path id="Trazado_876831" data-name="Trazado 876831" d="M48.54,33.509a.734.734,0,1,0,1.452-.22,10.7,10.7,0,0,0-17.258-6.758H29.108L23.294,22.3a2.32,2.32,0,0,0-2.737,0l-5.814,4.229H8.636A1.97,1.97,0,0,0,6.668,28.5V32.4L.958,36.558A2.333,2.333,0,0,0,0,38.439V65.261a2.329,2.329,0,0,0,2.326,2.326H20.34a.734.734,0,0,0,0-1.468H4.364L21.6,51.855a.517.517,0,0,1,.659,0L39.488,66.119H23.766a.734.734,0,1,0,0,1.468h17.76a2.33,2.33,0,0,0,2.326-2.326V44.642a10.712,10.712,0,0,0,6.061-7.676.734.734,0,0,0-1.441-.281,9.241,9.241,0,1,1,.067-3.175ZM21.926,50.268a2.109,2.109,0,0,0-1.45.608l-4.533-3.059H27.909l-4.533,3.059A2.113,2.113,0,0,0,21.926,50.268Zm-.5-26.779a.856.856,0,0,1,1.009,0l4.182,3.041H17.24ZM8.137,28.5a.5.5,0,0,1,.5-.5H31.218a10.7,10.7,0,0,0-2.5,6.17h-16.2a.734.734,0,1,0,0,1.468h16.2a10.678,10.678,0,0,0,.5,2.592h-16.7a.734.734,0,1,0,0,1.468h17.3a10.737,10.737,0,0,0,3.829,4.242l-3.57,2.409H13.768l-5.632-3.8ZM1.821,37.745,6.668,34.22v7.338L1.541,38.1A.859.859,0,0,1,1.821,37.745ZM1.468,39.82,19.3,51.852,2.1,66.087a.86.86,0,0,1-.631-.827Zm40.916,5.37v20.07a.858.858,0,0,1-.631.827l-17.2-14.236,10.566-7.13A10.723,10.723,0,0,0,42.384,45.19Z"/>
    </g>
  </g>
</svg>
