<svg xmlns="http://www.w3.org/2000/svg" xmlns:xlink="http://www.w3.org/1999/xlink" width="295" height="240" viewBox="0 0 295 240">
  <defs>
    <clipPath id="clip-path">
      <rect id="Rectángulo_401431" data-name="Rectángulo 401431" width="295" height="240" transform="translate(180 2773)" fill="#fff" stroke="#707070" stroke-width="1"/>
    </clipPath>
    <clipPath id="clip-path-2">
      <rect id="Rectángulo_401434" data-name="Rectángulo 401434" width="45" height="91" fill="#fff" stroke="#fff" stroke-width="1"/>
    </clipPath>
    <clipPath id="clip-path-3">
      <rect id="Rectángulo_401429" data-name="Rectángulo 401429" width="202.438" height="239.979" fill="none"/>
    </clipPath>
  </defs>
  <g id="Enmascarar_grupo_1098672" data-name="Enmascarar grupo 1098672" transform="translate(-180 -2773)" clip-path="url(#clip-path)">
    <path id="Rectángulo_401439" data-name="Rectángulo 401439" d="M0,0H214a21,21,0,0,1,21,21V86a0,0,0,0,1,0,0H8a8,8,0,0,1-8-8V0A0,0,0,0,1,0,0Z" transform="translate(180 2927)" fill="#fff" opacity="0.29"/>
    <g id="Grupo_1099662" data-name="Grupo 1099662" transform="translate(-7)">
      <g id="Trazado_875527" data-name="Trazado 875527" transform="translate(223.797 2824.694)" fill="none" opacity="0.84">
        <path d="M62.113,0A62.113,62.113,0,1,1,0,62.113,62.113,62.113,0,0,1,62.113,0Z" stroke="none"/>
        <path d="M 62.11279296875 20.00000762939453 C 38.8917236328125 20.00000762939453 20.00000762939453 38.8917236328125 20.00000762939453 62.11279296875 C 20.00000762939453 85.3338623046875 38.8917236328125 104.2255783081055 62.11279296875 104.2255783081055 C 85.3338623046875 104.2255783081055 104.2255783081055 85.3338623046875 104.2255783081055 62.11279296875 C 104.2255783081055 38.8917236328125 85.3338623046875 20.00000762939453 62.11279296875 20.00000762939453 M 62.11279296875 7.62939453125e-06 C 96.41671752929688 7.62939453125e-06 124.2255783081055 27.80886077880859 124.2255783081055 62.11279296875 C 124.2255783081055 96.41671752929688 96.41671752929688 124.2255783081055 62.11279296875 124.2255783081055 C 27.80886077880859 124.2255783081055 7.62939453125e-06 96.41671752929688 7.62939453125e-06 62.11279296875 C 7.62939453125e-06 27.80886077880859 27.80886077880859 7.62939453125e-06 62.11279296875 7.62939453125e-06 Z" stroke="none" fill="#fff"/>
      </g>
      <g id="Enmascarar_grupo_1098674" data-name="Enmascarar grupo 1098674" transform="translate(390 2903)" clip-path="url(#clip-path-2)">
        <g id="Trazado_875528" data-name="Trazado 875528" transform="translate(2.704 13.511)" fill="none">
          <path d="M36.3,0a36.3,36.3,0,1,0,36.3,36.3A36.3,36.3,0,0,0,36.3,0Z" stroke="none"/>
          <path d="M 36.29638671875 10.00000762939453 C 21.79650497436523 10.00000762939453 10.00000762939453 21.79650497436523 10.00000762939453 36.29638671875 C 10.00000762939453 50.7962646484375 21.79650497436523 62.59276580810547 36.29638671875 62.59276580810547 C 50.7962646484375 62.59276580810547 62.59276580810547 50.7962646484375 62.59276580810547 36.29638671875 C 62.59276580810547 21.79650497436523 50.7962646484375 10.00000762939453 36.29638671875 10.00000762939453 M 36.29638671875 7.62939453125e-06 C 56.34232711791992 7.62939453125e-06 72.59276580810547 16.25044631958008 72.59276580810547 36.29638671875 C 72.59276580810547 56.34232711791992 56.34232711791992 72.59276580810547 36.29638671875 72.59276580810547 C 16.25044631958008 72.59276580810547 7.62939453125e-06 56.34232711791992 7.62939453125e-06 36.29638671875 C 7.62939453125e-06 16.25044631958008 16.25044631958008 7.62939453125e-06 36.29638671875 7.62939453125e-06 Z" stroke="none" fill="#fff"/>
        </g>
      </g>
      <g id="Grupo_1099660" data-name="Grupo 1099660" transform="translate(235.281 2772.827)">
        <path id="Trazado_875449" data-name="Trazado 875449" d="M101.183,322.836,91.656,358.2l94.952.277-8.288-35.644Z" transform="translate(-33.733 -118.817)" fill="#162229"/>
        <g id="Grupo_1099657" data-name="Grupo 1099657" transform="translate(0)">
          <g id="Grupo_1099656" data-name="Grupo 1099656" clip-path="url(#clip-path-3)">
            <path id="Trazado_875450" data-name="Trazado 875450" d="M91.656,358.2l9.527-35.366H178.32l8.289,35.644Z" transform="translate(-33.733 -118.817)" fill="none" stroke="#263238" stroke-miterlimit="10" stroke-width="1"/>
            <path id="Trazado_875451" data-name="Trazado 875451" d="M197.065,359.6a27.066,27.066,0,0,1-3.174,3.847" transform="translate(-71.36 -132.346)" fill="none" stroke="#616161" stroke-miterlimit="10" stroke-width="1"/>
            <path id="Trazado_875452" data-name="Trazado 875452" d="M210.172,335.628s-4.621,7.177-8.546,12.756" transform="translate(-74.207 -123.525)" fill="none" stroke="#616161" stroke-miterlimit="10" stroke-width="1"/>
            <line id="Línea_604" data-name="Línea 604" x1="7.644" y2="11.118" transform="translate(128.785 215.345)" fill="none" stroke="#616161" stroke-miterlimit="10" stroke-width="1"/>
            <line id="Línea_605" data-name="Línea 605" x2="7.838" y2="10.451" transform="translate(76.707 216.707)" fill="none" stroke="#616161" stroke-miterlimit="10" stroke-width="1"/>
            <line id="Línea_606" data-name="Línea 606" x2="1.557" y2="2.075" transform="translate(73.427 212.334)" fill="none" stroke="#616161" stroke-miterlimit="10" stroke-width="1"/>
            <line id="Línea_607" data-name="Línea 607" x2="6.022" y2="5.327" transform="translate(79.681 226)" fill="none" stroke="#616161" stroke-miterlimit="10" stroke-width="1"/>
            <path id="Trazado_875453" data-name="Trazado 875453" d="M82.2,197.1l-3.543,38.7,11.769,33.571s6.472-2.966,8.36-12.405a95.286,95.286,0,0,0,1.483-19.552L95.144,203.57Z" transform="translate(-28.949 -72.54)" fill="#f0956d"/>
            <path id="Trazado_875454" data-name="Trazado 875454" d="M82.2,197.1l-3.543,38.7,11.769,33.571s6.472-2.966,8.36-12.405a95.286,95.286,0,0,0,1.483-19.552L95.144,203.57Z" transform="translate(-28.949 -72.54)" fill="none" stroke="#263238" stroke-miterlimit="10" stroke-width="1"/>
            <path id="Trazado_875455" data-name="Trazado 875455" d="M84.618,202.3,97.6,216.631l-.387-8.135Z" transform="translate(-31.143 -74.454)" fill="#263238"/>
            <path id="Trazado_875456" data-name="Trazado 875456" d="M84.618,202.3,97.6,216.631l-.387-8.135Z" transform="translate(-31.143 -74.454)" fill="none" stroke="#263238" stroke-miterlimit="10" stroke-width="1"/>
            <path id="Trazado_875457" data-name="Trazado 875457" d="M236.575,197.1l1.888,25.215-10.113,47.059s-6.472-2.966-8.36-12.405a95.284,95.284,0,0,1-1.483-19.552l5.124-33.844Z" transform="translate(-80.406 -72.54)" fill="#f0956d"/>
            <path id="Trazado_875458" data-name="Trazado 875458" d="M236.575,197.1l1.888,25.215-10.113,47.059s-6.472-2.966-8.36-12.405a95.284,95.284,0,0,1-1.483-19.552l5.124-33.844Z" transform="translate(-80.406 -72.54)" fill="none" stroke="#263238" stroke-miterlimit="10" stroke-width="1"/>
            <path id="Trazado_875459" data-name="Trazado 875459" d="M230.709,210.65l10.654-5.036-.355-8.516-10.493,9.678Z" transform="translate(-84.839 -72.54)" fill="#263238"/>
            <path id="Trazado_875460" data-name="Trazado 875460" d="M230.709,210.65l10.654-5.036-.355-8.516-10.493,9.678Z" transform="translate(-84.839 -72.54)" fill="none" stroke="#263238" stroke-miterlimit="10" stroke-width="1"/>
            <path id="Trazado_875461" data-name="Trazado 875461" d="M93.1,149.344s-8.632,2.877-11.03,6.074-2.4,3.676-2.558,5.115a72.5,72.5,0,0,1-2.129,7.254c-.121.352-1.764-.911-1.887-.555a25.723,25.723,0,0,0-1.1,8.487L91.02,186.268l7.992,43.8s-7.832,15.825-7.353,17.743.8,3.677.8,3.677l2.366,3.806h77.137s1.794-4.484,1.5-6.876-5.083-21.227-5.083-22.423,5.382-37.672,5.382-37.672S190.607,175.336,190.718,175s-2.109-8.658-2.664-8.548a1.568,1.568,0,0,1-1.11-.333s-3-10.1-5.106-12.21S154.2,142.367,154.2,142.367l-6.105-2.331-29.1,1.443s-11.343,3.179-13.634,3.775c-3.028.786-9.991,3.219-10.324,3.441a13.062,13.062,0,0,1-1.934.65" transform="translate(-27.374 -51.539)" fill="#f0c518"/>
            <path id="Trazado_875462" data-name="Trazado 875462" d="M93.1,149.344s-8.632,2.877-11.03,6.074-2.4,3.676-2.558,5.115a72.5,72.5,0,0,1-2.129,7.254c-.121.352-1.764-.911-1.887-.555a25.723,25.723,0,0,0-1.1,8.487L91.02,186.268l7.992,43.8s-7.832,15.825-7.353,17.743.8,3.677.8,3.677l2.366,3.806h77.137s1.794-4.484,1.5-6.876-5.083-21.227-5.083-22.423,5.382-37.672,5.382-37.672S190.607,175.336,190.718,175s-2.109-8.658-2.664-8.548a1.568,1.568,0,0,1-1.11-.333s-3-10.1-5.106-12.21S154.2,142.367,154.2,142.367l-6.105-2.331-29.1,1.443s-11.343,3.179-13.634,3.775c-3.028.786-9.991,3.219-10.324,3.441A13.062,13.062,0,0,1,93.1,149.344Z" transform="translate(-27.374 -51.539)" fill="none" stroke="#263238" stroke-miterlimit="10" stroke-width="1"/>
            <path id="Trazado_875463" data-name="Trazado 875463" d="M211.385,235.879s-6.861,12.075-15.094,17.288" transform="translate(-72.243 -86.814)" fill="#92e3a9"/>
            <path id="Trazado_875464" data-name="Trazado 875464" d="M211.385,235.879s-6.861,12.075-15.094,17.288" transform="translate(-72.243 -86.814)" fill="none" stroke="#263238" stroke-miterlimit="10" stroke-width="1"/>
            <path id="Trazado_875465" data-name="Trazado 875465" d="M157.906,168.728a48.054,48.054,0,0,0,7.281.135" transform="translate(-58.116 -62.099)" fill="#92e3a9"/>
            <path id="Trazado_875466" data-name="Trazado 875466" d="M157.906,168.728a48.054,48.054,0,0,0,7.281.135" transform="translate(-58.116 -62.099)" fill="none" stroke="#263238" stroke-miterlimit="10" stroke-width="1"/>
            <path id="Trazado_875467" data-name="Trazado 875467" d="M123.421,153.892s5.922,6.6,18.034,8.848" transform="translate(-45.424 -56.639)" fill="none" stroke="#263238" stroke-miterlimit="10" stroke-width="1"/>
            <path id="Trazado_875468" data-name="Trazado 875468" d="M204.987,152.6s-6.793,4.619-12.771,6.521" transform="translate(-70.744 -56.164)" fill="#92e3a9"/>
            <path id="Trazado_875469" data-name="Trazado 875469" d="M204.987,152.6s-6.793,4.619-12.771,6.521" transform="translate(-70.744 -56.164)" fill="none" stroke="#263238" stroke-miterlimit="10" stroke-width="1"/>
            <line id="Línea_608" data-name="Línea 608" x2="10.767" y2="8.104" transform="translate(50.007 116.248)" fill="none" stroke="#263238" stroke-miterlimit="10" stroke-width="1"/>
            <line id="Línea_609" data-name="Línea 609" x1="7.422" y1="25.918" transform="translate(56.224 108.811)" fill="none" stroke="#263238" stroke-miterlimit="10" stroke-width="1"/>
            <line id="Línea_610" data-name="Línea 610" x2="7.215" y2="11.323" transform="translate(52.782 110.809)" fill="none" stroke="#263238" stroke-miterlimit="10" stroke-width="1"/>
            <path id="Trazado_875470" data-name="Trazado 875470" d="M231.631,202.09l.535-5.88,6.438-18.76" transform="translate(-85.25 -65.309)" fill="none" stroke="#263238" stroke-miterlimit="10" stroke-width="1"/>
            <line id="Línea_611" data-name="Línea 611" y1="15.097" x2="13.21" transform="translate(146.915 115.804)" fill="none" stroke="#263238" stroke-miterlimit="10" stroke-width="1"/>
            <path id="Trazado_875471" data-name="Trazado 875471" d="M234.872,177.274s-1.887,11.766-2.22,15.873" transform="translate(-85.626 -65.244)" fill="none" stroke="#263238" stroke-miterlimit="10" stroke-width="1"/>
            <path id="Trazado_875472" data-name="Trazado 875472" d="M120.119,263.521a118.614,118.614,0,0,0,5.522-13.3" transform="translate(-44.209 -92.094)" fill="none" stroke="#263238" stroke-miterlimit="10" stroke-width="1"/>
            <path id="Trazado_875473" data-name="Trazado 875473" d="M115.415,278.667s.664-1.212,1.661-3.188" transform="translate(-42.478 -101.388)" fill="none" stroke="#263238" stroke-miterlimit="10" stroke-width="1"/>
            <path id="Trazado_875474" data-name="Trazado 875474" d="M217.832,254.92s2.055,10.917,2.7,12.135" transform="translate(-80.171 -93.821)" fill="none" stroke="#263238" stroke-miterlimit="10" stroke-width="1"/>
            <path id="Trazado_875475" data-name="Trazado 875475" d="M178.594,137.166c-7.017-2.5-11.306-4.092-13.164-6.8-2.57-3.75-2.741-10.894-2.741-10.894L151.9,120.541l-10.791-1.072s-.171,7.144-2.74,10.894c-1.954,2.852-6.591,4.468-14.27,7.2,4.7,2.511,13.383,8.192,25.659,8.178,9.319-.01,20.037-3.281,28.839-8.571" transform="translate(-45.673 -43.97)" fill="#f0956d"/>
            <path id="Trazado_875476" data-name="Trazado 875476" d="M178.594,137.166c-7.017-2.5-11.306-4.092-13.164-6.8-2.57-3.75-2.741-10.894-2.741-10.894L151.9,120.541l-10.791-1.072s-.171,7.144-2.74,10.894c-1.954,2.852-6.591,4.468-14.27,7.2,4.7,2.511,13.383,8.192,25.659,8.178C159.075,145.727,169.793,142.456,178.594,137.166Z" transform="translate(-45.673 -43.97)" fill="none" stroke="#263238" stroke-miterlimit="10" stroke-width="1"/>
            <path id="Trazado_875477" data-name="Trazado 875477" d="M147.01,130.037l9.529-4.186,1.626-4.714-1.4-.95-7.228-.718s-.162,6.747-2.53,10.569" transform="translate(-54.106 -43.969)" fill="#263238"/>
            <path id="Trazado_875478" data-name="Trazado 875478" d="M147.01,130.037l9.529-4.186,1.626-4.714-1.4-.95-7.228-.718S149.378,126.215,147.01,130.037Z" transform="translate(-54.106 -43.969)" fill="none" stroke="#263238" stroke-miterlimit="10" stroke-width="1"/>
            <path id="Trazado_875479" data-name="Trazado 875479" d="M142.148,5.032S134.36.417,132.2,2.292s3.029,3.173,3.029,3.173-6.346,0-6.779,1.154.289,1.442.289,1.442-6.635,1.586-6.924,3.606a3.123,3.123,0,0,0,1.443,3.029s-4.76-.866-5.048.865a5.051,5.051,0,0,0,.288,2.884s-4.183.722-3.894,2.02,1.875,1.731,1.875,1.731-7.789,1.442-6.058,4.038,3.029,2.164,3.029,2.164-3.606,2.307-1.731,3.461a3.582,3.582,0,0,0,3.462.289s-2.019,2.884-2.019,3.461-1.875,0-2.164,1.01,1.154,2.019,1.154,2.019h1.875s-4.615,2.74-2.74,4.615a3.411,3.411,0,0,0,3.75,1.01s-2.741,3.462-.866,3.462a2.707,2.707,0,0,0,2.452-1.01s-1.154,3.606-.288,4.327,3.317.577,3.317.577-2.019,2.019-2.019,2.74-2.019,0-1.731,1.442,2.6,1.009,2.6,1.009-.577,1.732,1.587,1.876a3.983,3.983,0,0,0,3.029-.721s-1.154,2.452.144,3.173,2.452-.721,2.452-.721-.721,2.163,1.009,1.875,1.875-.866,1.875-.866-.144,2.02,1.443,2.164a2.451,2.451,0,0,0,2.163-.577h33.318s2.451,1.442,3.173.144a3.647,3.647,0,0,0,.577-2.163s2.163,1.009,2.163-.144V59.7s3.75,1.442,4.471-1.443-.577-3.173-.577-3.173,5.048.866,5.481-.721a2.641,2.641,0,0,0-.721-2.6s5.192,2.163,5.769.144-2.308-5.913-2.308-5.913,4.039,1.009,3.895-1.587a4.025,4.025,0,0,0-2.452-3.461s3.606-.289,3.606-1.875-2.885-1.875-2.885-1.875.144-2.452-1.01-2.885a6.045,6.045,0,0,0-2.452-.288s3.462-1.443,2.885-3.174a4,4,0,0,0-1.731-2.307s3.75-.433,3.318-2.164-2.741-1.731-2.741-1.731,2.741-3.028.289-5.048a5.314,5.314,0,0,0-4.9-1.154s1.009-1.586-.577-2.307l-1.587-.721s2.741-1.731,1.01-4.183a4.939,4.939,0,0,0-4.327-2.163s1.01-2.02-.289-2.164a10.489,10.489,0,0,0-3.028.288s2.74-2.019.144-3.461-7.789,1.01-7.789,1.01-.288-3.751-1.442-3.174A3.511,3.511,0,0,0,159.889,3.3S158.879-.16,157.581.849a6.619,6.619,0,0,0-1.875,2.885s.288-2.6-2.164-2.885-2.74,2.885-2.74,2.885-.721-2.6-1.587-1.875l-.865.721-.577,1.154s-.577-3.75-2.74-3.173-.866,3.606-.866,3.606-2.452-1.587-2.019.865" transform="translate(-40.546 -0.184)" fill="#263238"/>
            <path id="Trazado_875480" data-name="Trazado 875480" d="M142.148,5.032S134.36.417,132.2,2.292s3.029,3.173,3.029,3.173-6.346,0-6.779,1.154.289,1.442.289,1.442-6.635,1.586-6.924,3.606a3.123,3.123,0,0,0,1.443,3.029s-4.76-.866-5.048.865a5.051,5.051,0,0,0,.288,2.884s-4.183.722-3.894,2.02,1.875,1.731,1.875,1.731-7.789,1.442-6.058,4.038,3.029,2.164,3.029,2.164-3.606,2.307-1.731,3.461a3.582,3.582,0,0,0,3.462.289s-2.019,2.884-2.019,3.461-1.875,0-2.164,1.01,1.154,2.019,1.154,2.019h1.875s-4.615,2.74-2.74,4.615a3.411,3.411,0,0,0,3.75,1.01s-2.741,3.462-.866,3.462a2.707,2.707,0,0,0,2.452-1.01s-1.154,3.606-.288,4.327,3.317.577,3.317.577-2.019,2.019-2.019,2.74-2.019,0-1.731,1.442,2.6,1.009,2.6,1.009-.577,1.732,1.587,1.876a3.983,3.983,0,0,0,3.029-.721s-1.154,2.452.144,3.173,2.452-.721,2.452-.721-.721,2.163,1.009,1.875,1.875-.866,1.875-.866-.144,2.02,1.443,2.164a2.451,2.451,0,0,0,2.163-.577h33.318s2.451,1.442,3.173.144a3.647,3.647,0,0,0,.577-2.163s2.163,1.009,2.163-.144V59.7s3.75,1.442,4.471-1.443-.577-3.173-.577-3.173,5.048.866,5.481-.721a2.641,2.641,0,0,0-.721-2.6s5.192,2.163,5.769.144-2.308-5.913-2.308-5.913,4.039,1.009,3.895-1.587a4.025,4.025,0,0,0-2.452-3.461s3.606-.289,3.606-1.875-2.885-1.875-2.885-1.875.144-2.452-1.01-2.885a6.045,6.045,0,0,0-2.452-.288s3.462-1.443,2.885-3.174a4,4,0,0,0-1.731-2.307s3.75-.433,3.318-2.164-2.741-1.731-2.741-1.731,2.741-3.028.289-5.048a5.314,5.314,0,0,0-4.9-1.154s1.009-1.586-.577-2.307l-1.587-.721s2.741-1.731,1.01-4.183a4.939,4.939,0,0,0-4.327-2.163s1.01-2.02-.289-2.164a10.489,10.489,0,0,0-3.028.288s2.74-2.019.144-3.461-7.789,1.01-7.789,1.01-.288-3.751-1.442-3.174A3.511,3.511,0,0,0,159.889,3.3S158.879-.16,157.581.849a6.619,6.619,0,0,0-1.875,2.885s.288-2.6-2.164-2.885-2.74,2.885-2.74,2.885-.721-2.6-1.587-1.875l-.865.721-.577,1.154s-.577-3.75-2.74-3.173-.866,3.606-.866,3.606S141.715,2.58,142.148,5.032Z" transform="translate(-40.546 -0.184)" fill="none" stroke="#263238" stroke-miterlimit="10" stroke-width="1"/>
            <path id="Trazado_875481" data-name="Trazado 875481" d="M139.7,81.2a2.238,2.238,0,0,0-3.366.449c-1.57,2.02.222,7.1,1.665,9.265s2.712,3.189,2.6,2.853-.9-12.567-.9-12.567" transform="translate(-49.951 -29.67)" fill="#f0956d"/>
            <path id="Trazado_875482" data-name="Trazado 875482" d="M139.7,81.2a2.238,2.238,0,0,0-3.366.449c-1.57,2.02.222,7.1,1.665,9.265s2.712,3.189,2.6,2.853S139.7,81.2,139.7,81.2Z" transform="translate(-49.951 -29.67)" fill="none" stroke="#263238" stroke-miterlimit="10" stroke-width="1"/>
            <path id="Trazado_875483" data-name="Trazado 875483" d="M199.569,81.2a2.238,2.238,0,0,1,3.366.449c1.57,2.02-.222,7.1-1.665,9.265s-2.712,3.189-2.6,2.853.9-12.567.9-12.567" transform="translate(-73.117 -29.67)" fill="#f0956d"/>
            <path id="Trazado_875484" data-name="Trazado 875484" d="M199.569,81.2a2.238,2.238,0,0,1,3.366.449c1.57,2.02-.222,7.1-1.665,9.265s-2.712,3.189-2.6,2.853S199.569,81.2,199.569,81.2Z" transform="translate(-73.117 -29.67)" fill="none" stroke="#263238" stroke-miterlimit="10" stroke-width="1"/>
            <path id="Trazado_875485" data-name="Trazado 875485" d="M139.2,95.606a7.843,7.843,0,1,0,7.843,7.843,7.843,7.843,0,0,0-7.843-7.843m0,13.911a6.068,6.068,0,1,1,6.068-6.068,6.068,6.068,0,0,1-6.068,6.068" transform="translate(-48.344 -35.187)" fill="#a854f3"/>
            <path id="Trazado_875486" data-name="Trazado 875486" d="M139.2,95.606a7.843,7.843,0,1,0,7.843,7.843A7.843,7.843,0,0,0,139.2,95.606Zm0,13.911a6.068,6.068,0,1,1,6.068-6.068A6.068,6.068,0,0,1,139.2,109.517Z" transform="translate(-48.344 -35.187)" fill="none" stroke="#263238" stroke-miterlimit="10" stroke-width="1"/>
            <path id="Trazado_875487" data-name="Trazado 875487" d="M197.117,95.606a7.843,7.843,0,1,0,7.843,7.843,7.843,7.843,0,0,0-7.843-7.843m0,13.911a6.068,6.068,0,1,1,6.068-6.068,6.068,6.068,0,0,1-6.068,6.068" transform="translate(-69.661 -35.187)" fill="#a854f3"/>
            <path id="Trazado_875488" data-name="Trazado 875488" d="M197.117,95.606a7.843,7.843,0,1,0,7.843,7.843A7.843,7.843,0,0,0,197.117,95.606Zm0,13.911a6.068,6.068,0,1,1,6.068-6.068A6.068,6.068,0,0,1,197.117,109.517Z" transform="translate(-69.661 -35.187)" fill="none" stroke="#263238" stroke-miterlimit="10" stroke-width="1"/>
            <path id="Trazado_875489" data-name="Trazado 875489" d="M140.663,63.21s.327,17.158,1.306,22.55,10.622,18.465,14.543,19.772,6.623-.017,8.421-1.978,10.372-9.3,12.5-18.611,1.8-18.628.981-20.589.327-3.1-4.249-7.353-12.908-5.392-19.118-4.412-10.3.164-14.38,10.621" transform="translate(-51.77 -19.234)" fill="#f0956d"/>
            <path id="Trazado_875490" data-name="Trazado 875490" d="M140.663,63.21s.327,17.158,1.306,22.55,10.622,18.465,14.543,19.772,6.623-.017,8.421-1.978,10.372-9.3,12.5-18.611,1.8-18.628.981-20.589.327-3.1-4.249-7.353-12.908-5.392-19.118-4.412S144.747,52.753,140.663,63.21Z" transform="translate(-51.77 -19.234)" fill="none" stroke="#263238" stroke-miterlimit="10" stroke-width="1"/>
            <path id="Trazado_875491" data-name="Trazado 875491" d="M152.713,49.631s4.309,4.506,5.6,3.723l1.293-.784s3.016,4.311,5.171,3.919a3.5,3.5,0,0,0,2.585-2.743s1.939,3.723,3.232,2.743.431-3.135.431-3.135a7.626,7.626,0,0,0,.646-5.487" transform="translate(-56.205 -17.617)" fill="#263238"/>
            <path id="Trazado_875492" data-name="Trazado 875492" d="M152.713,49.631s4.309,4.506,5.6,3.723l1.293-.784s3.016,4.311,5.171,3.919a3.5,3.5,0,0,0,2.585-2.743s1.939,3.723,3.232,2.743.431-3.135.431-3.135a7.626,7.626,0,0,0,.646-5.487" transform="translate(-56.205 -17.617)" fill="none" stroke="#263238" stroke-miterlimit="10" stroke-width="1"/>
            <path id="Trazado_875493" data-name="Trazado 875493" d="M164.451,100.357s2.451,3.432,6.373.164" transform="translate(-60.525 -36.936)" fill="none" stroke="#263238" stroke-miterlimit="10" stroke-width="1"/>
            <path id="Trazado_875494" data-name="Trazado 875494" d="M158.166,109.407h15.623s-.36,6.869-7.36,7.36c-7.36.516-8.263-7.36-8.263-7.36" transform="translate(-58.212 -40.266)" fill="#263238"/>
            <path id="Trazado_875495" data-name="Trazado 875495" d="M158.166,109.407h15.623s-.36,6.869-7.36,7.36C159.07,117.283,158.166,109.407,158.166,109.407Z" transform="translate(-58.212 -40.266)" fill="none" stroke="#263238" stroke-miterlimit="10" stroke-width="1"/>
            <path id="Trazado_875496" data-name="Trazado 875496" d="M168.088,119.125a7.724,7.724,0,0,0,4.6-1.747,8.667,8.667,0,0,0-10.018.062,7.037,7.037,0,0,0,5.416,1.685" transform="translate(-59.87 -42.625)" fill="#fff"/>
            <path id="Trazado_875497" data-name="Trazado 875497" d="M168.088,119.125a7.724,7.724,0,0,0,4.6-1.747,8.667,8.667,0,0,0-10.018.062A7.037,7.037,0,0,0,168.088,119.125Z" transform="translate(-59.87 -42.625)" fill="none" stroke="#263238" stroke-miterlimit="10" stroke-width="1"/>
            <path id="Trazado_875498" data-name="Trazado 875498" d="M158.659,111.386a26.156,26.156,0,0,0,14.726-.016,8.629,8.629,0,0,0,.4-1.962H158.166a10.277,10.277,0,0,0,.493,1.979" transform="translate(-58.212 -40.266)" fill="#fff"/>
            <path id="Trazado_875499" data-name="Trazado 875499" d="M158.659,111.386a26.156,26.156,0,0,0,14.726-.016,8.629,8.629,0,0,0,.4-1.962H158.166A10.277,10.277,0,0,0,158.659,111.386Z" transform="translate(-58.212 -40.266)" fill="none" stroke="#263238" stroke-miterlimit="10" stroke-width="1"/>
            <path id="Trazado_875500" data-name="Trazado 875500" d="M157.6,82.277c0,1.312-.625,2.376-1.4,2.376s-1.4-1.064-1.4-2.376.625-2.376,1.4-2.376,1.4,1.064,1.4,2.376" transform="translate(-56.977 -29.407)" fill="#263238"/>
            <path id="Trazado_875501" data-name="Trazado 875501" d="M157.6,82.277c0,1.312-.625,2.376-1.4,2.376s-1.4-1.064-1.4-2.376.625-2.376,1.4-2.376S157.6,80.965,157.6,82.277Z" transform="translate(-56.977 -29.407)" fill="none" stroke="#263238" stroke-miterlimit="10" stroke-width="1"/>
            <path id="Trazado_875502" data-name="Trazado 875502" d="M183.869,82.277c0,1.312-.625,2.376-1.4,2.376s-1.4-1.064-1.4-2.376.625-2.376,1.4-2.376,1.4,1.064,1.4,2.376" transform="translate(-66.644 -29.407)" fill="#263238"/>
            <path id="Trazado_875503" data-name="Trazado 875503" d="M183.869,82.277c0,1.312-.625,2.376-1.4,2.376s-1.4-1.064-1.4-2.376.625-2.376,1.4-2.376S183.869,80.965,183.869,82.277Z" transform="translate(-66.644 -29.407)" fill="none" stroke="#263238" stroke-miterlimit="10" stroke-width="1"/>
            <path id="Trazado_875504" data-name="Trazado 875504" d="M147.385,71.079s4.575-5.229,9.314,0" transform="translate(-54.244 -25.305)" fill="none" stroke="#263238" stroke-linecap="round" stroke-miterlimit="10" stroke-width="3"/>
            <path id="Trazado_875505" data-name="Trazado 875505" d="M179.189,70.342s6.373-4.575,10.131.817" transform="translate(-65.949 -25.222)" fill="none" stroke="#263238" stroke-linecap="round" stroke-miterlimit="10" stroke-width="3"/>
            <path id="Trazado_875506" data-name="Trazado 875506" d="M44.067,176.226a51.462,51.462,0,0,0,.279-10.7c-.454-6.05-1.966-9.994-2.158-12.549s.891-6.151-1.448-4.894a6.224,6.224,0,0,0-3.052,6.178c.181,2.42.931,5.2.289,5.658a1.652,1.652,0,0,1-2.161.027c-.992-.6-8.559-7.741-8.559-7.741L15.988,138.984s-1.768-.138-1.832.813,9.073,14.6,8.834,15.023a3.633,3.633,0,0,1-1.15.9S6.28,142.957,5.319,142.759a1.253,1.253,0,0,0-1.349,1.859c.619,1.035,12.818,14.048,12.818,14.048s-13.366-8.733-14.357-9.335a1.236,1.236,0,0,0-1.771,1.62c.639,1.3,15.716,13.02,15.716,13.02a31.5,31.5,0,0,1-6.958-.83c-5.076-.971-7.123-1.223-7.166,0s1.361,1.926,2.591,2.1,10.841,3.919,14.024,4.9,1.859,1.348,3.449,2.716,3.979,6.062,6.861,9.277a46.861,46.861,0,0,1,4.455,5.556s5.559,35.285,8.688,42.758S55.177,250.44,58.5,249.65,65.2,247.118,65.46,237.9s-1.18-15.732-6.091-21.719c-3.049-3.717-14.436-30.743-13.715-31.423Z" transform="translate(-0.184 -51.149)" fill="#f0956d"/>
            <path id="Trazado_875507" data-name="Trazado 875507" d="M44.067,176.226a51.462,51.462,0,0,0,.279-10.7c-.454-6.05-1.966-9.994-2.158-12.549s.891-6.151-1.448-4.894a6.224,6.224,0,0,0-3.052,6.178c.181,2.42.931,5.2.289,5.658a1.652,1.652,0,0,1-2.161.027c-.992-.6-8.559-7.741-8.559-7.741L15.988,138.984s-1.768-.138-1.832.813,9.073,14.6,8.834,15.023a3.633,3.633,0,0,1-1.15.9S6.28,142.957,5.319,142.759a1.253,1.253,0,0,0-1.349,1.859c.619,1.035,12.818,14.048,12.818,14.048s-13.366-8.733-14.357-9.335a1.236,1.236,0,0,0-1.771,1.62c.639,1.3,15.716,13.02,15.716,13.02a31.5,31.5,0,0,1-6.958-.83c-5.076-.971-7.123-1.223-7.166,0s1.361,1.926,2.591,2.1,10.841,3.919,14.024,4.9,1.859,1.348,3.449,2.716,3.979,6.062,6.861,9.277a46.861,46.861,0,0,1,4.455,5.556s5.559,35.285,8.688,42.758S55.177,250.44,58.5,249.65,65.2,247.118,65.46,237.9s-1.18-15.732-6.091-21.719c-3.049-3.717-14.436-30.743-13.715-31.423Z" transform="translate(-0.184 -51.149)" fill="none" stroke="#263238" stroke-miterlimit="10" stroke-width="1"/>
            <path id="Trazado_875508" data-name="Trazado 875508" d="M56.3,174.972s-1.907,1.994-1.989,3.646" transform="translate(-19.99 -64.397)" fill="none" stroke="#263238" stroke-miterlimit="10" stroke-width="1"/>
            <path id="Trazado_875509" data-name="Trazado 875509" d="M47.048,190.932s3.832,1.732,5.209,2.133,4.347,1.862,4.238,4.9-1.72,4-1.72,4" transform="translate(-17.316 -70.271)" fill="none" stroke="#263238" stroke-miterlimit="10" stroke-width="1"/>
            <path id="Trazado_875510" data-name="Trazado 875510" d="M35.221,162.525s-3.983,2.991-6.133,10.221" transform="translate(-10.706 -59.816)" fill="none" stroke="#263238" stroke-miterlimit="10" stroke-width="1"/>
            <path id="Trazado_875511" data-name="Trazado 875511" d="M244.007,173.452a51.524,51.524,0,0,1-1.05-10.655c.016-6.067,1.241-10.109,1.247-12.671s-1.332-6.071,1.092-4.986a6.224,6.224,0,0,1,3.49,5.942c-.007,2.427-.554,5.257.119,5.664a1.654,1.654,0,0,0,2.158-.129c.945-.672,7.978-8.339,7.978-8.339l10.285-14s1.754-.265,1.886.679-8,15.216-7.728,15.621a3.63,3.63,0,0,0,1.211.812s14.6-13.849,15.544-14.117a1.253,1.253,0,0,1,1.479,1.757c-.542,1.077-11.771,14.936-11.771,14.936s12.7-9.675,13.647-10.346a1.236,1.236,0,0,1,1.883,1.489c-.543,1.347-14.735,14.119-14.735,14.119a31.469,31.469,0,0,0,6.881-1.33c4.992-1.335,7.016-1.734,7.148-.52s-1.219,2.02-2.434,2.286-10.53,4.692-13.635,5.9-1.757,1.478-3.244,2.958-3.531,6.334-6.175,9.747a46.831,46.831,0,0,0-4.043,5.863s-3,35.594-5.581,43.273-11.383,20.87-14.752,20.321-6.871-2.041-7.791-11.213.042-15.776,4.509-22.1c2.774-3.928,12.182-31.7,11.413-32.331Z" transform="translate(-83.473 -49.408)" fill="#f0956d"/>
            <path id="Trazado_875512" data-name="Trazado 875512" d="M244.007,173.452a51.524,51.524,0,0,1-1.05-10.655c.016-6.067,1.241-10.109,1.247-12.671s-1.332-6.071,1.092-4.986a6.224,6.224,0,0,1,3.49,5.942c-.007,2.427-.554,5.257.119,5.664a1.654,1.654,0,0,0,2.158-.129c.945-.672,7.978-8.339,7.978-8.339l10.285-14s1.754-.265,1.886.679-8,15.216-7.728,15.621a3.63,3.63,0,0,0,1.211.812s14.6-13.849,15.544-14.117a1.253,1.253,0,0,1,1.479,1.757c-.542,1.077-11.771,14.936-11.771,14.936s12.7-9.675,13.647-10.346a1.236,1.236,0,0,1,1.883,1.489c-.543,1.347-14.735,14.119-14.735,14.119a31.469,31.469,0,0,0,6.881-1.33c4.992-1.335,7.016-1.734,7.148-.52s-1.219,2.02-2.434,2.286-10.53,4.692-13.635,5.9-1.757,1.478-3.244,2.958-3.531,6.334-6.175,9.747a46.831,46.831,0,0,0-4.043,5.863s-3,35.594-5.581,43.273-11.383,20.87-14.752,20.321-6.871-2.041-7.791-11.213.042-15.776,4.509-22.1c2.774-3.928,12.182-31.7,11.413-32.331Z" transform="translate(-83.473 -49.408)" fill="none" stroke="#263238" stroke-miterlimit="10" stroke-width="1"/>
            <path id="Trazado_875513" data-name="Trazado 875513" d="M265.608,191.661c-1.344.5-4.2,2.17-3.874,5.192s2,3.865,2,3.865" transform="translate(-96.32 -70.539)" fill="none" stroke="#263238" stroke-miterlimit="10" stroke-width="1"/>
            <path id="Trazado_875514" data-name="Trazado 875514" d="M274.434,187.7s-1.177.638-2.444,1.283" transform="translate(-100.104 -69.081)" fill="none" stroke="#263238" stroke-miterlimit="10" stroke-width="1"/>
            <path id="Trazado_875515" data-name="Trazado 875515" d="M282.042,158.771s4.187,2.7,6.854,9.752" transform="translate(-103.803 -58.435)" fill="none" stroke="#263238" stroke-miterlimit="10" stroke-width="1"/>
          </g>
        </g>
        <g id="Grupo_1099659" data-name="Grupo 1099659" transform="translate(0)">
          <g id="Grupo_1099658" data-name="Grupo 1099658" clip-path="url(#clip-path-3)">
            <path id="Trazado_875516" data-name="Trazado 875516" d="M263.884,28.555,257.4,63.638a3.724,3.724,0,0,0,7.1,2.12L278.5,32.445a3.724,3.724,0,0,0-2.58-5.068L268.4,25.606a3.725,3.725,0,0,0-4.515,2.949" transform="translate(-94.712 -9.387)" fill="#fff"/>
            <path id="Trazado_875517" data-name="Trazado 875517" d="M263.884,28.555,257.4,63.638a3.724,3.724,0,0,0,7.1,2.12L278.5,32.445a3.724,3.724,0,0,0-2.58-5.068L268.4,25.606A3.725,3.725,0,0,0,263.884,28.555Z" transform="translate(-94.712 -9.387)" fill="none" stroke="#263238" stroke-miterlimit="10" stroke-width="1"/>
            <path id="Trazado_875518" data-name="Trazado 875518" d="M257.889,106.721a6.889,6.889,0,1,0-6.89,6.89,6.89,6.89,0,0,0,6.89-6.89" transform="translate(-89.843 -36.742)" fill="#fff"/>
            <path id="Trazado_875519" data-name="Trazado 875519" d="M257.889,106.721a6.889,6.889,0,1,0-6.89,6.89A6.89,6.89,0,0,0,257.889,106.721Z" transform="translate(-89.843 -36.742)" fill="none" stroke="#263238" stroke-miterlimit="10" stroke-width="1"/>
          </g>
        </g>
      </g>
    </g>
  </g>
</svg>
