<svg xmlns="http://www.w3.org/2000/svg" xmlns:xlink="http://www.w3.org/1999/xlink" width="192" height="82.137" viewBox="0 0 192 82.137">
  <defs>
    <clipPath id="clip-path">
      <rect id="Rectángulo_401364" data-name="Rectángulo 401364" width="55" height="21" transform="translate(312 1640)" fill="none" stroke="#707070" stroke-width="1"/>
    </clipPath>
    <clipPath id="clip-path-2">
      <rect id="Rectángulo_401395" data-name="Rectángulo 401395" width="52" height="21" transform="translate(3)" fill="none" stroke="#707070" stroke-width="1"/>
    </clipPath>
    <linearGradient id="linear-gradient" x2="0.5" y2="1" gradientUnits="objectBoundingBox">
      <stop offset="0" stop-color="#f354ee"/>
      <stop offset="1" stop-color="#5c1d94"/>
    </linearGradient>
    <clipPath id="clip-path-3">
      <path id="path21" d="M0-682.665H82.137v82.137H0Z" transform="translate(0 682.665)"/>
    </clipPath>
  </defs>
  <g id="Grupo_1100740" data-name="Grupo 1100740" transform="translate(-180 -1639)">
    <g id="Grupo_1099568" data-name="Grupo 1099568">
      <g id="Grupo_1074076" data-name="Grupo 1074076" transform="translate(-945 -5488)">
        <rect id="Rectángulo_401407" data-name="Rectángulo 401407" width="192" height="41" rx="3" transform="translate(1125 7149)" fill="#f0c518"/>
      </g>
      <g id="Grupo_1099569" data-name="Grupo 1099569" transform="translate(3 7)" clip-path="url(#clip-path)">
        <g id="Trazado_875277" data-name="Trazado 875277" transform="translate(318.307 1640.896)" fill="none">
          <path d="M22.6,0A22.6,22.6,0,1,1,0,22.6,22.6,22.6,0,0,1,22.6,0Z" stroke="none"/>
          <path d="M 22.60302925109863 7.000003814697266 C 13.99949645996094 7.000003814697266 7.000003814697266 13.99949645996094 7.000003814697266 22.60302925109863 C 7.000003814697266 31.20656204223633 13.99949645996094 38.2060546875 22.60302925109863 38.2060546875 C 31.20656204223633 38.2060546875 38.2060546875 31.20656204223633 38.2060546875 22.60302925109863 C 38.2060546875 13.99949645996094 31.20656204223633 7.000003814697266 22.60302925109863 7.000003814697266 M 22.60302925109863 3.814697265625e-06 C 35.08633422851562 3.814697265625e-06 45.2060546875 10.11972427368164 45.2060546875 22.60302925109863 C 45.2060546875 35.08633422851562 35.08633422851562 45.2060546875 22.60302925109863 45.2060546875 C 10.11972427368164 45.2060546875 3.814697265625e-06 35.08633422851562 3.814697265625e-06 22.60302925109863 C 3.814697265625e-06 10.11972427368164 10.11972427368164 3.814697265625e-06 22.60302925109863 3.814697265625e-06 Z" stroke="none" fill="#3a1d71"/>
        </g>
      </g>
      <g id="Grupo_1099592" data-name="Grupo 1099592" transform="translate(178 1694)" clip-path="url(#clip-path-2)">
        <g id="Trazado_875278" data-name="Trazado 875278" transform="translate(6.307 -25.103)" fill="none">
          <path d="M22.6,45.206A22.6,22.6,0,1,0,0,22.6,22.6,22.6,0,0,0,22.6,45.206Z" stroke="none"/>
          <path d="M 22.60302925109863 38.20605850219727 C 31.20656204223633 38.20605850219727 38.2060546875 31.20656585693359 38.2060546875 22.6030330657959 C 38.2060546875 13.99949932098389 31.20656204223633 7.000006198883057 22.60302925109863 7.000006198883057 C 13.99949550628662 7.000006198883057 7.000002384185791 13.99949932098389 7.000002384185791 22.6030330657959 C 7.000002384185791 31.20656585693359 13.99949550628662 38.20605850219727 22.60302925109863 38.20605850219727 M 22.60302925109863 45.20605850219727 C 10.11972236633301 45.20605850219727 2.584431967989076e-06 35.08633804321289 2.584431967989076e-06 22.6030330657959 C 2.584431967989076e-06 10.11972618103027 10.11972236633301 6.399129233614076e-06 22.60302925109863 6.399129233614076e-06 C 35.08633422851562 6.399129233614076e-06 45.2060546875 10.11972618103027 45.2060546875 22.6030330657959 C 45.2060546875 35.08633804321289 35.08633422851562 45.20605850219727 22.60302925109863 45.20605850219727 Z" stroke="none" fill="#3a1d71"/>
        </g>
      </g>
    </g>
    <path id="Trazado_875213" data-name="Trazado 875213" d="M7.822,0A7.822,7.822,0,1,1,0,7.822,7.822,7.822,0,0,1,7.822,0Z" transform="translate(194.189 1651.178)" fill="url(#linear-gradient)"/>
    <path id="Trazado_875214" data-name="Trazado 875214" d="M7.822,0A7.822,7.822,0,1,1,0,7.822,7.822,7.822,0,0,1,7.822,0Z" transform="translate(343.189 1696.178)" fill="url(#linear-gradient)"/>
    <g id="g15" transform="translate(236 2321.665)">
      <g id="g17" transform="translate(0 -682.665)">
        <g id="g19" clip-path="url(#clip-path-3)">
          <g id="g25" transform="translate(1.203 1.203)">
            <path id="path27" d="M-578.244-237.514a.642.642,0,0,1,.642.642v6.738a39.944,39.944,0,0,1-.683,7.379,39.876,39.876,0,0,1-39.463,32.485,39.771,39.771,0,0,1-39.584-39.954A39.866,39.866,0,0,1-617.467-270a39.744,39.744,0,0,1,27.721,11.215.644.644,0,0,1,.011.918l-9.532,9.532a.64.64,0,0,1-.893.012,25.02,25.02,0,0,0-17.307-6.919,25.032,25.032,0,0,0-25.106,24.932,25.107,25.107,0,0,0,25.106,25.28,25.116,25.116,0,0,0,24-17.727h-23.361a.642.642,0,0,1-.642-.642v-13.476a.642.642,0,0,1,.642-.642Z" transform="translate(657.333 269.999)" fill="#2196f3"/>
          </g>
          <g id="g29" transform="translate(38.659 33.689)">
            <path id="path31" d="M-304.388,0H-309.2a.642.642,0,0,1,.642.642V7.379a39.95,39.95,0,0,1-.683,7.379A39.881,39.881,0,0,1-346.02,47.173q1.057.063,2.128.071A39.875,39.875,0,0,0-304.43,14.759a39.947,39.947,0,0,0,.683-7.379V.642A.642.642,0,0,0-304.388,0" transform="translate(346.02)" fill="#1e88e5"/>
          </g>
          <g id="g33" transform="translate(6.157 1.203)">
            <path id="path35" d="M-88.519-214.6l-12.107-8.748a39.855,39.855,0,0,1,34.911-20.6,39.743,39.743,0,0,1,27.721,11.215.643.643,0,0,1,.011.918l-9.532,9.532a.639.639,0,0,1-.892.014,25.02,25.02,0,0,0-17.308-6.92,25.107,25.107,0,0,0-22.8,14.592" transform="translate(100.626 243.946)" fill="#f44336"/>
          </g>
          <g id="g37" transform="translate(14.769 15.962)">
            <path id="path39" d="M0-88.224,3.5-85.7a25.119,25.119,0,0,1,20.192-14.455c.068-.007.133-.016.2-.023q-1.186-.113-2.4-.114A25.031,25.031,0,0,0,0-88.224" transform="translate(0 100.29)" fill="#e53935"/>
          </g>
          <g id="g41" transform="translate(38.662 1.203)">
            <path id="path43" d="M-185.087-82a.643.643,0,0,1,.011.918l-7.737,7.737a25.26,25.26,0,0,1,2.124,1.808.64.64,0,0,0,.893-.013l9.532-9.532a.643.643,0,0,0-.011-.918A39.743,39.743,0,0,0-208-93.21c-.808,0-1.61.027-2.407.074A39.739,39.739,0,0,1-185.087-82" transform="translate(210.402 93.21)" fill="#e53935"/>
          </g>
          <g id="g45" transform="translate(5.405 50.427)">
            <path id="path47" d="M-474.558-129.653A39.754,39.754,0,0,1-503.8-116.88a39.861,39.861,0,0,1-35.664-22.036l12.361-8.47a25.114,25.114,0,0,0,23.3,15.747,25.01,25.01,0,0,0,17.136-6.76Z" transform="translate(539.465 147.386)" fill="#4caf50"/>
          </g>
          <g id="g49" transform="translate(14.12 50.427)">
            <path id="path51" d="M-26.65,0l-3.645,2.5A25.1,25.1,0,0,0-8.159,15.747q1.215,0,2.4-.115A25.126,25.126,0,0,1-26.65,0" transform="translate(30.295)" fill="#43a047"/>
          </g>
          <g id="g53" transform="translate(38.668 66.018)">
            <path id="path55" d="M-17.549-109.05a39.754,39.754,0,0,0,29.244-12.773l-2.965-2.142a39.793,39.793,0,0,1-28.678,14.843q1.191.071,2.4.073" transform="translate(19.949 123.965)" fill="#43a047"/>
          </g>
          <g id="g57" transform="translate(1.203 21.806)">
            <path id="path59" d="M-107.907-140.831a25.031,25.031,0,0,0,1.8,9.359L-118.465-123a39.68,39.68,0,0,1-4.2-17.829,39.682,39.682,0,0,1,4.954-19.262l12.107,8.748a25,25,0,0,0-2.3,10.514" transform="translate(122.666 160.093)" fill="#ffc107"/>
          </g>
          <g id="g61" transform="translate(11.149 28.029)">
            <path id="path63" d="M-21.722-182.026l3.645-2.5a25.031,25.031,0,0,1-1.8-9.359,25,25,0,0,1,2.3-10.514l-3.5-2.525a25.074,25.074,0,0,0-3.619,12.865,25,25,0,0,0,2.97,12.031" transform="translate(24.693 206.922)" fill="#ffb300"/>
          </g>
          <g id="g65" transform="translate(0 6.454)">
            <path id="path67" d="M-556.983-150.676h-.288a41.153,41.153,0,0,1-40.779-41.16,40.982,40.982,0,0,1,18.656-34.326,1.2,1.2,0,0,1,1.665.35,1.2,1.2,0,0,1-.35,1.665,38.582,38.582,0,0,0-17.564,32.316,38.741,38.741,0,0,0,38.389,38.748,38.608,38.608,0,0,0,38.272-31.5,38.9,38.9,0,0,0,.663-7.158v-6.176h-7.774a1.2,1.2,0,0,1-1.2-1.2,1.2,1.2,0,0,1,1.2-1.2h8.336a1.847,1.847,0,0,1,1.845,1.845v6.738a41.3,41.3,0,0,1-.7,7.6A41.014,41.014,0,0,1-556.983-150.676Z" transform="translate(598.05 226.359)"/>
          </g>
          <g id="g69" transform="translate(24.75 32.486)">
            <path id="path71" d="M6.318-203.062a26.08,26.08,0,0,1-15.841-5.3,1.2,1.2,0,0,1-.235-1.685,1.2,1.2,0,0,1,1.685-.235,23.692,23.692,0,0,0,14.39,4.816,23.766,23.766,0,0,0,22.317-15.32H6.96a1.847,1.847,0,0,1-1.845-1.845v-13.476a1.847,1.847,0,0,1,1.845-1.845H32a1.2,1.2,0,0,1,1.2,1.2,1.2,1.2,0,0,1-1.2,1.2H7.521V-223.2h22.8a1.2,1.2,0,0,1,.968.488,1.2,1.2,0,0,1,.183,1.068A26.17,26.17,0,0,1,6.318-203.062Z" transform="translate(10.001 237.954)"/>
          </g>
          <g id="g73" transform="translate(14.759 0)">
            <path id="path75" d="M-67.563,16.145a1.2,1.2,0,0,1-.9-.409A26.273,26.273,0,0,1-75-1.8,26.375,26.375,0,0,1-48.691-27.925,26.187,26.187,0,0,1-30.958-21.05l8.742-8.742A38.47,38.47,0,0,0-48.691-40.278a38.3,38.3,0,0,0-16.763,3.813,1.2,1.2,0,0,1-1.606-.562,1.2,1.2,0,0,1,.562-1.606,40.687,40.687,0,0,1,17.808-4.052A40.871,40.871,0,0,1-20.134-31.131a1.839,1.839,0,0,1,.565,1.316,1.829,1.829,0,0,1-.54,1.318l-9.532,9.532a1.832,1.832,0,0,1-2.574.033,23.8,23.8,0,0,0-16.477-6.587,23.962,23.962,0,0,0-23.9,23.737,23.87,23.87,0,0,0,5.934,15.93,1.2,1.2,0,0,1-.11,1.7A1.2,1.2,0,0,1-67.563,16.145Z" transform="translate(75.001 42.684)"/>
          </g>
          <g id="g77" transform="translate(5.021 20.652)">
            <path id="path79" d="M-95.834-70.481a1.2,1.2,0,0,1-.7-.228l-11.9-8.6a1.2,1.2,0,0,1-.271-1.68,1.2,1.2,0,0,1,1.68-.271l11.9,8.6a1.2,1.2,0,0,1,.271,1.68A1.2,1.2,0,0,1-95.834-70.481Z" transform="translate(108.94 81.489)"/>
          </g>
          <g id="g81" transform="translate(4.233 49.282)">
            <path id="path83" d="M-8.8-68.947a1.2,1.2,0,0,1-.994-.523,1.2,1.2,0,0,1,.312-1.673L2.768-79.534a1.2,1.2,0,0,1,1.673.312,1.2,1.2,0,0,1-.312,1.673L-8.118-69.158A1.2,1.2,0,0,1-8.8-68.947Z" transform="translate(10.001 79.745)"/>
          </g>
          <g id="g85" transform="translate(57.056 58.251)">
            <path id="path87" d="M3.206,1.078A1.2,1.2,0,0,1,2.5.85l-12-8.672A1.2,1.2,0,0,1-9.773-9.5a1.2,1.2,0,0,1,1.68-.271l12,8.672A1.2,1.2,0,0,1,4.183.579,1.2,1.2,0,0,1,3.206,1.078Z" transform="translate(10.001 10.001)"/>
          </g>
        </g>
      </g>
    </g>
  </g>
</svg>
