<svg xmlns="http://www.w3.org/2000/svg" width="78" height="78" viewBox="0 0 78 78">
  <g id="Grupo_1100713" data-name="Grupo 1100713" transform="translate(-610 -3459)">
    <g id="Grupo_1100708" data-name="Grupo 1100708" transform="translate(-712 1194)">
      <ellipse id="Elipse_9665" data-name="Elipse 9665" cx="39" cy="39" rx="39" ry="39" transform="translate(1322 2265)" fill="#f0c518"/>
    </g>
    <g id="medios-de-comunicacion-social-" transform="translate(611.269 3474)">
      <path id="Trazado_877055" data-name="Trazado 877055" d="M219.032,31.982a4.55,4.55,0,0,0,2.674.863h8.546v4.144l5.417-4.144h2.337a4.554,4.554,0,0,0,4.561-4.547V12.048A4.554,4.554,0,0,0,238.006,7.5h-16.3a4.554,4.554,0,0,0-4.561,4.548V31.982Z" transform="translate(-182.558 -6.798)" fill="#f7f3f1"/>
      <path id="Trazado_877056" data-name="Trazado 877056" d="M364.9,7.5H361a4.555,4.555,0,0,1,4.561,4.548V28.3A4.554,4.554,0,0,1,361,32.845h-2.337L357.148,34v2.989l5.417-4.144H364.9a4.554,4.554,0,0,0,4.561-4.547V12.048A4.554,4.554,0,0,0,364.9,7.5Z" transform="translate(-309.454 -6.798)" fill="#ebe1dc"/>
      <path id="Trazado_877057" data-name="Trazado 877057" d="M305.937,75.968l.47.381a4.187,4.187,0,0,0,2.634.933h6.674a1.113,1.113,0,0,0,1.112-1.167c-.028-.6,0-6.052,0-6.667a1.113,1.113,0,0,0-1.113-1.113l-4.526-.014.554-1.312a4.749,4.749,0,0,0-.252-4.2.741.741,0,0,0-1.384.368,4.83,4.83,0,0,1-1.208,3.2l-2.886,3.266h-1.052v6.334h.975Z" transform="translate(-262.153 -56.586)" fill="#ffd36c"/>
      <path id="Trazado_877058" data-name="Trazado 877058" d="M277.531,135.482h-3.047a.365.365,0,0,1-.365-.365v-7.768a.365.365,0,0,1,.365-.365h3.047a.365.365,0,0,1,.365.365v7.768A.365.365,0,0,1,277.531,135.482Z" transform="translate(-234.198 -115.096)" fill="#8ee6f3"/>
      <path id="Trazado_877059" data-name="Trazado 877059" d="M43.278,162.487v-16.4a3.592,3.592,0,0,0-3.6-3.586H26.827a3.592,3.592,0,0,0-3.6,3.586V158.9a3.592,3.592,0,0,0,3.6,3.586h7.061v3.3l4.272-3.3Z" transform="translate(-6.797 -129.159)" fill="#4ed5ea"/>
      <path id="Trazado_877060" data-name="Trazado 877060" d="M149.635,142.5h-5.094a3.592,3.592,0,0,1,3.6,3.586v16.4h5.094v-16.4A3.592,3.592,0,0,0,149.635,142.5Z" transform="translate(-116.751 -129.159)" fill="#62a6fd"/>
      <path id="Trazado_877061" data-name="Trazado 877061" d="M198.672,328h-9.122A2.549,2.549,0,0,0,187,330.543v9.094a2.549,2.549,0,0,0,2.553,2.545h5.011v2.341l3.032-2.341h1.079a2.549,2.549,0,0,0,2.553-2.545v-9.094A2.549,2.549,0,0,0,198.672,328Z" transform="translate(-155.233 -297.291)" fill="#fa9084"/>
      <path id="Trazado_877062" data-name="Trazado 877062" d="M271.9,328h-3.932a2.549,2.549,0,0,1,2.553,2.545v9.094a2.549,2.549,0,0,1-2.553,2.545h-.179v2.341l3.032-2.341H271.9a2.549,2.549,0,0,0,2.553-2.545v-9.094A2.549,2.549,0,0,0,271.9,328Z" transform="translate(-228.461 -297.291)" fill="#ff6cb5"/>
      <path id="Trazado_877063" data-name="Trazado 877063" d="M230.719,381.656c2.2-1.164,3.332-2.154,3.332-3.688a1.787,1.787,0,0,0-3.332-1.058,1.78,1.78,0,0,0-3.332,1.058C227.387,379.5,228.524,380.492,230.719,381.656Z" transform="translate(-191.841 -340.767)" fill="#f7f3f1"/>
      <path id="Trazado_877064" data-name="Trazado 877064" d="M55.449,0H53.388a.7.7,0,0,0,0,1.4h2.061A3.857,3.857,0,0,1,59.308,5.25V21.5a3.857,3.857,0,0,1-3.859,3.845H53.111a.7.7,0,0,0-.427.144L48.4,28.77V26.047a.7.7,0,0,0-.7-.7H39.149a3.84,3.84,0,0,1-1.966-.536V16.927a4.284,4.284,0,0,0-1.894-3.553V5.25A3.857,3.857,0,0,1,39.149,1.4h9.839a.7.7,0,0,0,0-1.4H39.149a5.263,5.263,0,0,0-5.264,5.25v7.508a4.3,4.3,0,0,0-1-.119H20.03a4.3,4.3,0,0,0-4.3,4.288v1.516a.7.7,0,0,0,1.4,0V16.927a2.893,2.893,0,0,1,2.895-2.884H32.884a2.893,2.893,0,0,1,2.9,2.884v8.162a.7.7,0,0,0,0,.186v4.467c0,.088-.005.176-.013.264H34.318a3.257,3.257,0,0,0-3.2,2.665.7.7,0,0,0-.182.1L27.794,35.2V33.327a.7.7,0,0,0-.7-.7H20.03a2.893,2.893,0,0,1-2.895-2.884V22.656a.7.7,0,0,0-1.4,0v7.085a4.3,4.3,0,0,0,4.3,4.288h6.359v2.6a.713.713,0,0,0,1.131.556l3.542-2.735v7.9a3.255,3.255,0,0,0,3.255,3.247h4.309v1.638a.713.713,0,0,0,1.131.556L42.6,45.593h.84a3.255,3.255,0,0,0,3.255-3.247V41.1a.7.7,0,0,0-1.4,0v1.247a1.849,1.849,0,0,1-1.851,1.843H42.36a.7.7,0,0,0-.429.146l-1.9,1.467v-.911a.7.7,0,0,0-.7-.7H34.318a1.849,1.849,0,0,1-1.851-1.843V33.252a1.849,1.849,0,0,1,1.851-1.843h9.122a1.849,1.849,0,0,1,1.851,1.843V36.7a.7.7,0,0,0,1.4,0V33.252a3.255,3.255,0,0,0-3.255-3.247H37.175c.005-.088.008-3.634.008-3.634a5.255,5.255,0,0,0,1.966.378h7.843v3.441a.713.713,0,0,0,1.129.558l5.228-4h2.1a5.263,5.263,0,0,0,5.264-5.25V5.25A5.263,5.263,0,0,0,55.449,0Z"/>
      <path id="Trazado_877065" data-name="Trazado 877065" d="M276.453,54.612a1.463,1.463,0,0,0-1.8,1.4,4.125,4.125,0,0,1-1.032,2.731l-1.935,2.189a.7.7,0,0,0-.588-.319h-3.777a.7.7,0,0,0-.7.7v8.5a.7.7,0,0,0,.7.7H271.1a.7.7,0,0,0,.638-.411,4.906,4.906,0,0,0,2.552.72h6.674a1.838,1.838,0,0,0,1.813-1.9c-.021-.451,0-6.5,0-6.634a1.817,1.817,0,0,0-1.813-1.815l-3.471-.01.144-.34a5.482,5.482,0,0,0-.289-4.825,1.431,1.431,0,0,0-.9-.682Zm-6.057,14.5h-2.372V62.015H270.4Zm10.567-7.234a.412.412,0,0,1,.411.411c0,.134,0,.5,0,.988-.01,2.714-.017,5.285,0,5.712a.411.411,0,0,1-.411.432h-6.674a3.5,3.5,0,0,1-2.193-.776l-.3-.239v-5.48l2.873-3.251a5.529,5.529,0,0,0,1.384-3.66.039.039,0,0,1,.072-.019,4.07,4.07,0,0,1,.214,3.582l-.554,1.312a.7.7,0,0,0,.645.975Z" transform="translate(-227.4 -49.424)"/>
      <path id="Trazado_877066" data-name="Trazado 877066" d="M73.153,199.771a.7.7,0,0,0,0,1.4h2.07l-.387,2.339a.7.7,0,1,0,1.385.229l.424-2.568H78.34l-.387,2.339a.7.7,0,1,0,1.385.229l.424-2.568h2.817a.7.7,0,0,0,0-1.4H80l.283-1.713h2.3a.7.7,0,0,0,0-1.4h-2.07l.387-2.339a.7.7,0,0,0-1.385-.229l-.424,2.568H77.394l.387-2.339a.7.7,0,1,0-1.385-.229l-.424,2.568H73.153a.7.7,0,0,0,0,1.4h2.585l-.283,1.713Zm4.009-1.713h1.694l-.283,1.713H76.878Z" transform="translate(-51.41 -175.383)"/>
      <path id="Trazado_877067" data-name="Trazado 877067" d="M223.913,368.994a2.361,2.361,0,0,0-2.078-.467,2.612,2.612,0,0,0-1.948,2.636,3.447,3.447,0,0,0,1.038,2.468,10.3,10.3,0,0,0,2.668,1.84.7.7,0,0,0,.658,0c2.224-1.179,3.705-2.363,3.705-4.308a2.6,2.6,0,0,0-2.017-2.622A2.355,2.355,0,0,0,223.913,368.994Zm2.638,2.169c0,1.049-.7,1.825-2.63,2.89-1.934-1.065-2.63-1.841-2.63-2.89a1.2,1.2,0,0,1,.875-1.271,1.054,1.054,0,0,1,.247-.03.969.969,0,0,1,.884.565.7.7,0,0,0,1.26-.025.913.913,0,0,1,1.077-.49A1.187,1.187,0,0,1,226.551,371.163Z" transform="translate(-185.043 -333.962)"/>
    </g>
  </g>
</svg>
