<svg xmlns="http://www.w3.org/2000/svg" width="60" height="60" viewBox="0 0 60 60">
  <g id="Grupo_1100582" data-name="Grupo 1100582" transform="translate(-194 -722)">
    <rect id="Rectángulo_401222" data-name="Rectángulo 401222" width="60" height="60" rx="8" transform="translate(194 722)" fill="#d6e1fd"/>
    <g id="documentos_1_" data-name="documentos (1)" transform="translate(173.5 729)">
      <g id="Grupo_1100580" data-name="Grupo 1100580" transform="translate(31.174 0.674)">
        <path id="Trazado_876713" data-name="Trazado 876713" d="M163.45,92.5h27.063a.45.45,0,0,1,.45.45v36.144a.45.45,0,0,1-.45.45H163.45a.45.45,0,0,1-.45-.45V92.95A.45.45,0,0,1,163.45,92.5Z" transform="translate(-151.761 -84.858)" fill="#f5f5f5"/>
        <path id="Trazado_876714" data-name="Trazado 876714" d="M188.939,92.5v34.571a.45.45,0,0,1-.45.45H163V92.95a.45.45,0,0,1,.45-.45Z" transform="translate(-151.761 -84.858)" fill="#e6e6e6"/>
        <path id="Trazado_876715" data-name="Trazado 876715" d="M148.013,50H120.95a.45.45,0,0,0-.45.45V86.594a.45.45,0,0,0,.45.45h27.063a.45.45,0,0,0,.45-.45V50.45A.45.45,0,0,0,148.013,50Z" transform="translate(-113.082 -46.179)" fill="#f5f5f5"/>
        <path id="Trazado_876716" data-name="Trazado 876716" d="M146.439,50V84.571a.45.45,0,0,1-.45.45H120.5V50.45a.45.45,0,0,1,.45-.45Z" transform="translate(-113.082 -46.179)" fill="#e6e6e6"/>
        <path id="Trazado_876717" data-name="Trazado 876717" d="M69.559,7.95V44.094a.45.45,0,0,1-.45.45H42.5a4.5,4.5,0,0,1-4.5-4.5V38.879a.45.45,0,0,1,.45-.45h2.713a.449.449,0,0,0,.434-.449V7.95a.45.45,0,0,1,.45-.45H69.109A.45.45,0,0,1,69.559,7.95Z" transform="translate(-38 -7.5)" fill="#f5f5f5"/>
        <path id="Trazado_876718" data-name="Trazado 876718" d="M121.182,65.132H113.45a.45.45,0,0,1-.45-.45V56.95a.45.45,0,0,1,.45-.45h7.732a.45.45,0,0,1,.45.45v7.732A.45.45,0,0,1,121.182,65.132Z" transform="translate(-106.257 -52.094)" fill="#99edf2"/>
        <g id="Grupo_1100579" data-name="Grupo 1100579" transform="translate(0 4.9)">
          <path id="Trazado_876719" data-name="Trazado 876719" d="M247.065,133.349h-9.89a.674.674,0,0,1,0-1.349h9.89a.674.674,0,1,1,0,1.349Z" transform="translate(-218.653 -125.706)" fill="#99edf2"/>
          <path id="Trazado_876720" data-name="Trazado 876720" d="M181.155,201.349h-9.98a.674.674,0,0,1,0-1.349h9.98a.674.674,0,0,1,0,1.349Z" transform="translate(-158.587 -187.592)" fill="#99edf2"/>
          <path id="Trazado_876721" data-name="Trazado 876721" d="M247.065,98.349h-9.89a.674.674,0,0,1,0-1.349h9.89a.674.674,0,1,1,0,1.349Z" transform="translate(-218.653 -93.853)" fill="#99edf2"/>
          <path id="Trazado_876722" data-name="Trazado 876722" d="M247.065,63.349h-9.89a.674.674,0,0,1,0-1.349h9.89a.674.674,0,1,1,0,1.349Z" transform="translate(-218.653 -62)" fill="#99edf2"/>
          <path id="Trazado_876723" data-name="Trazado 876723" d="M127.843,290.349H106.174a.674.674,0,0,1,0-1.349h21.669a.674.674,0,0,1,0,1.349Z" transform="translate(-99.431 -268.59)" fill="#99edf2"/>
          <path id="Trazado_876724" data-name="Trazado 876724" d="M227.953,245.349H216.174a.674.674,0,0,1,0-1.349h11.778a.674.674,0,0,1,0,1.349Z" transform="translate(-199.541 -227.636)" fill="#99edf2"/>
          <path id="Trazado_876725" data-name="Trazado 876725" d="M112.463,245.349h-6.788a.674.674,0,1,1,0-1.349h6.788a.674.674,0,1,1,0,1.349Z" transform="translate(-98.976 -227.636)" fill="#99edf2"/>
          <path id="Trazado_876726" data-name="Trazado 876726" d="M65.133,357.6H42.5a4.5,4.5,0,0,1-4.5-4.5V351.94a.45.45,0,0,1,.45-.45H60.233a.45.45,0,0,1,.45.45v1.17A4.5,4.5,0,0,0,65.133,357.6Z" transform="translate(-38 -325.462)" fill="#99edf2"/>
        </g>
      </g>
      <g id="Grupo_1100581" data-name="Grupo 1100581" transform="translate(30.5)">
        <path id="Trazado_876727" data-name="Trazado 876727" d="M70.376,7.642H67.229V4.5a.674.674,0,0,0-.674-.674H63.408V.674A.674.674,0,0,0,62.733,0H34.771A.674.674,0,0,0,34.1.674V30.93H31.174a.674.674,0,0,0-.674.674v1.618a5.176,5.176,0,0,0,5.17,5.17h2.248v3.147a.674.674,0,0,0,.674.674h3.147V45.36a.674.674,0,0,0,.674.674H55.945a.674.674,0,0,0,0-1.349H43.088V42.213H66.554a.674.674,0,0,0,.674-.674V30.93a.674.674,0,0,0-1.349,0v9.935H39.266V38.392H62.733a.674.674,0,0,0,.674-.674V5.17H65.88v22.7a.674.674,0,0,0,1.349,0V8.991H69.7V44.686H59a.674.674,0,0,0,0,1.349H70.376a.674.674,0,0,0,.674-.674V8.317A.674.674,0,0,0,70.376,7.642Zm-8.317,29.4H58.328a3.826,3.826,0,0,1-3.821-3.821V31.6a.674.674,0,0,0-.674-.674H49.157a.674.674,0,1,0,0,1.349h4v.944a5.158,5.158,0,0,0,1.691,3.821H35.67a3.826,3.826,0,0,1-3.821-3.821v-.944H46.01a.674.674,0,1,0,0-1.349H35.445V1.349H62.059Z" transform="translate(-30.5)" fill="#4529c7"/>
        <path id="Trazado_876728" data-name="Trazado 876728" d="M106.174,58.98h8.632a.674.674,0,0,0,.674-.674V49.674a.674.674,0,0,0-.674-.674h-8.632a.674.674,0,0,0-.674.674v8.632A.674.674,0,0,0,106.174,58.98Zm.674-8.631h7.283v7.283h-7.283Z" transform="translate(-98.757 -44.594)" fill="#4529c7"/>
        <path id="Trazado_876729" data-name="Trazado 876729" d="M247.065,132h-9.89a.674.674,0,0,0,0,1.349h9.89a.674.674,0,1,0,0-1.349Z" transform="translate(-217.978 -120.132)" fill="#4529c7"/>
        <path id="Trazado_876730" data-name="Trazado 876730" d="M170.5,200.674a.674.674,0,0,0,.674.674h9.98a.674.674,0,0,0,0-1.349h-9.98A.674.674,0,0,0,170.5,200.674Z" transform="translate(-157.912 -182.018)" fill="#4529c7"/>
        <path id="Trazado_876731" data-name="Trazado 876731" d="M247.065,97h-9.89a.674.674,0,0,0,0,1.349h9.89a.674.674,0,1,0,0-1.349Z" transform="translate(-217.978 -88.279)" fill="#4529c7"/>
        <path id="Trazado_876732" data-name="Trazado 876732" d="M247.065,62h-9.89a.674.674,0,0,0,0,1.349h9.89a.674.674,0,1,0,0-1.349Z" transform="translate(-217.978 -56.425)" fill="#4529c7"/>
        <path id="Trazado_876733" data-name="Trazado 876733" d="M127.843,289H106.174a.674.674,0,0,0,0,1.349h21.669a.674.674,0,0,0,0-1.349Z" transform="translate(-98.757 -263.016)" fill="#4529c7"/>
        <path id="Trazado_876734" data-name="Trazado 876734" d="M227.953,244H216.174a.674.674,0,0,0,0,1.349h11.778a.674.674,0,0,0,0-1.349Z" transform="translate(-198.866 -222.062)" fill="#4529c7"/>
        <path id="Trazado_876735" data-name="Trazado 876735" d="M105.674,245.349h6.788a.674.674,0,1,0,0-1.349h-6.788a.674.674,0,1,0,0,1.349Z" transform="translate(-98.302 -222.062)" fill="#4529c7"/>
      </g>
    </g>
  </g>
</svg>
