<svg xmlns="http://www.w3.org/2000/svg" width="60" height="60" viewBox="0 0 60 60">
  <g id="Grupo_1100592" data-name="Grupo 1100592" transform="translate(-614 -722)">
    <rect id="Rectángulo_401226" data-name="Rectángulo 401226" width="60" height="60" rx="8" transform="translate(614 722)" fill="#d6e1fd"/>
    <g id="donde" transform="translate(538.957 638.863)">
      <path id="Trazado_876797" data-name="Trazado 876797" d="M245.181,97.829v45.01a1.659,1.659,0,0,0,1.378-.734l12.4-18.411a16.6,16.6,0,0,0-13.779-25.865Z" transform="translate(-140.068 -6.67)" fill="#fff"/>
      <path id="Trazado_876798" data-name="Trazado 876798" d="M111.783,97.829A16.6,16.6,0,0,0,98,123.694l12.4,18.411a1.659,1.659,0,0,0,1.378.734,1.282,1.282,0,0,0,1.1-.734l9.921-18.411a19.565,19.565,0,0,0,2.258-9.263C125.065,105.262,119.118,97.829,111.783,97.829Z" transform="translate(-6.67 -6.67)" fill="#fff"/>
      <circle id="Elipse_11567" data-name="Elipse 11567" cx="9.961" cy="9.961" r="9.961" transform="translate(95.152 97.8)" fill="#fff"/>
      <path id="Trazado_876799" data-name="Trazado 876799" d="M245.181,187.829v13.282a6.641,6.641,0,0,0,0-13.282Z" transform="translate(-140.068 -86.709)" fill="#2cfedf"/>
      <path id="Trazado_876800" data-name="Trazado 876800" d="M195.142,194.47c0-3.668-1.487-6.641-3.32-6.641a6.641,6.641,0,0,0,0,13.282C193.656,201.111,195.142,198.137,195.142,194.47Z" transform="translate(-86.709 -86.709)" fill="#2cfedf"/>
      <path id="Trazado_876801" data-name="Trazado 876801" d="M185.152,195.271a7.471,7.471,0,1,0-7.471-7.471A7.479,7.479,0,0,0,185.152,195.271Zm0-13.282a5.811,5.811,0,1,1-5.811,5.811A5.817,5.817,0,0,1,185.152,181.989Z" transform="translate(-80.039 -80.039)" fill="#4529c7"/>
      <path id="Trazado_876802" data-name="Trazado 876802" d="M105.113,90.329a17.434,17.434,0,0,0-14.468,27.159l12.4,18.411a2.491,2.491,0,0,0,4.133,0l12.4-18.411a17.435,17.435,0,0,0-14.468-27.159ZM118.2,116.561l-12.4,18.41a.83.83,0,0,1-1.38,0l-12.4-18.408a15.772,15.772,0,1,1,26.18,0Z" fill="#4529c7"/>
      <path id="Trazado_876803" data-name="Trazado 876803" d="M158.472,150.329a10.7,10.7,0,0,0-4.527.994.83.83,0,1,0,.7,1.507,9.143,9.143,0,1,1-2.511,1.721.83.83,0,1,0-1.153-1.194,10.791,10.791,0,1,0,7.494-3.027Z" transform="translate(-53.359 -53.359)" fill="#4529c7"/>
    </g>
  </g>
</svg>
