<svg xmlns="http://www.w3.org/2000/svg" width="88" height="88" viewBox="0 0 88 88">
  <g id="Grupo_1100921" data-name="Grupo 1100921" transform="translate(-208 -5847)">
    <rect id="Rectángulo_401858" data-name="Rectángulo 401858" width="88" height="88" rx="11" transform="translate(208 5847)" fill="#0b47db"/>
    <g id="_-" data-name="-" transform="translate(220 5859)">
      <g id="Grupo_1100919" data-name="Grupo 1100919">
        <g id="Grupo_1100907" data-name="Grupo 1100907">
          <path id="Trazado_877618" data-name="Trazado 877618" d="M24,56v4.64a1.363,1.363,0,0,1-2.41.87L17,56H6a2.006,2.006,0,0,1-2-2V34a2.006,2.006,0,0,1,2-2H16.33l1.26,1.51A1.363,1.363,0,0,0,20,32.64V32h8v2a2.006,2.006,0,0,0,2,2h8V54a2.006,2.006,0,0,1-2,2Z" fill="#e6e9ed"/>
        </g>
        <g id="Grupo_1100908" data-name="Grupo 1100908">
          <path id="Trazado_877619" data-name="Trazado 877619" d="M30,28a2.006,2.006,0,0,0,2-2V10H60a2.006,2.006,0,0,1,2,2V34a2.006,2.006,0,0,1-2,2H49l-4.59,5.51A1.363,1.363,0,0,1,42,40.64V36H30a2.006,2.006,0,0,1-2-2V28Z" fill="#ffeaa7"/>
        </g>
        <g id="Grupo_1100909" data-name="Grupo 1100909">
          <path id="Trazado_877620" data-name="Trazado 877620" d="M32,10V26a2.006,2.006,0,0,1-2,2H20v4.64a1.363,1.363,0,0,1-2.41.87L16.33,32,13,28H4a2.006,2.006,0,0,1-2-2V4A2.006,2.006,0,0,1,4,2H30a2.006,2.006,0,0,1,2,2Z" fill="#f0d0b4"/>
        </g>
        <g id="Grupo_1100910" data-name="Grupo 1100910">
          <path id="Trazado_877621" data-name="Trazado 877621" d="M16.03,47.03a5.534,5.534,0,0,0-.58,1.94L15,53H8V51a5,5,0,0,1,5-5,4.927,4.927,0,0,1,3.03,1.03Z" fill="#b4dd7f"/>
        </g>
        <g id="Grupo_1100911" data-name="Grupo 1100911">
          <path id="Trazado_877622" data-name="Trazado 877622" d="M34,51v2H27l-.45-4.03a5.535,5.535,0,0,0-.58-1.94A4.927,4.927,0,0,1,29,46a4.985,4.985,0,0,1,5,5Z" fill="#b4dd7f"/>
        </g>
        <g id="Grupo_1100912" data-name="Grupo 1100912">
          <path id="Trazado_877623" data-name="Trazado 877623" d="M26.55,48.97,27,53H15l.45-4.03A5.568,5.568,0,0,1,21,44a5.625,5.625,0,0,1,3.73,1.42,5.923,5.923,0,0,1,1.24,1.61A5.535,5.535,0,0,1,26.55,48.97Z" fill="#fcd770"/>
        </g>
        <g id="Grupo_1100913" data-name="Grupo 1100913">
          <circle id="Elipse_11594" data-name="Elipse 11594" cx="3" cy="3" r="3" transform="translate(26 40)" fill="#f0d0b4"/>
        </g>
        <g id="Grupo_1100914" data-name="Grupo 1100914">
          <circle id="Elipse_11595" data-name="Elipse 11595" cx="3" cy="3" r="3" transform="translate(18 38)" fill="#f0d0b4"/>
        </g>
        <g id="Grupo_1100915" data-name="Grupo 1100915">
          <circle id="Elipse_11596" data-name="Elipse 11596" cx="3" cy="3" r="3" transform="translate(10 40)" fill="#f0d0b4"/>
        </g>
        <g id="Grupo_1100916" data-name="Grupo 1100916">
          <path id="Trazado_877624" data-name="Trazado 877624" d="M26,13.24v.16a5.822,5.822,0,0,1-1.94,4.33L17,24,9.94,17.73A5.822,5.822,0,0,1,8,13.4v-.16A5.421,5.421,0,0,1,9.59,9.41a4.828,4.828,0,0,1,6.82,0L17,10l.59-.59a4.828,4.828,0,0,1,6.82,0A5.421,5.421,0,0,1,26,13.24Z" fill="#ff826e"/>
        </g>
        <g id="Grupo_1100917" data-name="Grupo 1100917">
          <path id="Trazado_877625" data-name="Trazado 877625" d="M42,30v1a1,1,0,0,1-1,1H37a1,1,0,0,1-1-1V21a1,1,0,0,1,1-1h4a1,1,0,0,1,1,1Z" fill="#b4dd7f"/>
        </g>
        <g id="Grupo_1100918" data-name="Grupo 1100918">
          <path id="Trazado_877626" data-name="Trazado 877626" d="M56,23v6a3,3,0,0,1-3,3H48.61A11.943,11.943,0,0,1,42,30V21l1.19-1.19a9.286,9.286,0,0,0,2.43-4.3A1.992,1.992,0,0,1,47.56,14a2.909,2.909,0,0,1,2.87,3.39L50,20h3a3,3,0,0,1,3,3Z" fill="#f0d0b4"/>
        </g>
      </g>
      <g id="Grupo_1100920" data-name="Grupo 1100920">
        <path id="Trazado_877627" data-name="Trazado 877627" d="M27,13.4v-.157a6.371,6.371,0,0,0-1.879-4.535A5.829,5.829,0,0,0,17,8.589a5.829,5.829,0,0,0-8.121.118A6.371,6.371,0,0,0,7,13.242V13.4a6.8,6.8,0,0,0,2.279,5.075L17,25.338l7.72-6.863A6.794,6.794,0,0,0,27,13.4ZM17,22.662,10.608,16.98A4.793,4.793,0,0,1,9,13.4v-.157a4.384,4.384,0,0,1,1.293-3.121,3.829,3.829,0,0,1,5.414,0L17,11.414l1.293-1.293a3.923,3.923,0,0,1,5.414,0A4.384,4.384,0,0,1,25,13.242V13.4a4.8,4.8,0,0,1-1.608,3.581Z"/>
        <path id="Trazado_877628" data-name="Trazado 877628" d="M60,9H33V4a3,3,0,0,0-3-3H4A3,3,0,0,0,1,4V26a3,3,0,0,0,3,3h8.532L14.2,31H6a3,3,0,0,0-3,3V54a3,3,0,0,0,3,3H16.532l4.292,5.15A2.362,2.362,0,0,0,25,60.638V57H36a3,3,0,0,0,3-3V37h2v3.638a2.362,2.362,0,0,0,4.176,1.512L49.468,37H60a3,3,0,0,0,3-3V12a3,3,0,0,0-3-3ZM13.468,27H4a1,1,0,0,1-1-1V4A1,1,0,0,1,4,3H30a1,1,0,0,1,1,1V26a1,1,0,0,1-1,1H19v5.638a.374.374,0,0,1-.64.231ZM27,29v2H21V29ZM37,54a1,1,0,0,1-1,1H23v5.638a.374.374,0,0,1-.64.231L17.468,55H6a1,1,0,0,1-1-1V34a1,1,0,0,1,1-1h9.865l.959,1.15A2.355,2.355,0,0,0,20.963,33H27v1a3,3,0,0,0,3,3h7ZM61,34a1,1,0,0,1-1,1H48.532L43.64,40.869a.375.375,0,0,1-.64-.231V35H30a1,1,0,0,1-1-1V29h1a3,3,0,0,0,3-3V11H60a1,1,0,0,1,1,1Z"/>
        <path id="Trazado_877629" data-name="Trazado 877629" d="M25,43a3.961,3.961,0,0,0,.37,1.657,6.6,6.6,0,0,0-1.43-.967,4,4,0,1,0-5.88,0,6.6,6.6,0,0,0-1.43.967A3.961,3.961,0,0,0,17,43a4,4,0,1,0-6.893,2.747A6,6,0,0,0,7,51v2H9V51a3.992,3.992,0,0,1,5.784-3.575,6.652,6.652,0,0,0-.33,1.434l-.448,4.03,1.987.221.448-4.03a4.587,4.587,0,0,1,9.118,0l.448,4.03,1.987-.221-.448-4.03a6.594,6.594,0,0,0-.33-1.434A3.992,3.992,0,0,1,33,51v2h2V51a6,6,0,0,0-3.107-5.253A4,4,0,1,0,25,43ZM13,45a2,2,0,1,1,2-2A2,2,0,0,1,13,45Zm8-2a2,2,0,1,1,2-2A2,2,0,0,1,21,43Zm10,0a2,2,0,1,1-2-2A2,2,0,0,1,31,43Z"/>
        <path id="Trazado_877630" data-name="Trazado 877630" d="M53,19H51.18l.241-1.444A3.913,3.913,0,0,0,47.562,13a3,3,0,0,0-2.911,2.272A8.249,8.249,0,0,1,42.482,19.1l-.295.3A1.985,1.985,0,0,0,41,19H37a2,2,0,0,0-2,2V31a2,2,0,0,0,2,2h4a2,2,0,0,0,1.881-1.346A12.855,12.855,0,0,0,48.605,33H53a4,4,0,0,0,4-4V23a4,4,0,0,0-4-4ZM37,31V21h4V31Zm18-2a2,2,0,0,1-2,2H48.6A10.866,10.866,0,0,1,43,29.442V21.414l.9-.9a10.251,10.251,0,0,0,2.7-4.761,1,1,0,0,1,.97-.757,1.913,1.913,0,0,1,1.886,2.228L48.82,21H53a2,2,0,0,1,2,2Z"/>
      </g>
    </g>
  </g>
</svg>
