<svg xmlns="http://www.w3.org/2000/svg" width="60" height="60" viewBox="0 0 60 60">
  <g id="Grupo_1100595" data-name="Grupo 1100595" transform="translate(-1034 -722)">
    <rect id="Rectángulo_401232" data-name="Rectángulo 401232" width="60" height="60" rx="8" transform="translate(1034 722)" fill="#d6e1fd"/>
    <g id="tienda" transform="translate(1043 708.002)">
      <g id="Grupo_1100593" data-name="Grupo 1100593" transform="translate(0.804 26.802)">
        <path id="Trazado_876804" data-name="Trazado 876804" d="M65.525,39.213H90.832V36H59.2v3.215Z" transform="translate(-55.244 -35.998)" fill="#fff"/>
        <path id="Trazado_876805" data-name="Trazado 876805" d="M17.909,83.793,20.281,76H13.954L10,83.793V85.77a3.954,3.954,0,0,0,7.909,0Z" transform="translate(-10 -72.786)" fill="#99edf2"/>
        <path id="Trazado_876806" data-name="Trazado 876806" d="M110.772,76,108.4,83.793V85.77a3.954,3.954,0,0,0,7.908,0V83.793L117.1,76Z" transform="translate(-100.491 -72.786)" fill="#99edf2"/>
        <path id="Trazado_876807" data-name="Trazado 876807" d="M207.59,76l-.791,7.792V85.77a3.954,3.954,0,0,0,7.908,0V83.793L213.917,76Z" transform="translate(-190.982 -72.786)" fill="#99edf2"/>
        <path id="Trazado_876808" data-name="Trazado 876808" d="M295.359,76l.791,7.792V85.77a3.954,3.954,0,0,0,7.909,0V83.793L301.686,76Z" transform="translate(-272.424 -72.786)" fill="#99edf2"/>
        <path id="Trazado_876809" data-name="Trazado 876809" d="M374.08,76l2.372,7.792V85.77a3.954,3.954,0,0,0,7.908,0V83.793L380.407,76Z" transform="translate(-344.818 -72.786)" fill="#99edf2"/>
        <path id="Trazado_876810" data-name="Trazado 876810" d="M82.925,201.508a3.954,3.954,0,0,1-3.954-3.954,3.954,3.954,0,0,1-7.908,0,3.954,3.954,0,0,1-7.908,0,3.954,3.954,0,0,1-3.954,3.954v18.425h21.99v-3.215H62.414V205.466h25.2v14.467h3.215V201.508a3.954,3.954,0,0,1-3.954-3.954A3.954,3.954,0,0,1,82.925,201.508Z" transform="translate(-55.245 -184.57)" fill="#fff"/>
        <path id="Trazado_876811" data-name="Trazado 876811" d="M117.974,296H99.2v11.252h18.775V296Z" transform="translate(-92.03 -275.103)" fill="#99edf2"/>
        <path id="Trazado_876812" data-name="Trazado 876812" d="M332.8,296v14.467h6.43V296Z" transform="translate(-306.854 -275.103)" fill="#fff"/>
      </g>
      <g id="Grupo_1100594" data-name="Grupo 1100594" transform="translate(0 25.998)">
        <path id="Trazado_876813" data-name="Trazado 876813" d="M41.063,37.445,37.2,29.824V26.8a.8.8,0,0,0-.8-.8H4.758a.8.8,0,0,0-.8.8v3.023L.087,37.445A.8.8,0,0,0,0,37.809v1.977a4.765,4.765,0,0,0,3.954,4.689V61.361H3.132a.8.8,0,1,0,0,1.607H38.018a.8.8,0,1,0,0-1.607H37.2V44.475a4.765,4.765,0,0,0,3.954-4.689V37.809A.8.8,0,0,0,41.063,37.445Zm-35.5-9.84H35.588v1.608H5.562ZM31.634,39.786a3.151,3.151,0,0,1-6.3,0V37.809a.807.807,0,0,0,0-.081l-.7-6.907H29.47l2.164,7.108Zm-7.909,0a3.15,3.15,0,0,1-6.3,0V37.85l.714-7.029h4.874l.713,7.029v1.937Zm-7.908-1.977v1.977a3.15,3.15,0,0,1-6.3,0V37.929l2.164-7.108h4.842l-.7,6.907A.781.781,0,0,0,15.817,37.809ZM1.607,39.786V38l3.644-7.181H10L7.943,37.575a.805.805,0,0,0-.035.234v1.977a3.151,3.151,0,0,1-6.3,0Zm3.954,4.689a4.767,4.767,0,0,0,3.151-2.046,4.754,4.754,0,0,0,7.908,0,4.754,4.754,0,0,0,7.908,0,4.754,4.754,0,0,0,7.909,0,4.766,4.766,0,0,0,3.151,2.046V61.362H33.981V47.7a.8.8,0,0,0-.8-.8H7.973a.8.8,0,0,0-.8.8V58.95a.8.8,0,0,0,.8.8H25.944v1.608H5.562ZM8.776,56.341,16.615,48.5h2.8L17.887,50.03a.8.8,0,1,0,1.137,1.137L21.689,48.5h4.255v9.644H8.776Zm0-2.273V48.5h5.565Zm18.775,7.294V55.735h.8a.8.8,0,1,0,0-1.607h-.8V48.5h4.822V61.362ZM39.543,39.786a3.151,3.151,0,0,1-6.3,0V37.809a.8.8,0,0,0-.035-.234L31.15,30.821H35.9L39.543,38Z" transform="translate(0 -25.998)" fill="#4529c7"/>
        <path id="Trazado_876814" data-name="Trazado 876814" d="M199.394,342.634l-.013.013a.8.8,0,0,0,1.133,1.14l.013-.013a.8.8,0,1,0-1.133-1.14Z" transform="translate(-183.138 -316.97)" fill="#4529c7"/>
        <path id="Trazado_876815" data-name="Trazado 876815" d="M.823,466H.8a.8.8,0,1,0,0,1.607H.823a.8.8,0,1,0,0-1.607Z" transform="translate(0 -430.633)" fill="#4529c7"/>
        <path id="Trazado_876816" data-name="Trazado 876816" d="M492.585,466h-.019a.8.8,0,0,0,0,1.607h.019a.8.8,0,0,0,0-1.607Z" transform="translate(-452.238 -430.636)" fill="#4529c7"/>
      </g>
    </g>
  </g>
</svg>
