<svg xmlns="http://www.w3.org/2000/svg" width="60" height="60" viewBox="0 0 60 60">
  <g id="Grupo_1100585" data-name="Grupo 1100585" transform="translate(-1244 -722)">
    <rect id="Rectángulo_401230" data-name="Rectángulo 401230" width="60" height="60" rx="8" transform="translate(1244 722)" fill="#d6e1fd"/>
    <g id="verificar" transform="translate(1244 731)">
      <g id="Grupo_1100583" data-name="Grupo 1100583" transform="translate(10.811 0.811)">
        <path id="Trazado_876743" data-name="Trazado 876743" d="M327.977,247.614a1.557,1.557,0,0,0-1.562,1.542v-5.519a1.654,1.654,0,0,0-3.309,0v9.128l-.345.2a1.38,1.38,0,0,0-.743,1.057,2.9,2.9,0,0,0,.117,1.138l.611,2.114.873,3.021V262a1.1,1.1,0,0,0,1.1,1.089h8.272A1.1,1.1,0,0,0,334.1,262v-1.713l1-1.309a3.215,3.215,0,0,0,.693-2.376v-5.393a1.563,1.563,0,0,0-3.125,0V250.2a1.553,1.553,0,0,0-1.2-1.5,1.564,1.564,0,0,0-1.92,1.5v-1.048a1.561,1.561,0,0,0-1.562-1.542Z" transform="translate(-297.506 -223.187)" fill="#fff" fill-rule="evenodd"/>
        <path id="Trazado_876744" data-name="Trazado 876744" d="M44.512,40.831a14.6,14.6,0,1,1,6.339-6.358,1.552,1.552,0,0,1,1.182,1.5v1.048a1.564,1.564,0,0,1,1.92-1.5,17.844,17.844,0,1,0-8.714,8.566l-.611-2.114a2.9,2.9,0,0,1-.117-1.138Z" transform="translate(-20 -10)" fill="#99edf2" fill-rule="evenodd"/>
        <path id="Trazado_876745" data-name="Trazado 876745" d="M74.6,79.2a14.6,14.6,0,0,0,6.668-1.612,1.38,1.38,0,0,1,.743-1.057l.345-.2V67.206a1.654,1.654,0,0,1,3.309,0v5.519a1.557,1.557,0,0,1,1.562-1.542,1.574,1.574,0,0,1,.38.046A14.6,14.6,0,1,0,74.6,79.2Z" transform="translate(-56.756 -46.756)" fill="#f5f5f5" fill-rule="evenodd"/>
        <path id="Trazado_876746" data-name="Trazado 876746" d="M151.222,170.246a2.027,2.027,0,0,1,2.867-2.867l2.339,2.339,5.236-5.236a2.027,2.027,0,1,1,2.867,2.867l-6.669,6.669a2.027,2.027,0,0,1-2.867,0Z" transform="translate(-140.034 -151.407)" fill="#fff" fill-rule="evenodd"/>
      </g>
      <g id="Grupo_1100584" data-name="Grupo 1100584" transform="translate(10 0)">
        <path id="Trazado_876747" data-name="Trazado 876747" d="M47.532,26.483a2.376,2.376,0,0,0-1.033.235,2.375,2.375,0,0,0-.675-.774,18.786,18.786,0,0,0,1.485-7.289A18.578,18.578,0,0,0,44.254,8.423a.811.811,0,0,0-1.356.891,16.958,16.958,0,0,1,2.789,9.341,17.148,17.148,0,0,1-1.428,6.825,2.372,2.372,0,0,0-.868.222,2.373,2.373,0,0,0-.659-.782A15.409,15.409,0,1,0,15.4,26.51a.811.811,0,0,0,1.395-.828,13.79,13.79,0,1,1,24.383-1.25,2.381,2.381,0,0,0-.642.116V21.261a2.465,2.465,0,0,0-4.931,0v8.658a2.162,2.162,0,0,0-.973,1.163,13.79,13.79,0,0,1-13-.562.811.811,0,1,0-.828,1.395,15.4,15.4,0,0,0,13.824.945c.011.044.02.088.033.133l0,.013.412,1.426A17.032,17.032,0,1,1,28.655,1.622,16.956,16.956,0,0,1,38,4.411a.811.811,0,1,0,.891-1.356,18.655,18.655,0,0,0-23.423,28.79A18.652,18.652,0,0,0,35.525,36l.587,2.032v1.6a1.909,1.909,0,0,0,1.914,1.9H46.3a1.909,1.909,0,0,0,1.914-1.9V38.189l.834-1.091a4,4,0,0,0,.859-2.868V28.837a2.366,2.366,0,0,0-2.373-2.353Zm.751,7.746a2.44,2.44,0,0,1-.526,1.883l-1,1.309a.811.811,0,0,0-.167.492v1.713a.289.289,0,0,1-.292.277H38.026a.289.289,0,0,1-.292-.277V37.915a.809.809,0,0,0-.032-.225l-1.482-5.129c-.264-.98.031-1.148.247-1.271l.345-.2a.811.811,0,0,0,.41-.7V21.261a.843.843,0,0,1,1.686,0v7.207a.811.811,0,1,0,1.622,0V26.78a.752.752,0,0,1,1.5,0v1.048a.811.811,0,1,0,1.622,0,.752.752,0,0,1,1.5,0v1.008a.811.811,0,1,0,1.622,0,.752.752,0,0,1,1.5,0Z" transform="translate(-10 0)" fill="#4529c7"/>
        <path id="Trazado_876748" data-name="Trazado 876748" d="M386.378,66.06a.811.811,0,0,0,.574-1.385h0a.811.811,0,1,0-.573,1.385Z" transform="translate(-355.106 -59.211)" fill="#4529c7"/>
        <path id="Trazado_876749" data-name="Trazado 876749" d="M103.536,348.9a.811.811,0,0,0,.623-1.33h0a.811.811,0,1,0-.622,1.331Z" transform="translate(-95.204 -319.114)" fill="#4529c7"/>
        <path id="Trazado_876750" data-name="Trazado 876750" d="M145.234,165.419a2.839,2.839,0,0,0,4.014,0l6.669-6.669a2.839,2.839,0,0,0-4.014-4.014l-4.662,4.662-1.766-1.766a2.839,2.839,0,0,0-4.014,4.014Zm-2.626-6.64a1.218,1.218,0,0,1,1.72,0l2.339,2.34a.811.811,0,0,0,1.147,0l5.236-5.236a1.216,1.216,0,1,1,1.72,1.72l-6.669,6.67a1.218,1.218,0,0,1-1.72,0l-3.773-3.773A1.218,1.218,0,0,1,142.608,158.779Z" transform="translate(-130.035 -141.422)" fill="#4529c7"/>
      </g>
    </g>
  </g>
</svg>
